%TF.GenerationSoftware,KiCad,Pcbnew,7.0.2-6a45011f42~172~ubuntu22.04.1*%
%TF.CreationDate,2023-05-03T21:07:20-04:00*%
%TF.ProjectId,RP2040_DevBoard_v2,52503230-3430-45f4-9465-76426f617264,-*%
%TF.SameCoordinates,Original*%
%TF.FileFunction,Soldermask,Bot*%
%TF.FilePolarity,Negative*%
%FSLAX46Y46*%
G04 Gerber Fmt 4.6, Leading zero omitted, Abs format (unit mm)*
G04 Created by KiCad (PCBNEW 7.0.2-6a45011f42~172~ubuntu22.04.1) date 2023-05-03 21:07:20*
%MOMM*%
%LPD*%
G01*
G04 APERTURE LIST*
G04 Aperture macros list*
%AMRoundRect*
0 Rectangle with rounded corners*
0 $1 Rounding radius*
0 $2 $3 $4 $5 $6 $7 $8 $9 X,Y pos of 4 corners*
0 Add a 4 corners polygon primitive as box body*
4,1,4,$2,$3,$4,$5,$6,$7,$8,$9,$2,$3,0*
0 Add four circle primitives for the rounded corners*
1,1,$1+$1,$2,$3*
1,1,$1+$1,$4,$5*
1,1,$1+$1,$6,$7*
1,1,$1+$1,$8,$9*
0 Add four rect primitives between the rounded corners*
20,1,$1+$1,$2,$3,$4,$5,0*
20,1,$1+$1,$4,$5,$6,$7,0*
20,1,$1+$1,$6,$7,$8,$9,0*
20,1,$1+$1,$8,$9,$2,$3,0*%
G04 Aperture macros list end*
%ADD10RoundRect,0.050800X-0.850000X-0.850000X0.850000X-0.850000X0.850000X0.850000X-0.850000X0.850000X0*%
%ADD11O,1.801600X1.801600*%
%ADD12C,0.650000*%
%ADD13O,1.101600X2.201600*%
%ADD14O,1.101600X1.901600*%
%ADD15RoundRect,0.288300X0.237500X-0.300000X0.237500X0.300000X-0.237500X0.300000X-0.237500X-0.300000X0*%
%ADD16RoundRect,0.288300X-0.237500X0.300000X-0.237500X-0.300000X0.237500X-0.300000X0.237500X0.300000X0*%
%ADD17RoundRect,0.288300X-0.300000X-0.237500X0.300000X-0.237500X0.300000X0.237500X-0.300000X0.237500X0*%
%ADD18RoundRect,0.288300X0.300000X0.237500X-0.300000X0.237500X-0.300000X-0.237500X0.300000X-0.237500X0*%
%ADD19RoundRect,0.300800X-0.475000X0.337500X-0.475000X-0.337500X0.475000X-0.337500X0.475000X0.337500X0*%
%ADD20RoundRect,0.200800X0.512500X0.150000X-0.512500X0.150000X-0.512500X-0.150000X0.512500X-0.150000X0*%
%ADD21RoundRect,0.200800X-0.650000X-0.150000X0.650000X-0.150000X0.650000X0.150000X-0.650000X0.150000X0*%
G04 APERTURE END LIST*
D10*
%TO.C,J2*%
X156210000Y-98425000D03*
D11*
X156210000Y-100965000D03*
X156210000Y-103505000D03*
X156210000Y-106045000D03*
X156210000Y-108585000D03*
X156210000Y-111125000D03*
X156210000Y-113665000D03*
X156210000Y-116205000D03*
X156210000Y-118745000D03*
X156210000Y-121285000D03*
X156210000Y-123825000D03*
X156210000Y-126365000D03*
X156210000Y-128905000D03*
X156210000Y-131445000D03*
X156210000Y-133985000D03*
X156210000Y-136525000D03*
%TD*%
D10*
%TO.C,J1*%
X179070000Y-98425000D03*
D11*
X179070000Y-100965000D03*
X179070000Y-103505000D03*
X179070000Y-106045000D03*
X179070000Y-108585000D03*
X179070000Y-111125000D03*
X179070000Y-113665000D03*
X179070000Y-116205000D03*
X179070000Y-118745000D03*
X179070000Y-121285000D03*
X179070000Y-123825000D03*
X179070000Y-126365000D03*
X179070000Y-128905000D03*
X179070000Y-131445000D03*
X179070000Y-133985000D03*
X179070000Y-136525000D03*
%TD*%
D12*
%TO.C,J3*%
X170530000Y-95950000D03*
X164750000Y-95950000D03*
D13*
X171960000Y-96450000D03*
D14*
X171960000Y-92270000D03*
D13*
X163320000Y-96450000D03*
D14*
X163320000Y-92270000D03*
%TD*%
D15*
%TO.C,C10*%
X169113200Y-125095000D03*
X169113200Y-123370000D03*
%TD*%
%TO.C,C8*%
X158750000Y-116355200D03*
X158750000Y-114630200D03*
%TD*%
D16*
%TO.C,C13*%
X169519600Y-113461800D03*
X169519600Y-115186800D03*
%TD*%
D17*
%TO.C,C3*%
X173890600Y-115900200D03*
X175615600Y-115900200D03*
%TD*%
D15*
%TO.C,C11*%
X170637200Y-126464400D03*
X170637200Y-124739400D03*
%TD*%
D17*
%TO.C,C2*%
X173889500Y-112852200D03*
X175614500Y-112852200D03*
%TD*%
D18*
%TO.C,C9*%
X164895700Y-112445800D03*
X163170700Y-112445800D03*
%TD*%
D19*
%TO.C,C14*%
X170891200Y-100943500D03*
X170891200Y-103018500D03*
%TD*%
D15*
%TO.C,C7*%
X172212000Y-126466600D03*
X172212000Y-124741600D03*
%TD*%
D17*
%TO.C,C15*%
X173889500Y-117424200D03*
X175614500Y-117424200D03*
%TD*%
D20*
%TO.C,U1*%
X168910000Y-100015000D03*
X168910000Y-100965000D03*
X168910000Y-101915000D03*
X166635000Y-101915000D03*
X166635000Y-100015000D03*
%TD*%
D19*
%TO.C,C18*%
X164668200Y-100968900D03*
X164668200Y-103043900D03*
%TD*%
D17*
%TO.C,C5*%
X173890600Y-109804200D03*
X175615600Y-109804200D03*
%TD*%
D21*
%TO.C,U3*%
X164040000Y-110490000D03*
X164040000Y-109220000D03*
X164040000Y-107950000D03*
X164040000Y-106680000D03*
X171240000Y-106680000D03*
X171240000Y-107950000D03*
X171240000Y-109220000D03*
X171240000Y-110490000D03*
%TD*%
D15*
%TO.C,C12*%
X160172400Y-111175800D03*
X160172400Y-109450800D03*
%TD*%
D17*
%TO.C,C1*%
X173888400Y-114376200D03*
X175613400Y-114376200D03*
%TD*%
D16*
%TO.C,C6*%
X167995600Y-113464000D03*
X167995600Y-115189000D03*
%TD*%
D17*
%TO.C,C4*%
X173889500Y-111328200D03*
X175614500Y-111328200D03*
%TD*%
M02*
