M48
; DRILL file {KiCad 7.0.2-6a45011f42~172~ubuntu22.04.1} date Sat 29 Apr 2023 12:33:08 AM EDT
; FORMAT={-:-/ absolute / inch / decimal}
; #@! TF.CreationDate,2023-04-29T00:33:08-04:00
; #@! TF.GenerationSoftware,Kicad,Pcbnew,7.0.2-6a45011f42~172~ubuntu22.04.1
; #@! TF.FileFunction,MixedPlating,1,2
FMAT,2
INCH
; #@! TA.AperFunction,Plated,PTH,ViaDrill
T1C0.0130
; #@! TA.AperFunction,Plated,PTH,ViaDrill
T2C0.0140
; #@! TA.AperFunction,Plated,PTH,ComponentDrill
T3C0.0236
; #@! TA.AperFunction,Plated,PTH,ComponentDrill
T4C0.0394
; #@! TA.AperFunction,NonPlated,NPTH,ComponentDrill
T5C0.0256
%
G90
G05
T1
X6.25Y-4.637
X6.418Y-4.071
X6.8049Y-5.0531
T2
X6.1281Y-3.6094
X6.1281Y-3.6594
X6.1281Y-3.7094
X6.1281Y-3.7594
X6.1281Y-3.8094
X6.1781Y-3.6094
X6.1781Y-3.6594
X6.1781Y-3.7094
X6.1781Y-3.7594
X6.1781Y-3.8094
X6.2281Y-3.6094
X6.2281Y-3.6594
X6.2281Y-5.4094
X6.25Y-3.877
X6.254Y-4.743
X6.275Y-5.175
X6.2781Y-3.6594
X6.2781Y-3.7594
X6.2781Y-3.8094
X6.2781Y-5.4094
X6.28Y-5.126
X6.303Y-5.101
X6.306Y-4.429
X6.326Y-5.125
X6.328Y-5.309
X6.3281Y-3.6594
X6.3281Y-3.7594
X6.3281Y-3.8094
X6.3281Y-4.0094
X6.3281Y-5.4094
X6.356Y-5.049
X6.3596Y-4.3204
X6.369Y-4.397
X6.378Y-5.261
X6.3781Y-3.6094
X6.3781Y-3.6594
X6.3781Y-3.7594
X6.3781Y-3.8094
X6.3781Y-3.8594
X6.3781Y-5.3094
X6.3781Y-5.3594
X6.3781Y-5.4094
X6.384Y-4.266
X6.405Y-3.95
X6.428Y-5.209
X6.4281Y-5.2594
X6.4281Y-5.3094
X6.4281Y-5.3594
X6.4281Y-5.4094
X6.457Y-5.045
X6.478Y-5.159
X6.4781Y-3.6094
X6.4781Y-3.6594
X6.4781Y-4.1594
X6.4781Y-5.2094
X6.4781Y-5.2594
X6.4781Y-5.3094
X6.4781Y-5.3594
X6.4781Y-5.4094
X6.5281Y-3.6094
X6.5281Y-3.6594
X6.5281Y-4.1594
X6.5281Y-4.2094
X6.5281Y-5.4094
X6.532Y-4.259
X6.536Y-4.967
X6.543Y-4.295
X6.545Y-5.024
X6.545Y-5.057
X6.548Y-4.577
X6.548Y-4.673
X6.554Y-4.335
X6.565Y-4.379
X6.5781Y-3.6094
X6.5781Y-3.6594
X6.5781Y-4.0594
X6.5781Y-4.1594
X6.5781Y-5.1594
X6.5781Y-5.2094
X6.5781Y-5.4094
X6.6125Y-4.4155
X6.625Y-4.98
X6.6281Y-3.6094
X6.6281Y-3.6594
X6.6281Y-5.2094
X6.644Y-4.673
X6.646Y-4.577
X6.661Y-4.98
X6.6615Y-5.027
X6.677Y-4.414
X6.6781Y-3.6094
X6.6781Y-3.6594
X6.6781Y-5.2094
X6.685Y-5.058
X6.715Y-4.414
X6.7281Y-3.6094
X6.7281Y-3.6594
X6.7281Y-4.1594
X6.7281Y-4.7594
X6.7281Y-5.2094
X6.733Y-5.052
X6.751Y-4.414
X6.776Y-5.209
X6.7781Y-4.0094
X6.7781Y-4.0594
X6.7781Y-4.1594
X6.7781Y-4.7594
X6.791Y-4.503
X6.824Y-4.909
X6.824Y-4.959
X6.8281Y-3.6094
X6.8281Y-3.6594
X6.8281Y-3.8094
X6.8281Y-4.0094
X6.8281Y-4.0594
X6.8281Y-4.7594
X6.8781Y-3.6594
X6.8781Y-3.9594
X6.8781Y-4.0094
X6.8781Y-4.1594
X6.8781Y-4.2094
X6.8781Y-4.7594
X6.8781Y-4.8094
X6.8781Y-4.8594
X6.8781Y-4.9094
X6.8781Y-4.9594
X6.8781Y-5.0094
X6.8781Y-5.4094
X6.894Y-3.784
X6.9281Y-4.1094
X6.9281Y-4.1594
X6.9281Y-4.2094
X6.9281Y-4.2594
X6.9281Y-4.9594
X6.9281Y-5.0094
X6.9281Y-5.3094
X6.9281Y-5.3594
X6.9281Y-5.4094
X6.9441Y-4.6721
X6.9484Y-4.7056
X6.9781Y-3.6094
X6.9781Y-3.7094
X6.9781Y-3.7594
X6.9781Y-3.8094
X7.0281Y-3.6094
X7.0281Y-3.7094
T4
X6.15Y-3.875
X6.15Y-3.975
X6.15Y-4.075
X6.15Y-4.175
X6.15Y-4.275
X6.15Y-4.375
X6.15Y-4.475
X6.15Y-4.575
X6.15Y-4.675
X6.15Y-4.775
X6.15Y-4.875
X6.15Y-4.975
X6.15Y-5.075
X6.15Y-5.175
X6.15Y-5.275
X6.15Y-5.375
X7.05Y-3.875
X7.05Y-3.975
X7.05Y-4.075
X7.05Y-4.175
X7.05Y-4.275
X7.05Y-4.375
X7.05Y-4.475
X7.05Y-4.575
X7.05Y-4.675
X7.05Y-4.775
X7.05Y-4.875
X7.05Y-4.975
X7.05Y-5.075
X7.05Y-5.175
X7.05Y-5.275
X7.05Y-5.375
T5
X6.4862Y-3.7776
X6.7138Y-3.7776
T3
G00X6.4299Y-3.6484
M15
G01X6.4299Y-3.6169
M16
G05
G00X6.4299Y-3.8189
M15
G01X6.4299Y-3.7756
M16
G05
G00X6.7701Y-3.6484
M15
G01X6.7701Y-3.6169
M16
G05
G00X6.7701Y-3.8189
M15
G01X6.7701Y-3.7756
M16
G05
T0
M30
