%TF.GenerationSoftware,KiCad,Pcbnew,7.0.2-6a45011f42~172~ubuntu22.04.1*%
%TF.CreationDate,2023-05-03T21:07:19-04:00*%
%TF.ProjectId,RP2040_DevBoard_v2,52503230-3430-45f4-9465-76426f617264,-*%
%TF.SameCoordinates,Original*%
%TF.FileFunction,Paste,Top*%
%TF.FilePolarity,Positive*%
%FSLAX46Y46*%
G04 Gerber Fmt 4.6, Leading zero omitted, Abs format (unit mm)*
G04 Created by KiCad (PCBNEW 7.0.2-6a45011f42~172~ubuntu22.04.1) date 2023-05-03 21:07:19*
%MOMM*%
%LPD*%
G01*
G04 APERTURE LIST*
G04 Aperture macros list*
%AMRoundRect*
0 Rectangle with rounded corners*
0 $1 Rounding radius*
0 $2 $3 $4 $5 $6 $7 $8 $9 X,Y pos of 4 corners*
0 Add a 4 corners polygon primitive as box body*
4,1,4,$2,$3,$4,$5,$6,$7,$8,$9,$2,$3,0*
0 Add four circle primitives for the rounded corners*
1,1,$1+$1,$2,$3*
1,1,$1+$1,$4,$5*
1,1,$1+$1,$6,$7*
1,1,$1+$1,$8,$9*
0 Add four rect primitives between the rounded corners*
20,1,$1+$1,$2,$3,$4,$5,0*
20,1,$1+$1,$4,$5,$6,$7,0*
20,1,$1+$1,$6,$7,$8,$9,0*
20,1,$1+$1,$8,$9,$2,$3,0*%
G04 Aperture macros list end*
%ADD10RoundRect,0.237500X-0.237500X0.250000X-0.237500X-0.250000X0.237500X-0.250000X0.237500X0.250000X0*%
%ADD11R,1.500000X1.500000*%
%ADD12R,1.600000X1.000000*%
%ADD13RoundRect,0.237500X0.237500X-0.250000X0.237500X0.250000X-0.237500X0.250000X-0.237500X-0.250000X0*%
%ADD14R,0.600000X1.150000*%
%ADD15R,0.300000X1.150000*%
%ADD16RoundRect,0.237500X-0.250000X-0.237500X0.250000X-0.237500X0.250000X0.237500X-0.250000X0.237500X0*%
%ADD17R,2.100000X1.800000*%
%ADD18RoundRect,0.250000X0.250000X-0.250000X0.250000X0.250000X-0.250000X0.250000X-0.250000X-0.250000X0*%
%ADD19RoundRect,0.250000X-0.285000X-0.285000X0.285000X-0.285000X0.285000X0.285000X-0.285000X0.285000X0*%
%ADD20RoundRect,0.050000X-0.350000X-0.050000X0.350000X-0.050000X0.350000X0.050000X-0.350000X0.050000X0*%
%ADD21RoundRect,0.050000X-0.050000X-0.350000X0.050000X-0.350000X0.050000X0.350000X-0.050000X0.350000X0*%
%ADD22RoundRect,0.237500X0.250000X0.237500X-0.250000X0.237500X-0.250000X-0.237500X0.250000X-0.237500X0*%
%ADD23RoundRect,0.237500X0.237500X-0.300000X0.237500X0.300000X-0.237500X0.300000X-0.237500X-0.300000X0*%
%ADD24RoundRect,0.250000X-0.250000X0.250000X-0.250000X-0.250000X0.250000X-0.250000X0.250000X0.250000X0*%
%ADD25RoundRect,0.237500X-0.237500X0.300000X-0.237500X-0.300000X0.237500X-0.300000X0.237500X0.300000X0*%
G04 APERTURE END LIST*
D10*
%TO.C,R4*%
X162585400Y-104700700D03*
X162585400Y-106525700D03*
%TD*%
D11*
%TO.C,SW1*%
X160172400Y-98669600D03*
X160172400Y-90869600D03*
%TD*%
D12*
%TO.C,D2*%
X159425000Y-122961600D03*
X159425000Y-126161600D03*
X164425000Y-126161600D03*
X164425000Y-122961600D03*
%TD*%
D13*
%TO.C,R1*%
X161010600Y-106525700D03*
X161010600Y-104700700D03*
%TD*%
%TO.C,R7*%
X169545000Y-111125000D03*
X169545000Y-109300000D03*
%TD*%
%TO.C,R8*%
X168051000Y-111125000D03*
X168051000Y-109300000D03*
%TD*%
D14*
%TO.C,J3*%
X170840000Y-97025000D03*
X170040000Y-97025000D03*
D15*
X168890000Y-97025000D03*
X167890000Y-97025000D03*
X167390000Y-97025000D03*
X166390000Y-97025000D03*
D14*
X165240000Y-97025000D03*
X164440000Y-97025000D03*
X164440000Y-97025000D03*
X165240000Y-97025000D03*
D15*
X165890000Y-97025000D03*
X166890000Y-97025000D03*
X168390000Y-97025000D03*
X169390000Y-97025000D03*
D14*
X170040000Y-97025000D03*
X170840000Y-97025000D03*
%TD*%
D11*
%TO.C,SW2*%
X175107600Y-98655800D03*
X175107600Y-90855800D03*
%TD*%
D10*
%TO.C,R3*%
X174371000Y-130913500D03*
X174371000Y-132738500D03*
%TD*%
D16*
%TO.C,R5*%
X170180000Y-100330000D03*
X172005000Y-100330000D03*
%TD*%
D17*
%TO.C,Y1*%
X169238000Y-136405000D03*
X172138000Y-136405000D03*
X172138000Y-134105000D03*
X169238000Y-134105000D03*
%TD*%
D18*
%TO.C,D3*%
X179070000Y-95357000D03*
X179070000Y-92857000D03*
%TD*%
D19*
%TO.C,U2*%
X166250000Y-116145000D03*
X166250000Y-117475000D03*
X166250000Y-118805000D03*
X167580000Y-116145000D03*
X167580000Y-117475000D03*
X167580000Y-118805000D03*
X168910000Y-116145000D03*
X168910000Y-117475000D03*
X168910000Y-118805000D03*
D20*
X164130000Y-114875000D03*
X164130000Y-115275000D03*
X164130000Y-115675000D03*
X164130000Y-116075000D03*
X164130000Y-116475000D03*
X164130000Y-116875000D03*
X164130000Y-117275000D03*
X164130000Y-117675000D03*
X164130000Y-118075000D03*
X164130000Y-118475000D03*
X164130000Y-118875000D03*
X164130000Y-119275000D03*
X164130000Y-119675000D03*
X164130000Y-120075000D03*
D21*
X164980000Y-120925000D03*
X165380000Y-120925000D03*
X165780000Y-120925000D03*
X166180000Y-120925000D03*
X166580000Y-120925000D03*
X166980000Y-120925000D03*
X167380000Y-120925000D03*
X167780000Y-120925000D03*
X168180000Y-120925000D03*
X168580000Y-120925000D03*
X168980000Y-120925000D03*
X169380000Y-120925000D03*
X169780000Y-120925000D03*
X170180000Y-120925000D03*
D20*
X171030000Y-120075000D03*
X171030000Y-119675000D03*
X171030000Y-119275000D03*
X171030000Y-118875000D03*
X171030000Y-118475000D03*
X171030000Y-118075000D03*
X171030000Y-117675000D03*
X171030000Y-117275000D03*
X171030000Y-116875000D03*
X171030000Y-116475000D03*
X171030000Y-116075000D03*
X171030000Y-115675000D03*
X171030000Y-115275000D03*
X171030000Y-114875000D03*
D21*
X170180000Y-114025000D03*
X169780000Y-114025000D03*
X169380000Y-114025000D03*
X168980000Y-114025000D03*
X168580000Y-114025000D03*
X168180000Y-114025000D03*
X167780000Y-114025000D03*
X167380000Y-114025000D03*
X166980000Y-114025000D03*
X166580000Y-114025000D03*
X166180000Y-114025000D03*
X165780000Y-114025000D03*
X165380000Y-114025000D03*
X164980000Y-114025000D03*
%TD*%
D22*
%TO.C,R2*%
X172845100Y-129413000D03*
X171020100Y-129413000D03*
%TD*%
%TO.C,R6*%
X165862000Y-100330000D03*
X164037000Y-100330000D03*
%TD*%
D23*
%TO.C,C16*%
X167005000Y-136117500D03*
X167005000Y-134392500D03*
%TD*%
D24*
%TO.C,D1*%
X160985200Y-100527800D03*
X160985200Y-103027800D03*
%TD*%
D25*
%TO.C,C17*%
X174371000Y-134392500D03*
X174371000Y-136117500D03*
%TD*%
M02*
