%TF.GenerationSoftware,KiCad,Pcbnew,7.0.2-6a45011f42~172~ubuntu22.04.1*%
%TF.CreationDate,2023-05-03T21:07:19-04:00*%
%TF.ProjectId,RP2040_DevBoard_v2,52503230-3430-45f4-9465-76426f617264,-*%
%TF.SameCoordinates,Original*%
%TF.FileFunction,Copper,L1,Top*%
%TF.FilePolarity,Positive*%
%FSLAX46Y46*%
G04 Gerber Fmt 4.6, Leading zero omitted, Abs format (unit mm)*
G04 Created by KiCad (PCBNEW 7.0.2-6a45011f42~172~ubuntu22.04.1) date 2023-05-03 21:07:19*
%MOMM*%
%LPD*%
G01*
G04 APERTURE LIST*
G04 Aperture macros list*
%AMRoundRect*
0 Rectangle with rounded corners*
0 $1 Rounding radius*
0 $2 $3 $4 $5 $6 $7 $8 $9 X,Y pos of 4 corners*
0 Add a 4 corners polygon primitive as box body*
4,1,4,$2,$3,$4,$5,$6,$7,$8,$9,$2,$3,0*
0 Add four circle primitives for the rounded corners*
1,1,$1+$1,$2,$3*
1,1,$1+$1,$4,$5*
1,1,$1+$1,$6,$7*
1,1,$1+$1,$8,$9*
0 Add four rect primitives between the rounded corners*
20,1,$1+$1,$2,$3,$4,$5,0*
20,1,$1+$1,$4,$5,$6,$7,0*
20,1,$1+$1,$6,$7,$8,$9,0*
20,1,$1+$1,$8,$9,$2,$3,0*%
G04 Aperture macros list end*
%TA.AperFunction,ComponentPad*%
%ADD10R,1.700000X1.700000*%
%TD*%
%TA.AperFunction,ComponentPad*%
%ADD11O,1.700000X1.700000*%
%TD*%
%TA.AperFunction,SMDPad,CuDef*%
%ADD12RoundRect,0.237500X-0.237500X0.250000X-0.237500X-0.250000X0.237500X-0.250000X0.237500X0.250000X0*%
%TD*%
%TA.AperFunction,SMDPad,CuDef*%
%ADD13R,1.500000X1.500000*%
%TD*%
%TA.AperFunction,SMDPad,CuDef*%
%ADD14R,1.600000X1.000000*%
%TD*%
%TA.AperFunction,SMDPad,CuDef*%
%ADD15RoundRect,0.237500X0.237500X-0.250000X0.237500X0.250000X-0.237500X0.250000X-0.237500X-0.250000X0*%
%TD*%
%TA.AperFunction,SMDPad,CuDef*%
%ADD16R,0.600000X1.150000*%
%TD*%
%TA.AperFunction,SMDPad,CuDef*%
%ADD17R,0.300000X1.150000*%
%TD*%
%TA.AperFunction,ComponentPad*%
%ADD18O,1.000000X2.100000*%
%TD*%
%TA.AperFunction,ComponentPad*%
%ADD19O,1.000000X1.800000*%
%TD*%
%TA.AperFunction,SMDPad,CuDef*%
%ADD20RoundRect,0.237500X-0.250000X-0.237500X0.250000X-0.237500X0.250000X0.237500X-0.250000X0.237500X0*%
%TD*%
%TA.AperFunction,SMDPad,CuDef*%
%ADD21R,2.100000X1.800000*%
%TD*%
%TA.AperFunction,SMDPad,CuDef*%
%ADD22RoundRect,0.250000X0.250000X-0.250000X0.250000X0.250000X-0.250000X0.250000X-0.250000X-0.250000X0*%
%TD*%
%TA.AperFunction,SMDPad,CuDef*%
%ADD23RoundRect,0.050000X-0.350000X-0.050000X0.350000X-0.050000X0.350000X0.050000X-0.350000X0.050000X0*%
%TD*%
%TA.AperFunction,SMDPad,CuDef*%
%ADD24RoundRect,0.050000X-0.050000X-0.350000X0.050000X-0.350000X0.050000X0.350000X-0.050000X0.350000X0*%
%TD*%
%TA.AperFunction,SMDPad,CuDef*%
%ADD25R,4.000000X4.000000*%
%TD*%
%TA.AperFunction,SMDPad,CuDef*%
%ADD26RoundRect,0.237500X0.250000X0.237500X-0.250000X0.237500X-0.250000X-0.237500X0.250000X-0.237500X0*%
%TD*%
%TA.AperFunction,SMDPad,CuDef*%
%ADD27RoundRect,0.237500X0.237500X-0.300000X0.237500X0.300000X-0.237500X0.300000X-0.237500X-0.300000X0*%
%TD*%
%TA.AperFunction,SMDPad,CuDef*%
%ADD28RoundRect,0.250000X-0.250000X0.250000X-0.250000X-0.250000X0.250000X-0.250000X0.250000X0.250000X0*%
%TD*%
%TA.AperFunction,SMDPad,CuDef*%
%ADD29RoundRect,0.237500X-0.237500X0.300000X-0.237500X-0.300000X0.237500X-0.300000X0.237500X0.300000X0*%
%TD*%
%TA.AperFunction,ViaPad*%
%ADD30C,0.685800*%
%TD*%
%TA.AperFunction,Conductor*%
%ADD31C,0.203200*%
%TD*%
%TA.AperFunction,Conductor*%
%ADD32C,0.381000*%
%TD*%
%TA.AperFunction,Conductor*%
%ADD33C,0.762000*%
%TD*%
%TA.AperFunction,Conductor*%
%ADD34C,0.812800*%
%TD*%
G04 APERTURE END LIST*
D10*
%TO.P,J2,1,Pin_1*%
%TO.N,GPIO0*%
X156210000Y-98425000D03*
D11*
%TO.P,J2,2,Pin_2*%
%TO.N,GPIO1*%
X156210000Y-100965000D03*
%TO.P,J2,3,Pin_3*%
%TO.N,GPIO2*%
X156210000Y-103505000D03*
%TO.P,J2,4,Pin_4*%
%TO.N,MOSI*%
X156210000Y-106045000D03*
%TO.P,J2,5,Pin_5*%
%TO.N,MISO*%
X156210000Y-108585000D03*
%TO.P,J2,6,Pin_6*%
%TO.N,RX*%
X156210000Y-111125000D03*
%TO.P,J2,7,Pin_7*%
%TO.N,SCK*%
X156210000Y-113665000D03*
%TO.P,J2,8,Pin_8*%
%TO.N,GPIO7*%
X156210000Y-116205000D03*
%TO.P,J2,9,Pin_9*%
%TO.N,GPIO8*%
X156210000Y-118745000D03*
%TO.P,J2,10,Pin_10*%
%TO.N,GPIO9*%
X156210000Y-121285000D03*
%TO.P,J2,11,Pin_11*%
%TO.N,GPIO10*%
X156210000Y-123825000D03*
%TO.P,J2,12,Pin_12*%
%TO.N,GPIO13*%
X156210000Y-126365000D03*
%TO.P,J2,13,Pin_13*%
%TO.N,GPIO14*%
X156210000Y-128905000D03*
%TO.P,J2,14,Pin_14*%
%TO.N,GPIO15*%
X156210000Y-131445000D03*
%TO.P,J2,15,Pin_15*%
%TO.N,SWCLK*%
X156210000Y-133985000D03*
%TO.P,J2,16,Pin_16*%
%TO.N,SWDIO*%
X156210000Y-136525000D03*
%TD*%
D12*
%TO.P,R4,1*%
%TO.N,+3.3V*%
X162585400Y-104700700D03*
%TO.P,R4,2*%
%TO.N,QSPI_CS*%
X162585400Y-106525700D03*
%TD*%
D13*
%TO.P,SW1,1,A*%
%TO.N,USBBOOT*%
X160172400Y-98669600D03*
%TO.P,SW1,2,B*%
%TO.N,GND*%
X160172400Y-90869600D03*
%TD*%
D14*
%TO.P,D2,1,VDD*%
%TO.N,NEO_PWR*%
X159425000Y-122961600D03*
%TO.P,D2,2,DOUT*%
%TO.N,unconnected-(D2-DOUT-Pad2)*%
X159425000Y-126161600D03*
%TO.P,D2,3,VSS*%
%TO.N,GND*%
X164425000Y-126161600D03*
%TO.P,D2,4,DI*%
%TO.N,NEOPIX*%
X164425000Y-122961600D03*
%TD*%
D15*
%TO.P,R1,1*%
%TO.N,QSPI_CS*%
X161010600Y-106525700D03*
%TO.P,R1,2*%
%TO.N,Net-(D1-A)*%
X161010600Y-104700700D03*
%TD*%
%TO.P,R7,1*%
%TO.N,D-*%
X169545000Y-111125000D03*
%TO.P,R7,2*%
%TO.N,/USB D-*%
X169545000Y-109300000D03*
%TD*%
D10*
%TO.P,J1,1,Pin_1*%
%TO.N,+5V*%
X179070000Y-98425000D03*
D11*
%TO.P,J1,2,Pin_2*%
%TO.N,+3.3V*%
X179070000Y-100965000D03*
%TO.P,J1,3,Pin_3*%
%TO.N,GND*%
X179070000Y-103505000D03*
%TO.P,J1,4,Pin_4*%
%TO.N,A3*%
X179070000Y-106045000D03*
%TO.P,J1,5,Pin_5*%
%TO.N,A2*%
X179070000Y-108585000D03*
%TO.P,J1,6,Pin_6*%
%TO.N,A1*%
X179070000Y-111125000D03*
%TO.P,J1,7,Pin_7*%
%TO.N,A0*%
X179070000Y-113665000D03*
%TO.P,J1,8,Pin_8*%
%TO.N,SCL*%
X179070000Y-116205000D03*
%TO.P,J1,9,Pin_9*%
%TO.N,SDA*%
X179070000Y-118745000D03*
%TO.P,J1,10,Pin_10*%
%TO.N,SCL1*%
X179070000Y-121285000D03*
%TO.P,J1,11,Pin_11*%
%TO.N,SDA1*%
X179070000Y-123825000D03*
%TO.P,J1,12,Pin_12*%
%TO.N,TX*%
X179070000Y-126365000D03*
%TO.P,J1,13,Pin_13*%
%TO.N,GPIO19*%
X179070000Y-128905000D03*
%TO.P,J1,14,Pin_14*%
%TO.N,GPIO18*%
X179070000Y-131445000D03*
%TO.P,J1,15,Pin_15*%
%TO.N,GPIO17*%
X179070000Y-133985000D03*
%TO.P,J1,16,Pin_16*%
%TO.N,GPIO16*%
X179070000Y-136525000D03*
%TD*%
D15*
%TO.P,R8,1*%
%TO.N,D+*%
X168051000Y-111125000D03*
%TO.P,R8,2*%
%TO.N,/USB D+*%
X168051000Y-109300000D03*
%TD*%
D16*
%TO.P,J3,A1,GND*%
%TO.N,GND*%
X170840000Y-97025000D03*
%TO.P,J3,A4,VBUS*%
%TO.N,Net-(D3-A)*%
X170040000Y-97025000D03*
D17*
%TO.P,J3,A5,CC1*%
%TO.N,Net-(J3-CC1)*%
X168890000Y-97025000D03*
%TO.P,J3,A6,D+*%
%TO.N,/USB D+*%
X167890000Y-97025000D03*
%TO.P,J3,A7,D-*%
%TO.N,/USB D-*%
X167390000Y-97025000D03*
%TO.P,J3,A8,SBU1*%
%TO.N,unconnected-(J3-SBU1-PadA8)*%
X166390000Y-97025000D03*
D16*
%TO.P,J3,A9,VBUS*%
%TO.N,Net-(D3-A)*%
X165240000Y-97025000D03*
%TO.P,J3,A12,GND*%
%TO.N,GND*%
X164440000Y-97025000D03*
%TO.P,J3,B1,GND*%
X164440000Y-97025000D03*
%TO.P,J3,B4,VBUS*%
%TO.N,Net-(D3-A)*%
X165240000Y-97025000D03*
D17*
%TO.P,J3,B5,CC2*%
%TO.N,Net-(J3-CC2)*%
X165890000Y-97025000D03*
%TO.P,J3,B6,D+*%
%TO.N,/USB D+*%
X166890000Y-97025000D03*
%TO.P,J3,B7,D-*%
%TO.N,/USB D-*%
X168390000Y-97025000D03*
%TO.P,J3,B8,SBU2*%
%TO.N,unconnected-(J3-SBU2-PadB8)*%
X169390000Y-97025000D03*
D16*
%TO.P,J3,B9,VBUS*%
%TO.N,Net-(D3-A)*%
X170040000Y-97025000D03*
%TO.P,J3,B12,GND*%
%TO.N,GND*%
X170840000Y-97025000D03*
D18*
%TO.P,J3,S1,SHIELD*%
%TO.N,unconnected-(J3-SHIELD-PadS1)*%
X171960000Y-96450000D03*
D19*
X171960000Y-92270000D03*
D18*
X163320000Y-96450000D03*
D19*
X163320000Y-92270000D03*
%TD*%
D13*
%TO.P,SW2,1,A*%
%TO.N,RESET*%
X175107600Y-98655800D03*
%TO.P,SW2,2,B*%
%TO.N,GND*%
X175107600Y-90855800D03*
%TD*%
D12*
%TO.P,R3,1*%
%TO.N,Net-(U2-XOUT)*%
X174371000Y-130913500D03*
%TO.P,R3,2*%
%TO.N,Net-(C17-Pad1)*%
X174371000Y-132738500D03*
%TD*%
D20*
%TO.P,R5,1*%
%TO.N,Net-(J3-CC1)*%
X170180000Y-100330000D03*
%TO.P,R5,2*%
%TO.N,GND*%
X172005000Y-100330000D03*
%TD*%
D21*
%TO.P,Y1,1,1*%
%TO.N,Net-(U2-XIN)*%
X169238000Y-136405000D03*
%TO.P,Y1,2,2*%
%TO.N,GND*%
X172138000Y-136405000D03*
%TO.P,Y1,3,3*%
%TO.N,Net-(C17-Pad1)*%
X172138000Y-134105000D03*
%TO.P,Y1,4,4*%
%TO.N,GND*%
X169238000Y-134105000D03*
%TD*%
D22*
%TO.P,D3,1,K*%
%TO.N,+5V*%
X179070000Y-95357000D03*
%TO.P,D3,2,A*%
%TO.N,Net-(D3-A)*%
X179070000Y-92857000D03*
%TD*%
D23*
%TO.P,U2,1,IOVDD*%
%TO.N,+3.3V*%
X164130000Y-114875000D03*
%TO.P,U2,2,GPIO0*%
%TO.N,GPIO0*%
X164130000Y-115275000D03*
%TO.P,U2,3,GPIO1*%
%TO.N,GPIO1*%
X164130000Y-115675000D03*
%TO.P,U2,4,GPIO2*%
%TO.N,GPIO2*%
X164130000Y-116075000D03*
%TO.P,U2,5,GPIO3*%
%TO.N,MOSI*%
X164130000Y-116475000D03*
%TO.P,U2,6,GPIO4*%
%TO.N,MISO*%
X164130000Y-116875000D03*
%TO.P,U2,7,GPIO5*%
%TO.N,RX*%
X164130000Y-117275000D03*
%TO.P,U2,8,GPIO6*%
%TO.N,SCK*%
X164130000Y-117675000D03*
%TO.P,U2,9,GPIO7*%
%TO.N,GPIO7*%
X164130000Y-118075000D03*
%TO.P,U2,10,IOVDD*%
%TO.N,+3.3V*%
X164130000Y-118475000D03*
%TO.P,U2,11,GPIO8*%
%TO.N,GPIO8*%
X164130000Y-118875000D03*
%TO.P,U2,12,GPIO9*%
%TO.N,GPIO9*%
X164130000Y-119275000D03*
%TO.P,U2,13,GPIO10*%
%TO.N,GPIO10*%
X164130000Y-119675000D03*
%TO.P,U2,14,GPIO11*%
%TO.N,NEO_PWR*%
X164130000Y-120075000D03*
D24*
%TO.P,U2,15,GPIO12*%
%TO.N,NEOPIX*%
X164980000Y-120925000D03*
%TO.P,U2,16,GPIO13*%
%TO.N,GPIO13*%
X165380000Y-120925000D03*
%TO.P,U2,17,GPIO14*%
%TO.N,GPIO14*%
X165780000Y-120925000D03*
%TO.P,U2,18,GPIO15*%
%TO.N,GPIO15*%
X166180000Y-120925000D03*
%TO.P,U2,19,TESTIN*%
%TO.N,GND*%
X166580000Y-120925000D03*
%TO.P,U2,20,XIN*%
%TO.N,Net-(U2-XIN)*%
X166980000Y-120925000D03*
%TO.P,U2,21,XOUT*%
%TO.N,Net-(U2-XOUT)*%
X167380000Y-120925000D03*
%TO.P,U2,22,IOVDD*%
%TO.N,+3.3V*%
X167780000Y-120925000D03*
%TO.P,U2,23,DVDD*%
%TO.N,+1V2*%
X168180000Y-120925000D03*
%TO.P,U2,24,SWCLK*%
%TO.N,SWCLK*%
X168580000Y-120925000D03*
%TO.P,U2,25,SWDIO*%
%TO.N,SWDIO*%
X168980000Y-120925000D03*
%TO.P,U2,26,/RUN*%
%TO.N,RESET*%
X169380000Y-120925000D03*
%TO.P,U2,27,GPIO16*%
%TO.N,GPIO16*%
X169780000Y-120925000D03*
%TO.P,U2,28,GPIO17*%
%TO.N,GPIO17*%
X170180000Y-120925000D03*
D23*
%TO.P,U2,29,GPIO18*%
%TO.N,GPIO18*%
X171030000Y-120075000D03*
%TO.P,U2,30,GPIO19*%
%TO.N,GPIO19*%
X171030000Y-119675000D03*
%TO.P,U2,31,GPIO20*%
%TO.N,TX*%
X171030000Y-119275000D03*
%TO.P,U2,32,GPIO21*%
%TO.N,USBBOOT*%
X171030000Y-118875000D03*
%TO.P,U2,33,IOVDD*%
%TO.N,+3.3V*%
X171030000Y-118475000D03*
%TO.P,U2,34,GPIO22*%
%TO.N,SDA1*%
X171030000Y-118075000D03*
%TO.P,U2,35,GPIO23*%
%TO.N,SCL1*%
X171030000Y-117675000D03*
%TO.P,U2,36,GPIO24*%
%TO.N,SDA*%
X171030000Y-117275000D03*
%TO.P,U2,37,GPIO25*%
%TO.N,SCL*%
X171030000Y-116875000D03*
%TO.P,U2,38,GPIO26/AD0*%
%TO.N,A0*%
X171030000Y-116475000D03*
%TO.P,U2,39,GPIO27/AD1*%
%TO.N,A1*%
X171030000Y-116075000D03*
%TO.P,U2,40,GPIO28/AD2*%
%TO.N,A2*%
X171030000Y-115675000D03*
%TO.P,U2,41,GPIO29/AD3*%
%TO.N,A3*%
X171030000Y-115275000D03*
%TO.P,U2,42,IOVDD*%
%TO.N,+3.3V*%
X171030000Y-114875000D03*
D24*
%TO.P,U2,43,ADC_AVDD*%
X170180000Y-114025000D03*
%TO.P,U2,44,VREG_VIN*%
X169780000Y-114025000D03*
%TO.P,U2,45,VREG_OUT*%
%TO.N,+1V2*%
X169380000Y-114025000D03*
%TO.P,U2,46,USB_D-*%
%TO.N,D-*%
X168980000Y-114025000D03*
%TO.P,U2,47,USB_D+*%
%TO.N,D+*%
X168580000Y-114025000D03*
%TO.P,U2,48,USB_IOVDD*%
%TO.N,+3.3V*%
X168180000Y-114025000D03*
%TO.P,U2,49,IOVDD*%
X167780000Y-114025000D03*
%TO.P,U2,50,DVDD*%
%TO.N,+1V2*%
X167380000Y-114025000D03*
%TO.P,U2,51,QSPI_SD3*%
%TO.N,QSPI_DATA(3)*%
X166980000Y-114025000D03*
%TO.P,U2,52,QSPI_SCLK*%
%TO.N,QSPI_SCK*%
X166580000Y-114025000D03*
%TO.P,U2,53,QSPI_SD0*%
%TO.N,QSPI_DATA(0)*%
X166180000Y-114025000D03*
%TO.P,U2,54,QSPI_SD2*%
%TO.N,QSPI_DATA(2)*%
X165780000Y-114025000D03*
%TO.P,U2,55,QSPI_SD1*%
%TO.N,QSPI_DATA(1)*%
X165380000Y-114025000D03*
%TO.P,U2,56,QSPI_CS*%
%TO.N,QSPI_CS*%
X164980000Y-114025000D03*
D25*
%TO.P,U2,57,GND*%
%TO.N,GND*%
X167580000Y-117475000D03*
%TD*%
D26*
%TO.P,R2,1*%
%TO.N,+3.3V*%
X172845100Y-129413000D03*
%TO.P,R2,2*%
%TO.N,RESET*%
X171020100Y-129413000D03*
%TD*%
%TO.P,R6,1*%
%TO.N,Net-(J3-CC2)*%
X165862000Y-100330000D03*
%TO.P,R6,2*%
%TO.N,GND*%
X164037000Y-100330000D03*
%TD*%
D27*
%TO.P,C16,1*%
%TO.N,Net-(U2-XIN)*%
X167005000Y-136117500D03*
%TO.P,C16,2*%
%TO.N,GND*%
X167005000Y-134392500D03*
%TD*%
D28*
%TO.P,D1,1,K*%
%TO.N,USBBOOT*%
X160985200Y-100527800D03*
%TO.P,D1,2,A*%
%TO.N,Net-(D1-A)*%
X160985200Y-103027800D03*
%TD*%
D29*
%TO.P,C17,1*%
%TO.N,Net-(C17-Pad1)*%
X174371000Y-134392500D03*
%TO.P,C17,2*%
%TO.N,GND*%
X174371000Y-136117500D03*
%TD*%
D30*
%TO.N,+3.3V*%
X158750000Y-117779800D03*
X167958450Y-112154650D03*
X172844381Y-128348819D03*
X176379360Y-118671400D03*
X163017200Y-103403400D03*
X171475400Y-112115600D03*
X168275000Y-126492000D03*
X172491400Y-114376200D03*
X170561000Y-112115600D03*
X160172400Y-112496600D03*
%TO.N,GND*%
X170895000Y-92950000D03*
X164545000Y-92950000D03*
X159465000Y-92950000D03*
X173435000Y-92950000D03*
X174705000Y-120890000D03*
X159465000Y-137400000D03*
X156925000Y-96760000D03*
X172165000Y-101840000D03*
X156925000Y-94220000D03*
X174705000Y-127240000D03*
X160735000Y-96760000D03*
X155655000Y-94220000D03*
X172110400Y-132308600D03*
X163275000Y-134860000D03*
X164545000Y-91680000D03*
X159465000Y-96760000D03*
X169625000Y-92950000D03*
X160735000Y-137400000D03*
X174705000Y-92950000D03*
X168355000Y-91680000D03*
X168355000Y-132320000D03*
X172165000Y-120890000D03*
X162005000Y-96760000D03*
X164545000Y-136130000D03*
X175975000Y-105650000D03*
X175975000Y-134860000D03*
X177245000Y-91680000D03*
X159465000Y-95490000D03*
X168757600Y-118694200D03*
X174705000Y-100570000D03*
X165815000Y-91680000D03*
X163275000Y-137400000D03*
X170895000Y-132320000D03*
X164545000Y-132320000D03*
X166319200Y-116255800D03*
X175975000Y-106920000D03*
X167085000Y-103110000D03*
X164545000Y-133590000D03*
X167085000Y-91680000D03*
X175975000Y-108190000D03*
X164545000Y-105650000D03*
X156925000Y-92950000D03*
X168355000Y-92950000D03*
X165815000Y-92950000D03*
X174705000Y-106920000D03*
X156925000Y-95490000D03*
X167085000Y-132320000D03*
X175975000Y-127240000D03*
X164541200Y-131038600D03*
X174705000Y-124700000D03*
X175975000Y-104380000D03*
X160735000Y-101840000D03*
X173435000Y-101840000D03*
X164545000Y-137400000D03*
X174705000Y-123430000D03*
X167085000Y-137400000D03*
X165815000Y-137400000D03*
X155655000Y-92950000D03*
X172165000Y-105650000D03*
X166014400Y-126161600D03*
X163275000Y-136130000D03*
X155655000Y-91680000D03*
X158851600Y-120472200D03*
X162005000Y-134860000D03*
X156925000Y-91680000D03*
X170895000Y-105650000D03*
X155655000Y-95490000D03*
X174705000Y-137400000D03*
X162001200Y-133629400D03*
X165815000Y-106920000D03*
X170895000Y-120890000D03*
X158195000Y-92950000D03*
X174705000Y-122160000D03*
X178515000Y-91680000D03*
X175975000Y-136130000D03*
X174705000Y-101840000D03*
X162005000Y-137400000D03*
X173329600Y-125958600D03*
X155655000Y-96760000D03*
X165815000Y-105650000D03*
X162005000Y-95490000D03*
X173435000Y-103110000D03*
X177245000Y-96760000D03*
X160096200Y-129565400D03*
X173435000Y-91680000D03*
X160735000Y-95490000D03*
X158195000Y-137400000D03*
X158195000Y-91680000D03*
X160680400Y-130175000D03*
X162005000Y-136130000D03*
X166319200Y-118694200D03*
X162005000Y-92950000D03*
X163271200Y-132308600D03*
X161442400Y-128244600D03*
X170895000Y-91680000D03*
X160731200Y-134848600D03*
X160735000Y-92950000D03*
X169625000Y-91680000D03*
X164545000Y-134860000D03*
X173435000Y-96760000D03*
X177245000Y-94220000D03*
X172165000Y-103110000D03*
X168808400Y-116255800D03*
X175975000Y-125970000D03*
X167085000Y-92950000D03*
X167085000Y-131050000D03*
X173329600Y-124688600D03*
X174705000Y-125970000D03*
X173435000Y-120890000D03*
X162687000Y-100330000D03*
X163275000Y-133590000D03*
X174705000Y-105650000D03*
X178515000Y-94220000D03*
X167085000Y-105650000D03*
X162005000Y-91680000D03*
X177245000Y-95490000D03*
X169625000Y-132320000D03*
X162005000Y-98030000D03*
X159512000Y-130200400D03*
X175975000Y-137400000D03*
%TO.N,+1V2*%
X169595800Y-112115600D03*
X166751000Y-111226600D03*
X169189400Y-126492000D03*
%TO.N,USBBOOT*%
X176489413Y-119522187D03*
X158750000Y-98475800D03*
%TO.N,SWCLK*%
X169202600Y-127685800D03*
X166243000Y-127609600D03*
%TO.N,SWDIO*%
X169799000Y-128473200D03*
X166243000Y-128447303D03*
%TO.N,QSPI_CS*%
X161772600Y-111683800D03*
%TO.N,RESET*%
X164007800Y-128143000D03*
X159385000Y-131445000D03*
X171018200Y-128320800D03*
X175107600Y-96113600D03*
%TO.N,QSPI_DATA(3)*%
X166471600Y-110109000D03*
%TO.N,QSPI_DATA(0)*%
X165912800Y-108178600D03*
%TO.N,QSPI_DATA(2)*%
X162153600Y-108356400D03*
%TO.N,QSPI_DATA(1)*%
X161533119Y-109737281D03*
%TO.N,QSPI_SCK*%
X166192200Y-109093000D03*
%TD*%
D31*
%TO.N,+3.3V*%
X169780000Y-113226800D02*
X169780000Y-114025000D01*
X167958450Y-112154650D02*
X168180000Y-112376200D01*
X171992600Y-114875000D02*
X172491400Y-114376200D01*
X172845100Y-129413000D02*
X172845100Y-128349538D01*
X176379360Y-118671400D02*
X176182960Y-118475000D01*
X167780000Y-125997000D02*
X167780000Y-120925000D01*
X168275000Y-126492000D02*
X167780000Y-125997000D01*
X171475400Y-112344200D02*
X170180000Y-113639600D01*
X176182960Y-118475000D02*
X171030000Y-118475000D01*
X167780000Y-112333100D02*
X167780000Y-114025000D01*
X170561000Y-112445800D02*
X169780000Y-113226800D01*
X158750000Y-117779800D02*
X159445200Y-118475000D01*
X159445200Y-118475000D02*
X164130000Y-118475000D01*
X161585600Y-114875000D02*
X160172400Y-113461800D01*
X170180000Y-113639600D02*
X170180000Y-114025000D01*
X170561000Y-112115600D02*
X170561000Y-112445800D01*
X164130000Y-114875000D02*
X161585600Y-114875000D01*
X167958450Y-112154650D02*
X167780000Y-112333100D01*
X171475400Y-112115600D02*
X171475400Y-112344200D01*
X172845100Y-128349538D02*
X172844381Y-128348819D01*
X168180000Y-112376200D02*
X168180000Y-114025000D01*
X162585400Y-104700700D02*
X162585400Y-103835200D01*
X160172400Y-113461800D02*
X160172400Y-112496600D01*
X171030000Y-114875000D02*
X171992600Y-114875000D01*
X162585400Y-103835200D02*
X163017200Y-103403400D01*
D32*
%TO.N,GND*%
X175093800Y-90678000D02*
X175107600Y-90664200D01*
X175121400Y-90678000D02*
X175107600Y-90664200D01*
X164440000Y-99927000D02*
X164037000Y-100330000D01*
X162687000Y-100330000D02*
X164037000Y-100330000D01*
D33*
X172425500Y-136117500D02*
X172138000Y-136405000D01*
D31*
X166580000Y-118475000D02*
X167580000Y-117475000D01*
D32*
X170840000Y-97025000D02*
X170840000Y-99165000D01*
D31*
X166624400Y-118999400D02*
X166319200Y-118694200D01*
D32*
X164440000Y-97025000D02*
X164440000Y-99927000D01*
D31*
X166319200Y-118694200D02*
X166580000Y-118475000D01*
X166014400Y-126161600D02*
X164425000Y-126161600D01*
D32*
X170840000Y-99165000D02*
X172005000Y-100330000D01*
D33*
X168950500Y-134392500D02*
X169238000Y-134105000D01*
D31*
%TO.N,+1V2*%
X166751000Y-111892106D02*
X166751000Y-111226600D01*
X169380000Y-112331400D02*
X169595800Y-112115600D01*
X169380000Y-114025000D02*
X169380000Y-112331400D01*
X168180000Y-125482600D02*
X168180000Y-120925000D01*
X169189400Y-126492000D02*
X168180000Y-125482600D01*
X167380000Y-114025000D02*
X167380000Y-112521106D01*
X167380000Y-112521106D02*
X166751000Y-111892106D01*
D32*
%TO.N,+5V*%
X179070000Y-95357000D02*
X179070000Y-98425000D01*
D33*
%TO.N,Net-(U2-XIN)*%
X168950500Y-136117500D02*
X169238000Y-136405000D01*
D31*
X165989000Y-130380000D02*
X165989000Y-135101500D01*
X166980000Y-129389000D02*
X165989000Y-130380000D01*
X165989000Y-135101500D02*
X167005000Y-136117500D01*
X166980000Y-120925000D02*
X166980000Y-129389000D01*
D33*
X167005000Y-136117500D02*
X168950500Y-136117500D01*
%TO.N,Net-(C17-Pad1)*%
X173504500Y-132738500D02*
X172138000Y-134105000D01*
X174371000Y-134392500D02*
X172425500Y-134392500D01*
X174371000Y-132738500D02*
X173504500Y-132738500D01*
X172425500Y-134392500D02*
X172138000Y-134105000D01*
D31*
%TO.N,USBBOOT*%
X158750000Y-98475800D02*
X160170200Y-98475800D01*
X176386710Y-119522187D02*
X176489413Y-119522187D01*
X160170200Y-98475800D02*
X160172400Y-98478000D01*
X171030000Y-118875000D02*
X175739523Y-118875000D01*
X160172400Y-99715000D02*
X160172400Y-98478000D01*
X160985200Y-100527800D02*
X160172400Y-99715000D01*
X175739523Y-118875000D02*
X176386710Y-119522187D01*
%TO.N,Net-(D1-A)*%
X160985200Y-104675300D02*
X161010600Y-104700700D01*
X160985200Y-103027800D02*
X160985200Y-104675300D01*
%TO.N,NEO_PWR*%
X159425000Y-121194200D02*
X159425000Y-122961600D01*
X164130000Y-120075000D02*
X160544200Y-120075000D01*
X160544200Y-120075000D02*
X159425000Y-121194200D01*
%TO.N,NEOPIX*%
X164425000Y-122239400D02*
X164425000Y-122961600D01*
X164980000Y-121684400D02*
X164425000Y-122239400D01*
X164980000Y-120925000D02*
X164980000Y-121684400D01*
D32*
%TO.N,Net-(D3-A)*%
X165397100Y-96867900D02*
X165397100Y-96107100D01*
X175006000Y-94234000D02*
X176383000Y-92857000D01*
X167640000Y-95631000D02*
X169037000Y-94234000D01*
X167640000Y-95631000D02*
X169379500Y-95631000D01*
X169887500Y-96872500D02*
X170040000Y-97025000D01*
X165397100Y-96107100D02*
X165873200Y-95631000D01*
X176383000Y-92857000D02*
X179070000Y-92857000D01*
X165873200Y-95631000D02*
X167640000Y-95631000D01*
X169887500Y-96139000D02*
X169887500Y-96872500D01*
X169379500Y-95631000D02*
X169887500Y-96139000D01*
X169037000Y-94234000D02*
X175006000Y-94234000D01*
X165240000Y-97025000D02*
X165397100Y-96867900D01*
D31*
%TO.N,A3*%
X176961800Y-114249200D02*
X175936000Y-115275000D01*
X175936000Y-115275000D02*
X171030000Y-115275000D01*
X176961800Y-108153200D02*
X176961800Y-114249200D01*
X179070000Y-106045000D02*
X176961800Y-108153200D01*
%TO.N,A2*%
X177317400Y-110337600D02*
X179070000Y-108585000D01*
X177317400Y-114406706D02*
X177317400Y-110337600D01*
X176049106Y-115675000D02*
X177317400Y-114406706D01*
X171030000Y-115675000D02*
X176049106Y-115675000D01*
%TO.N,A1*%
X177673000Y-114554000D02*
X177673000Y-112522000D01*
X176152000Y-116075000D02*
X177673000Y-114554000D01*
X177673000Y-112522000D02*
X179070000Y-111125000D01*
X171030000Y-116075000D02*
X176152000Y-116075000D01*
%TO.N,A0*%
X179070000Y-113665000D02*
X176260000Y-116475000D01*
X176260000Y-116475000D02*
X171030000Y-116475000D01*
%TO.N,SCL*%
X171030000Y-116875000D02*
X178400000Y-116875000D01*
X178400000Y-116875000D02*
X179070000Y-116205000D01*
%TO.N,SDA*%
X176965000Y-117275000D02*
X178435000Y-118745000D01*
X178435000Y-118745000D02*
X179070000Y-118745000D01*
X171030000Y-117275000D02*
X176965000Y-117275000D01*
%TO.N,SCL1*%
X177673000Y-119888000D02*
X179070000Y-121285000D01*
X171030000Y-117675000D02*
X176730000Y-117675000D01*
X177673000Y-118618000D02*
X177673000Y-119888000D01*
X176730000Y-117675000D02*
X177673000Y-118618000D01*
%TO.N,SDA1*%
X177317400Y-122072400D02*
X179070000Y-123825000D01*
X177317400Y-118765294D02*
X177317400Y-122072400D01*
X176627106Y-118075000D02*
X177317400Y-118765294D01*
X171030000Y-118075000D02*
X176627106Y-118075000D01*
%TO.N,TX*%
X171030000Y-119275000D02*
X175398788Y-119275000D01*
X175398788Y-119275000D02*
X176911000Y-120787212D01*
X176911000Y-124206000D02*
X179070000Y-126365000D01*
X176911000Y-120787212D02*
X176911000Y-124206000D01*
%TO.N,GPIO19*%
X175295894Y-119675000D02*
X176479200Y-120858306D01*
X171030000Y-119675000D02*
X175295894Y-119675000D01*
X176479200Y-124277094D02*
X177673000Y-125470894D01*
X176479200Y-120858306D02*
X176479200Y-124277094D01*
X177673000Y-125470894D02*
X177673000Y-127508000D01*
X177673000Y-127508000D02*
X179070000Y-128905000D01*
%TO.N,GPIO18*%
X175193000Y-120075000D02*
X176123600Y-121005600D01*
X176123600Y-124424388D02*
X177292000Y-125592788D01*
X171030000Y-120075000D02*
X175193000Y-120075000D01*
X176123600Y-121005600D02*
X176123600Y-124424388D01*
X177292000Y-125592788D02*
X177292000Y-129667000D01*
X177292000Y-129667000D02*
X179070000Y-131445000D01*
%TO.N,GPIO17*%
X170180000Y-120925000D02*
X170180000Y-124338106D01*
X170180000Y-124338106D02*
X176555400Y-130713506D01*
X177825400Y-133985000D02*
X179070000Y-133985000D01*
X176555400Y-132715000D02*
X177825400Y-133985000D01*
X176555400Y-130713506D02*
X176555400Y-132715000D01*
%TO.N,GPIO16*%
X169780000Y-120925000D02*
X169780000Y-124441000D01*
X169780000Y-124441000D02*
X176123600Y-130784600D01*
X176123600Y-130784600D02*
X176123600Y-133578600D01*
X176123600Y-133578600D02*
X179070000Y-136525000D01*
%TO.N,GPIO0*%
X159491641Y-113670171D02*
X159491641Y-101706641D01*
X164130000Y-115275000D02*
X161096470Y-115275000D01*
X159491641Y-101706641D02*
X156210000Y-98425000D01*
X161096470Y-115275000D02*
X159491641Y-113670171D01*
%TO.N,GPIO1*%
X159136041Y-103891041D02*
X156210000Y-100965000D01*
X159136041Y-113817465D02*
X159136041Y-103891041D01*
X160993576Y-115675000D02*
X159136041Y-113817465D01*
X164130000Y-115675000D02*
X160993576Y-115675000D01*
%TO.N,GPIO2*%
X160890682Y-116075000D02*
X158780441Y-113964759D01*
X164130000Y-116075000D02*
X160890682Y-116075000D01*
X158780441Y-113964759D02*
X158780441Y-106075441D01*
X158780441Y-106075441D02*
X156210000Y-103505000D01*
%TO.N,MOSI*%
X160787788Y-116475000D02*
X158318200Y-114005412D01*
X158318200Y-108153200D02*
X156210000Y-106045000D01*
X158318200Y-114005412D02*
X158318200Y-108153200D01*
X164130000Y-116475000D02*
X160787788Y-116475000D01*
%TO.N,MISO*%
X157962600Y-114152706D02*
X157962600Y-110337600D01*
X157962600Y-110337600D02*
X156210000Y-108585000D01*
X164130000Y-116875000D02*
X160684894Y-116875000D01*
X160684894Y-116875000D02*
X157962600Y-114152706D01*
%TO.N,RX*%
X164130000Y-117275000D02*
X160582000Y-117275000D01*
X157607000Y-112522000D02*
X156210000Y-111125000D01*
X157607000Y-114300000D02*
X157607000Y-112522000D01*
X160582000Y-117275000D02*
X157607000Y-114300000D01*
%TO.N,SCK*%
X164130000Y-117675000D02*
X160220000Y-117675000D01*
X160220000Y-117675000D02*
X156210000Y-113665000D01*
%TO.N,GPIO7*%
X164130000Y-118075000D02*
X160035800Y-118075000D01*
X158038800Y-116078000D02*
X156337000Y-116078000D01*
X156337000Y-116078000D02*
X156210000Y-116205000D01*
X160035800Y-118075000D02*
X158038800Y-116078000D01*
%TO.N,GPIO8*%
X156340000Y-118875000D02*
X156210000Y-118745000D01*
X164130000Y-118875000D02*
X156340000Y-118875000D01*
%TO.N,GPIO9*%
X164130000Y-119275000D02*
X158220000Y-119275000D01*
X158220000Y-119275000D02*
X156210000Y-121285000D01*
%TO.N,GPIO10*%
X158322894Y-119675000D02*
X157607000Y-120390894D01*
X157607000Y-120390894D02*
X157607000Y-122428000D01*
X164130000Y-119675000D02*
X158322894Y-119675000D01*
X157607000Y-122428000D02*
X156210000Y-123825000D01*
%TO.N,GPIO13*%
X165912800Y-123281800D02*
X165141000Y-124053600D01*
X158521400Y-124053600D02*
X156210000Y-126365000D01*
X165380000Y-121560709D02*
X165912800Y-122093509D01*
X165912800Y-122093509D02*
X165912800Y-123281800D01*
X165380000Y-120925000D02*
X165380000Y-121560709D01*
X165141000Y-124053600D02*
X158521400Y-124053600D01*
%TO.N,GPIO14*%
X165288294Y-124409200D02*
X162985400Y-124409200D01*
X158489600Y-128905000D02*
X156210000Y-128905000D01*
X165780000Y-121457815D02*
X166268400Y-121946215D01*
X162985400Y-124409200D02*
X158489600Y-128905000D01*
X166268400Y-123429094D02*
X165288294Y-124409200D01*
X166268400Y-121946215D02*
X166268400Y-123429094D01*
X165780000Y-120925000D02*
X165780000Y-121457815D01*
%TO.N,GPIO15*%
X163550600Y-124764800D02*
X156870400Y-131445000D01*
X166624400Y-123575988D02*
X165435588Y-124764800D01*
X166624000Y-121793000D02*
X166624400Y-121793400D01*
X166618079Y-121793000D02*
X166624000Y-121793000D01*
X165435588Y-124764800D02*
X163550600Y-124764800D01*
X156870400Y-131445000D02*
X156210000Y-131445000D01*
X166180000Y-120925000D02*
X166180000Y-121354921D01*
X166624400Y-121793400D02*
X166624400Y-123575988D01*
X166180000Y-121354921D02*
X166618079Y-121793000D01*
%TO.N,SWCLK*%
X159435800Y-133985000D02*
X156210000Y-133985000D01*
X165811200Y-127609600D02*
X159435800Y-133985000D01*
X168580000Y-124749682D02*
X168580000Y-120925000D01*
X169875200Y-127013200D02*
X169875200Y-126044882D01*
X169875200Y-126044882D02*
X168580000Y-124749682D01*
X169202600Y-127685800D02*
X169875200Y-127013200D01*
X166243000Y-127609600D02*
X165811200Y-127609600D01*
%TO.N,SWDIO*%
X170510200Y-127762000D02*
X170510200Y-126176988D01*
X168980000Y-124646788D02*
X168980000Y-120925000D01*
X166243000Y-128447303D02*
X165862497Y-128447303D01*
X170510200Y-126176988D02*
X168980000Y-124646788D01*
X157784800Y-136525000D02*
X156210000Y-136525000D01*
X169799000Y-128473200D02*
X170510200Y-127762000D01*
X165862497Y-128447303D02*
X157784800Y-136525000D01*
%TO.N,Net-(J3-CC1)*%
X168890000Y-98417244D02*
X170180000Y-99707244D01*
X168890000Y-97025000D02*
X168890000Y-98417244D01*
X170180000Y-99707244D02*
X170180000Y-100330000D01*
D34*
%TO.N,/USB D+*%
X168051000Y-108568749D02*
X168315400Y-108304349D01*
D31*
X166940800Y-97854000D02*
X167640000Y-97854000D01*
X167890000Y-97803200D02*
X167890000Y-97025000D01*
X166890000Y-97025000D02*
X166890000Y-97803200D01*
D34*
X168315400Y-102322900D02*
X167544820Y-101552320D01*
D31*
X167640000Y-97854000D02*
X167640000Y-98876031D01*
X166890000Y-97803200D02*
X166940800Y-97854000D01*
X167640000Y-97854000D02*
X167839200Y-97854000D01*
D34*
X167544820Y-101552320D02*
X167544820Y-98971211D01*
X168051000Y-109300000D02*
X168051000Y-108568749D01*
X168315400Y-108304349D02*
X168315400Y-102322900D01*
D31*
X167839200Y-97854000D02*
X167890000Y-97803200D01*
X167640000Y-98876031D02*
X167544820Y-98971211D01*
D34*
%TO.N,/USB D-*%
X169280600Y-108304349D02*
X169280600Y-101923100D01*
D31*
X167390000Y-96262000D02*
X167390000Y-97025000D01*
D34*
X169280600Y-101923100D02*
X168510020Y-101152520D01*
D31*
X168390000Y-97025000D02*
X168390000Y-98851191D01*
D34*
X169545000Y-108568749D02*
X169280600Y-108304349D01*
X168510020Y-101152520D02*
X168510020Y-98971211D01*
D31*
X168390000Y-98851191D02*
X168510020Y-98971211D01*
X168282200Y-96139000D02*
X167513000Y-96139000D01*
X168390000Y-96246800D02*
X168282200Y-96139000D01*
D34*
X169545000Y-109300000D02*
X169545000Y-108568749D01*
D31*
X167513000Y-96139000D02*
X167390000Y-96262000D01*
X168390000Y-97025000D02*
X168390000Y-96246800D01*
%TO.N,Net-(J3-CC2)*%
X165890000Y-100302000D02*
X165862000Y-100330000D01*
X165890000Y-97025000D02*
X165890000Y-100302000D01*
%TO.N,Net-(U2-XOUT)*%
X167380000Y-129407000D02*
X168886500Y-130913500D01*
X168886500Y-130913500D02*
X174371000Y-130913500D01*
X167380000Y-120925000D02*
X167380000Y-129407000D01*
%TO.N,QSPI_CS*%
X164274214Y-112992186D02*
X164980000Y-113697973D01*
X161772600Y-111683800D02*
X161772600Y-112331786D01*
X160936219Y-110847419D02*
X160936219Y-112193619D01*
X161010600Y-106525700D02*
X162585400Y-106525700D01*
X160936219Y-112193619D02*
X161734786Y-112992186D01*
X161734786Y-112992186D02*
X162433000Y-112992186D01*
X161772600Y-112331786D02*
X162433000Y-112992186D01*
X164980000Y-113697973D02*
X164980000Y-114025000D01*
X160936219Y-110847419D02*
X160936219Y-106600081D01*
X160936219Y-106600081D02*
X161010600Y-106525700D01*
X162433000Y-112992186D02*
X164274214Y-112992186D01*
%TO.N,D-*%
X168980000Y-113424999D02*
X168957800Y-113402799D01*
X168957800Y-111712200D02*
X169545000Y-111125000D01*
X168980000Y-114025000D02*
X168980000Y-113424999D01*
X168957800Y-113402799D02*
X168957800Y-111712200D01*
%TO.N,D+*%
X168602200Y-113402799D02*
X168602200Y-111676200D01*
X168580000Y-113424999D02*
X168602200Y-113402799D01*
X168602200Y-111676200D02*
X168051000Y-111125000D01*
X168580000Y-114025000D02*
X168580000Y-113424999D01*
%TO.N,RESET*%
X159385000Y-131445000D02*
X160705800Y-131445000D01*
X175107600Y-96113600D02*
X175107600Y-98464200D01*
X169380000Y-120925000D02*
X169380000Y-124543894D01*
X171018200Y-129411100D02*
X171020100Y-129413000D01*
X160705800Y-131445000D02*
X164007800Y-128143000D01*
X171018200Y-128320800D02*
X171018200Y-129411100D01*
X169380000Y-124543894D02*
X171018200Y-126182094D01*
X171018200Y-126182094D02*
X171018200Y-128320800D01*
%TO.N,QSPI_DATA(3)*%
X166116000Y-110820200D02*
X166116000Y-110464600D01*
X166116000Y-111760000D02*
X166116000Y-110820200D01*
X166980000Y-114025000D02*
X166980000Y-112624000D01*
X166344600Y-111988600D02*
X166116000Y-111760000D01*
X166980000Y-112624000D02*
X166344600Y-111988600D01*
X166116000Y-110464600D02*
X166471600Y-110109000D01*
%TO.N,QSPI_DATA(0)*%
X165404800Y-112090200D02*
X165404800Y-108686600D01*
X166180000Y-114025000D02*
X166180000Y-112865400D01*
X166180000Y-112865400D02*
X165404800Y-112090200D01*
X165404800Y-108686600D02*
X165912800Y-108178600D01*
%TO.N,QSPI_DATA(2)*%
X164088468Y-111800653D02*
X165780000Y-113492185D01*
X162153600Y-108356400D02*
X162153600Y-110698306D01*
X163255947Y-111800653D02*
X164088468Y-111800653D01*
X162153600Y-110698306D02*
X163255947Y-111800653D01*
X165780000Y-113492185D02*
X165780000Y-114025000D01*
%TO.N,QSPI_DATA(1)*%
X161533119Y-110580719D02*
X163195000Y-112242600D01*
X161533119Y-109737281D02*
X161533119Y-110580719D01*
X165380000Y-113595079D02*
X165380000Y-114025000D01*
X164027521Y-112242600D02*
X165380000Y-113595079D01*
X163195000Y-112242600D02*
X164027521Y-112242600D01*
%TO.N,QSPI_SCK*%
X166580000Y-112762506D02*
X165783247Y-111965753D01*
X166580000Y-114025000D02*
X166580000Y-112762506D01*
X165760400Y-110185200D02*
X165760400Y-109524800D01*
X165760400Y-109524800D02*
X166192200Y-109093000D01*
X165760400Y-111942906D02*
X165760400Y-110185200D01*
X165783247Y-111965753D02*
X165760400Y-111942906D01*
%TD*%
%TA.AperFunction,Conductor*%
%TO.N,GND*%
G36*
X170017716Y-114611335D02*
G01*
X170031010Y-114613979D01*
X170031011Y-114613980D01*
X170105014Y-114628700D01*
X170254984Y-114628700D01*
X170254986Y-114628700D01*
X170321174Y-114615534D01*
X170382914Y-114622841D01*
X170428571Y-114665045D01*
X170440701Y-114726024D01*
X170439465Y-114733827D01*
X170426300Y-114800014D01*
X170426300Y-114949986D01*
X170441020Y-115023989D01*
X170444924Y-115043615D01*
X170444684Y-115043662D01*
X170454636Y-115078950D01*
X170443664Y-115112718D01*
X170426300Y-115200014D01*
X170426300Y-115349985D01*
X170444924Y-115443615D01*
X170444684Y-115443662D01*
X170454636Y-115478950D01*
X170443664Y-115512718D01*
X170441019Y-115526011D01*
X170441020Y-115526011D01*
X170426300Y-115600014D01*
X170426300Y-115749986D01*
X170428637Y-115761735D01*
X170444924Y-115843615D01*
X170444684Y-115843662D01*
X170454636Y-115878950D01*
X170443664Y-115912718D01*
X170426300Y-116000014D01*
X170426300Y-116149985D01*
X170444924Y-116243615D01*
X170444684Y-116243662D01*
X170454636Y-116278950D01*
X170443664Y-116312718D01*
X170441019Y-116326011D01*
X170441020Y-116326011D01*
X170426300Y-116400014D01*
X170426300Y-116549986D01*
X170438274Y-116610184D01*
X170444924Y-116643615D01*
X170444684Y-116643662D01*
X170454636Y-116678950D01*
X170443664Y-116712718D01*
X170441019Y-116726011D01*
X170441020Y-116726011D01*
X170426300Y-116800014D01*
X170426300Y-116949986D01*
X170441020Y-117023989D01*
X170444924Y-117043615D01*
X170444684Y-117043662D01*
X170454636Y-117078950D01*
X170443664Y-117112718D01*
X170426300Y-117200014D01*
X170426300Y-117349985D01*
X170444924Y-117443615D01*
X170444684Y-117443662D01*
X170454636Y-117478950D01*
X170443664Y-117512718D01*
X170441019Y-117526011D01*
X170441020Y-117526011D01*
X170426300Y-117600014D01*
X170426300Y-117749986D01*
X170441020Y-117823989D01*
X170444924Y-117843615D01*
X170444684Y-117843662D01*
X170454636Y-117878950D01*
X170443664Y-117912718D01*
X170441019Y-117926011D01*
X170441020Y-117926011D01*
X170426300Y-118000014D01*
X170426300Y-118149986D01*
X170441020Y-118223989D01*
X170444924Y-118243615D01*
X170444684Y-118243662D01*
X170454636Y-118278950D01*
X170443664Y-118312718D01*
X170441019Y-118326011D01*
X170441020Y-118326011D01*
X170426300Y-118400014D01*
X170426300Y-118549986D01*
X170441020Y-118623989D01*
X170444924Y-118643615D01*
X170444684Y-118643662D01*
X170454636Y-118678950D01*
X170443664Y-118712718D01*
X170426300Y-118800014D01*
X170426300Y-118949985D01*
X170444924Y-119043615D01*
X170444684Y-119043662D01*
X170454636Y-119078950D01*
X170443664Y-119112718D01*
X170426300Y-119200014D01*
X170426300Y-119349985D01*
X170444924Y-119443615D01*
X170444684Y-119443662D01*
X170454636Y-119478950D01*
X170443664Y-119512718D01*
X170426300Y-119600014D01*
X170426300Y-119749985D01*
X170444924Y-119843615D01*
X170444684Y-119843662D01*
X170454636Y-119878950D01*
X170443664Y-119912718D01*
X170426300Y-120000014D01*
X170426300Y-120149986D01*
X170439465Y-120216172D01*
X170432157Y-120277915D01*
X170389953Y-120323571D01*
X170328973Y-120335701D01*
X170321172Y-120334465D01*
X170254986Y-120321300D01*
X170105014Y-120321300D01*
X170031011Y-120336020D01*
X170031010Y-120336020D01*
X170011385Y-120339924D01*
X170011337Y-120339684D01*
X169976050Y-120349636D01*
X169942281Y-120338664D01*
X169854986Y-120321300D01*
X169705014Y-120321300D01*
X169631011Y-120336020D01*
X169631010Y-120336020D01*
X169611385Y-120339924D01*
X169611337Y-120339684D01*
X169576050Y-120349636D01*
X169542281Y-120338664D01*
X169454986Y-120321300D01*
X169305014Y-120321300D01*
X169231011Y-120336020D01*
X169231010Y-120336020D01*
X169211385Y-120339924D01*
X169211337Y-120339684D01*
X169176050Y-120349636D01*
X169142281Y-120338664D01*
X169054986Y-120321300D01*
X168905014Y-120321300D01*
X168831011Y-120336020D01*
X168831010Y-120336020D01*
X168811385Y-120339924D01*
X168811337Y-120339684D01*
X168776050Y-120349636D01*
X168742281Y-120338664D01*
X168654986Y-120321300D01*
X168505014Y-120321300D01*
X168431011Y-120336020D01*
X168431010Y-120336020D01*
X168411385Y-120339924D01*
X168411337Y-120339684D01*
X168376050Y-120349636D01*
X168342281Y-120338664D01*
X168254986Y-120321300D01*
X168105014Y-120321300D01*
X168031011Y-120336020D01*
X168031010Y-120336020D01*
X168011385Y-120339924D01*
X168011337Y-120339684D01*
X167976050Y-120349636D01*
X167942281Y-120338664D01*
X167854986Y-120321300D01*
X167705014Y-120321300D01*
X167631011Y-120336020D01*
X167631010Y-120336020D01*
X167611385Y-120339924D01*
X167611337Y-120339684D01*
X167576050Y-120349636D01*
X167542281Y-120338664D01*
X167454986Y-120321300D01*
X167305014Y-120321300D01*
X167231011Y-120336020D01*
X167231010Y-120336020D01*
X167211385Y-120339924D01*
X167211337Y-120339684D01*
X167176050Y-120349636D01*
X167142281Y-120338664D01*
X167054986Y-120321300D01*
X166905014Y-120321300D01*
X166831010Y-120336020D01*
X166747093Y-120392093D01*
X166691020Y-120476010D01*
X166678667Y-120538114D01*
X166648287Y-120592361D01*
X166591824Y-120618391D01*
X166530845Y-120606261D01*
X166488641Y-120560605D01*
X166481333Y-120538114D01*
X166471342Y-120487888D01*
X166468980Y-120476011D01*
X166412907Y-120392093D01*
X166328989Y-120336020D01*
X166254986Y-120321300D01*
X166105014Y-120321300D01*
X166031011Y-120336020D01*
X166031010Y-120336020D01*
X166011385Y-120339924D01*
X166011337Y-120339684D01*
X165976050Y-120349636D01*
X165942281Y-120338664D01*
X165854986Y-120321300D01*
X165705014Y-120321300D01*
X165631011Y-120336020D01*
X165631010Y-120336020D01*
X165611385Y-120339924D01*
X165611337Y-120339684D01*
X165576050Y-120349636D01*
X165542281Y-120338664D01*
X165454986Y-120321300D01*
X165305014Y-120321300D01*
X165231011Y-120336020D01*
X165231010Y-120336020D01*
X165211385Y-120339924D01*
X165211337Y-120339684D01*
X165176050Y-120349636D01*
X165142281Y-120338664D01*
X165054986Y-120321300D01*
X164905014Y-120321300D01*
X164838827Y-120334465D01*
X164777083Y-120327157D01*
X164731428Y-120284953D01*
X164719298Y-120223973D01*
X164720529Y-120216197D01*
X164733700Y-120149986D01*
X164733700Y-120000014D01*
X164718980Y-119926011D01*
X164718979Y-119926010D01*
X164715076Y-119906385D01*
X164715315Y-119906337D01*
X164705364Y-119871050D01*
X164716335Y-119837285D01*
X164733700Y-119749985D01*
X164733700Y-119600014D01*
X164715076Y-119506385D01*
X164715315Y-119506337D01*
X164705364Y-119471050D01*
X164716335Y-119437285D01*
X164733700Y-119349985D01*
X164733700Y-119200014D01*
X164715076Y-119106385D01*
X164715315Y-119106337D01*
X164705364Y-119071050D01*
X164716335Y-119037285D01*
X164733700Y-118949985D01*
X164733700Y-118800014D01*
X164732537Y-118794167D01*
X164718980Y-118726011D01*
X164718979Y-118726010D01*
X164715076Y-118706385D01*
X164715315Y-118706337D01*
X164705364Y-118671050D01*
X164716335Y-118637285D01*
X164729779Y-118569700D01*
X164733700Y-118549986D01*
X164733700Y-118400014D01*
X164718980Y-118326011D01*
X164718979Y-118326010D01*
X164715076Y-118306385D01*
X164715315Y-118306337D01*
X164705364Y-118271050D01*
X164716335Y-118237285D01*
X164729779Y-118169700D01*
X164733700Y-118149986D01*
X164733700Y-118000014D01*
X164718980Y-117926011D01*
X164718979Y-117926010D01*
X164715076Y-117906385D01*
X164715315Y-117906337D01*
X164705364Y-117871050D01*
X164716335Y-117837285D01*
X164727770Y-117779800D01*
X164733700Y-117749986D01*
X164733700Y-117600014D01*
X164718980Y-117526011D01*
X164718979Y-117526010D01*
X164715076Y-117506385D01*
X164715315Y-117506337D01*
X164705364Y-117471050D01*
X164716335Y-117437285D01*
X164733700Y-117349985D01*
X164733700Y-117200014D01*
X164726659Y-117164615D01*
X164718980Y-117126011D01*
X164718979Y-117126010D01*
X164715076Y-117106385D01*
X164715315Y-117106337D01*
X164705364Y-117071050D01*
X164716335Y-117037285D01*
X164732965Y-116953683D01*
X164733700Y-116949986D01*
X164733700Y-116800014D01*
X164718980Y-116726011D01*
X164718979Y-116726010D01*
X164715076Y-116706385D01*
X164715315Y-116706337D01*
X164705364Y-116671050D01*
X164716335Y-116637285D01*
X164729779Y-116569700D01*
X164733700Y-116549986D01*
X164733700Y-116400014D01*
X164718980Y-116326011D01*
X164718979Y-116326010D01*
X164715076Y-116306385D01*
X164715315Y-116306337D01*
X164705364Y-116271050D01*
X164716335Y-116237285D01*
X164733700Y-116149985D01*
X164733700Y-116000014D01*
X164715076Y-115906385D01*
X164715315Y-115906337D01*
X164705364Y-115871050D01*
X164716335Y-115837285D01*
X164733004Y-115753487D01*
X164733700Y-115749986D01*
X164733700Y-115600014D01*
X164718980Y-115526011D01*
X164718979Y-115526010D01*
X164715076Y-115506385D01*
X164715315Y-115506337D01*
X164705364Y-115471050D01*
X164716335Y-115437285D01*
X164733700Y-115349985D01*
X164733700Y-115200014D01*
X164715076Y-115106385D01*
X164715315Y-115106337D01*
X164705364Y-115071050D01*
X164716335Y-115037285D01*
X164729779Y-114969700D01*
X164733700Y-114949986D01*
X164733700Y-114800014D01*
X164720534Y-114733825D01*
X164727841Y-114672084D01*
X164770045Y-114626428D01*
X164831025Y-114614298D01*
X164838806Y-114615530D01*
X164905014Y-114628700D01*
X164905016Y-114628700D01*
X165054986Y-114628700D01*
X165128989Y-114613980D01*
X165128989Y-114613979D01*
X165148615Y-114610076D01*
X165148662Y-114610314D01*
X165183944Y-114600362D01*
X165217716Y-114611335D01*
X165231010Y-114613979D01*
X165231011Y-114613980D01*
X165305014Y-114628700D01*
X165454986Y-114628700D01*
X165528989Y-114613980D01*
X165528989Y-114613979D01*
X165548615Y-114610076D01*
X165548662Y-114610314D01*
X165583944Y-114600362D01*
X165617716Y-114611335D01*
X165631010Y-114613979D01*
X165631011Y-114613980D01*
X165705014Y-114628700D01*
X165854986Y-114628700D01*
X165928989Y-114613980D01*
X165928989Y-114613979D01*
X165948615Y-114610076D01*
X165948662Y-114610314D01*
X165983944Y-114600362D01*
X166017716Y-114611335D01*
X166031010Y-114613979D01*
X166031011Y-114613980D01*
X166105014Y-114628700D01*
X166254986Y-114628700D01*
X166328989Y-114613980D01*
X166328989Y-114613979D01*
X166348615Y-114610076D01*
X166348662Y-114610314D01*
X166383944Y-114600362D01*
X166417716Y-114611335D01*
X166431010Y-114613979D01*
X166431011Y-114613980D01*
X166505014Y-114628700D01*
X166654986Y-114628700D01*
X166728989Y-114613980D01*
X166728989Y-114613979D01*
X166748615Y-114610076D01*
X166748662Y-114610314D01*
X166783944Y-114600362D01*
X166817716Y-114611335D01*
X166831010Y-114613979D01*
X166831011Y-114613980D01*
X166905014Y-114628700D01*
X167054986Y-114628700D01*
X167128989Y-114613980D01*
X167128989Y-114613979D01*
X167148615Y-114610076D01*
X167148662Y-114610314D01*
X167183944Y-114600362D01*
X167217716Y-114611335D01*
X167231010Y-114613979D01*
X167231011Y-114613980D01*
X167305014Y-114628700D01*
X167454986Y-114628700D01*
X167528989Y-114613980D01*
X167528989Y-114613979D01*
X167548615Y-114610076D01*
X167548662Y-114610314D01*
X167583944Y-114600362D01*
X167617716Y-114611335D01*
X167631010Y-114613979D01*
X167631011Y-114613980D01*
X167705014Y-114628700D01*
X167854986Y-114628700D01*
X167928989Y-114613980D01*
X167928989Y-114613979D01*
X167948615Y-114610076D01*
X167948662Y-114610314D01*
X167983944Y-114600362D01*
X168017716Y-114611335D01*
X168031010Y-114613979D01*
X168031011Y-114613980D01*
X168105014Y-114628700D01*
X168254986Y-114628700D01*
X168328989Y-114613980D01*
X168328989Y-114613979D01*
X168348615Y-114610076D01*
X168348662Y-114610314D01*
X168383944Y-114600362D01*
X168417716Y-114611335D01*
X168431010Y-114613979D01*
X168431011Y-114613980D01*
X168505014Y-114628700D01*
X168654986Y-114628700D01*
X168728989Y-114613980D01*
X168728989Y-114613979D01*
X168748615Y-114610076D01*
X168748662Y-114610314D01*
X168783944Y-114600362D01*
X168817716Y-114611335D01*
X168831010Y-114613979D01*
X168831011Y-114613980D01*
X168905014Y-114628700D01*
X169054986Y-114628700D01*
X169128989Y-114613980D01*
X169128989Y-114613979D01*
X169148615Y-114610076D01*
X169148662Y-114610314D01*
X169183944Y-114600362D01*
X169217716Y-114611335D01*
X169231010Y-114613979D01*
X169231011Y-114613980D01*
X169305014Y-114628700D01*
X169454986Y-114628700D01*
X169528989Y-114613980D01*
X169528989Y-114613979D01*
X169548615Y-114610076D01*
X169548662Y-114610314D01*
X169583944Y-114600362D01*
X169617716Y-114611335D01*
X169631010Y-114613979D01*
X169631011Y-114613980D01*
X169705014Y-114628700D01*
X169854986Y-114628700D01*
X169928989Y-114613980D01*
X169928989Y-114613979D01*
X169948615Y-114610076D01*
X169948662Y-114610314D01*
X169983944Y-114600362D01*
X170017716Y-114611335D01*
G37*
%TD.AperFunction*%
%TA.AperFunction,Conductor*%
G36*
X180298031Y-89935713D02*
G01*
X180334576Y-89986013D01*
X180339500Y-90017100D01*
X180339500Y-138582900D01*
X180320287Y-138642031D01*
X180269987Y-138678576D01*
X180238900Y-138683500D01*
X155041100Y-138683500D01*
X154981969Y-138664287D01*
X154945424Y-138613987D01*
X154940500Y-138582900D01*
X154940500Y-136525000D01*
X155151202Y-136525000D01*
X155171547Y-136731561D01*
X155171547Y-136731563D01*
X155171548Y-136731565D01*
X155231797Y-136930184D01*
X155329639Y-137113234D01*
X155381777Y-137176763D01*
X155461317Y-137273683D01*
X155523924Y-137325063D01*
X155621765Y-137405360D01*
X155804815Y-137503202D01*
X155881407Y-137526435D01*
X156003439Y-137563453D01*
X156210000Y-137583798D01*
X156416561Y-137563453D01*
X156615184Y-137503202D01*
X156711238Y-137451860D01*
X156798234Y-137405360D01*
X156798235Y-137405358D01*
X156798237Y-137405358D01*
X156958683Y-137273683D01*
X157090358Y-137113237D01*
X157188202Y-136930184D01*
X157196843Y-136901695D01*
X157232392Y-136850690D01*
X157291135Y-136830319D01*
X157293111Y-136830300D01*
X157718588Y-136830300D01*
X157734765Y-136832938D01*
X157741886Y-136832608D01*
X157741890Y-136832610D01*
X157789534Y-136830407D01*
X157794181Y-136830300D01*
X157813089Y-136830300D01*
X157813201Y-136830278D01*
X157827038Y-136828672D01*
X157855909Y-136827338D01*
X157865032Y-136823309D01*
X157887182Y-136816449D01*
X157896997Y-136814615D01*
X157921565Y-136799401D01*
X157933889Y-136792905D01*
X157960325Y-136781234D01*
X157967383Y-136774175D01*
X157985558Y-136759779D01*
X157994042Y-136754527D01*
X158011460Y-136731460D01*
X158020593Y-136720964D01*
X165819779Y-128921778D01*
X165875175Y-128893554D01*
X165936583Y-128903280D01*
X165952149Y-128913101D01*
X165967341Y-128924758D01*
X166029863Y-128950655D01*
X166100308Y-128979834D01*
X166243000Y-128998620D01*
X166385691Y-128979834D01*
X166518659Y-128924758D01*
X166518658Y-128924758D01*
X166530895Y-128919690D01*
X166532026Y-128922421D01*
X166571464Y-128908455D01*
X166631078Y-128926111D01*
X166668929Y-128975437D01*
X166674700Y-129009020D01*
X166674700Y-129220870D01*
X166655487Y-129280001D01*
X166645235Y-129292005D01*
X165819934Y-130117305D01*
X165806629Y-130126879D01*
X165769696Y-130167391D01*
X165766494Y-130170745D01*
X165753114Y-130184126D01*
X165753038Y-130184238D01*
X165744406Y-130195132D01*
X165724933Y-130216494D01*
X165721324Y-130225810D01*
X165710516Y-130246313D01*
X165704876Y-130254546D01*
X165698257Y-130282683D01*
X165694138Y-130295983D01*
X165683700Y-130322929D01*
X165683700Y-130332909D01*
X165681028Y-130355940D01*
X165678743Y-130365655D01*
X165682735Y-130394272D01*
X165683700Y-130408171D01*
X165683700Y-135035289D01*
X165681061Y-135051467D01*
X165683593Y-135106235D01*
X165683700Y-135110881D01*
X165683700Y-135129788D01*
X165683722Y-135129906D01*
X165685326Y-135143732D01*
X165686662Y-135172609D01*
X165690692Y-135181737D01*
X165697549Y-135203881D01*
X165699384Y-135213695D01*
X165714595Y-135238262D01*
X165721091Y-135250585D01*
X165732765Y-135277024D01*
X165739823Y-135284082D01*
X165754220Y-135302258D01*
X165759472Y-135310741D01*
X165782532Y-135328155D01*
X165793042Y-135337301D01*
X166296835Y-135841094D01*
X166325061Y-135896492D01*
X166326300Y-135912229D01*
X166326300Y-136468299D01*
X166326300Y-136468320D01*
X166326301Y-136470646D01*
X166326518Y-136472962D01*
X166326519Y-136472981D01*
X166329094Y-136500450D01*
X166373021Y-136625987D01*
X166373022Y-136625988D01*
X166452000Y-136733000D01*
X166559012Y-136811978D01*
X166684549Y-136855905D01*
X166714353Y-136858700D01*
X167295646Y-136858699D01*
X167325451Y-136855905D01*
X167450988Y-136811978D01*
X167558000Y-136733000D01*
X167558000Y-136732999D01*
X167570201Y-136723995D01*
X167572630Y-136727287D01*
X167601149Y-136706893D01*
X167631517Y-136702200D01*
X167883700Y-136702200D01*
X167942831Y-136721413D01*
X167979376Y-136771713D01*
X167984300Y-136802800D01*
X167984300Y-137325063D01*
X167996119Y-137384480D01*
X168041139Y-137451860D01*
X168086160Y-137481940D01*
X168108520Y-137496881D01*
X168167936Y-137508700D01*
X168167937Y-137508700D01*
X170308063Y-137508700D01*
X170308064Y-137508700D01*
X170367480Y-137496881D01*
X170434860Y-137451860D01*
X170479881Y-137384480D01*
X170491700Y-137325064D01*
X170491700Y-135484936D01*
X170479881Y-135425520D01*
X170464940Y-135403160D01*
X170434860Y-135358139D01*
X170367480Y-135313119D01*
X170355525Y-135310741D01*
X170308064Y-135301300D01*
X168167936Y-135301300D01*
X168138228Y-135307209D01*
X168108519Y-135313119D01*
X168041139Y-135358139D01*
X167996119Y-135425520D01*
X167990886Y-135451827D01*
X167960505Y-135506074D01*
X167904042Y-135532103D01*
X167892219Y-135532800D01*
X167631517Y-135532800D01*
X167572386Y-135513587D01*
X167568576Y-135509806D01*
X167558000Y-135502001D01*
X167558000Y-135502000D01*
X167450988Y-135423022D01*
X167325451Y-135379095D01*
X167325449Y-135379094D01*
X167325447Y-135379094D01*
X167297991Y-135376519D01*
X167297973Y-135376518D01*
X167295647Y-135376300D01*
X167293304Y-135376300D01*
X166737229Y-135376300D01*
X166678098Y-135357087D01*
X166666094Y-135346835D01*
X166344322Y-135025063D01*
X170884300Y-135025063D01*
X170896119Y-135084480D01*
X170941139Y-135151860D01*
X170985855Y-135181737D01*
X171008520Y-135196881D01*
X171067936Y-135208700D01*
X171067937Y-135208700D01*
X173208063Y-135208700D01*
X173208064Y-135208700D01*
X173267480Y-135196881D01*
X173334860Y-135151860D01*
X173379881Y-135084480D01*
X173385113Y-135058173D01*
X173415495Y-135003926D01*
X173471958Y-134977897D01*
X173483781Y-134977200D01*
X173744483Y-134977200D01*
X173803614Y-134996413D01*
X173807423Y-135000193D01*
X173817998Y-135007998D01*
X173818000Y-135008000D01*
X173925012Y-135086978D01*
X174050549Y-135130905D01*
X174080353Y-135133700D01*
X174661646Y-135133699D01*
X174691451Y-135130905D01*
X174816988Y-135086978D01*
X174924000Y-135008000D01*
X175002978Y-134900988D01*
X175046905Y-134775451D01*
X175049700Y-134745647D01*
X175049699Y-134039354D01*
X175046905Y-134009549D01*
X175002978Y-133884012D01*
X174924000Y-133777000D01*
X174816988Y-133698022D01*
X174691451Y-133654095D01*
X174691449Y-133654094D01*
X174691447Y-133654094D01*
X174663991Y-133651519D01*
X174663973Y-133651518D01*
X174661647Y-133651300D01*
X174659303Y-133651300D01*
X174082700Y-133651300D01*
X174082678Y-133651300D01*
X174080354Y-133651301D01*
X174078038Y-133651518D01*
X174078018Y-133651519D01*
X174050549Y-133654094D01*
X173925011Y-133698022D01*
X173805799Y-133786005D01*
X173803369Y-133782712D01*
X173774851Y-133803107D01*
X173744483Y-133807800D01*
X173504960Y-133807800D01*
X173445829Y-133788587D01*
X173409284Y-133738287D01*
X173409284Y-133676113D01*
X173433825Y-133636065D01*
X173717225Y-133352665D01*
X173772623Y-133324439D01*
X173788360Y-133323200D01*
X173810911Y-133323200D01*
X173870042Y-133342413D01*
X173870649Y-133342857D01*
X173883939Y-133352665D01*
X173925012Y-133382978D01*
X174050549Y-133426905D01*
X174080353Y-133429700D01*
X174661646Y-133429699D01*
X174691451Y-133426905D01*
X174816988Y-133382978D01*
X174924000Y-133304000D01*
X175002978Y-133196988D01*
X175046905Y-133071451D01*
X175049700Y-133041647D01*
X175049699Y-132435354D01*
X175046905Y-132405549D01*
X175002978Y-132280012D01*
X174924000Y-132173000D01*
X174816988Y-132094022D01*
X174691451Y-132050095D01*
X174691449Y-132050094D01*
X174691447Y-132050094D01*
X174663991Y-132047519D01*
X174663973Y-132047518D01*
X174661647Y-132047300D01*
X174659303Y-132047300D01*
X174082700Y-132047300D01*
X174082678Y-132047300D01*
X174080354Y-132047301D01*
X174078038Y-132047518D01*
X174078018Y-132047519D01*
X174050549Y-132050094D01*
X173925011Y-132094022D01*
X173870649Y-132134143D01*
X173811663Y-132153797D01*
X173810911Y-132153800D01*
X173549418Y-132153800D01*
X173536288Y-132152939D01*
X173531200Y-132152269D01*
X173504499Y-132148753D01*
X173351863Y-132168849D01*
X173209629Y-132227764D01*
X173165112Y-132261923D01*
X173087485Y-132321488D01*
X173067966Y-132346925D01*
X173059292Y-132356816D01*
X172444275Y-132971835D01*
X172388877Y-133000061D01*
X172373140Y-133001300D01*
X171067936Y-133001300D01*
X171040302Y-133006797D01*
X171008519Y-133013119D01*
X170941139Y-133058139D01*
X170896119Y-133125519D01*
X170884300Y-133184936D01*
X170884300Y-135025063D01*
X166344322Y-135025063D01*
X166323765Y-135004506D01*
X166295539Y-134949108D01*
X166294300Y-134933371D01*
X166294300Y-130548127D01*
X166313513Y-130488996D01*
X166323759Y-130476998D01*
X167099866Y-129700891D01*
X167155262Y-129672667D01*
X167216670Y-129682393D01*
X167242134Y-129700893D01*
X168623802Y-131082561D01*
X168633378Y-131095869D01*
X168638644Y-131100670D01*
X168638645Y-131100671D01*
X168660382Y-131120487D01*
X168673890Y-131132801D01*
X168677251Y-131136010D01*
X168690624Y-131149383D01*
X168690725Y-131149452D01*
X168701638Y-131158097D01*
X168722994Y-131177566D01*
X168722995Y-131177566D01*
X168722996Y-131177567D01*
X168732305Y-131181173D01*
X168752809Y-131191980D01*
X168761047Y-131197624D01*
X168789180Y-131204240D01*
X168802478Y-131208358D01*
X168829430Y-131218800D01*
X168839410Y-131218800D01*
X168862441Y-131221471D01*
X168872157Y-131223757D01*
X168900775Y-131219764D01*
X168914673Y-131218800D01*
X173614040Y-131218800D01*
X173673171Y-131238013D01*
X173708994Y-131286172D01*
X173739022Y-131371988D01*
X173818000Y-131479000D01*
X173925012Y-131557978D01*
X174050549Y-131601905D01*
X174080353Y-131604700D01*
X174661646Y-131604699D01*
X174691451Y-131601905D01*
X174816988Y-131557978D01*
X174924000Y-131479000D01*
X175002978Y-131371988D01*
X175046905Y-131246451D01*
X175049700Y-131216647D01*
X175049699Y-130610354D01*
X175046905Y-130580549D01*
X175002978Y-130455012D01*
X174924000Y-130348000D01*
X174816988Y-130269022D01*
X174691451Y-130225095D01*
X174691449Y-130225094D01*
X174691447Y-130225094D01*
X174663991Y-130222519D01*
X174663973Y-130222518D01*
X174661647Y-130222300D01*
X174659303Y-130222300D01*
X174082700Y-130222300D01*
X174082678Y-130222300D01*
X174080354Y-130222301D01*
X174078038Y-130222518D01*
X174078018Y-130222519D01*
X174050549Y-130225094D01*
X173925011Y-130269022D01*
X173818000Y-130348000D01*
X173739022Y-130455011D01*
X173729354Y-130482642D01*
X173715348Y-130522671D01*
X173708995Y-130540826D01*
X173671331Y-130590293D01*
X173614040Y-130608200D01*
X169054629Y-130608200D01*
X168995498Y-130588987D01*
X168983494Y-130578735D01*
X167714765Y-129310005D01*
X167686539Y-129254607D01*
X167685300Y-129238870D01*
X167685300Y-126917736D01*
X167704513Y-126858605D01*
X167754813Y-126822060D01*
X167816987Y-126822060D01*
X167865711Y-126856495D01*
X167881557Y-126877145D01*
X167885160Y-126881840D01*
X167999341Y-126969455D01*
X168053795Y-126992010D01*
X168132308Y-127024531D01*
X168274999Y-127043317D01*
X168274999Y-127043316D01*
X168275000Y-127043317D01*
X168417691Y-127024531D01*
X168550659Y-126969455D01*
X168664840Y-126881840D01*
X168664840Y-126881838D01*
X168670958Y-126877145D01*
X168729566Y-126856390D01*
X168789180Y-126874049D01*
X168793442Y-126877145D01*
X168799559Y-126881838D01*
X168799560Y-126881840D01*
X168913741Y-126969455D01*
X168984325Y-126998691D01*
X169031602Y-127039069D01*
X169046117Y-127099525D01*
X169022325Y-127156967D01*
X168984326Y-127184575D01*
X168926940Y-127208345D01*
X168812759Y-127295959D01*
X168725145Y-127410140D01*
X168670068Y-127543109D01*
X168651282Y-127685799D01*
X168670068Y-127828491D01*
X168718281Y-127944887D01*
X168725145Y-127961459D01*
X168754271Y-127999416D01*
X168812759Y-128075640D01*
X168853536Y-128106929D01*
X168926941Y-128163255D01*
X169059909Y-128218331D01*
X169177726Y-128233842D01*
X169233844Y-128260608D01*
X169263511Y-128315248D01*
X169264335Y-128346712D01*
X169247682Y-128473199D01*
X169266468Y-128615891D01*
X169307722Y-128715487D01*
X169321545Y-128748859D01*
X169349269Y-128784989D01*
X169409159Y-128863040D01*
X169463843Y-128905000D01*
X169523341Y-128950655D01*
X169583171Y-128975437D01*
X169656308Y-129005731D01*
X169799000Y-129024517D01*
X169941691Y-129005731D01*
X170074659Y-128950655D01*
X170188840Y-128863040D01*
X170276455Y-128748859D01*
X170331531Y-128615891D01*
X170333826Y-128598461D01*
X170334926Y-128590108D01*
X170361692Y-128533991D01*
X170416332Y-128504324D01*
X170477974Y-128512439D01*
X170523074Y-128555237D01*
X170527608Y-128564742D01*
X170540745Y-128596459D01*
X170576308Y-128642805D01*
X170597063Y-128701413D01*
X170579404Y-128761027D01*
X170556236Y-128784989D01*
X170454600Y-128860000D01*
X170375622Y-128967011D01*
X170331694Y-129092552D01*
X170329119Y-129120008D01*
X170329119Y-129120018D01*
X170328900Y-129122353D01*
X170328900Y-129124695D01*
X170328900Y-129124696D01*
X170328900Y-129701299D01*
X170328900Y-129701320D01*
X170328901Y-129703646D01*
X170329118Y-129705962D01*
X170329119Y-129705981D01*
X170331694Y-129733450D01*
X170369861Y-129842524D01*
X170375622Y-129858988D01*
X170454600Y-129966000D01*
X170561612Y-130044978D01*
X170687149Y-130088905D01*
X170716953Y-130091700D01*
X171323246Y-130091699D01*
X171353051Y-130088905D01*
X171478588Y-130044978D01*
X171585600Y-129966000D01*
X171664578Y-129858988D01*
X171708505Y-129733451D01*
X171711300Y-129703647D01*
X171711299Y-129122354D01*
X171708505Y-129092549D01*
X171664578Y-128967012D01*
X171585600Y-128860000D01*
X171496017Y-128793885D01*
X171481537Y-128783198D01*
X171445370Y-128732626D01*
X171445835Y-128670454D01*
X171461463Y-128641018D01*
X171495655Y-128596459D01*
X171550731Y-128463491D01*
X171569517Y-128320800D01*
X171550731Y-128178109D01*
X171495655Y-128045142D01*
X171408040Y-127930960D01*
X171362857Y-127896289D01*
X171327642Y-127845049D01*
X171323500Y-127816479D01*
X171323500Y-126659128D01*
X171342713Y-126599997D01*
X171393013Y-126563452D01*
X171455187Y-126563452D01*
X171495232Y-126587991D01*
X172055633Y-127148392D01*
X172610671Y-127703430D01*
X172638897Y-127758828D01*
X172629171Y-127820236D01*
X172585207Y-127864200D01*
X172578034Y-127867507D01*
X172568721Y-127871364D01*
X172454540Y-127958978D01*
X172366926Y-128073159D01*
X172311849Y-128206128D01*
X172293063Y-128348819D01*
X172311849Y-128491510D01*
X172366925Y-128624476D01*
X172366926Y-128624478D01*
X172379614Y-128641013D01*
X172388336Y-128652380D01*
X172409090Y-128710988D01*
X172391431Y-128770602D01*
X172368263Y-128794563D01*
X172279600Y-128860000D01*
X172200622Y-128967011D01*
X172156694Y-129092552D01*
X172154119Y-129120008D01*
X172154119Y-129120018D01*
X172153900Y-129122353D01*
X172153900Y-129124695D01*
X172153900Y-129124696D01*
X172153900Y-129701299D01*
X172153900Y-129701320D01*
X172153901Y-129703646D01*
X172154118Y-129705962D01*
X172154119Y-129705981D01*
X172156694Y-129733450D01*
X172194861Y-129842524D01*
X172200622Y-129858988D01*
X172279600Y-129966000D01*
X172386612Y-130044978D01*
X172512149Y-130088905D01*
X172541953Y-130091700D01*
X173148246Y-130091699D01*
X173178051Y-130088905D01*
X173303588Y-130044978D01*
X173410600Y-129966000D01*
X173489578Y-129858988D01*
X173533505Y-129733451D01*
X173536300Y-129703647D01*
X173536299Y-129122354D01*
X173533505Y-129092549D01*
X173489578Y-128967012D01*
X173410600Y-128860000D01*
X173369021Y-128829313D01*
X173321018Y-128793885D01*
X173284851Y-128743313D01*
X173285316Y-128681140D01*
X173300945Y-128651702D01*
X173321836Y-128624478D01*
X173325692Y-128615167D01*
X173366070Y-128567889D01*
X173426526Y-128553374D01*
X173483968Y-128577166D01*
X173489770Y-128582529D01*
X175788835Y-130881593D01*
X175817061Y-130936991D01*
X175818300Y-130952728D01*
X175818300Y-133512389D01*
X175815661Y-133528567D01*
X175818193Y-133583335D01*
X175818300Y-133587981D01*
X175818300Y-133606888D01*
X175818322Y-133607006D01*
X175819926Y-133620832D01*
X175821262Y-133649709D01*
X175825292Y-133658837D01*
X175832149Y-133680981D01*
X175833984Y-133690795D01*
X175849195Y-133715362D01*
X175855691Y-133727685D01*
X175867365Y-133754124D01*
X175874423Y-133761182D01*
X175888820Y-133779358D01*
X175892935Y-133786005D01*
X175894073Y-133787842D01*
X175914287Y-133803107D01*
X175917132Y-133805255D01*
X175927642Y-133814401D01*
X178088245Y-135975004D01*
X178116471Y-136030402D01*
X178106745Y-136091810D01*
X178105831Y-136093561D01*
X178091797Y-136119815D01*
X178031548Y-136318434D01*
X178031547Y-136318436D01*
X178031547Y-136318439D01*
X178011202Y-136525000D01*
X178031547Y-136731561D01*
X178031547Y-136731563D01*
X178031548Y-136731565D01*
X178091797Y-136930184D01*
X178189639Y-137113234D01*
X178241777Y-137176763D01*
X178321317Y-137273683D01*
X178383924Y-137325063D01*
X178481765Y-137405360D01*
X178664815Y-137503202D01*
X178741407Y-137526435D01*
X178863439Y-137563453D01*
X179070000Y-137583798D01*
X179276561Y-137563453D01*
X179475184Y-137503202D01*
X179571238Y-137451860D01*
X179658234Y-137405360D01*
X179658235Y-137405358D01*
X179658237Y-137405358D01*
X179818683Y-137273683D01*
X179950358Y-137113237D01*
X180048202Y-136930184D01*
X180108453Y-136731561D01*
X180128798Y-136525000D01*
X180108453Y-136318439D01*
X180048202Y-136119816D01*
X180048202Y-136119815D01*
X179950360Y-135936765D01*
X179915601Y-135894411D01*
X179818683Y-135776317D01*
X179721763Y-135696777D01*
X179658234Y-135644639D01*
X179475184Y-135546797D01*
X179276565Y-135486548D01*
X179276563Y-135486547D01*
X179276561Y-135486547D01*
X179070000Y-135466202D01*
X178863439Y-135486547D01*
X178863436Y-135486547D01*
X178863434Y-135486548D01*
X178664815Y-135546797D01*
X178638561Y-135560831D01*
X178577355Y-135571761D01*
X178521414Y-135544628D01*
X178520004Y-135543245D01*
X176458365Y-133481605D01*
X176430139Y-133426207D01*
X176428900Y-133410470D01*
X176428900Y-133263129D01*
X176448113Y-133203998D01*
X176498413Y-133167453D01*
X176560587Y-133167453D01*
X176600634Y-133191993D01*
X177083226Y-133674586D01*
X177562703Y-134154063D01*
X177572277Y-134167368D01*
X177577544Y-134172170D01*
X177577545Y-134172171D01*
X177612778Y-134204290D01*
X177616139Y-134207499D01*
X177629523Y-134220883D01*
X177629622Y-134220951D01*
X177640536Y-134229595D01*
X177661896Y-134249067D01*
X177671200Y-134252671D01*
X177691709Y-134263481D01*
X177699946Y-134269124D01*
X177728082Y-134275741D01*
X177741378Y-134279858D01*
X177768330Y-134290300D01*
X177778313Y-134290300D01*
X177801344Y-134292972D01*
X177803360Y-134293446D01*
X177811056Y-134295256D01*
X177839668Y-134291264D01*
X177853565Y-134290300D01*
X177986889Y-134290300D01*
X178046020Y-134309513D01*
X178082565Y-134359813D01*
X178083130Y-134361609D01*
X178091798Y-134390184D01*
X178091800Y-134390189D01*
X178189639Y-134573234D01*
X178241777Y-134636763D01*
X178321317Y-134733683D01*
X178439411Y-134830601D01*
X178481765Y-134865360D01*
X178664815Y-134963202D01*
X178713259Y-134977897D01*
X178863439Y-135023453D01*
X179070000Y-135043798D01*
X179276561Y-135023453D01*
X179475184Y-134963202D01*
X179530994Y-134933371D01*
X179658234Y-134865360D01*
X179658235Y-134865358D01*
X179658237Y-134865358D01*
X179818683Y-134733683D01*
X179950358Y-134573237D01*
X180048202Y-134390184D01*
X180108453Y-134191561D01*
X180128798Y-133985000D01*
X180108453Y-133778439D01*
X180056450Y-133607006D01*
X180048202Y-133579815D01*
X179950360Y-133396765D01*
X179874228Y-133303999D01*
X179818683Y-133236317D01*
X179683676Y-133125519D01*
X179658234Y-133104639D01*
X179475184Y-133006797D01*
X179276565Y-132946548D01*
X179276563Y-132946547D01*
X179276561Y-132946547D01*
X179070000Y-132926202D01*
X178863439Y-132946547D01*
X178863436Y-132946547D01*
X178863434Y-132946548D01*
X178664815Y-133006797D01*
X178481765Y-133104639D01*
X178321317Y-133236317D01*
X178189639Y-133396765D01*
X178091798Y-133579814D01*
X178084702Y-133603208D01*
X178049152Y-133654216D01*
X177990409Y-133674586D01*
X177930912Y-133656537D01*
X177917299Y-133645140D01*
X176890165Y-132618005D01*
X176861939Y-132562607D01*
X176860700Y-132546870D01*
X176860700Y-130779717D01*
X176863338Y-130763541D01*
X176863008Y-130756419D01*
X176863010Y-130756416D01*
X176860807Y-130708770D01*
X176860700Y-130704124D01*
X176860700Y-130685218D01*
X176860679Y-130685106D01*
X176859072Y-130671270D01*
X176857738Y-130642397D01*
X176853706Y-130633267D01*
X176846849Y-130611121D01*
X176845015Y-130601309D01*
X176837385Y-130588987D01*
X176829800Y-130576736D01*
X176823302Y-130564408D01*
X176811634Y-130537981D01*
X176804576Y-130530923D01*
X176790183Y-130512753D01*
X176784927Y-130504264D01*
X176761863Y-130486846D01*
X176751360Y-130477707D01*
X170514765Y-124241111D01*
X170486539Y-124185713D01*
X170485300Y-124169976D01*
X170485300Y-120896094D01*
X170483700Y-120878830D01*
X170483700Y-120550015D01*
X170481333Y-120538114D01*
X170470534Y-120483825D01*
X170477841Y-120422084D01*
X170520045Y-120376428D01*
X170581025Y-120364298D01*
X170588806Y-120365530D01*
X170655014Y-120378700D01*
X170949994Y-120378700D01*
X170958552Y-120380300D01*
X170972930Y-120380300D01*
X175024871Y-120380300D01*
X175084002Y-120399513D01*
X175096006Y-120409765D01*
X175788834Y-121102593D01*
X175817060Y-121157991D01*
X175818299Y-121173728D01*
X175818299Y-124358177D01*
X175815661Y-124374356D01*
X175815990Y-124381477D01*
X175815990Y-124381478D01*
X175818148Y-124428163D01*
X175818193Y-124429123D01*
X175818300Y-124433769D01*
X175818300Y-124452676D01*
X175818322Y-124452794D01*
X175819926Y-124466620D01*
X175821262Y-124495497D01*
X175825292Y-124504625D01*
X175832149Y-124526769D01*
X175833984Y-124536583D01*
X175849195Y-124561150D01*
X175855691Y-124573473D01*
X175867365Y-124599912D01*
X175874423Y-124606970D01*
X175888820Y-124625146D01*
X175894072Y-124633629D01*
X175917132Y-124651043D01*
X175927642Y-124660189D01*
X176957235Y-125689782D01*
X176985461Y-125745180D01*
X176986700Y-125760917D01*
X176986700Y-129600789D01*
X176984061Y-129616967D01*
X176986593Y-129671735D01*
X176986700Y-129676381D01*
X176986700Y-129695288D01*
X176986722Y-129695406D01*
X176988326Y-129709232D01*
X176989662Y-129738109D01*
X176993692Y-129747237D01*
X177000549Y-129769381D01*
X177002384Y-129779195D01*
X177017595Y-129803762D01*
X177024091Y-129816085D01*
X177035765Y-129842524D01*
X177042823Y-129849582D01*
X177057220Y-129867758D01*
X177062472Y-129876241D01*
X177085532Y-129893655D01*
X177096042Y-129902801D01*
X178088245Y-130895004D01*
X178116471Y-130950402D01*
X178106745Y-131011810D01*
X178105831Y-131013561D01*
X178091797Y-131039815D01*
X178031548Y-131238434D01*
X178031547Y-131238436D01*
X178031547Y-131238439D01*
X178011202Y-131445000D01*
X178031547Y-131651561D01*
X178031547Y-131651563D01*
X178031548Y-131651565D01*
X178091797Y-131850184D01*
X178189639Y-132033234D01*
X178201183Y-132047300D01*
X178321317Y-132193683D01*
X178426508Y-132280011D01*
X178481765Y-132325360D01*
X178664815Y-132423202D01*
X178697175Y-132433018D01*
X178863439Y-132483453D01*
X179070000Y-132503798D01*
X179276561Y-132483453D01*
X179475184Y-132423202D01*
X179475184Y-132423201D01*
X179658234Y-132325360D01*
X179658235Y-132325358D01*
X179658237Y-132325358D01*
X179818683Y-132193683D01*
X179950358Y-132033237D01*
X180048202Y-131850184D01*
X180108453Y-131651561D01*
X180128798Y-131445000D01*
X180108453Y-131238439D01*
X180064688Y-131094163D01*
X180048202Y-131039815D01*
X179950360Y-130856765D01*
X179887128Y-130779717D01*
X179818683Y-130696317D01*
X179713937Y-130610354D01*
X179658234Y-130564639D01*
X179475184Y-130466797D01*
X179276565Y-130406548D01*
X179276563Y-130406547D01*
X179276561Y-130406547D01*
X179070000Y-130386202D01*
X178863439Y-130406547D01*
X178863436Y-130406547D01*
X178863434Y-130406548D01*
X178664815Y-130466797D01*
X178638561Y-130480831D01*
X178577355Y-130491761D01*
X178521414Y-130464628D01*
X178520004Y-130463245D01*
X177626765Y-129570006D01*
X177598539Y-129514608D01*
X177597300Y-129498871D01*
X177597300Y-128106929D01*
X177616513Y-128047798D01*
X177666813Y-128011253D01*
X177728987Y-128011253D01*
X177769035Y-128035794D01*
X178088245Y-128355004D01*
X178116471Y-128410402D01*
X178106745Y-128471810D01*
X178105831Y-128473561D01*
X178091797Y-128499815D01*
X178031548Y-128698434D01*
X178031547Y-128698436D01*
X178031547Y-128698439D01*
X178011202Y-128905000D01*
X178031547Y-129111561D01*
X178031547Y-129111563D01*
X178031548Y-129111565D01*
X178091797Y-129310184D01*
X178189639Y-129493234D01*
X178228463Y-129540541D01*
X178321317Y-129653683D01*
X178424190Y-129738109D01*
X178481765Y-129785360D01*
X178664815Y-129883202D01*
X178699275Y-129893655D01*
X178863439Y-129943453D01*
X179070000Y-129963798D01*
X179276561Y-129943453D01*
X179475184Y-129883202D01*
X179538083Y-129849582D01*
X179658234Y-129785360D01*
X179658235Y-129785358D01*
X179658237Y-129785358D01*
X179818683Y-129653683D01*
X179950358Y-129493237D01*
X180048202Y-129310184D01*
X180108453Y-129111561D01*
X180128798Y-128905000D01*
X180108453Y-128698439D01*
X180065014Y-128555237D01*
X180048202Y-128499815D01*
X179950360Y-128316765D01*
X179882306Y-128233842D01*
X179818683Y-128156317D01*
X179717355Y-128073159D01*
X179658234Y-128024639D01*
X179475184Y-127926797D01*
X179276565Y-127866548D01*
X179276563Y-127866547D01*
X179276561Y-127866547D01*
X179070000Y-127846202D01*
X178863439Y-127866547D01*
X178863436Y-127866547D01*
X178863434Y-127866548D01*
X178664815Y-127926797D01*
X178638561Y-127940831D01*
X178577355Y-127951761D01*
X178521414Y-127924628D01*
X178520004Y-127923245D01*
X178007765Y-127411006D01*
X177979539Y-127355608D01*
X177978300Y-127339871D01*
X177978300Y-126959462D01*
X177997513Y-126900331D01*
X178047813Y-126863786D01*
X178109987Y-126863786D01*
X178160287Y-126900331D01*
X178167622Y-126912040D01*
X178189642Y-126953238D01*
X178226944Y-126998690D01*
X178321317Y-127113683D01*
X178407699Y-127184575D01*
X178481765Y-127245360D01*
X178664815Y-127343202D01*
X178714021Y-127358128D01*
X178863439Y-127403453D01*
X179070000Y-127423798D01*
X179276561Y-127403453D01*
X179475184Y-127343202D01*
X179532704Y-127312457D01*
X179658234Y-127245360D01*
X179658235Y-127245358D01*
X179658237Y-127245358D01*
X179818683Y-127113683D01*
X179950358Y-126953237D01*
X179972379Y-126912040D01*
X180048202Y-126770184D01*
X180048968Y-126767659D01*
X180108453Y-126571561D01*
X180128798Y-126365000D01*
X180108453Y-126158439D01*
X180053660Y-125977808D01*
X180048202Y-125959815D01*
X179950360Y-125776765D01*
X179878974Y-125689782D01*
X179818683Y-125616317D01*
X179721763Y-125536777D01*
X179658234Y-125484639D01*
X179475184Y-125386797D01*
X179276565Y-125326548D01*
X179276563Y-125326547D01*
X179276561Y-125326547D01*
X179070000Y-125306202D01*
X178863439Y-125326547D01*
X178863436Y-125326547D01*
X178863434Y-125326548D01*
X178664815Y-125386797D01*
X178638561Y-125400831D01*
X178577355Y-125411761D01*
X178521414Y-125384628D01*
X178520004Y-125383245D01*
X177245765Y-124109006D01*
X177217539Y-124053608D01*
X177216300Y-124037871D01*
X177216300Y-122645929D01*
X177235513Y-122586798D01*
X177285813Y-122550253D01*
X177347987Y-122550253D01*
X177388035Y-122574794D01*
X178088245Y-123275004D01*
X178116471Y-123330402D01*
X178106745Y-123391810D01*
X178105831Y-123393561D01*
X178091797Y-123419815D01*
X178031548Y-123618434D01*
X178031547Y-123618436D01*
X178031547Y-123618439D01*
X178011202Y-123825000D01*
X178031547Y-124031561D01*
X178031547Y-124031563D01*
X178031548Y-124031565D01*
X178091797Y-124230184D01*
X178189639Y-124413234D01*
X178227738Y-124459657D01*
X178321317Y-124573683D01*
X178415580Y-124651043D01*
X178481765Y-124705360D01*
X178664815Y-124803202D01*
X178741407Y-124826435D01*
X178863439Y-124863453D01*
X179070000Y-124883798D01*
X179276561Y-124863453D01*
X179475184Y-124803202D01*
X179641134Y-124714500D01*
X179658234Y-124705360D01*
X179658235Y-124705358D01*
X179658237Y-124705358D01*
X179818683Y-124573683D01*
X179950358Y-124413237D01*
X179963653Y-124388365D01*
X180048202Y-124230184D01*
X180061692Y-124185713D01*
X180108453Y-124031561D01*
X180128798Y-123825000D01*
X180108453Y-123618439D01*
X180066963Y-123481663D01*
X180048202Y-123419815D01*
X179950360Y-123236765D01*
X179915601Y-123194411D01*
X179818683Y-123076317D01*
X179721763Y-122996777D01*
X179658234Y-122944639D01*
X179475184Y-122846797D01*
X179276565Y-122786548D01*
X179276563Y-122786547D01*
X179276561Y-122786547D01*
X179070000Y-122766202D01*
X178863439Y-122786547D01*
X178863436Y-122786547D01*
X178863434Y-122786548D01*
X178664815Y-122846797D01*
X178638561Y-122860831D01*
X178577355Y-122871761D01*
X178521414Y-122844628D01*
X178520004Y-122843245D01*
X178090491Y-122413732D01*
X177652165Y-121975405D01*
X177623939Y-121920007D01*
X177622700Y-121904270D01*
X177622700Y-120512329D01*
X177641913Y-120453198D01*
X177692213Y-120416653D01*
X177754387Y-120416653D01*
X177794435Y-120441194D01*
X178088245Y-120735004D01*
X178116471Y-120790402D01*
X178106745Y-120851810D01*
X178105831Y-120853561D01*
X178091797Y-120879815D01*
X178031548Y-121078434D01*
X178031547Y-121078436D01*
X178031547Y-121078439D01*
X178011202Y-121285000D01*
X178031547Y-121491561D01*
X178031547Y-121491563D01*
X178031548Y-121491565D01*
X178091797Y-121690184D01*
X178189639Y-121873234D01*
X178211217Y-121899526D01*
X178321317Y-122033683D01*
X178419119Y-122113947D01*
X178481765Y-122165360D01*
X178664815Y-122263202D01*
X178741407Y-122286435D01*
X178863439Y-122323453D01*
X179070000Y-122343798D01*
X179276561Y-122323453D01*
X179475184Y-122263202D01*
X179485103Y-122257900D01*
X179658234Y-122165360D01*
X179658235Y-122165358D01*
X179658237Y-122165358D01*
X179818683Y-122033683D01*
X179950358Y-121873237D01*
X179954399Y-121865678D01*
X180048202Y-121690184D01*
X180079379Y-121587405D01*
X180108453Y-121491561D01*
X180128798Y-121285000D01*
X180108453Y-121078439D01*
X180053140Y-120896094D01*
X180048202Y-120879815D01*
X179950360Y-120696765D01*
X179891512Y-120625059D01*
X179818683Y-120536317D01*
X179721491Y-120456553D01*
X179658234Y-120404639D01*
X179475184Y-120306797D01*
X179276565Y-120246548D01*
X179276563Y-120246547D01*
X179276561Y-120246547D01*
X179070000Y-120226202D01*
X178863439Y-120246547D01*
X178863436Y-120246547D01*
X178863434Y-120246548D01*
X178664815Y-120306797D01*
X178638561Y-120320831D01*
X178577355Y-120331761D01*
X178521414Y-120304628D01*
X178520004Y-120303245D01*
X178274017Y-120057258D01*
X178007765Y-119791005D01*
X177979539Y-119735607D01*
X177978300Y-119719870D01*
X177978300Y-119339462D01*
X177997513Y-119280331D01*
X178047813Y-119243786D01*
X178109987Y-119243786D01*
X178160287Y-119280331D01*
X178167622Y-119292040D01*
X178189642Y-119333238D01*
X178255479Y-119413459D01*
X178321317Y-119493683D01*
X178360709Y-119526011D01*
X178481765Y-119625360D01*
X178664815Y-119723202D01*
X178705710Y-119735607D01*
X178863439Y-119783453D01*
X179070000Y-119803798D01*
X179276561Y-119783453D01*
X179475184Y-119723202D01*
X179481418Y-119719870D01*
X179658234Y-119625360D01*
X179658235Y-119625358D01*
X179658237Y-119625358D01*
X179818683Y-119493683D01*
X179950358Y-119333237D01*
X179961717Y-119311987D01*
X180048202Y-119150184D01*
X180069810Y-119078950D01*
X180108453Y-118951561D01*
X180128798Y-118745000D01*
X180108453Y-118538439D01*
X180048202Y-118339816D01*
X180048202Y-118339815D01*
X179950360Y-118156765D01*
X179910295Y-118107946D01*
X179818683Y-117996317D01*
X179709042Y-117906337D01*
X179658234Y-117864639D01*
X179475184Y-117766797D01*
X179276565Y-117706548D01*
X179276563Y-117706547D01*
X179276561Y-117706547D01*
X179070000Y-117686202D01*
X178863439Y-117706547D01*
X178863436Y-117706547D01*
X178863434Y-117706548D01*
X178664815Y-117766797D01*
X178481765Y-117864639D01*
X178321317Y-117996317D01*
X178300117Y-118022148D01*
X178247751Y-118055666D01*
X178185685Y-118052004D01*
X178151219Y-118029460D01*
X177473794Y-117352035D01*
X177445568Y-117296637D01*
X177455294Y-117235229D01*
X177499258Y-117191265D01*
X177544929Y-117180300D01*
X178333788Y-117180300D01*
X178349965Y-117182938D01*
X178357086Y-117182608D01*
X178357090Y-117182610D01*
X178404734Y-117180407D01*
X178409381Y-117180300D01*
X178428289Y-117180300D01*
X178428401Y-117180278D01*
X178442238Y-117178672D01*
X178471109Y-117177338D01*
X178480232Y-117173309D01*
X178502382Y-117166449D01*
X178512197Y-117164615D01*
X178517518Y-117161319D01*
X178577905Y-117146522D01*
X178617903Y-117158126D01*
X178664816Y-117183202D01*
X178863439Y-117243453D01*
X179070000Y-117263798D01*
X179276561Y-117243453D01*
X179475184Y-117183202D01*
X179493691Y-117173310D01*
X179658234Y-117085360D01*
X179658235Y-117085358D01*
X179658237Y-117085358D01*
X179818683Y-116953683D01*
X179950358Y-116793237D01*
X179993397Y-116712718D01*
X180048202Y-116610184D01*
X180108453Y-116411561D01*
X180128798Y-116205000D01*
X180108453Y-115998439D01*
X180069810Y-115871050D01*
X180048202Y-115799815D01*
X179950360Y-115616765D01*
X179915601Y-115574411D01*
X179818683Y-115456317D01*
X179689119Y-115349986D01*
X179658234Y-115324639D01*
X179475184Y-115226797D01*
X179276565Y-115166548D01*
X179276563Y-115166547D01*
X179276561Y-115166547D01*
X179070000Y-115146202D01*
X178863439Y-115166547D01*
X178863436Y-115166547D01*
X178863434Y-115166548D01*
X178664815Y-115226797D01*
X178481765Y-115324639D01*
X178321317Y-115456317D01*
X178189639Y-115616765D01*
X178091797Y-115799815D01*
X178031548Y-115998434D01*
X178031547Y-115998436D01*
X178031547Y-115998439D01*
X178011202Y-116205000D01*
X178031547Y-116411561D01*
X178040142Y-116439898D01*
X178038923Y-116502060D01*
X178001397Y-116551632D01*
X177943875Y-116569700D01*
X176839929Y-116569700D01*
X176780798Y-116550487D01*
X176744253Y-116500187D01*
X176744253Y-116438013D01*
X176768794Y-116397965D01*
X177168325Y-115998434D01*
X178520005Y-114646752D01*
X178575401Y-114618528D01*
X178636809Y-114628254D01*
X178638541Y-114629158D01*
X178664816Y-114643202D01*
X178863439Y-114703453D01*
X179070000Y-114723798D01*
X179276561Y-114703453D01*
X179475184Y-114643202D01*
X179529260Y-114614298D01*
X179658234Y-114545360D01*
X179658235Y-114545358D01*
X179658237Y-114545358D01*
X179818683Y-114413683D01*
X179950358Y-114253237D01*
X180048202Y-114070184D01*
X180108453Y-113871561D01*
X180128798Y-113665000D01*
X180108453Y-113458439D01*
X180061132Y-113302441D01*
X180048202Y-113259815D01*
X179950360Y-113076765D01*
X179880679Y-112991859D01*
X179818683Y-112916317D01*
X179721763Y-112836777D01*
X179658234Y-112784639D01*
X179475184Y-112686797D01*
X179276565Y-112626548D01*
X179276563Y-112626547D01*
X179276561Y-112626547D01*
X179070000Y-112606202D01*
X178863439Y-112626547D01*
X178863436Y-112626547D01*
X178863434Y-112626548D01*
X178664815Y-112686797D01*
X178481765Y-112784639D01*
X178321317Y-112916317D01*
X178189640Y-113076763D01*
X178167621Y-113117960D01*
X178122803Y-113161052D01*
X178061215Y-113169570D01*
X178006382Y-113140261D01*
X177979249Y-113084320D01*
X177978300Y-113070537D01*
X177978300Y-112690128D01*
X177997513Y-112630997D01*
X178007759Y-112618999D01*
X178520005Y-112106752D01*
X178575401Y-112078528D01*
X178636809Y-112088254D01*
X178638541Y-112089158D01*
X178664816Y-112103202D01*
X178863439Y-112163453D01*
X179070000Y-112183798D01*
X179276561Y-112163453D01*
X179475184Y-112103202D01*
X179486321Y-112097249D01*
X179658234Y-112005360D01*
X179658235Y-112005358D01*
X179658237Y-112005358D01*
X179818683Y-111873683D01*
X179950358Y-111713237D01*
X179955799Y-111703059D01*
X180048202Y-111530184D01*
X180055601Y-111505791D01*
X180108453Y-111331561D01*
X180128798Y-111125000D01*
X180108453Y-110918439D01*
X180057099Y-110749145D01*
X180048202Y-110719815D01*
X179950360Y-110536765D01*
X179904202Y-110480522D01*
X179818683Y-110376317D01*
X179721763Y-110296777D01*
X179658234Y-110244639D01*
X179475184Y-110146797D01*
X179276565Y-110086548D01*
X179276563Y-110086547D01*
X179276561Y-110086547D01*
X179070000Y-110066202D01*
X178863439Y-110086547D01*
X178863436Y-110086547D01*
X178863434Y-110086548D01*
X178664815Y-110146797D01*
X178481765Y-110244639D01*
X178321317Y-110376317D01*
X178189639Y-110536765D01*
X178091797Y-110719815D01*
X178031548Y-110918434D01*
X178031547Y-110918436D01*
X178031547Y-110918439D01*
X178011202Y-111125000D01*
X178031547Y-111331561D01*
X178031547Y-111331563D01*
X178031548Y-111331565D01*
X178091797Y-111530183D01*
X178105831Y-111556439D01*
X178116760Y-111617645D01*
X178089626Y-111673586D01*
X178088244Y-111674995D01*
X177794434Y-111968805D01*
X177739036Y-111997031D01*
X177677628Y-111987305D01*
X177633664Y-111943341D01*
X177622700Y-111897674D01*
X177622700Y-110505727D01*
X177641913Y-110446597D01*
X177652159Y-110434599D01*
X178520005Y-109566752D01*
X178575401Y-109538528D01*
X178636809Y-109548254D01*
X178638541Y-109549158D01*
X178664816Y-109563202D01*
X178863439Y-109623453D01*
X179070000Y-109643798D01*
X179276561Y-109623453D01*
X179475184Y-109563202D01*
X179625531Y-109482840D01*
X179658234Y-109465360D01*
X179658235Y-109465358D01*
X179658237Y-109465358D01*
X179818683Y-109333683D01*
X179950358Y-109173237D01*
X179975801Y-109125638D01*
X180048202Y-108990184D01*
X180087474Y-108860720D01*
X180108453Y-108791561D01*
X180128798Y-108585000D01*
X180108453Y-108378439D01*
X180063220Y-108229325D01*
X180048202Y-108179815D01*
X179950360Y-107996765D01*
X179905669Y-107942310D01*
X179818683Y-107836317D01*
X179690582Y-107731187D01*
X179658234Y-107704639D01*
X179475184Y-107606797D01*
X179276565Y-107546548D01*
X179276563Y-107546547D01*
X179276561Y-107546547D01*
X179070000Y-107526202D01*
X178863439Y-107546547D01*
X178863436Y-107546547D01*
X178863434Y-107546548D01*
X178664815Y-107606797D01*
X178481765Y-107704639D01*
X178321317Y-107836317D01*
X178189639Y-107996765D01*
X178091797Y-108179815D01*
X178031548Y-108378434D01*
X178031547Y-108378436D01*
X178031547Y-108378439D01*
X178011202Y-108585000D01*
X178031547Y-108791561D01*
X178031547Y-108791563D01*
X178031548Y-108791565D01*
X178091797Y-108990183D01*
X178105831Y-109016439D01*
X178116760Y-109077645D01*
X178089626Y-109133586D01*
X178088244Y-109134995D01*
X177438835Y-109784405D01*
X177383437Y-109812631D01*
X177322029Y-109802905D01*
X177278065Y-109758942D01*
X177267100Y-109713270D01*
X177267100Y-108321327D01*
X177286313Y-108262196D01*
X177296559Y-108250198D01*
X178520005Y-107026752D01*
X178575401Y-106998528D01*
X178636809Y-107008254D01*
X178638541Y-107009158D01*
X178664816Y-107023202D01*
X178863439Y-107083453D01*
X179070000Y-107103798D01*
X179276561Y-107083453D01*
X179475184Y-107023202D01*
X179567240Y-106973997D01*
X179658234Y-106925360D01*
X179658235Y-106925358D01*
X179658237Y-106925358D01*
X179818683Y-106793683D01*
X179950358Y-106633237D01*
X180048202Y-106450184D01*
X180108453Y-106251561D01*
X180128798Y-106045000D01*
X180108453Y-105838439D01*
X180048202Y-105639816D01*
X180048202Y-105639815D01*
X179950360Y-105456765D01*
X179897125Y-105391899D01*
X179818683Y-105296317D01*
X179721763Y-105216777D01*
X179658234Y-105164639D01*
X179475184Y-105066797D01*
X179276565Y-105006548D01*
X179276563Y-105006547D01*
X179276561Y-105006547D01*
X179070000Y-104986202D01*
X178863439Y-105006547D01*
X178863436Y-105006547D01*
X178863434Y-105006548D01*
X178664815Y-105066797D01*
X178481765Y-105164639D01*
X178321317Y-105296317D01*
X178189639Y-105456765D01*
X178091797Y-105639815D01*
X178031548Y-105838434D01*
X178031547Y-105838436D01*
X178031547Y-105838439D01*
X178011202Y-106045000D01*
X178031547Y-106251561D01*
X178031547Y-106251563D01*
X178031548Y-106251565D01*
X178091797Y-106450183D01*
X178105831Y-106476439D01*
X178116760Y-106537645D01*
X178089626Y-106593586D01*
X178088244Y-106594995D01*
X176792734Y-107890505D01*
X176779429Y-107900079D01*
X176742495Y-107940592D01*
X176739293Y-107943946D01*
X176725914Y-107957326D01*
X176725838Y-107957438D01*
X176717206Y-107968332D01*
X176697733Y-107989694D01*
X176694124Y-107999010D01*
X176683316Y-108019513D01*
X176677676Y-108027746D01*
X176671057Y-108055883D01*
X176666938Y-108069183D01*
X176656500Y-108096129D01*
X176656500Y-108106109D01*
X176653828Y-108129140D01*
X176651543Y-108138855D01*
X176655535Y-108167472D01*
X176656500Y-108181371D01*
X176656500Y-114081070D01*
X176637287Y-114140201D01*
X176627035Y-114152205D01*
X175839006Y-114940235D01*
X175783608Y-114968461D01*
X175767871Y-114969700D01*
X172912184Y-114969700D01*
X172853053Y-114950487D01*
X172816508Y-114900187D01*
X172816508Y-114838013D01*
X172850942Y-114789289D01*
X172881240Y-114766040D01*
X172905958Y-114733827D01*
X172968855Y-114651859D01*
X173023931Y-114518891D01*
X173042717Y-114376200D01*
X173023931Y-114233509D01*
X172968855Y-114100542D01*
X172968854Y-114100541D01*
X172968854Y-114100540D01*
X172881241Y-113986361D01*
X172881240Y-113986360D01*
X172767059Y-113898745D01*
X172767057Y-113898744D01*
X172634091Y-113843668D01*
X172491400Y-113824882D01*
X172348709Y-113843668D01*
X172215740Y-113898745D01*
X172101559Y-113986359D01*
X172013945Y-114100540D01*
X171958868Y-114233509D01*
X171940082Y-114376200D01*
X171947516Y-114432662D01*
X171936186Y-114493795D01*
X171918913Y-114516926D01*
X171895607Y-114540233D01*
X171840210Y-114568461D01*
X171824471Y-114569700D01*
X171001097Y-114569700D01*
X170983830Y-114571300D01*
X170655014Y-114571300D01*
X170588827Y-114584465D01*
X170527083Y-114577157D01*
X170481428Y-114534953D01*
X170469298Y-114473973D01*
X170470529Y-114466197D01*
X170483700Y-114399986D01*
X170483700Y-114105005D01*
X170485300Y-114096447D01*
X170485300Y-113807728D01*
X170504513Y-113748597D01*
X170514759Y-113736599D01*
X171578571Y-112672787D01*
X171611206Y-112650982D01*
X171618088Y-112648131D01*
X171618091Y-112648131D01*
X171751059Y-112593055D01*
X171865240Y-112505440D01*
X171952855Y-112391259D01*
X172007931Y-112258291D01*
X172026717Y-112115600D01*
X172025552Y-112106754D01*
X172007931Y-111972909D01*
X172007931Y-111972908D01*
X171952855Y-111839942D01*
X171952854Y-111839941D01*
X171952854Y-111839940D01*
X171865241Y-111725761D01*
X171848916Y-111713234D01*
X171751059Y-111638145D01*
X171735241Y-111631593D01*
X171618091Y-111583068D01*
X171475400Y-111564282D01*
X171332709Y-111583068D01*
X171199740Y-111638145D01*
X171079440Y-111730455D01*
X171020832Y-111751210D01*
X170961218Y-111733551D01*
X170956957Y-111730455D01*
X170950842Y-111725762D01*
X170950840Y-111725760D01*
X170836659Y-111638145D01*
X170820841Y-111631593D01*
X170703691Y-111583068D01*
X170561000Y-111564282D01*
X170418310Y-111583068D01*
X170343946Y-111613870D01*
X170281963Y-111618747D01*
X170228951Y-111586261D01*
X170205159Y-111528819D01*
X170210495Y-111487700D01*
X170216271Y-111471193D01*
X170220905Y-111457951D01*
X170223700Y-111428147D01*
X170223699Y-110821854D01*
X170220905Y-110792049D01*
X170176978Y-110666512D01*
X170098000Y-110559500D01*
X169990988Y-110480522D01*
X169865451Y-110436595D01*
X169865449Y-110436594D01*
X169865447Y-110436594D01*
X169837991Y-110434019D01*
X169837973Y-110434018D01*
X169835647Y-110433800D01*
X169833303Y-110433800D01*
X169256700Y-110433800D01*
X169256678Y-110433800D01*
X169254354Y-110433801D01*
X169252038Y-110434018D01*
X169252018Y-110434019D01*
X169224549Y-110436594D01*
X169099011Y-110480522D01*
X168992000Y-110559500D01*
X168913022Y-110666511D01*
X168903783Y-110692916D01*
X168893109Y-110723422D01*
X168892955Y-110723861D01*
X168855290Y-110773328D01*
X168795743Y-110791210D01*
X168737058Y-110770675D01*
X168703045Y-110723861D01*
X168682978Y-110666512D01*
X168604000Y-110559500D01*
X168496988Y-110480522D01*
X168371451Y-110436595D01*
X168371449Y-110436594D01*
X168371447Y-110436594D01*
X168343991Y-110434019D01*
X168343973Y-110434018D01*
X168341647Y-110433800D01*
X168339303Y-110433800D01*
X167762700Y-110433800D01*
X167762678Y-110433800D01*
X167760354Y-110433801D01*
X167758038Y-110434018D01*
X167758018Y-110434019D01*
X167730549Y-110436594D01*
X167605011Y-110480522D01*
X167498000Y-110559500D01*
X167419022Y-110666511D01*
X167375094Y-110792052D01*
X167372519Y-110819508D01*
X167372519Y-110819518D01*
X167372300Y-110821853D01*
X167372300Y-110824195D01*
X167372300Y-110824196D01*
X167372300Y-110842046D01*
X167353087Y-110901177D01*
X167302787Y-110937722D01*
X167240613Y-110937722D01*
X167191889Y-110903287D01*
X167140841Y-110836761D01*
X167140840Y-110836760D01*
X167026659Y-110749145D01*
X167026657Y-110749144D01*
X166893690Y-110694068D01*
X166889786Y-110693554D01*
X166833669Y-110666786D01*
X166804003Y-110612145D01*
X166812120Y-110550503D01*
X166841676Y-110514005D01*
X166861440Y-110498840D01*
X166949055Y-110384659D01*
X167004131Y-110251691D01*
X167022917Y-110109000D01*
X167004131Y-109966309D01*
X166949055Y-109833342D01*
X166949054Y-109833341D01*
X166949054Y-109833340D01*
X166861441Y-109719161D01*
X166837952Y-109701137D01*
X166747259Y-109631545D01*
X166744512Y-109630407D01*
X166656427Y-109593921D01*
X166609149Y-109553542D01*
X166594635Y-109493086D01*
X166615114Y-109439737D01*
X166669655Y-109368659D01*
X166724731Y-109235691D01*
X166743517Y-109093000D01*
X166724731Y-108950309D01*
X166669655Y-108817342D01*
X166669654Y-108817341D01*
X166669654Y-108817340D01*
X166582041Y-108703161D01*
X166582040Y-108703160D01*
X166467859Y-108615545D01*
X166467857Y-108615544D01*
X166436185Y-108602425D01*
X166388908Y-108562047D01*
X166374393Y-108501590D01*
X166387499Y-108467452D01*
X166385187Y-108466495D01*
X166445331Y-108321291D01*
X166464117Y-108178600D01*
X166445331Y-108035909D01*
X166417340Y-107968332D01*
X166390255Y-107902942D01*
X166390254Y-107902941D01*
X166390254Y-107902940D01*
X166302641Y-107788761D01*
X166302640Y-107788760D01*
X166188459Y-107701145D01*
X166188457Y-107701144D01*
X166055491Y-107646068D01*
X165912799Y-107627282D01*
X165770109Y-107646068D01*
X165637140Y-107701145D01*
X165522959Y-107788759D01*
X165435345Y-107902940D01*
X165380268Y-108035909D01*
X165361482Y-108178599D01*
X165368916Y-108235061D01*
X165357586Y-108296194D01*
X165340312Y-108319327D01*
X165235734Y-108423905D01*
X165222429Y-108433479D01*
X165185495Y-108473992D01*
X165182293Y-108477346D01*
X165168914Y-108490726D01*
X165168838Y-108490838D01*
X165160206Y-108501732D01*
X165140733Y-108523094D01*
X165137124Y-108532410D01*
X165126316Y-108552913D01*
X165120676Y-108561146D01*
X165114057Y-108589283D01*
X165109938Y-108602583D01*
X165099500Y-108629529D01*
X165099500Y-108639509D01*
X165096828Y-108662540D01*
X165094543Y-108672255D01*
X165098535Y-108700872D01*
X165099500Y-108714771D01*
X165099500Y-112023989D01*
X165096861Y-112040167D01*
X165097190Y-112047289D01*
X165097190Y-112047290D01*
X165098621Y-112078237D01*
X165099393Y-112094935D01*
X165099500Y-112099581D01*
X165099500Y-112118488D01*
X165099522Y-112118606D01*
X165101128Y-112132477D01*
X165101210Y-112134267D01*
X165084723Y-112194216D01*
X165036148Y-112233024D01*
X164974039Y-112235870D01*
X164929580Y-112210006D01*
X164351167Y-111631593D01*
X164341592Y-111618285D01*
X164301077Y-111581351D01*
X164297715Y-111578141D01*
X164284343Y-111564769D01*
X164284245Y-111564702D01*
X164273331Y-111556057D01*
X164251972Y-111536586D01*
X164251970Y-111536585D01*
X164251969Y-111536584D01*
X164242664Y-111532979D01*
X164222159Y-111522171D01*
X164213921Y-111516529D01*
X164185788Y-111509911D01*
X164172484Y-111505791D01*
X164145539Y-111495353D01*
X164145538Y-111495353D01*
X164135559Y-111495353D01*
X164112528Y-111492681D01*
X164102812Y-111490396D01*
X164074196Y-111494388D01*
X164060297Y-111495353D01*
X163424076Y-111495353D01*
X163364945Y-111476140D01*
X163352941Y-111465888D01*
X162488365Y-110601312D01*
X162460139Y-110545914D01*
X162458900Y-110530177D01*
X162458900Y-108860720D01*
X162478113Y-108801589D01*
X162498256Y-108780910D01*
X162543440Y-108746240D01*
X162631055Y-108632059D01*
X162686131Y-108499091D01*
X162704917Y-108356400D01*
X162686131Y-108213709D01*
X162631055Y-108080742D01*
X162631054Y-108080741D01*
X162631054Y-108080740D01*
X162543441Y-107966561D01*
X162543440Y-107966560D01*
X162429259Y-107878945D01*
X162427900Y-107878382D01*
X162296291Y-107823868D01*
X162153599Y-107805082D01*
X162010909Y-107823868D01*
X161877940Y-107878945D01*
X161763759Y-107966559D01*
X161676145Y-108080740D01*
X161621068Y-108213709D01*
X161602282Y-108356400D01*
X161621068Y-108499091D01*
X161674341Y-108627704D01*
X161676145Y-108632059D01*
X161763760Y-108746240D01*
X161808942Y-108780909D01*
X161844157Y-108832147D01*
X161848300Y-108860720D01*
X161848300Y-109125638D01*
X161829087Y-109184769D01*
X161778787Y-109221314D01*
X161716613Y-109221314D01*
X161709203Y-109218581D01*
X161675808Y-109204749D01*
X161533118Y-109185963D01*
X161390429Y-109204749D01*
X161380616Y-109208814D01*
X161318634Y-109213691D01*
X161265622Y-109181205D01*
X161241829Y-109123763D01*
X161241519Y-109115871D01*
X161241519Y-107314108D01*
X161260732Y-107254977D01*
X161311032Y-107218432D01*
X161329728Y-107214567D01*
X161331047Y-107214105D01*
X161331051Y-107214105D01*
X161456588Y-107170178D01*
X161563600Y-107091200D01*
X161642578Y-106984188D01*
X161672605Y-106898372D01*
X161710269Y-106848907D01*
X161767560Y-106831000D01*
X161828440Y-106831000D01*
X161887571Y-106850213D01*
X161923394Y-106898372D01*
X161953422Y-106984188D01*
X162032400Y-107091200D01*
X162139412Y-107170178D01*
X162264949Y-107214105D01*
X162294753Y-107216900D01*
X162876046Y-107216899D01*
X162905851Y-107214105D01*
X163031388Y-107170178D01*
X163138400Y-107091200D01*
X163217378Y-106984188D01*
X163261305Y-106858651D01*
X163264100Y-106828847D01*
X163264099Y-106222554D01*
X163261305Y-106192749D01*
X163217378Y-106067212D01*
X163138400Y-105960200D01*
X163031388Y-105881222D01*
X162905851Y-105837295D01*
X162905849Y-105837294D01*
X162905847Y-105837294D01*
X162878391Y-105834719D01*
X162878373Y-105834718D01*
X162876047Y-105834500D01*
X162873703Y-105834500D01*
X162297100Y-105834500D01*
X162297078Y-105834500D01*
X162294754Y-105834501D01*
X162292438Y-105834718D01*
X162292418Y-105834719D01*
X162264949Y-105837294D01*
X162139411Y-105881222D01*
X162032400Y-105960200D01*
X161953422Y-106067211D01*
X161923395Y-106153026D01*
X161885731Y-106202493D01*
X161828440Y-106220400D01*
X161767560Y-106220400D01*
X161708429Y-106201187D01*
X161672605Y-106153026D01*
X161642578Y-106067212D01*
X161563600Y-105960200D01*
X161456588Y-105881222D01*
X161331051Y-105837295D01*
X161331049Y-105837294D01*
X161331047Y-105837294D01*
X161303591Y-105834719D01*
X161303573Y-105834718D01*
X161301247Y-105834500D01*
X161298903Y-105834500D01*
X160722300Y-105834500D01*
X160722278Y-105834500D01*
X160719954Y-105834501D01*
X160717638Y-105834718D01*
X160717618Y-105834719D01*
X160690149Y-105837294D01*
X160564611Y-105881222D01*
X160457600Y-105960200D01*
X160378622Y-106067211D01*
X160334694Y-106192752D01*
X160332119Y-106220208D01*
X160332119Y-106220218D01*
X160331900Y-106222553D01*
X160331900Y-106224895D01*
X160331900Y-106224896D01*
X160331900Y-106826499D01*
X160331900Y-106826520D01*
X160331901Y-106828846D01*
X160332118Y-106831162D01*
X160332119Y-106831181D01*
X160334694Y-106858650D01*
X160358037Y-106925360D01*
X160378622Y-106984188D01*
X160457600Y-107091200D01*
X160549053Y-107158695D01*
X160576813Y-107179183D01*
X160576470Y-107179646D01*
X160613010Y-107207465D01*
X160630919Y-107264759D01*
X160630919Y-111955461D01*
X160611706Y-112014592D01*
X160561406Y-112051137D01*
X160499232Y-112051137D01*
X160469079Y-112035273D01*
X160448060Y-112019145D01*
X160315091Y-111964068D01*
X160172400Y-111945282D01*
X160029707Y-111964068D01*
X159936038Y-112002867D01*
X159874056Y-112007745D01*
X159821044Y-111975259D01*
X159797251Y-111917817D01*
X159796941Y-111909925D01*
X159796941Y-103330126D01*
X160281500Y-103330126D01*
X160281501Y-103332452D01*
X160281718Y-103334768D01*
X160281719Y-103334787D01*
X160284373Y-103363100D01*
X160298475Y-103403400D01*
X160329546Y-103492195D01*
X160410762Y-103602238D01*
X160520805Y-103683454D01*
X160612527Y-103715549D01*
X160661993Y-103753212D01*
X160679900Y-103810503D01*
X160679900Y-103944501D01*
X160660687Y-104003632D01*
X160612526Y-104039456D01*
X160564611Y-104056222D01*
X160457600Y-104135200D01*
X160378622Y-104242211D01*
X160334694Y-104367752D01*
X160332119Y-104395208D01*
X160332119Y-104395218D01*
X160331900Y-104397553D01*
X160331900Y-104399895D01*
X160331900Y-104399896D01*
X160331900Y-105001499D01*
X160331900Y-105001520D01*
X160331901Y-105003846D01*
X160332118Y-105006162D01*
X160332119Y-105006181D01*
X160334694Y-105033650D01*
X160378621Y-105159188D01*
X160378622Y-105159188D01*
X160457600Y-105266200D01*
X160564612Y-105345178D01*
X160690149Y-105389105D01*
X160719953Y-105391900D01*
X161301246Y-105391899D01*
X161331051Y-105389105D01*
X161456588Y-105345178D01*
X161563600Y-105266200D01*
X161642578Y-105159188D01*
X161686505Y-105033651D01*
X161689300Y-105003847D01*
X161689300Y-105001520D01*
X161906700Y-105001520D01*
X161906701Y-105003846D01*
X161906918Y-105006162D01*
X161906919Y-105006181D01*
X161909494Y-105033650D01*
X161953421Y-105159188D01*
X161953422Y-105159188D01*
X162032400Y-105266200D01*
X162139412Y-105345178D01*
X162264949Y-105389105D01*
X162294753Y-105391900D01*
X162876046Y-105391899D01*
X162905851Y-105389105D01*
X163031388Y-105345178D01*
X163138400Y-105266200D01*
X163217378Y-105159188D01*
X163261305Y-105033651D01*
X163264100Y-105003847D01*
X163264099Y-104397554D01*
X163261305Y-104367749D01*
X163217378Y-104242212D01*
X163138400Y-104135200D01*
X163113223Y-104116619D01*
X163077057Y-104066049D01*
X163077522Y-104003876D01*
X163114442Y-103953851D01*
X163159835Y-103935938D01*
X163159891Y-103935931D01*
X163159893Y-103935930D01*
X163159894Y-103935930D01*
X163190013Y-103923454D01*
X163292859Y-103880855D01*
X163407040Y-103793240D01*
X163494655Y-103679059D01*
X163549731Y-103546091D01*
X163568517Y-103403400D01*
X163549731Y-103260709D01*
X163494655Y-103127742D01*
X163494654Y-103127741D01*
X163494654Y-103127740D01*
X163407041Y-103013561D01*
X163407040Y-103013560D01*
X163292859Y-102925945D01*
X163292857Y-102925944D01*
X163159891Y-102870868D01*
X163017200Y-102852082D01*
X162874509Y-102870868D01*
X162741540Y-102925945D01*
X162627359Y-103013559D01*
X162539745Y-103127740D01*
X162484668Y-103260709D01*
X162465882Y-103403399D01*
X162473316Y-103459861D01*
X162461986Y-103520994D01*
X162444712Y-103544127D01*
X162416334Y-103572505D01*
X162403029Y-103582079D01*
X162366095Y-103622592D01*
X162362893Y-103625946D01*
X162349514Y-103639326D01*
X162349438Y-103639438D01*
X162340806Y-103650332D01*
X162321333Y-103671694D01*
X162317724Y-103681010D01*
X162306916Y-103701513D01*
X162301276Y-103709746D01*
X162294657Y-103737883D01*
X162290538Y-103751183D01*
X162280100Y-103778129D01*
X162280100Y-103788109D01*
X162277428Y-103811140D01*
X162275143Y-103820855D01*
X162279135Y-103849472D01*
X162280100Y-103863371D01*
X162280100Y-103935613D01*
X162260887Y-103994744D01*
X162212726Y-104030568D01*
X162139411Y-104056222D01*
X162032400Y-104135200D01*
X161953422Y-104242211D01*
X161909494Y-104367752D01*
X161906919Y-104395208D01*
X161906919Y-104395218D01*
X161906700Y-104397553D01*
X161906700Y-104399895D01*
X161906700Y-104399896D01*
X161906700Y-105001499D01*
X161906700Y-105001520D01*
X161689300Y-105001520D01*
X161689299Y-104397554D01*
X161686505Y-104367749D01*
X161642578Y-104242212D01*
X161563600Y-104135200D01*
X161456588Y-104056222D01*
X161357873Y-104021680D01*
X161308407Y-103984016D01*
X161290500Y-103926726D01*
X161290500Y-103810503D01*
X161309713Y-103751372D01*
X161357872Y-103715549D01*
X161449595Y-103683454D01*
X161559638Y-103602238D01*
X161640854Y-103492195D01*
X161686026Y-103363101D01*
X161688900Y-103332453D01*
X161688899Y-102723148D01*
X161686026Y-102692499D01*
X161640854Y-102563405D01*
X161559638Y-102453362D01*
X161449595Y-102372146D01*
X161320501Y-102326974D01*
X161320499Y-102326973D01*
X161320497Y-102326973D01*
X161292199Y-102324319D01*
X161292177Y-102324318D01*
X161289853Y-102324100D01*
X161287509Y-102324100D01*
X160682894Y-102324100D01*
X160682872Y-102324100D01*
X160680548Y-102324101D01*
X160678232Y-102324318D01*
X160678212Y-102324319D01*
X160649899Y-102326973D01*
X160520804Y-102372146D01*
X160410762Y-102453362D01*
X160329546Y-102563404D01*
X160284373Y-102692502D01*
X160281719Y-102720800D01*
X160281717Y-102720823D01*
X160281500Y-102723147D01*
X160281500Y-102725489D01*
X160281500Y-102725490D01*
X160281500Y-103330105D01*
X160281500Y-103330126D01*
X159796941Y-103330126D01*
X159796941Y-101772852D01*
X159799579Y-101756676D01*
X159799249Y-101749554D01*
X159799251Y-101749551D01*
X159797048Y-101701905D01*
X159796941Y-101697259D01*
X159796941Y-101678353D01*
X159796920Y-101678241D01*
X159795313Y-101664405D01*
X159793979Y-101635532D01*
X159789947Y-101626402D01*
X159783090Y-101604256D01*
X159781256Y-101594444D01*
X159778535Y-101590050D01*
X159766041Y-101569871D01*
X159759543Y-101557543D01*
X159747875Y-101531116D01*
X159740817Y-101524058D01*
X159726424Y-101505888D01*
X159721168Y-101497399D01*
X159698104Y-101479981D01*
X159687601Y-101470842D01*
X157293165Y-99076406D01*
X157264939Y-99021008D01*
X157263700Y-99005271D01*
X157263700Y-98475800D01*
X158198682Y-98475800D01*
X158217468Y-98618491D01*
X158269800Y-98744833D01*
X158272545Y-98751459D01*
X158295290Y-98781100D01*
X158360159Y-98865640D01*
X158416094Y-98908560D01*
X158474341Y-98953255D01*
X158528148Y-98975542D01*
X158607308Y-99008331D01*
X158750000Y-99027117D01*
X158892691Y-99008331D01*
X159025659Y-98953255D01*
X159056858Y-98929314D01*
X159115465Y-98908560D01*
X159175079Y-98926217D01*
X159212929Y-98975542D01*
X159218700Y-99009125D01*
X159218700Y-99439663D01*
X159230519Y-99499080D01*
X159275539Y-99566460D01*
X159281547Y-99570474D01*
X159342920Y-99611481D01*
X159402336Y-99623300D01*
X159766478Y-99623300D01*
X159825609Y-99642513D01*
X159862154Y-99692813D01*
X159866973Y-99719304D01*
X159866995Y-99719785D01*
X159867100Y-99724381D01*
X159867100Y-99743288D01*
X159867122Y-99743406D01*
X159868726Y-99757232D01*
X159870062Y-99786109D01*
X159874092Y-99795237D01*
X159880949Y-99817381D01*
X159882784Y-99827195D01*
X159897995Y-99851762D01*
X159904491Y-99864085D01*
X159916165Y-99890524D01*
X159923223Y-99897582D01*
X159937619Y-99915756D01*
X159942873Y-99924242D01*
X159945925Y-99926547D01*
X159965932Y-99941655D01*
X159976442Y-99950801D01*
X160252035Y-100226394D01*
X160280261Y-100281792D01*
X160281500Y-100297529D01*
X160281500Y-100830105D01*
X160281500Y-100830126D01*
X160281501Y-100832452D01*
X160281718Y-100834768D01*
X160281719Y-100834787D01*
X160284373Y-100863100D01*
X160320030Y-100964999D01*
X160329546Y-100992195D01*
X160410762Y-101102238D01*
X160520805Y-101183454D01*
X160649899Y-101228626D01*
X160671417Y-101230643D01*
X160678200Y-101231280D01*
X160678201Y-101231280D01*
X160680547Y-101231500D01*
X161289852Y-101231499D01*
X161320501Y-101228626D01*
X161449595Y-101183454D01*
X161559638Y-101102238D01*
X161640854Y-100992195D01*
X161686026Y-100863101D01*
X161688900Y-100832453D01*
X161688899Y-100223148D01*
X161686026Y-100192499D01*
X161640854Y-100063405D01*
X161559638Y-99953362D01*
X161449595Y-99872146D01*
X161320501Y-99826974D01*
X161320499Y-99826973D01*
X161320497Y-99826973D01*
X161292199Y-99824319D01*
X161292177Y-99824318D01*
X161289853Y-99824100D01*
X161287510Y-99824100D01*
X160954384Y-99824100D01*
X160895253Y-99804887D01*
X160858708Y-99754587D01*
X160858708Y-99692413D01*
X160895253Y-99642113D01*
X160934757Y-99624833D01*
X160942463Y-99623300D01*
X160942464Y-99623300D01*
X161001880Y-99611481D01*
X161069260Y-99566460D01*
X161114281Y-99499080D01*
X161126100Y-99439664D01*
X161126100Y-97899536D01*
X161114281Y-97840120D01*
X161094322Y-97810249D01*
X161069260Y-97772739D01*
X161001880Y-97727719D01*
X161001879Y-97727719D01*
X160942464Y-97715900D01*
X159402336Y-97715900D01*
X159372628Y-97721809D01*
X159342919Y-97727719D01*
X159275539Y-97772739D01*
X159230519Y-97840119D01*
X159218700Y-97899536D01*
X159218700Y-97942474D01*
X159199487Y-98001605D01*
X159149187Y-98038150D01*
X159087013Y-98038150D01*
X159056858Y-98022285D01*
X159025658Y-97998344D01*
X158892691Y-97943268D01*
X158750000Y-97924482D01*
X158607309Y-97943268D01*
X158474340Y-97998345D01*
X158360159Y-98085959D01*
X158272545Y-98200140D01*
X158217468Y-98333109D01*
X158198682Y-98475800D01*
X157263700Y-98475800D01*
X157263700Y-97554936D01*
X157263699Y-97554935D01*
X157251881Y-97495520D01*
X157234873Y-97470065D01*
X157206860Y-97428139D01*
X157139480Y-97383119D01*
X157139479Y-97383119D01*
X157080064Y-97371300D01*
X155339936Y-97371300D01*
X155310228Y-97377209D01*
X155280519Y-97383119D01*
X155213139Y-97428139D01*
X155168119Y-97495519D01*
X155156300Y-97554936D01*
X155156300Y-99295063D01*
X155168119Y-99354480D01*
X155213139Y-99421860D01*
X155239786Y-99439664D01*
X155280520Y-99466881D01*
X155339936Y-99478700D01*
X156790271Y-99478700D01*
X156849402Y-99497913D01*
X156861406Y-99508164D01*
X159156877Y-101803636D01*
X159185102Y-101859032D01*
X159186341Y-101874769D01*
X159186341Y-103266711D01*
X159167128Y-103325842D01*
X159116828Y-103362387D01*
X159054654Y-103362387D01*
X159014606Y-103337846D01*
X157191754Y-101514995D01*
X157163528Y-101459597D01*
X157173254Y-101398189D01*
X157174138Y-101396494D01*
X157188202Y-101370184D01*
X157248453Y-101171561D01*
X157268798Y-100965000D01*
X157248453Y-100758439D01*
X157205944Y-100618303D01*
X157188202Y-100559815D01*
X157090360Y-100376765D01*
X156991134Y-100255859D01*
X156958683Y-100216317D01*
X156861763Y-100136777D01*
X156798234Y-100084639D01*
X156615184Y-99986797D01*
X156416565Y-99926548D01*
X156416563Y-99926547D01*
X156416561Y-99926547D01*
X156210000Y-99906202D01*
X156003439Y-99926547D01*
X156003436Y-99926547D01*
X156003434Y-99926548D01*
X155804815Y-99986797D01*
X155621765Y-100084639D01*
X155461317Y-100216317D01*
X155329639Y-100376765D01*
X155231797Y-100559815D01*
X155171548Y-100758434D01*
X155171547Y-100758436D01*
X155171547Y-100758439D01*
X155151202Y-100965000D01*
X155171547Y-101171561D01*
X155171547Y-101171563D01*
X155171548Y-101171565D01*
X155231797Y-101370184D01*
X155329639Y-101553234D01*
X155368218Y-101600242D01*
X155461317Y-101713683D01*
X155565270Y-101798995D01*
X155621765Y-101845360D01*
X155804815Y-101943202D01*
X155811956Y-101945368D01*
X156003439Y-102003453D01*
X156210000Y-102023798D01*
X156416561Y-102003453D01*
X156615184Y-101943202D01*
X156641436Y-101929169D01*
X156702639Y-101918237D01*
X156758581Y-101945368D01*
X156759995Y-101946754D01*
X158801276Y-103988035D01*
X158829502Y-104043433D01*
X158830741Y-104059170D01*
X158830741Y-105451111D01*
X158811528Y-105510242D01*
X158761228Y-105546787D01*
X158699054Y-105546787D01*
X158659006Y-105522246D01*
X157191754Y-104054995D01*
X157163528Y-103999597D01*
X157173254Y-103938189D01*
X157174138Y-103936494D01*
X157188202Y-103910184D01*
X157248453Y-103711561D01*
X157268798Y-103505000D01*
X157248453Y-103298439D01*
X157188202Y-103099816D01*
X157188202Y-103099815D01*
X157090360Y-102916765D01*
X157037276Y-102852083D01*
X156958683Y-102756317D01*
X156861763Y-102676777D01*
X156798234Y-102624639D01*
X156615184Y-102526797D01*
X156416565Y-102466548D01*
X156416563Y-102466547D01*
X156416561Y-102466547D01*
X156210000Y-102446202D01*
X156003439Y-102466547D01*
X156003436Y-102466547D01*
X156003434Y-102466548D01*
X155804815Y-102526797D01*
X155621765Y-102624639D01*
X155461317Y-102756317D01*
X155329639Y-102916765D01*
X155231797Y-103099815D01*
X155171548Y-103298434D01*
X155171547Y-103298436D01*
X155171547Y-103298439D01*
X155151202Y-103505000D01*
X155171547Y-103711561D01*
X155171547Y-103711563D01*
X155171548Y-103711565D01*
X155231797Y-103910184D01*
X155329639Y-104093234D01*
X155364080Y-104135200D01*
X155461317Y-104253683D01*
X155579411Y-104350601D01*
X155621765Y-104385360D01*
X155804815Y-104483202D01*
X155811956Y-104485368D01*
X156003439Y-104543453D01*
X156210000Y-104563798D01*
X156416561Y-104543453D01*
X156615184Y-104483202D01*
X156641436Y-104469169D01*
X156702639Y-104458237D01*
X156758581Y-104485368D01*
X156759995Y-104486754D01*
X158445676Y-106172435D01*
X158473902Y-106227833D01*
X158475141Y-106243570D01*
X158475141Y-107635511D01*
X158455928Y-107694642D01*
X158405628Y-107731187D01*
X158343454Y-107731187D01*
X158303406Y-107706646D01*
X157191754Y-106594995D01*
X157163528Y-106539597D01*
X157173254Y-106478189D01*
X157174138Y-106476494D01*
X157188202Y-106450184D01*
X157248453Y-106251561D01*
X157268798Y-106045000D01*
X157248453Y-105838439D01*
X157188202Y-105639816D01*
X157188202Y-105639815D01*
X157090360Y-105456765D01*
X157037125Y-105391899D01*
X156958683Y-105296317D01*
X156861763Y-105216777D01*
X156798234Y-105164639D01*
X156615184Y-105066797D01*
X156416565Y-105006548D01*
X156416563Y-105006547D01*
X156416561Y-105006547D01*
X156210000Y-104986202D01*
X156003439Y-105006547D01*
X156003436Y-105006547D01*
X156003434Y-105006548D01*
X155804815Y-105066797D01*
X155621765Y-105164639D01*
X155461317Y-105296317D01*
X155329639Y-105456765D01*
X155231797Y-105639815D01*
X155171548Y-105838434D01*
X155171547Y-105838436D01*
X155171547Y-105838439D01*
X155151202Y-106045000D01*
X155171547Y-106251561D01*
X155171547Y-106251563D01*
X155171548Y-106251565D01*
X155231797Y-106450184D01*
X155329639Y-106633234D01*
X155381777Y-106696763D01*
X155461317Y-106793683D01*
X155540481Y-106858651D01*
X155621765Y-106925360D01*
X155804815Y-107023202D01*
X155811956Y-107025368D01*
X156003439Y-107083453D01*
X156210000Y-107103798D01*
X156416561Y-107083453D01*
X156615184Y-107023202D01*
X156641436Y-107009169D01*
X156702639Y-106998237D01*
X156758581Y-107025368D01*
X156759995Y-107026754D01*
X157983435Y-108250194D01*
X158011661Y-108305592D01*
X158012900Y-108321329D01*
X158012900Y-109713270D01*
X157993687Y-109772401D01*
X157943387Y-109808946D01*
X157881213Y-109808946D01*
X157841165Y-109784405D01*
X157191754Y-109134995D01*
X157163528Y-109079597D01*
X157173254Y-109018189D01*
X157174138Y-109016494D01*
X157188202Y-108990184D01*
X157248453Y-108791561D01*
X157268798Y-108585000D01*
X157248453Y-108378439D01*
X157203220Y-108229325D01*
X157188202Y-108179815D01*
X157090360Y-107996765D01*
X157045669Y-107942310D01*
X156958683Y-107836317D01*
X156830582Y-107731187D01*
X156798234Y-107704639D01*
X156615184Y-107606797D01*
X156416565Y-107546548D01*
X156416563Y-107546547D01*
X156416561Y-107546547D01*
X156210000Y-107526202D01*
X156003439Y-107546547D01*
X156003436Y-107546547D01*
X156003434Y-107546548D01*
X155804815Y-107606797D01*
X155621765Y-107704639D01*
X155461317Y-107836317D01*
X155329639Y-107996765D01*
X155231797Y-108179815D01*
X155171548Y-108378434D01*
X155171547Y-108378436D01*
X155171547Y-108378439D01*
X155151202Y-108585000D01*
X155171547Y-108791561D01*
X155171547Y-108791563D01*
X155171548Y-108791565D01*
X155231797Y-108990184D01*
X155329639Y-109173234D01*
X155355503Y-109204749D01*
X155461317Y-109333683D01*
X155579411Y-109430601D01*
X155621765Y-109465360D01*
X155804815Y-109563202D01*
X155881407Y-109586435D01*
X156003439Y-109623453D01*
X156210000Y-109643798D01*
X156416561Y-109623453D01*
X156615184Y-109563202D01*
X156641436Y-109549169D01*
X156702639Y-109538237D01*
X156758581Y-109565368D01*
X156759995Y-109566754D01*
X157627835Y-110434593D01*
X157656061Y-110489991D01*
X157657300Y-110505728D01*
X157657300Y-111897671D01*
X157638087Y-111956802D01*
X157587787Y-111993347D01*
X157525613Y-111993347D01*
X157485565Y-111968806D01*
X157191754Y-111674995D01*
X157163528Y-111619597D01*
X157173254Y-111558189D01*
X157174138Y-111556494D01*
X157188202Y-111530184D01*
X157248453Y-111331561D01*
X157268798Y-111125000D01*
X157248453Y-110918439D01*
X157197099Y-110749145D01*
X157188202Y-110719815D01*
X157090360Y-110536765D01*
X157044202Y-110480522D01*
X156958683Y-110376317D01*
X156861763Y-110296777D01*
X156798234Y-110244639D01*
X156615184Y-110146797D01*
X156416565Y-110086548D01*
X156416563Y-110086547D01*
X156416561Y-110086547D01*
X156210000Y-110066202D01*
X156003439Y-110086547D01*
X156003436Y-110086547D01*
X156003434Y-110086548D01*
X155804815Y-110146797D01*
X155621765Y-110244639D01*
X155461317Y-110376317D01*
X155329639Y-110536765D01*
X155231797Y-110719815D01*
X155171548Y-110918434D01*
X155171547Y-110918436D01*
X155171547Y-110918439D01*
X155151202Y-111125000D01*
X155171547Y-111331561D01*
X155171547Y-111331563D01*
X155171548Y-111331565D01*
X155231797Y-111530184D01*
X155329639Y-111713234D01*
X155371967Y-111764810D01*
X155461317Y-111873683D01*
X155548562Y-111945283D01*
X155621765Y-112005360D01*
X155804815Y-112103202D01*
X155863225Y-112120920D01*
X156003439Y-112163453D01*
X156210000Y-112183798D01*
X156416561Y-112163453D01*
X156615184Y-112103202D01*
X156641436Y-112089169D01*
X156702639Y-112078237D01*
X156758581Y-112105368D01*
X156759995Y-112106754D01*
X157272235Y-112618994D01*
X157300461Y-112674392D01*
X157301700Y-112690129D01*
X157301700Y-113070537D01*
X157282487Y-113129668D01*
X157232187Y-113166213D01*
X157170013Y-113166213D01*
X157119713Y-113129668D01*
X157112379Y-113117960D01*
X157090359Y-113076763D01*
X156979587Y-112941789D01*
X156958683Y-112916317D01*
X156861763Y-112836777D01*
X156798234Y-112784639D01*
X156615184Y-112686797D01*
X156416565Y-112626548D01*
X156416563Y-112626547D01*
X156416561Y-112626547D01*
X156210000Y-112606202D01*
X156003439Y-112626547D01*
X156003436Y-112626547D01*
X156003434Y-112626548D01*
X155804815Y-112686797D01*
X155621765Y-112784639D01*
X155461317Y-112916317D01*
X155329639Y-113076765D01*
X155231797Y-113259815D01*
X155171548Y-113458434D01*
X155171547Y-113458436D01*
X155171547Y-113458439D01*
X155151202Y-113665000D01*
X155171547Y-113871561D01*
X155171547Y-113871563D01*
X155171548Y-113871565D01*
X155231797Y-114070184D01*
X155329639Y-114253234D01*
X155332804Y-114257090D01*
X155461317Y-114413683D01*
X155579411Y-114510601D01*
X155621765Y-114545360D01*
X155804815Y-114643202D01*
X155876823Y-114665045D01*
X156003439Y-114703453D01*
X156210000Y-114723798D01*
X156416561Y-114703453D01*
X156615184Y-114643202D01*
X156641436Y-114629169D01*
X156702639Y-114618237D01*
X156758581Y-114645368D01*
X156759995Y-114646754D01*
X157714206Y-115600965D01*
X157742432Y-115656363D01*
X157732706Y-115717771D01*
X157688742Y-115761735D01*
X157643071Y-115772700D01*
X157234005Y-115772700D01*
X157174874Y-115753487D01*
X157145285Y-115719524D01*
X157090358Y-115616763D01*
X157090357Y-115616761D01*
X157038905Y-115554067D01*
X156958683Y-115456317D01*
X156829119Y-115349986D01*
X156798234Y-115324639D01*
X156615184Y-115226797D01*
X156416565Y-115166548D01*
X156416563Y-115166547D01*
X156416561Y-115166547D01*
X156210000Y-115146202D01*
X156003439Y-115166547D01*
X156003436Y-115166547D01*
X156003434Y-115166548D01*
X155804815Y-115226797D01*
X155621765Y-115324639D01*
X155461317Y-115456317D01*
X155329639Y-115616765D01*
X155231797Y-115799815D01*
X155171548Y-115998434D01*
X155171547Y-115998436D01*
X155171547Y-115998439D01*
X155151202Y-116205000D01*
X155171547Y-116411561D01*
X155171547Y-116411563D01*
X155171548Y-116411565D01*
X155231797Y-116610184D01*
X155329639Y-116793234D01*
X155381777Y-116856763D01*
X155461317Y-116953683D01*
X155579411Y-117050601D01*
X155621765Y-117085360D01*
X155804815Y-117183202D01*
X155831396Y-117191265D01*
X156003439Y-117243453D01*
X156210000Y-117263798D01*
X156416561Y-117243453D01*
X156615184Y-117183202D01*
X156633691Y-117173310D01*
X156798234Y-117085360D01*
X156798235Y-117085358D01*
X156798237Y-117085358D01*
X156958683Y-116953683D01*
X157090358Y-116793237D01*
X157133397Y-116712718D01*
X157188202Y-116610184D01*
X157235368Y-116454698D01*
X157270918Y-116403690D01*
X157329661Y-116383319D01*
X157331636Y-116383300D01*
X157870671Y-116383300D01*
X157929802Y-116402513D01*
X157941806Y-116412765D01*
X158620349Y-117091308D01*
X158648575Y-117146706D01*
X158638849Y-117208114D01*
X158594885Y-117252078D01*
X158587712Y-117255385D01*
X158474340Y-117302345D01*
X158360159Y-117389959D01*
X158272545Y-117504140D01*
X158217468Y-117637109D01*
X158198682Y-117779800D01*
X158217468Y-117922491D01*
X158248048Y-117996317D01*
X158272545Y-118055459D01*
X158272704Y-118055666D01*
X158360159Y-118169640D01*
X158417250Y-118213447D01*
X158474341Y-118257255D01*
X158540824Y-118284792D01*
X158607308Y-118312331D01*
X158749998Y-118331117D01*
X158749998Y-118331116D01*
X158750000Y-118331117D01*
X158806460Y-118323683D01*
X158867593Y-118335012D01*
X158890726Y-118352286D01*
X158936405Y-118397964D01*
X158964632Y-118453362D01*
X158954907Y-118514770D01*
X158910943Y-118558735D01*
X158865271Y-118569700D01*
X157332546Y-118569700D01*
X157273415Y-118550487D01*
X157236870Y-118500187D01*
X157236278Y-118498302D01*
X157188202Y-118339815D01*
X157090360Y-118156765D01*
X157050295Y-118107946D01*
X156958683Y-117996317D01*
X156849042Y-117906337D01*
X156798234Y-117864639D01*
X156615184Y-117766797D01*
X156416565Y-117706548D01*
X156416563Y-117706547D01*
X156416561Y-117706547D01*
X156210000Y-117686202D01*
X156003439Y-117706547D01*
X156003436Y-117706547D01*
X156003434Y-117706548D01*
X155804815Y-117766797D01*
X155621765Y-117864639D01*
X155461317Y-117996317D01*
X155329639Y-118156765D01*
X155231797Y-118339815D01*
X155171548Y-118538434D01*
X155171547Y-118538436D01*
X155171547Y-118538439D01*
X155151202Y-118745000D01*
X155171547Y-118951561D01*
X155171547Y-118951563D01*
X155171548Y-118951565D01*
X155231797Y-119150184D01*
X155329639Y-119333234D01*
X155381777Y-119396763D01*
X155461317Y-119493683D01*
X155500709Y-119526011D01*
X155621765Y-119625360D01*
X155804815Y-119723202D01*
X155845710Y-119735607D01*
X156003439Y-119783453D01*
X156210000Y-119803798D01*
X156416561Y-119783453D01*
X156615184Y-119723202D01*
X156621418Y-119719870D01*
X156798234Y-119625360D01*
X156798235Y-119625358D01*
X156798237Y-119625358D01*
X156958683Y-119493683D01*
X157090358Y-119333237D01*
X157143681Y-119233476D01*
X157188500Y-119190385D01*
X157232402Y-119180300D01*
X157640071Y-119180300D01*
X157699202Y-119199513D01*
X157735747Y-119249813D01*
X157735747Y-119311987D01*
X157711206Y-119352035D01*
X156759995Y-120303244D01*
X156704597Y-120331470D01*
X156643188Y-120321744D01*
X156641439Y-120320831D01*
X156615183Y-120306797D01*
X156416565Y-120246548D01*
X156416563Y-120246547D01*
X156416561Y-120246547D01*
X156210000Y-120226202D01*
X156003439Y-120246547D01*
X156003436Y-120246547D01*
X156003434Y-120246548D01*
X155804815Y-120306797D01*
X155621765Y-120404639D01*
X155461317Y-120536317D01*
X155329639Y-120696765D01*
X155231797Y-120879815D01*
X155171548Y-121078434D01*
X155171547Y-121078436D01*
X155171547Y-121078439D01*
X155151202Y-121285000D01*
X155171547Y-121491561D01*
X155171547Y-121491563D01*
X155171548Y-121491565D01*
X155231797Y-121690184D01*
X155329639Y-121873234D01*
X155351217Y-121899526D01*
X155461317Y-122033683D01*
X155559119Y-122113947D01*
X155621765Y-122165360D01*
X155804815Y-122263202D01*
X155881407Y-122286435D01*
X156003439Y-122323453D01*
X156210000Y-122343798D01*
X156416561Y-122323453D01*
X156615184Y-122263202D01*
X156625103Y-122257900D01*
X156798234Y-122165360D01*
X156798235Y-122165358D01*
X156798237Y-122165358D01*
X156958683Y-122033683D01*
X157090358Y-121873237D01*
X157112378Y-121832039D01*
X157157197Y-121788948D01*
X157218785Y-121780429D01*
X157273617Y-121809737D01*
X157300751Y-121865678D01*
X157301700Y-121879462D01*
X157301700Y-122259870D01*
X157282487Y-122319001D01*
X157272235Y-122331005D01*
X156759995Y-122843244D01*
X156704597Y-122871470D01*
X156643188Y-122861744D01*
X156641439Y-122860831D01*
X156615183Y-122846797D01*
X156416565Y-122786548D01*
X156416563Y-122786547D01*
X156416561Y-122786547D01*
X156210000Y-122766202D01*
X156003439Y-122786547D01*
X156003436Y-122786547D01*
X156003434Y-122786548D01*
X155804815Y-122846797D01*
X155621765Y-122944639D01*
X155461317Y-123076317D01*
X155329639Y-123236765D01*
X155231797Y-123419815D01*
X155171548Y-123618434D01*
X155171547Y-123618436D01*
X155171547Y-123618439D01*
X155151202Y-123825000D01*
X155171547Y-124031561D01*
X155171547Y-124031563D01*
X155171548Y-124031565D01*
X155231797Y-124230184D01*
X155329639Y-124413234D01*
X155367738Y-124459657D01*
X155461317Y-124573683D01*
X155555580Y-124651043D01*
X155621765Y-124705360D01*
X155804815Y-124803202D01*
X155881407Y-124826435D01*
X156003439Y-124863453D01*
X156210000Y-124883798D01*
X156416561Y-124863453D01*
X156615184Y-124803202D01*
X156781134Y-124714500D01*
X156798234Y-124705360D01*
X156798235Y-124705358D01*
X156798237Y-124705358D01*
X156958683Y-124573683D01*
X157090358Y-124413237D01*
X157103653Y-124388365D01*
X157188202Y-124230184D01*
X157201692Y-124185713D01*
X157248453Y-124031561D01*
X157268798Y-123825000D01*
X157248453Y-123618439D01*
X157188202Y-123419816D01*
X157174167Y-123393560D01*
X157163238Y-123332355D01*
X157190371Y-123276414D01*
X157191700Y-123275057D01*
X157776061Y-122690697D01*
X157789363Y-122681128D01*
X157794168Y-122675856D01*
X157794171Y-122675855D01*
X157826313Y-122640595D01*
X157829479Y-122637279D01*
X157842883Y-122623877D01*
X157842957Y-122623768D01*
X157851596Y-122612861D01*
X157871067Y-122591504D01*
X157874670Y-122582201D01*
X157885482Y-122561688D01*
X157891124Y-122553454D01*
X157897742Y-122525311D01*
X157901857Y-122512022D01*
X157912300Y-122485070D01*
X157912300Y-122475086D01*
X157914972Y-122452055D01*
X157917256Y-122442343D01*
X157913265Y-122413732D01*
X157912300Y-122399834D01*
X157912300Y-120559023D01*
X157931513Y-120499892D01*
X157941765Y-120487888D01*
X158419888Y-120009765D01*
X158475286Y-119981539D01*
X158491023Y-119980300D01*
X159964271Y-119980300D01*
X160023402Y-119999513D01*
X160059947Y-120049813D01*
X160059947Y-120111987D01*
X160035406Y-120152035D01*
X159255934Y-120931505D01*
X159242629Y-120941079D01*
X159205695Y-120981592D01*
X159202493Y-120984946D01*
X159189114Y-120998326D01*
X159189038Y-120998438D01*
X159180406Y-121009332D01*
X159160933Y-121030694D01*
X159157324Y-121040010D01*
X159146516Y-121060513D01*
X159140876Y-121068746D01*
X159134257Y-121096883D01*
X159130138Y-121110183D01*
X159119700Y-121137129D01*
X159119700Y-121147109D01*
X159117028Y-121170140D01*
X159114743Y-121179855D01*
X159118735Y-121208472D01*
X159119700Y-121222371D01*
X159119700Y-122157300D01*
X159100487Y-122216431D01*
X159050187Y-122252976D01*
X159019100Y-122257900D01*
X158604936Y-122257900D01*
X158578282Y-122263202D01*
X158545519Y-122269719D01*
X158478139Y-122314739D01*
X158433119Y-122382119D01*
X158421300Y-122441536D01*
X158421300Y-123481663D01*
X158433119Y-123541080D01*
X158478165Y-123608498D01*
X158495040Y-123668338D01*
X158473520Y-123726669D01*
X158421824Y-123761210D01*
X158413008Y-123763273D01*
X158409203Y-123763984D01*
X158384630Y-123779199D01*
X158372309Y-123785694D01*
X158345872Y-123797367D01*
X158338812Y-123804427D01*
X158320648Y-123818815D01*
X158312157Y-123824073D01*
X158294742Y-123847133D01*
X158285599Y-123857640D01*
X156759995Y-125383244D01*
X156704597Y-125411470D01*
X156643189Y-125401744D01*
X156641439Y-125400831D01*
X156615183Y-125386797D01*
X156416565Y-125326548D01*
X156416563Y-125326547D01*
X156416561Y-125326547D01*
X156210000Y-125306202D01*
X156003439Y-125326547D01*
X156003436Y-125326547D01*
X156003434Y-125326548D01*
X155804815Y-125386797D01*
X155621765Y-125484639D01*
X155461317Y-125616317D01*
X155329639Y-125776765D01*
X155231797Y-125959815D01*
X155171548Y-126158434D01*
X155171547Y-126158436D01*
X155171547Y-126158439D01*
X155151202Y-126365000D01*
X155171547Y-126571561D01*
X155171547Y-126571563D01*
X155171548Y-126571565D01*
X155231797Y-126770184D01*
X155329639Y-126953234D01*
X155361462Y-126992010D01*
X155461317Y-127113683D01*
X155547699Y-127184575D01*
X155621765Y-127245360D01*
X155804815Y-127343202D01*
X155854021Y-127358128D01*
X156003439Y-127403453D01*
X156210000Y-127423798D01*
X156416561Y-127403453D01*
X156615184Y-127343202D01*
X156672704Y-127312457D01*
X156798234Y-127245360D01*
X156798235Y-127245358D01*
X156798237Y-127245358D01*
X156958683Y-127113683D01*
X157090358Y-126953237D01*
X157112379Y-126912040D01*
X157188202Y-126770184D01*
X157188968Y-126767659D01*
X157248453Y-126571561D01*
X157268798Y-126365000D01*
X157248453Y-126158439D01*
X157188202Y-125959816D01*
X157174167Y-125933560D01*
X157163238Y-125872355D01*
X157190371Y-125816414D01*
X157191701Y-125815056D01*
X158618394Y-124388365D01*
X158673793Y-124360139D01*
X158689530Y-124358900D01*
X162361071Y-124358900D01*
X162420202Y-124378113D01*
X162456747Y-124428413D01*
X162456747Y-124490587D01*
X162432206Y-124530635D01*
X160600435Y-126362405D01*
X160545037Y-126390631D01*
X160483629Y-126380905D01*
X160439665Y-126336941D01*
X160428700Y-126291270D01*
X160428700Y-125641536D01*
X160423683Y-125616317D01*
X160416881Y-125582120D01*
X160401940Y-125559760D01*
X160371860Y-125514739D01*
X160304480Y-125469719D01*
X160245064Y-125457900D01*
X158604936Y-125457900D01*
X158575228Y-125463809D01*
X158545519Y-125469719D01*
X158478139Y-125514739D01*
X158433119Y-125582119D01*
X158421300Y-125641536D01*
X158421300Y-126681663D01*
X158433119Y-126741080D01*
X158478139Y-126808460D01*
X158498494Y-126822060D01*
X158545520Y-126853481D01*
X158604936Y-126865300D01*
X159854671Y-126865300D01*
X159913802Y-126884513D01*
X159950347Y-126934813D01*
X159950347Y-126996987D01*
X159925806Y-127037035D01*
X158392606Y-128570235D01*
X158337208Y-128598461D01*
X158321471Y-128599700D01*
X157293111Y-128599700D01*
X157233980Y-128580487D01*
X157197435Y-128530187D01*
X157196869Y-128528390D01*
X157188202Y-128499816D01*
X157188199Y-128499810D01*
X157090360Y-128316765D01*
X157022306Y-128233842D01*
X156958683Y-128156317D01*
X156857355Y-128073159D01*
X156798234Y-128024639D01*
X156615184Y-127926797D01*
X156416565Y-127866548D01*
X156416563Y-127866547D01*
X156416561Y-127866547D01*
X156210000Y-127846202D01*
X156003439Y-127866547D01*
X156003436Y-127866547D01*
X156003434Y-127866548D01*
X155804815Y-127926797D01*
X155621765Y-128024639D01*
X155461317Y-128156317D01*
X155329639Y-128316765D01*
X155231797Y-128499815D01*
X155171548Y-128698434D01*
X155171547Y-128698436D01*
X155171547Y-128698439D01*
X155151202Y-128905000D01*
X155171547Y-129111561D01*
X155171547Y-129111563D01*
X155171548Y-129111565D01*
X155231797Y-129310184D01*
X155329639Y-129493234D01*
X155368463Y-129540541D01*
X155461317Y-129653683D01*
X155564190Y-129738109D01*
X155621765Y-129785360D01*
X155804815Y-129883202D01*
X155839275Y-129893655D01*
X156003439Y-129943453D01*
X156210000Y-129963798D01*
X156416561Y-129943453D01*
X156615184Y-129883202D01*
X156678083Y-129849582D01*
X156798234Y-129785360D01*
X156798235Y-129785358D01*
X156798237Y-129785358D01*
X156958683Y-129653683D01*
X157090358Y-129493237D01*
X157188202Y-129310184D01*
X157196843Y-129281695D01*
X157232392Y-129230690D01*
X157291135Y-129210319D01*
X157293111Y-129210300D01*
X158423388Y-129210300D01*
X158455346Y-129215511D01*
X158460650Y-129217288D01*
X158510615Y-129254290D01*
X158529288Y-129313594D01*
X158509537Y-129372548D01*
X158499827Y-129383812D01*
X157140228Y-130743411D01*
X157084830Y-130771637D01*
X157023422Y-130761911D01*
X156991331Y-130736098D01*
X156958683Y-130696317D01*
X156945158Y-130685217D01*
X156798234Y-130564639D01*
X156615184Y-130466797D01*
X156416565Y-130406548D01*
X156416563Y-130406547D01*
X156416561Y-130406547D01*
X156210000Y-130386202D01*
X156003439Y-130406547D01*
X156003436Y-130406547D01*
X156003434Y-130406548D01*
X155804815Y-130466797D01*
X155621765Y-130564639D01*
X155461317Y-130696317D01*
X155329639Y-130856765D01*
X155231797Y-131039815D01*
X155171548Y-131238434D01*
X155171547Y-131238436D01*
X155171547Y-131238439D01*
X155151202Y-131445000D01*
X155171547Y-131651561D01*
X155171547Y-131651563D01*
X155171548Y-131651565D01*
X155231797Y-131850184D01*
X155329639Y-132033234D01*
X155341183Y-132047300D01*
X155461317Y-132193683D01*
X155566508Y-132280011D01*
X155621765Y-132325360D01*
X155804815Y-132423202D01*
X155837175Y-132433018D01*
X156003439Y-132483453D01*
X156210000Y-132503798D01*
X156416561Y-132483453D01*
X156615184Y-132423202D01*
X156798234Y-132325360D01*
X156798235Y-132325358D01*
X156798237Y-132325358D01*
X156958683Y-132193683D01*
X157090358Y-132033237D01*
X157188202Y-131850184D01*
X157248453Y-131651561D01*
X157261625Y-131517823D01*
X157286541Y-131460863D01*
X157290588Y-131456569D01*
X163647594Y-125099565D01*
X163702993Y-125071339D01*
X163718730Y-125070100D01*
X165369376Y-125070100D01*
X165385553Y-125072738D01*
X165392674Y-125072408D01*
X165392678Y-125072410D01*
X165440322Y-125070207D01*
X165444969Y-125070100D01*
X165463877Y-125070100D01*
X165463989Y-125070078D01*
X165477826Y-125068472D01*
X165506697Y-125067138D01*
X165515820Y-125063109D01*
X165537970Y-125056249D01*
X165547785Y-125054415D01*
X165572353Y-125039201D01*
X165584677Y-125032705D01*
X165611113Y-125021034D01*
X165618171Y-125013975D01*
X165636346Y-124999579D01*
X165644830Y-124994327D01*
X165662248Y-124971260D01*
X165671381Y-124960764D01*
X166502966Y-124129180D01*
X166558363Y-124100955D01*
X166619771Y-124110681D01*
X166663735Y-124154645D01*
X166674700Y-124200316D01*
X166674700Y-127047882D01*
X166655487Y-127107013D01*
X166605187Y-127143558D01*
X166543013Y-127143558D01*
X166530905Y-127137188D01*
X166530895Y-127137213D01*
X166385691Y-127077068D01*
X166243000Y-127058282D01*
X166100309Y-127077068D01*
X165967340Y-127132145D01*
X165853160Y-127219758D01*
X165816166Y-127267969D01*
X165764927Y-127303184D01*
X165741009Y-127307218D01*
X165740091Y-127307260D01*
X165730957Y-127311293D01*
X165708818Y-127318149D01*
X165699003Y-127319984D01*
X165674430Y-127335199D01*
X165662109Y-127341694D01*
X165635672Y-127353367D01*
X165628612Y-127360427D01*
X165610448Y-127374815D01*
X165601957Y-127380073D01*
X165584542Y-127403133D01*
X165575399Y-127413640D01*
X164725172Y-128263867D01*
X164669774Y-128292093D01*
X164608366Y-128282367D01*
X164564402Y-128238403D01*
X164554298Y-128179600D01*
X164554495Y-128178109D01*
X164559117Y-128143000D01*
X164546233Y-128045142D01*
X164540331Y-128000309D01*
X164513761Y-127936163D01*
X164485255Y-127867342D01*
X164485254Y-127867341D01*
X164485254Y-127867340D01*
X164397641Y-127753161D01*
X164397640Y-127753160D01*
X164283459Y-127665545D01*
X164283457Y-127665544D01*
X164150491Y-127610468D01*
X164007800Y-127591682D01*
X163865109Y-127610468D01*
X163732140Y-127665545D01*
X163617959Y-127753159D01*
X163530345Y-127867340D01*
X163475268Y-128000309D01*
X163456482Y-128142999D01*
X163463916Y-128199461D01*
X163452586Y-128260594D01*
X163435312Y-128283727D01*
X160608806Y-131110235D01*
X160553408Y-131138461D01*
X160537671Y-131139700D01*
X159889321Y-131139700D01*
X159830190Y-131120487D01*
X159809510Y-131100342D01*
X159774840Y-131055159D01*
X159700437Y-130998068D01*
X159660659Y-130967545D01*
X159660657Y-130967544D01*
X159527691Y-130912468D01*
X159384999Y-130893682D01*
X159242309Y-130912468D01*
X159109340Y-130967545D01*
X158995159Y-131055159D01*
X158907545Y-131169340D01*
X158852468Y-131302309D01*
X158833682Y-131445000D01*
X158852468Y-131587691D01*
X158899499Y-131701234D01*
X158907545Y-131720659D01*
X158930290Y-131750300D01*
X158995159Y-131834840D01*
X159015156Y-131850184D01*
X159109341Y-131922455D01*
X159175825Y-131949992D01*
X159242308Y-131977531D01*
X159384999Y-131996317D01*
X159384999Y-131996316D01*
X159385000Y-131996317D01*
X159527691Y-131977531D01*
X159660659Y-131922455D01*
X159774840Y-131834840D01*
X159809510Y-131789658D01*
X159860749Y-131754443D01*
X159889321Y-131750300D01*
X160639588Y-131750300D01*
X160655765Y-131752938D01*
X160662886Y-131752608D01*
X160662890Y-131752610D01*
X160710534Y-131750407D01*
X160715181Y-131750300D01*
X160734089Y-131750300D01*
X160734201Y-131750278D01*
X160748038Y-131748672D01*
X160776909Y-131747338D01*
X160786032Y-131743309D01*
X160808182Y-131736449D01*
X160817997Y-131734615D01*
X160842565Y-131719401D01*
X160854889Y-131712905D01*
X160881325Y-131701234D01*
X160888383Y-131694175D01*
X160906558Y-131679779D01*
X160915042Y-131674527D01*
X160932460Y-131651460D01*
X160941593Y-131640964D01*
X163867072Y-128715485D01*
X163922468Y-128687261D01*
X163951337Y-128686883D01*
X164007800Y-128694317D01*
X164044401Y-128689498D01*
X164105533Y-128700827D01*
X164148332Y-128745926D01*
X164156448Y-128807569D01*
X164128667Y-128860372D01*
X159338806Y-133650235D01*
X159283408Y-133678461D01*
X159267671Y-133679700D01*
X157293111Y-133679700D01*
X157233980Y-133660487D01*
X157197435Y-133610187D01*
X157196869Y-133608390D01*
X157188202Y-133579816D01*
X157188199Y-133579810D01*
X157090360Y-133396765D01*
X157014228Y-133303999D01*
X156958683Y-133236317D01*
X156823676Y-133125519D01*
X156798234Y-133104639D01*
X156615184Y-133006797D01*
X156416565Y-132946548D01*
X156416563Y-132946547D01*
X156416561Y-132946547D01*
X156210000Y-132926202D01*
X156003439Y-132946547D01*
X156003436Y-132946547D01*
X156003434Y-132946548D01*
X155804815Y-133006797D01*
X155621765Y-133104639D01*
X155461317Y-133236317D01*
X155329639Y-133396765D01*
X155231797Y-133579815D01*
X155171548Y-133778434D01*
X155171547Y-133778436D01*
X155171547Y-133778439D01*
X155151202Y-133985000D01*
X155171547Y-134191561D01*
X155171547Y-134191563D01*
X155171548Y-134191565D01*
X155231797Y-134390184D01*
X155329639Y-134573234D01*
X155381777Y-134636763D01*
X155461317Y-134733683D01*
X155579411Y-134830601D01*
X155621765Y-134865360D01*
X155804815Y-134963202D01*
X155853259Y-134977897D01*
X156003439Y-135023453D01*
X156210000Y-135043798D01*
X156416561Y-135023453D01*
X156615184Y-134963202D01*
X156670994Y-134933371D01*
X156798234Y-134865360D01*
X156798235Y-134865358D01*
X156798237Y-134865358D01*
X156958683Y-134733683D01*
X157090358Y-134573237D01*
X157188202Y-134390184D01*
X157196843Y-134361695D01*
X157232392Y-134310690D01*
X157291135Y-134290319D01*
X157293111Y-134290300D01*
X159344871Y-134290300D01*
X159404002Y-134309513D01*
X159440547Y-134359813D01*
X159440547Y-134421987D01*
X159416006Y-134462035D01*
X157687806Y-136190235D01*
X157632408Y-136218461D01*
X157616671Y-136219700D01*
X157293111Y-136219700D01*
X157233980Y-136200487D01*
X157197435Y-136150187D01*
X157196869Y-136148390D01*
X157188202Y-136119816D01*
X157188199Y-136119810D01*
X157090360Y-135936765D01*
X157055601Y-135894411D01*
X156958683Y-135776317D01*
X156861763Y-135696777D01*
X156798234Y-135644639D01*
X156615184Y-135546797D01*
X156416565Y-135486548D01*
X156416563Y-135486547D01*
X156416561Y-135486547D01*
X156210000Y-135466202D01*
X156003439Y-135486547D01*
X156003436Y-135486547D01*
X156003434Y-135486548D01*
X155804815Y-135546797D01*
X155621765Y-135644639D01*
X155461317Y-135776317D01*
X155329639Y-135936765D01*
X155231797Y-136119815D01*
X155171548Y-136318434D01*
X155171547Y-136318436D01*
X155171547Y-136318439D01*
X155151202Y-136525000D01*
X154940500Y-136525000D01*
X154940500Y-97042563D01*
X162616300Y-97042563D01*
X162616665Y-97045576D01*
X162616667Y-97045595D01*
X162631729Y-97169638D01*
X162631730Y-97169643D01*
X162681846Y-97301787D01*
X162692330Y-97329430D01*
X162789404Y-97470065D01*
X162789405Y-97470066D01*
X162917317Y-97583387D01*
X163068632Y-97662803D01*
X163234555Y-97703700D01*
X163234557Y-97703700D01*
X163405443Y-97703700D01*
X163405445Y-97703700D01*
X163571368Y-97662803D01*
X163722683Y-97583387D01*
X163850595Y-97470066D01*
X163947671Y-97329427D01*
X164008270Y-97169643D01*
X164023700Y-97042563D01*
X164023700Y-95915802D01*
X164293668Y-95915802D01*
X164303861Y-96051827D01*
X164334137Y-96128968D01*
X164353697Y-96178805D01*
X164438745Y-96285453D01*
X164551450Y-96362293D01*
X164665354Y-96397428D01*
X164716194Y-96433216D01*
X164736289Y-96492053D01*
X164736300Y-96493558D01*
X164736300Y-97620063D01*
X164748119Y-97679480D01*
X164793139Y-97746860D01*
X164811219Y-97758940D01*
X164860520Y-97791881D01*
X164919936Y-97803700D01*
X164919937Y-97803700D01*
X165484100Y-97803700D01*
X165543231Y-97822913D01*
X165579776Y-97873213D01*
X165584700Y-97904300D01*
X165584700Y-99563242D01*
X165565487Y-99622373D01*
X165517326Y-99658197D01*
X165403511Y-99698022D01*
X165296500Y-99777000D01*
X165217522Y-99884011D01*
X165173594Y-100009552D01*
X165171019Y-100037008D01*
X165171019Y-100037018D01*
X165170800Y-100039353D01*
X165170800Y-100041695D01*
X165170800Y-100041696D01*
X165170800Y-100618299D01*
X165170800Y-100618320D01*
X165170801Y-100620646D01*
X165171018Y-100622962D01*
X165171019Y-100622981D01*
X165173594Y-100650450D01*
X165211380Y-100758434D01*
X165217522Y-100775988D01*
X165296500Y-100883000D01*
X165403512Y-100961978D01*
X165529049Y-101005905D01*
X165558853Y-101008700D01*
X166165146Y-101008699D01*
X166194951Y-101005905D01*
X166320488Y-100961978D01*
X166427500Y-100883000D01*
X166506478Y-100775988D01*
X166550405Y-100650451D01*
X166553200Y-100620647D01*
X166553199Y-100039354D01*
X166550405Y-100009549D01*
X166506478Y-99884012D01*
X166427500Y-99777000D01*
X166320488Y-99698022D01*
X166307519Y-99693484D01*
X166262674Y-99677792D01*
X166213207Y-99640127D01*
X166195300Y-99582837D01*
X166195300Y-97904300D01*
X166214513Y-97845169D01*
X166264813Y-97808624D01*
X166295900Y-97803700D01*
X166490934Y-97803700D01*
X166550065Y-97822913D01*
X166582963Y-97863667D01*
X166591692Y-97883437D01*
X166598549Y-97905581D01*
X166600384Y-97915395D01*
X166615595Y-97939962D01*
X166622091Y-97952285D01*
X166633765Y-97978724D01*
X166640823Y-97985782D01*
X166655220Y-98003958D01*
X166660472Y-98012441D01*
X166670707Y-98020170D01*
X166678305Y-98029318D01*
X166679049Y-98028503D01*
X166692944Y-98041170D01*
X166692945Y-98041171D01*
X166728213Y-98073322D01*
X166731529Y-98076488D01*
X166744924Y-98089883D01*
X166745021Y-98089950D01*
X166755937Y-98098596D01*
X166768704Y-98110234D01*
X166777296Y-98118067D01*
X166786600Y-98121671D01*
X166807109Y-98132482D01*
X166815344Y-98138123D01*
X166815346Y-98138124D01*
X166843482Y-98144741D01*
X166856784Y-98148861D01*
X166883729Y-98159300D01*
X166883730Y-98159300D01*
X166893709Y-98159300D01*
X166916740Y-98161972D01*
X166918494Y-98162384D01*
X166926456Y-98164257D01*
X166955072Y-98160264D01*
X166968971Y-98159300D01*
X167234100Y-98159300D01*
X167293231Y-98178513D01*
X167329776Y-98228813D01*
X167334700Y-98259900D01*
X167334700Y-98326665D01*
X167315487Y-98385796D01*
X167288005Y-98411604D01*
X167152837Y-98497384D01*
X167047315Y-98609754D01*
X166973054Y-98744834D01*
X166934719Y-98894134D01*
X166934720Y-101473862D01*
X166932567Y-101493369D01*
X166934670Y-101560295D01*
X166934720Y-101563454D01*
X166934720Y-101590703D01*
X166935116Y-101593840D01*
X166935117Y-101593851D01*
X166935331Y-101595544D01*
X166936074Y-101604989D01*
X166937441Y-101648517D01*
X166943339Y-101668817D01*
X166946539Y-101684271D01*
X166949189Y-101705249D01*
X166965222Y-101745741D01*
X166968292Y-101754707D01*
X166980447Y-101796545D01*
X166991208Y-101814741D01*
X166998151Y-101828913D01*
X167004662Y-101845358D01*
X167005936Y-101848574D01*
X167031543Y-101883819D01*
X167036745Y-101891740D01*
X167058913Y-101929224D01*
X167073859Y-101944170D01*
X167084111Y-101956174D01*
X167096540Y-101973282D01*
X167130106Y-102001049D01*
X167137117Y-102007428D01*
X167675835Y-102546146D01*
X167704061Y-102601544D01*
X167705300Y-102617281D01*
X167705300Y-108009967D01*
X167686087Y-108069098D01*
X167675788Y-108081149D01*
X167675024Y-108081912D01*
X167659754Y-108094138D01*
X167613921Y-108142944D01*
X167611727Y-108145208D01*
X167594683Y-108162253D01*
X167594676Y-108162260D01*
X167592453Y-108164484D01*
X167590524Y-108166970D01*
X167590513Y-108166983D01*
X167589457Y-108168345D01*
X167583319Y-108175530D01*
X167553496Y-108207289D01*
X167543312Y-108225815D01*
X167534647Y-108239006D01*
X167521687Y-108255715D01*
X167505918Y-108292154D01*
X167504387Y-108295691D01*
X167500220Y-108304196D01*
X167479235Y-108342370D01*
X167473975Y-108362852D01*
X167468866Y-108377773D01*
X167460468Y-108397182D01*
X167453653Y-108440205D01*
X167451732Y-108449480D01*
X167440900Y-108491673D01*
X167440900Y-108512809D01*
X167439662Y-108528546D01*
X167436354Y-108549433D01*
X167439716Y-108584999D01*
X167440454Y-108592804D01*
X167440900Y-108602272D01*
X167440900Y-108778764D01*
X167421687Y-108837895D01*
X167421244Y-108838501D01*
X167419022Y-108841511D01*
X167375094Y-108967052D01*
X167372519Y-108994508D01*
X167372519Y-108994518D01*
X167372300Y-108996853D01*
X167372300Y-108999195D01*
X167372300Y-108999196D01*
X167372300Y-109600799D01*
X167372300Y-109600820D01*
X167372301Y-109603146D01*
X167372518Y-109605462D01*
X167372519Y-109605481D01*
X167375094Y-109632950D01*
X167405261Y-109719161D01*
X167419022Y-109758488D01*
X167498000Y-109865500D01*
X167605012Y-109944478D01*
X167730549Y-109988405D01*
X167760353Y-109991200D01*
X168341646Y-109991199D01*
X168371451Y-109988405D01*
X168496988Y-109944478D01*
X168604000Y-109865500D01*
X168682978Y-109758488D01*
X168703046Y-109701137D01*
X168740707Y-109651672D01*
X168800254Y-109633789D01*
X168858940Y-109654323D01*
X168892954Y-109701137D01*
X168913022Y-109758489D01*
X168945803Y-109802905D01*
X168992000Y-109865500D01*
X169099012Y-109944478D01*
X169224549Y-109988405D01*
X169254353Y-109991200D01*
X169835646Y-109991199D01*
X169865451Y-109988405D01*
X169990988Y-109944478D01*
X170098000Y-109865500D01*
X170176978Y-109758488D01*
X170220905Y-109632951D01*
X170223700Y-109603147D01*
X170223699Y-108996854D01*
X170220905Y-108967049D01*
X170176978Y-108841512D01*
X170174756Y-108838501D01*
X170155103Y-108779514D01*
X170155100Y-108778764D01*
X170155100Y-108647205D01*
X170157252Y-108627704D01*
X170157218Y-108626624D01*
X170157219Y-108626621D01*
X170155150Y-108560772D01*
X170155100Y-108557613D01*
X170155100Y-108533521D01*
X170155100Y-108530366D01*
X170154489Y-108525536D01*
X170153745Y-108516082D01*
X170152378Y-108472550D01*
X170146478Y-108452244D01*
X170143277Y-108436786D01*
X170143115Y-108435504D01*
X170140629Y-108415817D01*
X170124589Y-108375306D01*
X170121524Y-108366353D01*
X170120507Y-108362852D01*
X170109372Y-108324523D01*
X170098612Y-108306329D01*
X170091667Y-108292154D01*
X170086720Y-108279659D01*
X170083884Y-108272495D01*
X170083882Y-108272492D01*
X170058275Y-108237246D01*
X170053072Y-108229325D01*
X170030905Y-108191843D01*
X170015959Y-108176897D01*
X170005706Y-108164892D01*
X169993279Y-108147787D01*
X169959708Y-108120014D01*
X169952699Y-108113636D01*
X169920165Y-108081102D01*
X169891939Y-108025704D01*
X169890700Y-108009967D01*
X169890700Y-102001563D01*
X169892854Y-101982049D01*
X169890749Y-101915106D01*
X169890699Y-101911940D01*
X169890700Y-101884717D01*
X169890089Y-101879883D01*
X169889346Y-101870452D01*
X169887978Y-101826901D01*
X169882077Y-101806592D01*
X169878877Y-101791137D01*
X169876229Y-101770168D01*
X169860189Y-101729655D01*
X169857127Y-101720712D01*
X169855085Y-101713682D01*
X169844973Y-101678875D01*
X169834208Y-101660672D01*
X169827266Y-101646501D01*
X169819484Y-101626846D01*
X169819162Y-101626403D01*
X169793878Y-101591602D01*
X169788682Y-101583692D01*
X169766506Y-101546194D01*
X169751559Y-101531247D01*
X169741307Y-101519244D01*
X169738220Y-101514995D01*
X169728879Y-101502138D01*
X169728876Y-101502136D01*
X169728876Y-101502135D01*
X169695312Y-101474368D01*
X169688302Y-101467990D01*
X169149585Y-100929273D01*
X169121359Y-100873875D01*
X169120120Y-100858138D01*
X169120120Y-99321993D01*
X169139333Y-99262862D01*
X169189633Y-99226317D01*
X169251807Y-99226317D01*
X169291854Y-99250857D01*
X169480659Y-99439663D01*
X169648924Y-99607928D01*
X169677150Y-99663326D01*
X169667424Y-99724735D01*
X169637528Y-99760005D01*
X169614500Y-99777000D01*
X169535522Y-99884011D01*
X169491594Y-100009552D01*
X169489019Y-100037008D01*
X169489019Y-100037018D01*
X169488800Y-100039353D01*
X169488800Y-100041695D01*
X169488800Y-100041696D01*
X169488800Y-100618299D01*
X169488800Y-100618320D01*
X169488801Y-100620646D01*
X169489018Y-100622962D01*
X169489019Y-100622981D01*
X169491594Y-100650450D01*
X169529380Y-100758434D01*
X169535522Y-100775988D01*
X169614500Y-100883000D01*
X169721512Y-100961978D01*
X169847049Y-101005905D01*
X169876853Y-101008700D01*
X170483146Y-101008699D01*
X170512951Y-101005905D01*
X170629852Y-100965000D01*
X178011202Y-100965000D01*
X178031547Y-101171561D01*
X178031547Y-101171563D01*
X178031548Y-101171565D01*
X178091797Y-101370184D01*
X178189639Y-101553234D01*
X178228218Y-101600242D01*
X178321317Y-101713683D01*
X178425270Y-101798995D01*
X178481765Y-101845360D01*
X178664815Y-101943202D01*
X178671956Y-101945368D01*
X178863439Y-102003453D01*
X179070000Y-102023798D01*
X179276561Y-102003453D01*
X179475184Y-101943202D01*
X179567240Y-101893997D01*
X179658234Y-101845360D01*
X179658235Y-101845358D01*
X179658237Y-101845358D01*
X179818683Y-101713683D01*
X179950358Y-101553237D01*
X179965106Y-101525647D01*
X180048202Y-101370184D01*
X180048202Y-101370183D01*
X180108453Y-101171561D01*
X180128798Y-100965000D01*
X180108453Y-100758439D01*
X180065944Y-100618303D01*
X180048202Y-100559815D01*
X179950360Y-100376765D01*
X179851134Y-100255859D01*
X179818683Y-100216317D01*
X179721763Y-100136777D01*
X179658234Y-100084639D01*
X179475184Y-99986797D01*
X179276565Y-99926548D01*
X179276563Y-99926547D01*
X179276561Y-99926547D01*
X179070000Y-99906202D01*
X178863439Y-99926547D01*
X178863436Y-99926547D01*
X178863434Y-99926548D01*
X178664815Y-99986797D01*
X178481765Y-100084639D01*
X178321317Y-100216317D01*
X178189639Y-100376765D01*
X178091797Y-100559815D01*
X178031548Y-100758434D01*
X178031547Y-100758436D01*
X178031547Y-100758439D01*
X178011202Y-100965000D01*
X170629852Y-100965000D01*
X170638488Y-100961978D01*
X170745500Y-100883000D01*
X170824478Y-100775988D01*
X170868405Y-100650451D01*
X170871200Y-100620647D01*
X170871199Y-100039354D01*
X170868405Y-100009549D01*
X170824478Y-99884012D01*
X170745500Y-99777000D01*
X170638488Y-99698022D01*
X170625519Y-99693484D01*
X170533354Y-99661234D01*
X170483887Y-99623569D01*
X170476881Y-99606782D01*
X170454400Y-99570474D01*
X170447902Y-99558146D01*
X170436234Y-99531719D01*
X170429176Y-99524661D01*
X170414783Y-99506491D01*
X170409527Y-99498002D01*
X170386463Y-99480584D01*
X170375960Y-99471445D01*
X170330378Y-99425863D01*
X174153900Y-99425863D01*
X174165719Y-99485280D01*
X174210739Y-99552660D01*
X174237401Y-99570474D01*
X174278120Y-99597681D01*
X174337536Y-99609500D01*
X174337537Y-99609500D01*
X175877663Y-99609500D01*
X175877664Y-99609500D01*
X175937080Y-99597681D01*
X176004460Y-99552660D01*
X176049481Y-99485280D01*
X176061300Y-99425864D01*
X176061300Y-99295063D01*
X178016300Y-99295063D01*
X178028119Y-99354480D01*
X178073139Y-99421860D01*
X178099786Y-99439664D01*
X178140520Y-99466881D01*
X178199936Y-99478700D01*
X178199937Y-99478700D01*
X179940063Y-99478700D01*
X179940064Y-99478700D01*
X179999480Y-99466881D01*
X180066860Y-99421860D01*
X180111881Y-99354480D01*
X180123700Y-99295064D01*
X180123700Y-97554936D01*
X180111881Y-97495520D01*
X180094873Y-97470065D01*
X180066860Y-97428139D01*
X179999480Y-97383119D01*
X179999479Y-97383119D01*
X179940064Y-97371300D01*
X179940063Y-97371300D01*
X179564800Y-97371300D01*
X179505669Y-97352087D01*
X179469124Y-97301787D01*
X179464200Y-97270700D01*
X179464200Y-96108596D01*
X179483413Y-96049465D01*
X179531574Y-96013641D01*
X179534395Y-96012654D01*
X179644438Y-95931438D01*
X179725654Y-95821395D01*
X179770826Y-95692301D01*
X179773700Y-95661653D01*
X179773699Y-95052348D01*
X179770826Y-95021699D01*
X179725654Y-94892605D01*
X179644438Y-94782562D01*
X179534395Y-94701346D01*
X179405301Y-94656174D01*
X179405299Y-94656173D01*
X179405297Y-94656173D01*
X179376999Y-94653519D01*
X179376977Y-94653518D01*
X179374653Y-94653300D01*
X179372309Y-94653300D01*
X178767694Y-94653300D01*
X178767672Y-94653300D01*
X178765348Y-94653301D01*
X178763032Y-94653518D01*
X178763012Y-94653519D01*
X178734699Y-94656173D01*
X178605604Y-94701346D01*
X178495562Y-94782562D01*
X178414346Y-94892604D01*
X178369173Y-95021702D01*
X178366519Y-95050000D01*
X178366517Y-95050023D01*
X178366300Y-95052347D01*
X178366300Y-95054689D01*
X178366300Y-95054690D01*
X178366300Y-95659305D01*
X178366300Y-95659326D01*
X178366301Y-95661652D01*
X178366518Y-95663968D01*
X178366519Y-95663987D01*
X178369173Y-95692300D01*
X178405183Y-95795210D01*
X178414346Y-95821395D01*
X178495562Y-95931438D01*
X178605605Y-96012654D01*
X178608426Y-96013641D01*
X178657893Y-96051305D01*
X178675800Y-96108596D01*
X178675800Y-97270700D01*
X178656587Y-97329831D01*
X178606287Y-97366376D01*
X178575200Y-97371300D01*
X178199936Y-97371300D01*
X178170228Y-97377209D01*
X178140519Y-97383119D01*
X178073139Y-97428139D01*
X178028119Y-97495519D01*
X178016300Y-97554936D01*
X178016300Y-99295063D01*
X176061300Y-99295063D01*
X176061300Y-97885736D01*
X176049481Y-97826320D01*
X176026470Y-97791881D01*
X176004460Y-97758939D01*
X175937080Y-97713919D01*
X175885707Y-97703700D01*
X175877664Y-97702100D01*
X175877663Y-97702100D01*
X175513500Y-97702100D01*
X175454369Y-97682887D01*
X175417824Y-97632587D01*
X175412900Y-97601500D01*
X175412900Y-96617920D01*
X175432113Y-96558789D01*
X175452256Y-96538110D01*
X175497440Y-96503440D01*
X175585055Y-96389259D01*
X175640131Y-96256291D01*
X175658917Y-96113600D01*
X175656928Y-96098496D01*
X175640131Y-95970909D01*
X175585054Y-95837940D01*
X175497441Y-95723761D01*
X175497440Y-95723760D01*
X175383259Y-95636145D01*
X175383257Y-95636144D01*
X175250291Y-95581068D01*
X175107600Y-95562282D01*
X174964909Y-95581068D01*
X174831940Y-95636145D01*
X174717759Y-95723759D01*
X174630145Y-95837940D01*
X174575068Y-95970909D01*
X174556282Y-96113600D01*
X174575068Y-96256291D01*
X174629326Y-96387281D01*
X174630145Y-96389259D01*
X174717760Y-96503440D01*
X174762942Y-96538109D01*
X174798157Y-96589347D01*
X174802300Y-96617920D01*
X174802300Y-97601500D01*
X174783087Y-97660631D01*
X174732787Y-97697176D01*
X174701700Y-97702100D01*
X174337536Y-97702100D01*
X174329493Y-97703700D01*
X174278119Y-97713919D01*
X174210739Y-97758939D01*
X174165719Y-97826319D01*
X174153900Y-97885736D01*
X174153900Y-99425863D01*
X170330378Y-99425863D01*
X169224765Y-98320249D01*
X169196539Y-98264851D01*
X169195300Y-98249114D01*
X169195300Y-97904300D01*
X169214513Y-97845169D01*
X169264813Y-97808624D01*
X169295900Y-97803700D01*
X169560063Y-97803700D01*
X169560064Y-97803700D01*
X169619480Y-97791881D01*
X169619480Y-97791880D01*
X169620373Y-97791703D01*
X169659627Y-97791703D01*
X169660519Y-97791880D01*
X169660520Y-97791881D01*
X169719936Y-97803700D01*
X169719937Y-97803700D01*
X170360063Y-97803700D01*
X170360064Y-97803700D01*
X170419480Y-97791881D01*
X170486860Y-97746860D01*
X170531881Y-97679480D01*
X170543700Y-97620064D01*
X170543700Y-97042563D01*
X171256300Y-97042563D01*
X171256665Y-97045576D01*
X171256667Y-97045595D01*
X171271729Y-97169638D01*
X171271730Y-97169643D01*
X171321846Y-97301787D01*
X171332330Y-97329430D01*
X171429404Y-97470065D01*
X171429405Y-97470066D01*
X171557317Y-97583387D01*
X171708632Y-97662803D01*
X171874555Y-97703700D01*
X171874557Y-97703700D01*
X172045443Y-97703700D01*
X172045445Y-97703700D01*
X172211368Y-97662803D01*
X172362683Y-97583387D01*
X172490595Y-97470066D01*
X172587671Y-97329427D01*
X172648270Y-97169643D01*
X172663700Y-97042563D01*
X172663700Y-95857437D01*
X172648270Y-95730357D01*
X172587671Y-95570573D01*
X172587669Y-95570571D01*
X172587669Y-95570569D01*
X172490595Y-95429934D01*
X172362683Y-95316613D01*
X172326152Y-95297440D01*
X172211368Y-95237197D01*
X172045445Y-95196300D01*
X171874555Y-95196300D01*
X171708632Y-95237197D01*
X171708630Y-95237197D01*
X171708630Y-95237198D01*
X171557316Y-95316613D01*
X171429404Y-95429934D01*
X171332330Y-95570569D01*
X171315651Y-95614548D01*
X171271730Y-95730357D01*
X171271729Y-95730359D01*
X171271729Y-95730361D01*
X171256667Y-95854404D01*
X171256665Y-95854424D01*
X171256300Y-95857437D01*
X171256300Y-97042563D01*
X170543700Y-97042563D01*
X170543700Y-96492118D01*
X170562913Y-96432988D01*
X170613213Y-96396443D01*
X170629305Y-96392643D01*
X170664883Y-96387281D01*
X170787781Y-96328096D01*
X170887775Y-96235316D01*
X170955978Y-96117184D01*
X170986331Y-95984197D01*
X170976138Y-95848172D01*
X170926303Y-95721195D01*
X170841255Y-95614547D01*
X170728550Y-95537707D01*
X170598203Y-95497500D01*
X170496090Y-95497500D01*
X170496088Y-95497500D01*
X170395117Y-95512719D01*
X170272220Y-95571903D01*
X170172221Y-95664687D01*
X170164000Y-95678927D01*
X170117795Y-95720529D01*
X170055961Y-95727027D01*
X170005744Y-95699761D01*
X169614092Y-95308109D01*
X169593154Y-95297440D01*
X169579705Y-95289198D01*
X169560694Y-95275387D01*
X169560692Y-95275386D01*
X169538344Y-95268124D01*
X169523768Y-95262086D01*
X169502834Y-95251420D01*
X169479621Y-95247743D01*
X169464279Y-95244059D01*
X169441936Y-95236800D01*
X169441935Y-95236800D01*
X169410526Y-95236800D01*
X168834553Y-95236800D01*
X168775422Y-95217587D01*
X168738877Y-95167287D01*
X168738877Y-95105113D01*
X168763418Y-95065065D01*
X169170818Y-94657665D01*
X169226216Y-94629439D01*
X169241953Y-94628200D01*
X175068435Y-94628200D01*
X175090777Y-94620940D01*
X175106117Y-94617256D01*
X175129333Y-94613580D01*
X175150270Y-94602911D01*
X175164846Y-94596874D01*
X175187194Y-94589613D01*
X175206202Y-94575802D01*
X175219660Y-94567555D01*
X175240593Y-94556890D01*
X175328890Y-94468593D01*
X175328890Y-94468592D01*
X176516817Y-93280665D01*
X176572216Y-93252439D01*
X176587953Y-93251200D01*
X178318404Y-93251200D01*
X178377535Y-93270413D01*
X178413358Y-93318573D01*
X178414346Y-93321395D01*
X178495562Y-93431438D01*
X178605605Y-93512654D01*
X178734699Y-93557826D01*
X178756217Y-93559843D01*
X178763000Y-93560480D01*
X178763001Y-93560480D01*
X178765347Y-93560700D01*
X179374652Y-93560699D01*
X179405301Y-93557826D01*
X179534395Y-93512654D01*
X179644438Y-93431438D01*
X179725654Y-93321395D01*
X179770826Y-93192301D01*
X179773700Y-93161653D01*
X179773699Y-92552348D01*
X179770826Y-92521699D01*
X179725654Y-92392605D01*
X179644438Y-92282562D01*
X179534395Y-92201346D01*
X179405301Y-92156174D01*
X179405299Y-92156173D01*
X179405297Y-92156173D01*
X179376999Y-92153519D01*
X179376977Y-92153518D01*
X179374653Y-92153300D01*
X179372309Y-92153300D01*
X178767694Y-92153300D01*
X178767672Y-92153300D01*
X178765348Y-92153301D01*
X178763032Y-92153518D01*
X178763012Y-92153519D01*
X178734699Y-92156173D01*
X178605604Y-92201346D01*
X178495562Y-92282562D01*
X178414346Y-92392604D01*
X178413359Y-92395426D01*
X178375695Y-92444893D01*
X178318404Y-92462800D01*
X176320564Y-92462800D01*
X176298220Y-92470059D01*
X176282878Y-92473743D01*
X176259665Y-92477420D01*
X176238723Y-92488090D01*
X176224147Y-92494127D01*
X176201806Y-92501386D01*
X176182790Y-92515201D01*
X176169338Y-92523444D01*
X176148404Y-92534110D01*
X176112055Y-92570458D01*
X176112046Y-92570470D01*
X174872182Y-93810335D01*
X174816784Y-93838561D01*
X174801047Y-93839800D01*
X168974563Y-93839800D01*
X168952213Y-93847061D01*
X168936870Y-93850744D01*
X168913666Y-93854419D01*
X168892731Y-93865086D01*
X168878154Y-93871124D01*
X168855805Y-93878386D01*
X168836789Y-93892201D01*
X168823338Y-93900443D01*
X168802405Y-93911109D01*
X168766055Y-93947458D01*
X168766046Y-93947470D01*
X167506182Y-95207335D01*
X167450784Y-95235561D01*
X167435047Y-95236800D01*
X165810764Y-95236800D01*
X165788420Y-95244059D01*
X165773078Y-95247743D01*
X165749865Y-95251420D01*
X165728923Y-95262090D01*
X165714347Y-95268127D01*
X165692006Y-95275386D01*
X165672990Y-95289201D01*
X165659538Y-95297444D01*
X165638604Y-95308110D01*
X165602255Y-95344458D01*
X165602246Y-95344470D01*
X165261049Y-95685666D01*
X165205651Y-95713892D01*
X165144242Y-95704166D01*
X165111262Y-95677254D01*
X165061256Y-95614548D01*
X165061253Y-95614546D01*
X164948550Y-95537707D01*
X164818203Y-95497500D01*
X164716090Y-95497500D01*
X164716088Y-95497500D01*
X164615117Y-95512719D01*
X164492220Y-95571903D01*
X164392223Y-95664685D01*
X164324022Y-95782815D01*
X164293668Y-95915802D01*
X164023700Y-95915802D01*
X164023700Y-95857437D01*
X164008270Y-95730357D01*
X163947671Y-95570573D01*
X163947669Y-95570571D01*
X163947669Y-95570569D01*
X163850595Y-95429934D01*
X163722683Y-95316613D01*
X163686152Y-95297440D01*
X163571368Y-95237197D01*
X163405445Y-95196300D01*
X163234555Y-95196300D01*
X163068632Y-95237197D01*
X163068630Y-95237197D01*
X163068630Y-95237198D01*
X162917316Y-95316613D01*
X162789404Y-95429934D01*
X162692330Y-95570569D01*
X162675651Y-95614548D01*
X162631730Y-95730357D01*
X162631729Y-95730359D01*
X162631729Y-95730361D01*
X162616667Y-95854404D01*
X162616665Y-95854424D01*
X162616300Y-95857437D01*
X162616300Y-97042563D01*
X154940500Y-97042563D01*
X154940500Y-92712563D01*
X162616300Y-92712563D01*
X162616665Y-92715576D01*
X162616667Y-92715595D01*
X162631729Y-92839638D01*
X162631730Y-92839643D01*
X162684256Y-92978140D01*
X162692330Y-92999430D01*
X162789404Y-93140065D01*
X162789405Y-93140066D01*
X162917317Y-93253387D01*
X163068632Y-93332803D01*
X163234555Y-93373700D01*
X163234557Y-93373700D01*
X163405443Y-93373700D01*
X163405445Y-93373700D01*
X163571368Y-93332803D01*
X163722683Y-93253387D01*
X163850595Y-93140066D01*
X163947671Y-92999427D01*
X164008270Y-92839643D01*
X164023700Y-92712563D01*
X171256300Y-92712563D01*
X171256665Y-92715576D01*
X171256667Y-92715595D01*
X171271729Y-92839638D01*
X171271730Y-92839643D01*
X171324256Y-92978140D01*
X171332330Y-92999430D01*
X171429404Y-93140065D01*
X171429405Y-93140066D01*
X171557317Y-93253387D01*
X171708632Y-93332803D01*
X171874555Y-93373700D01*
X171874557Y-93373700D01*
X172045443Y-93373700D01*
X172045445Y-93373700D01*
X172211368Y-93332803D01*
X172362683Y-93253387D01*
X172490595Y-93140066D01*
X172587671Y-92999427D01*
X172648270Y-92839643D01*
X172663700Y-92712563D01*
X172663700Y-91827437D01*
X172648270Y-91700357D01*
X172587671Y-91540573D01*
X172587669Y-91540571D01*
X172587669Y-91540569D01*
X172490595Y-91399934D01*
X172362683Y-91286613D01*
X172362682Y-91286613D01*
X172211368Y-91207197D01*
X172045445Y-91166300D01*
X171874555Y-91166300D01*
X171708632Y-91207197D01*
X171708630Y-91207197D01*
X171708630Y-91207198D01*
X171557316Y-91286613D01*
X171429404Y-91399934D01*
X171332330Y-91540569D01*
X171302029Y-91620465D01*
X171271730Y-91700357D01*
X171271729Y-91700359D01*
X171271729Y-91700361D01*
X171256667Y-91824404D01*
X171256665Y-91824424D01*
X171256300Y-91827437D01*
X171256300Y-92712563D01*
X164023700Y-92712563D01*
X164023700Y-91827437D01*
X164008270Y-91700357D01*
X163947671Y-91540573D01*
X163947669Y-91540571D01*
X163947669Y-91540569D01*
X163850595Y-91399934D01*
X163722683Y-91286613D01*
X163722682Y-91286613D01*
X163571368Y-91207197D01*
X163405445Y-91166300D01*
X163234555Y-91166300D01*
X163068632Y-91207197D01*
X163068630Y-91207197D01*
X163068630Y-91207198D01*
X162917316Y-91286613D01*
X162789404Y-91399934D01*
X162692330Y-91540569D01*
X162662029Y-91620465D01*
X162631730Y-91700357D01*
X162631729Y-91700359D01*
X162631729Y-91700361D01*
X162616667Y-91824404D01*
X162616665Y-91824424D01*
X162616300Y-91827437D01*
X162616300Y-92712563D01*
X154940500Y-92712563D01*
X154940500Y-90017100D01*
X154959713Y-89957969D01*
X155010013Y-89921424D01*
X155041100Y-89916500D01*
X180238900Y-89916500D01*
X180298031Y-89935713D01*
G37*
%TD.AperFunction*%
%TD*%
M02*
