%TF.GenerationSoftware,KiCad,Pcbnew,7.0.2-6a45011f42~172~ubuntu22.04.1*%
%TF.CreationDate,2023-05-03T21:07:20-04:00*%
%TF.ProjectId,RP2040_DevBoard_v2,52503230-3430-45f4-9465-76426f617264,-*%
%TF.SameCoordinates,Original*%
%TF.FileFunction,Soldermask,Top*%
%TF.FilePolarity,Negative*%
%FSLAX46Y46*%
G04 Gerber Fmt 4.6, Leading zero omitted, Abs format (unit mm)*
G04 Created by KiCad (PCBNEW 7.0.2-6a45011f42~172~ubuntu22.04.1) date 2023-05-03 21:07:20*
%MOMM*%
%LPD*%
G01*
G04 APERTURE LIST*
G04 Aperture macros list*
%AMRoundRect*
0 Rectangle with rounded corners*
0 $1 Rounding radius*
0 $2 $3 $4 $5 $6 $7 $8 $9 X,Y pos of 4 corners*
0 Add a 4 corners polygon primitive as box body*
4,1,4,$2,$3,$4,$5,$6,$7,$8,$9,$2,$3,0*
0 Add four circle primitives for the rounded corners*
1,1,$1+$1,$2,$3*
1,1,$1+$1,$4,$5*
1,1,$1+$1,$6,$7*
1,1,$1+$1,$8,$9*
0 Add four rect primitives between the rounded corners*
20,1,$1+$1,$2,$3,$4,$5,0*
20,1,$1+$1,$4,$5,$6,$7,0*
20,1,$1+$1,$6,$7,$8,$9,0*
20,1,$1+$1,$8,$9,$2,$3,0*%
G04 Aperture macros list end*
%ADD10RoundRect,0.050800X-0.850000X-0.850000X0.850000X-0.850000X0.850000X0.850000X-0.850000X0.850000X0*%
%ADD11O,1.801600X1.801600*%
%ADD12RoundRect,0.288300X-0.237500X0.250000X-0.237500X-0.250000X0.237500X-0.250000X0.237500X0.250000X0*%
%ADD13RoundRect,0.050800X0.750000X-0.750000X0.750000X0.750000X-0.750000X0.750000X-0.750000X-0.750000X0*%
%ADD14RoundRect,0.050800X-0.800000X-0.500000X0.800000X-0.500000X0.800000X0.500000X-0.800000X0.500000X0*%
%ADD15RoundRect,0.288300X0.237500X-0.250000X0.237500X0.250000X-0.237500X0.250000X-0.237500X-0.250000X0*%
%ADD16C,0.650000*%
%ADD17RoundRect,0.050800X0.300000X0.575000X-0.300000X0.575000X-0.300000X-0.575000X0.300000X-0.575000X0*%
%ADD18RoundRect,0.050800X0.150000X0.575000X-0.150000X0.575000X-0.150000X-0.575000X0.150000X-0.575000X0*%
%ADD19O,1.101600X2.201600*%
%ADD20O,1.101600X1.901600*%
%ADD21RoundRect,0.288300X-0.250000X-0.237500X0.250000X-0.237500X0.250000X0.237500X-0.250000X0.237500X0*%
%ADD22RoundRect,0.050800X-1.050000X-0.900000X1.050000X-0.900000X1.050000X0.900000X-1.050000X0.900000X0*%
%ADD23RoundRect,0.300800X0.250000X-0.250000X0.250000X0.250000X-0.250000X0.250000X-0.250000X-0.250000X0*%
%ADD24RoundRect,0.100800X-0.350000X-0.050000X0.350000X-0.050000X0.350000X0.050000X-0.350000X0.050000X0*%
%ADD25RoundRect,0.100800X-0.050000X-0.350000X0.050000X-0.350000X0.050000X0.350000X-0.050000X0.350000X0*%
%ADD26RoundRect,0.050800X-2.000000X-2.000000X2.000000X-2.000000X2.000000X2.000000X-2.000000X2.000000X0*%
%ADD27RoundRect,0.288300X0.250000X0.237500X-0.250000X0.237500X-0.250000X-0.237500X0.250000X-0.237500X0*%
%ADD28RoundRect,0.288300X0.237500X-0.300000X0.237500X0.300000X-0.237500X0.300000X-0.237500X-0.300000X0*%
%ADD29RoundRect,0.300800X-0.250000X0.250000X-0.250000X-0.250000X0.250000X-0.250000X0.250000X0.250000X0*%
%ADD30RoundRect,0.288300X-0.237500X0.300000X-0.237500X-0.300000X0.237500X-0.300000X0.237500X0.300000X0*%
G04 APERTURE END LIST*
D10*
%TO.C,J2*%
X156210000Y-98425000D03*
D11*
X156210000Y-100965000D03*
X156210000Y-103505000D03*
X156210000Y-106045000D03*
X156210000Y-108585000D03*
X156210000Y-111125000D03*
X156210000Y-113665000D03*
X156210000Y-116205000D03*
X156210000Y-118745000D03*
X156210000Y-121285000D03*
X156210000Y-123825000D03*
X156210000Y-126365000D03*
X156210000Y-128905000D03*
X156210000Y-131445000D03*
X156210000Y-133985000D03*
X156210000Y-136525000D03*
%TD*%
D12*
%TO.C,R4*%
X162585400Y-104700700D03*
X162585400Y-106525700D03*
%TD*%
D13*
%TO.C,SW1*%
X160172400Y-98669600D03*
X160172400Y-90869600D03*
%TD*%
D14*
%TO.C,D2*%
X159425000Y-122961600D03*
X159425000Y-126161600D03*
X164425000Y-126161600D03*
X164425000Y-122961600D03*
%TD*%
D15*
%TO.C,R1*%
X161010600Y-106525700D03*
X161010600Y-104700700D03*
%TD*%
%TO.C,R7*%
X169545000Y-111125000D03*
X169545000Y-109300000D03*
%TD*%
D10*
%TO.C,J1*%
X179070000Y-98425000D03*
D11*
X179070000Y-100965000D03*
X179070000Y-103505000D03*
X179070000Y-106045000D03*
X179070000Y-108585000D03*
X179070000Y-111125000D03*
X179070000Y-113665000D03*
X179070000Y-116205000D03*
X179070000Y-118745000D03*
X179070000Y-121285000D03*
X179070000Y-123825000D03*
X179070000Y-126365000D03*
X179070000Y-128905000D03*
X179070000Y-131445000D03*
X179070000Y-133985000D03*
X179070000Y-136525000D03*
%TD*%
D15*
%TO.C,R8*%
X168051000Y-111125000D03*
X168051000Y-109300000D03*
%TD*%
D16*
%TO.C,J3*%
X170530000Y-95950000D03*
X164750000Y-95950000D03*
D17*
X170840000Y-97025000D03*
X170040000Y-97025000D03*
D18*
X168890000Y-97025000D03*
X167890000Y-97025000D03*
X167390000Y-97025000D03*
X166390000Y-97025000D03*
D17*
X165240000Y-97025000D03*
X164440000Y-97025000D03*
X164440000Y-97025000D03*
X165240000Y-97025000D03*
D18*
X165890000Y-97025000D03*
X166890000Y-97025000D03*
X168390000Y-97025000D03*
X169390000Y-97025000D03*
D17*
X170040000Y-97025000D03*
X170840000Y-97025000D03*
D19*
X171960000Y-96450000D03*
D20*
X171960000Y-92270000D03*
D19*
X163320000Y-96450000D03*
D20*
X163320000Y-92270000D03*
%TD*%
D13*
%TO.C,SW2*%
X175107600Y-98655800D03*
X175107600Y-90855800D03*
%TD*%
D12*
%TO.C,R3*%
X174371000Y-130913500D03*
X174371000Y-132738500D03*
%TD*%
D21*
%TO.C,R5*%
X170180000Y-100330000D03*
X172005000Y-100330000D03*
%TD*%
D22*
%TO.C,Y1*%
X169238000Y-136405000D03*
X172138000Y-136405000D03*
X172138000Y-134105000D03*
X169238000Y-134105000D03*
%TD*%
D23*
%TO.C,D3*%
X179070000Y-95357000D03*
X179070000Y-92857000D03*
%TD*%
D24*
%TO.C,U2*%
X164130000Y-114875000D03*
X164130000Y-115275000D03*
X164130000Y-115675000D03*
X164130000Y-116075000D03*
X164130000Y-116475000D03*
X164130000Y-116875000D03*
X164130000Y-117275000D03*
X164130000Y-117675000D03*
X164130000Y-118075000D03*
X164130000Y-118475000D03*
X164130000Y-118875000D03*
X164130000Y-119275000D03*
X164130000Y-119675000D03*
X164130000Y-120075000D03*
D25*
X164980000Y-120925000D03*
X165380000Y-120925000D03*
X165780000Y-120925000D03*
X166180000Y-120925000D03*
X166580000Y-120925000D03*
X166980000Y-120925000D03*
X167380000Y-120925000D03*
X167780000Y-120925000D03*
X168180000Y-120925000D03*
X168580000Y-120925000D03*
X168980000Y-120925000D03*
X169380000Y-120925000D03*
X169780000Y-120925000D03*
X170180000Y-120925000D03*
D24*
X171030000Y-120075000D03*
X171030000Y-119675000D03*
X171030000Y-119275000D03*
X171030000Y-118875000D03*
X171030000Y-118475000D03*
X171030000Y-118075000D03*
X171030000Y-117675000D03*
X171030000Y-117275000D03*
X171030000Y-116875000D03*
X171030000Y-116475000D03*
X171030000Y-116075000D03*
X171030000Y-115675000D03*
X171030000Y-115275000D03*
X171030000Y-114875000D03*
D25*
X170180000Y-114025000D03*
X169780000Y-114025000D03*
X169380000Y-114025000D03*
X168980000Y-114025000D03*
X168580000Y-114025000D03*
X168180000Y-114025000D03*
X167780000Y-114025000D03*
X167380000Y-114025000D03*
X166980000Y-114025000D03*
X166580000Y-114025000D03*
X166180000Y-114025000D03*
X165780000Y-114025000D03*
X165380000Y-114025000D03*
X164980000Y-114025000D03*
D26*
X167580000Y-117475000D03*
%TD*%
D27*
%TO.C,R2*%
X172845100Y-129413000D03*
X171020100Y-129413000D03*
%TD*%
%TO.C,R6*%
X165862000Y-100330000D03*
X164037000Y-100330000D03*
%TD*%
D28*
%TO.C,C16*%
X167005000Y-136117500D03*
X167005000Y-134392500D03*
%TD*%
D29*
%TO.C,D1*%
X160985200Y-100527800D03*
X160985200Y-103027800D03*
%TD*%
D30*
%TO.C,C17*%
X174371000Y-134392500D03*
X174371000Y-136117500D03*
%TD*%
M02*
