%TF.GenerationSoftware,KiCad,Pcbnew,7.0.2-6a45011f42~172~ubuntu22.04.1*%
%TF.CreationDate,2023-05-03T21:07:19-04:00*%
%TF.ProjectId,RP2040_DevBoard_v2,52503230-3430-45f4-9465-76426f617264,-*%
%TF.SameCoordinates,Original*%
%TF.FileFunction,Copper,L2,Bot*%
%TF.FilePolarity,Positive*%
%FSLAX46Y46*%
G04 Gerber Fmt 4.6, Leading zero omitted, Abs format (unit mm)*
G04 Created by KiCad (PCBNEW 7.0.2-6a45011f42~172~ubuntu22.04.1) date 2023-05-03 21:07:19*
%MOMM*%
%LPD*%
G01*
G04 APERTURE LIST*
G04 Aperture macros list*
%AMRoundRect*
0 Rectangle with rounded corners*
0 $1 Rounding radius*
0 $2 $3 $4 $5 $6 $7 $8 $9 X,Y pos of 4 corners*
0 Add a 4 corners polygon primitive as box body*
4,1,4,$2,$3,$4,$5,$6,$7,$8,$9,$2,$3,0*
0 Add four circle primitives for the rounded corners*
1,1,$1+$1,$2,$3*
1,1,$1+$1,$4,$5*
1,1,$1+$1,$6,$7*
1,1,$1+$1,$8,$9*
0 Add four rect primitives between the rounded corners*
20,1,$1+$1,$2,$3,$4,$5,0*
20,1,$1+$1,$4,$5,$6,$7,0*
20,1,$1+$1,$6,$7,$8,$9,0*
20,1,$1+$1,$8,$9,$2,$3,0*%
G04 Aperture macros list end*
%TA.AperFunction,ComponentPad*%
%ADD10R,1.700000X1.700000*%
%TD*%
%TA.AperFunction,ComponentPad*%
%ADD11O,1.700000X1.700000*%
%TD*%
%TA.AperFunction,ComponentPad*%
%ADD12O,1.000000X2.100000*%
%TD*%
%TA.AperFunction,ComponentPad*%
%ADD13O,1.000000X1.800000*%
%TD*%
%TA.AperFunction,SMDPad,CuDef*%
%ADD14RoundRect,0.237500X0.237500X-0.300000X0.237500X0.300000X-0.237500X0.300000X-0.237500X-0.300000X0*%
%TD*%
%TA.AperFunction,SMDPad,CuDef*%
%ADD15RoundRect,0.237500X-0.237500X0.300000X-0.237500X-0.300000X0.237500X-0.300000X0.237500X0.300000X0*%
%TD*%
%TA.AperFunction,SMDPad,CuDef*%
%ADD16RoundRect,0.237500X-0.300000X-0.237500X0.300000X-0.237500X0.300000X0.237500X-0.300000X0.237500X0*%
%TD*%
%TA.AperFunction,SMDPad,CuDef*%
%ADD17RoundRect,0.237500X0.300000X0.237500X-0.300000X0.237500X-0.300000X-0.237500X0.300000X-0.237500X0*%
%TD*%
%TA.AperFunction,SMDPad,CuDef*%
%ADD18RoundRect,0.250000X-0.475000X0.337500X-0.475000X-0.337500X0.475000X-0.337500X0.475000X0.337500X0*%
%TD*%
%TA.AperFunction,SMDPad,CuDef*%
%ADD19RoundRect,0.150000X0.512500X0.150000X-0.512500X0.150000X-0.512500X-0.150000X0.512500X-0.150000X0*%
%TD*%
%TA.AperFunction,SMDPad,CuDef*%
%ADD20RoundRect,0.150000X-0.650000X-0.150000X0.650000X-0.150000X0.650000X0.150000X-0.650000X0.150000X0*%
%TD*%
%TA.AperFunction,ViaPad*%
%ADD21C,0.685800*%
%TD*%
%TA.AperFunction,Conductor*%
%ADD22C,0.381000*%
%TD*%
%TA.AperFunction,Conductor*%
%ADD23C,0.203200*%
%TD*%
G04 APERTURE END LIST*
D10*
%TO.P,J2,1,Pin_1*%
%TO.N,GPIO0*%
X156210000Y-98425000D03*
D11*
%TO.P,J2,2,Pin_2*%
%TO.N,GPIO1*%
X156210000Y-100965000D03*
%TO.P,J2,3,Pin_3*%
%TO.N,GPIO2*%
X156210000Y-103505000D03*
%TO.P,J2,4,Pin_4*%
%TO.N,MOSI*%
X156210000Y-106045000D03*
%TO.P,J2,5,Pin_5*%
%TO.N,MISO*%
X156210000Y-108585000D03*
%TO.P,J2,6,Pin_6*%
%TO.N,RX*%
X156210000Y-111125000D03*
%TO.P,J2,7,Pin_7*%
%TO.N,SCK*%
X156210000Y-113665000D03*
%TO.P,J2,8,Pin_8*%
%TO.N,GPIO7*%
X156210000Y-116205000D03*
%TO.P,J2,9,Pin_9*%
%TO.N,GPIO8*%
X156210000Y-118745000D03*
%TO.P,J2,10,Pin_10*%
%TO.N,GPIO9*%
X156210000Y-121285000D03*
%TO.P,J2,11,Pin_11*%
%TO.N,GPIO10*%
X156210000Y-123825000D03*
%TO.P,J2,12,Pin_12*%
%TO.N,GPIO13*%
X156210000Y-126365000D03*
%TO.P,J2,13,Pin_13*%
%TO.N,GPIO14*%
X156210000Y-128905000D03*
%TO.P,J2,14,Pin_14*%
%TO.N,GPIO15*%
X156210000Y-131445000D03*
%TO.P,J2,15,Pin_15*%
%TO.N,SWCLK*%
X156210000Y-133985000D03*
%TO.P,J2,16,Pin_16*%
%TO.N,SWDIO*%
X156210000Y-136525000D03*
%TD*%
D10*
%TO.P,J1,1,Pin_1*%
%TO.N,+5V*%
X179070000Y-98425000D03*
D11*
%TO.P,J1,2,Pin_2*%
%TO.N,+3.3V*%
X179070000Y-100965000D03*
%TO.P,J1,3,Pin_3*%
%TO.N,GND*%
X179070000Y-103505000D03*
%TO.P,J1,4,Pin_4*%
%TO.N,A3*%
X179070000Y-106045000D03*
%TO.P,J1,5,Pin_5*%
%TO.N,A2*%
X179070000Y-108585000D03*
%TO.P,J1,6,Pin_6*%
%TO.N,A1*%
X179070000Y-111125000D03*
%TO.P,J1,7,Pin_7*%
%TO.N,A0*%
X179070000Y-113665000D03*
%TO.P,J1,8,Pin_8*%
%TO.N,SCL*%
X179070000Y-116205000D03*
%TO.P,J1,9,Pin_9*%
%TO.N,SDA*%
X179070000Y-118745000D03*
%TO.P,J1,10,Pin_10*%
%TO.N,SCL1*%
X179070000Y-121285000D03*
%TO.P,J1,11,Pin_11*%
%TO.N,SDA1*%
X179070000Y-123825000D03*
%TO.P,J1,12,Pin_12*%
%TO.N,TX*%
X179070000Y-126365000D03*
%TO.P,J1,13,Pin_13*%
%TO.N,GPIO19*%
X179070000Y-128905000D03*
%TO.P,J1,14,Pin_14*%
%TO.N,GPIO18*%
X179070000Y-131445000D03*
%TO.P,J1,15,Pin_15*%
%TO.N,GPIO17*%
X179070000Y-133985000D03*
%TO.P,J1,16,Pin_16*%
%TO.N,GPIO16*%
X179070000Y-136525000D03*
%TD*%
D12*
%TO.P,J3,S1,SHIELD*%
%TO.N,unconnected-(J3-SHIELD-PadS1)*%
X171960000Y-96450000D03*
D13*
X171960000Y-92270000D03*
D12*
X163320000Y-96450000D03*
D13*
X163320000Y-92270000D03*
%TD*%
D14*
%TO.P,C10,1*%
%TO.N,+3.3V*%
X169113200Y-125095000D03*
%TO.P,C10,2*%
%TO.N,GND*%
X169113200Y-123370000D03*
%TD*%
%TO.P,C8,1*%
%TO.N,+3.3V*%
X158750000Y-116355200D03*
%TO.P,C8,2*%
%TO.N,GND*%
X158750000Y-114630200D03*
%TD*%
D15*
%TO.P,C13,1*%
%TO.N,+3.3V*%
X169519600Y-113461800D03*
%TO.P,C13,2*%
%TO.N,GND*%
X169519600Y-115186800D03*
%TD*%
D16*
%TO.P,C3,1*%
%TO.N,+3.3V*%
X173890600Y-115900200D03*
%TO.P,C3,2*%
%TO.N,GND*%
X175615600Y-115900200D03*
%TD*%
D14*
%TO.P,C11,1*%
%TO.N,+1V2*%
X170637200Y-126464400D03*
%TO.P,C11,2*%
%TO.N,GND*%
X170637200Y-124739400D03*
%TD*%
D16*
%TO.P,C2,1*%
%TO.N,+3.3V*%
X173889500Y-112852200D03*
%TO.P,C2,2*%
%TO.N,GND*%
X175614500Y-112852200D03*
%TD*%
D17*
%TO.P,C9,1*%
%TO.N,+1V2*%
X164895700Y-112445800D03*
%TO.P,C9,2*%
%TO.N,GND*%
X163170700Y-112445800D03*
%TD*%
D18*
%TO.P,C14,1*%
%TO.N,+5V*%
X170891200Y-100943500D03*
%TO.P,C14,2*%
%TO.N,GND*%
X170891200Y-103018500D03*
%TD*%
D14*
%TO.P,C7,1*%
%TO.N,+1V2*%
X172212000Y-126466600D03*
%TO.P,C7,2*%
%TO.N,GND*%
X172212000Y-124741600D03*
%TD*%
D16*
%TO.P,C15,1*%
%TO.N,+3.3V*%
X173889500Y-117424200D03*
%TO.P,C15,2*%
%TO.N,GND*%
X175614500Y-117424200D03*
%TD*%
D19*
%TO.P,U1,1,VIN*%
%TO.N,+5V*%
X168910000Y-100015000D03*
%TO.P,U1,2,GND*%
%TO.N,GND*%
X168910000Y-100965000D03*
%TO.P,U1,3,EN*%
%TO.N,+5V*%
X168910000Y-101915000D03*
%TO.P,U1,4,NC*%
%TO.N,unconnected-(U1-NC-Pad4)*%
X166635000Y-101915000D03*
%TO.P,U1,5,VOUT*%
%TO.N,+3.3V*%
X166635000Y-100015000D03*
%TD*%
D18*
%TO.P,C18,1*%
%TO.N,+3.3V*%
X164668200Y-100968900D03*
%TO.P,C18,2*%
%TO.N,GND*%
X164668200Y-103043900D03*
%TD*%
D16*
%TO.P,C5,1*%
%TO.N,+3.3V*%
X173890600Y-109804200D03*
%TO.P,C5,2*%
%TO.N,GND*%
X175615600Y-109804200D03*
%TD*%
D20*
%TO.P,U3,1,~{CS}*%
%TO.N,QSPI_CS*%
X164040000Y-110490000D03*
%TO.P,U3,2,DO(IO1)*%
%TO.N,QSPI_DATA(1)*%
X164040000Y-109220000D03*
%TO.P,U3,3,IO2*%
%TO.N,QSPI_DATA(2)*%
X164040000Y-107950000D03*
%TO.P,U3,4,GND*%
%TO.N,GND*%
X164040000Y-106680000D03*
%TO.P,U3,5,DI(IO0)*%
%TO.N,QSPI_DATA(0)*%
X171240000Y-106680000D03*
%TO.P,U3,6,CLK*%
%TO.N,QSPI_SCK*%
X171240000Y-107950000D03*
%TO.P,U3,7,IO3*%
%TO.N,QSPI_DATA(3)*%
X171240000Y-109220000D03*
%TO.P,U3,8,VCC*%
%TO.N,+3.3V*%
X171240000Y-110490000D03*
%TD*%
D14*
%TO.P,C12,1*%
%TO.N,+3.3V*%
X160172400Y-111175800D03*
%TO.P,C12,2*%
%TO.N,GND*%
X160172400Y-109450800D03*
%TD*%
D16*
%TO.P,C1,1*%
%TO.N,+3.3V*%
X173888400Y-114376200D03*
%TO.P,C1,2*%
%TO.N,GND*%
X175613400Y-114376200D03*
%TD*%
D15*
%TO.P,C6,1*%
%TO.N,+3.3V*%
X167995600Y-113464000D03*
%TO.P,C6,2*%
%TO.N,GND*%
X167995600Y-115189000D03*
%TD*%
D16*
%TO.P,C4,1*%
%TO.N,+3.3V*%
X173889500Y-111328200D03*
%TO.P,C4,2*%
%TO.N,GND*%
X175614500Y-111328200D03*
%TD*%
D21*
%TO.N,+3.3V*%
X158750000Y-117779800D03*
X167958450Y-112154650D03*
X172844381Y-128348819D03*
X176379360Y-118671400D03*
X163017200Y-103403400D03*
X171475400Y-112115600D03*
X168275000Y-126492000D03*
X172491400Y-114376200D03*
X170561000Y-112115600D03*
X160172400Y-112496600D03*
%TO.N,GND*%
X170895000Y-92950000D03*
X164545000Y-92950000D03*
X159465000Y-92950000D03*
X173435000Y-92950000D03*
X174705000Y-120890000D03*
X159465000Y-137400000D03*
X156925000Y-96760000D03*
X172165000Y-101840000D03*
X156925000Y-94220000D03*
X174705000Y-127240000D03*
X160735000Y-96760000D03*
X155655000Y-94220000D03*
X172110400Y-132308600D03*
X163275000Y-134860000D03*
X164545000Y-91680000D03*
X159465000Y-96760000D03*
X169625000Y-92950000D03*
X160735000Y-137400000D03*
X174705000Y-92950000D03*
X168355000Y-91680000D03*
X168355000Y-132320000D03*
X172165000Y-120890000D03*
X162005000Y-96760000D03*
X164545000Y-136130000D03*
X175975000Y-105650000D03*
X175975000Y-134860000D03*
X177245000Y-91680000D03*
X159465000Y-95490000D03*
X168757600Y-118694200D03*
X174705000Y-100570000D03*
X165815000Y-91680000D03*
X163275000Y-137400000D03*
X170895000Y-132320000D03*
X164545000Y-132320000D03*
X166319200Y-116255800D03*
X175975000Y-106920000D03*
X167085000Y-103110000D03*
X164545000Y-133590000D03*
X167085000Y-91680000D03*
X175975000Y-108190000D03*
X164545000Y-105650000D03*
X156925000Y-92950000D03*
X168355000Y-92950000D03*
X165815000Y-92950000D03*
X174705000Y-106920000D03*
X156925000Y-95490000D03*
X167085000Y-132320000D03*
X175975000Y-127240000D03*
X164541200Y-131038600D03*
X174705000Y-124700000D03*
X175975000Y-104380000D03*
X160735000Y-101840000D03*
X173435000Y-101840000D03*
X164545000Y-137400000D03*
X174705000Y-123430000D03*
X167085000Y-137400000D03*
X165815000Y-137400000D03*
X155655000Y-92950000D03*
X172165000Y-105650000D03*
X166014400Y-126161600D03*
X163275000Y-136130000D03*
X155655000Y-91680000D03*
X158851600Y-120472200D03*
X162005000Y-134860000D03*
X156925000Y-91680000D03*
X170895000Y-105650000D03*
X155655000Y-95490000D03*
X174705000Y-137400000D03*
X162001200Y-133629400D03*
X165815000Y-106920000D03*
X170895000Y-120890000D03*
X158195000Y-92950000D03*
X174705000Y-122160000D03*
X178515000Y-91680000D03*
X175975000Y-136130000D03*
X174705000Y-101840000D03*
X162005000Y-137400000D03*
X173329600Y-125958600D03*
X155655000Y-96760000D03*
X165815000Y-105650000D03*
X162005000Y-95490000D03*
X173435000Y-103110000D03*
X177245000Y-96760000D03*
X160096200Y-129565400D03*
X173435000Y-91680000D03*
X160735000Y-95490000D03*
X158195000Y-137400000D03*
X158195000Y-91680000D03*
X160680400Y-130175000D03*
X162005000Y-136130000D03*
X166319200Y-118694200D03*
X162005000Y-92950000D03*
X163271200Y-132308600D03*
X161442400Y-128244600D03*
X170895000Y-91680000D03*
X160731200Y-134848600D03*
X160735000Y-92950000D03*
X169625000Y-91680000D03*
X164545000Y-134860000D03*
X173435000Y-96760000D03*
X177245000Y-94220000D03*
X172165000Y-103110000D03*
X168808400Y-116255800D03*
X175975000Y-125970000D03*
X167085000Y-92950000D03*
X167085000Y-131050000D03*
X173329600Y-124688600D03*
X174705000Y-125970000D03*
X173435000Y-120890000D03*
X162687000Y-100330000D03*
X163275000Y-133590000D03*
X174705000Y-105650000D03*
X178515000Y-94220000D03*
X167085000Y-105650000D03*
X162005000Y-91680000D03*
X177245000Y-95490000D03*
X169625000Y-132320000D03*
X162005000Y-98030000D03*
X159512000Y-130200400D03*
X175975000Y-137400000D03*
%TO.N,+1V2*%
X169595800Y-112115600D03*
X166751000Y-111226600D03*
X169189400Y-126492000D03*
%TO.N,USBBOOT*%
X176489413Y-119522187D03*
X158750000Y-98475800D03*
%TO.N,SWCLK*%
X169202600Y-127685800D03*
X166243000Y-127609600D03*
%TO.N,SWDIO*%
X169799000Y-128473200D03*
X166243000Y-128447303D03*
%TO.N,QSPI_CS*%
X161772600Y-111683800D03*
%TO.N,RESET*%
X164007800Y-128143000D03*
X159385000Y-131445000D03*
X171018200Y-128320800D03*
X175107600Y-96113600D03*
%TO.N,QSPI_DATA(3)*%
X166471600Y-110109000D03*
%TO.N,QSPI_DATA(0)*%
X165912800Y-108178600D03*
%TO.N,QSPI_DATA(2)*%
X162153600Y-108356400D03*
%TO.N,QSPI_DATA(1)*%
X161533119Y-109737281D03*
%TO.N,QSPI_SCK*%
X166192200Y-109093000D03*
%TD*%
D22*
%TO.N,+3.3V*%
X163017200Y-104267000D02*
X163626800Y-104876600D01*
D23*
X168275000Y-126492000D02*
X169113200Y-125653800D01*
X174015400Y-123647200D02*
X172783500Y-122415300D01*
D22*
X158851600Y-105435400D02*
X158851600Y-110972600D01*
D23*
X173890600Y-114378400D02*
X173888400Y-114376200D01*
X162255200Y-130378200D02*
X158089600Y-126212600D01*
D22*
X173532800Y-104876600D02*
X177444400Y-100965000D01*
D23*
X172844381Y-128348819D02*
X174015400Y-127177800D01*
X175661294Y-130378200D02*
X162255200Y-130378200D01*
X158089600Y-126212600D02*
X158089600Y-118440200D01*
X176379360Y-118671400D02*
X176482771Y-118671400D01*
D22*
X168097200Y-125095000D02*
X169113200Y-125095000D01*
D23*
X158750000Y-116355200D02*
X158750000Y-117779800D01*
D22*
X164668200Y-100968900D02*
X163318100Y-100968900D01*
D23*
X169113200Y-125653800D02*
X169113200Y-125095000D01*
D22*
X177444400Y-100965000D02*
X179070000Y-100965000D01*
X173913800Y-108762800D02*
X173913800Y-105257600D01*
D23*
X174015400Y-127177800D02*
X174015400Y-123647200D01*
X176482771Y-118671400D02*
X177292000Y-119480629D01*
D22*
X159054800Y-111175800D02*
X160172400Y-111175800D01*
X163017200Y-103403400D02*
X163017200Y-104267000D01*
D23*
X158089600Y-118440200D02*
X158750000Y-117779800D01*
D22*
X164592000Y-121589800D02*
X165417500Y-122415300D01*
X164668200Y-100968900D02*
X163017200Y-102619900D01*
X163318100Y-100968900D02*
X158851600Y-105435400D01*
D23*
X177292000Y-119480629D02*
X177292000Y-128747494D01*
D22*
X173913800Y-105257600D02*
X173532800Y-104876600D01*
X164592000Y-115493800D02*
X164592000Y-121589800D01*
X166621800Y-113464000D02*
X164592000Y-115493800D01*
X160172400Y-112496600D02*
X160172400Y-111175800D01*
D23*
X177292000Y-128747494D02*
X175661294Y-130378200D01*
D22*
X158851600Y-110972600D02*
X159054800Y-111175800D01*
D23*
X172783500Y-122415300D02*
X165417500Y-122415300D01*
D22*
X163626800Y-104876600D02*
X173532800Y-104876600D01*
X165417500Y-122415300D02*
X168097200Y-125095000D01*
X167995600Y-113464000D02*
X166621800Y-113464000D01*
X163017200Y-102619900D02*
X163017200Y-103403400D01*
D23*
%TO.N,+1V2*%
X170637200Y-126464400D02*
X172209800Y-126464400D01*
X162610800Y-128452906D02*
X163824894Y-129667000D01*
X164895700Y-112445800D02*
X164895700Y-113208900D01*
X165404800Y-111226600D02*
X164895700Y-111735700D01*
X171069000Y-129667000D02*
X172212000Y-128524000D01*
X164895700Y-111735700D02*
X164895700Y-112445800D01*
X168706800Y-111226600D02*
X169595800Y-112115600D01*
X163824894Y-129667000D02*
X171069000Y-129667000D01*
X172212000Y-128524000D02*
X172212000Y-126466600D01*
X169189400Y-126492000D02*
X170609600Y-126492000D01*
X166751000Y-111226600D02*
X168706800Y-111226600D01*
X172209800Y-126464400D02*
X172212000Y-126466600D01*
X162610800Y-115493800D02*
X162610800Y-128452906D01*
X166751000Y-111226600D02*
X165404800Y-111226600D01*
X164895700Y-113208900D02*
X162610800Y-115493800D01*
D22*
%TO.N,+5V*%
X171771632Y-100943500D02*
X174290132Y-98425000D01*
X170891200Y-100943500D02*
X171771632Y-100943500D01*
X174290132Y-98425000D02*
X179070000Y-98425000D01*
D23*
%TO.N,USBBOOT*%
X158089600Y-99136200D02*
X158750000Y-98475800D01*
X176489413Y-119522187D02*
X176936400Y-119969174D01*
X176936400Y-128600200D02*
X175514000Y-130022600D01*
X175514000Y-130022600D02*
X163677600Y-130022600D01*
X162255200Y-128600200D02*
X162255200Y-116509800D01*
X176936400Y-119969174D02*
X176936400Y-128600200D01*
X163677600Y-130022600D02*
X162255200Y-128600200D01*
X162255200Y-116509800D02*
X158089600Y-112344200D01*
X158089600Y-112344200D02*
X158089600Y-99136200D01*
%TO.N,SWCLK*%
X169126400Y-127609600D02*
X166243000Y-127609600D01*
X169202600Y-127685800D02*
X169126400Y-127609600D01*
%TO.N,SWDIO*%
X169773103Y-128447303D02*
X166243000Y-128447303D01*
X169799000Y-128473200D02*
X169773103Y-128447303D01*
%TO.N,QSPI_CS*%
X161772600Y-111683800D02*
X162966400Y-110490000D01*
X162966400Y-110490000D02*
X164040000Y-110490000D01*
%TO.N,RESET*%
X157734000Y-129794000D02*
X157734000Y-95478600D01*
X170268900Y-129070100D02*
X164934900Y-129070100D01*
X164934900Y-129070100D02*
X164007800Y-128143000D01*
X171018200Y-128320800D02*
X170268900Y-129070100D01*
X173507400Y-94513400D02*
X175107600Y-96113600D01*
X158699200Y-94513400D02*
X173507400Y-94513400D01*
X157734000Y-95478600D02*
X158699200Y-94513400D01*
X159385000Y-131445000D02*
X157734000Y-129794000D01*
%TO.N,QSPI_DATA(3)*%
X167360600Y-109220000D02*
X171240000Y-109220000D01*
X166471600Y-110109000D02*
X167360600Y-109220000D01*
%TO.N,QSPI_DATA(0)*%
X165912800Y-108178600D02*
X167411400Y-106680000D01*
X167411400Y-106680000D02*
X171240000Y-106680000D01*
%TO.N,QSPI_DATA(2)*%
X162153600Y-108356400D02*
X162560000Y-107950000D01*
X162560000Y-107950000D02*
X164040000Y-107950000D01*
%TO.N,QSPI_DATA(1)*%
X162050400Y-109220000D02*
X164040000Y-109220000D01*
X161533119Y-109737281D02*
X162050400Y-109220000D01*
%TO.N,QSPI_SCK*%
X166192200Y-109093000D02*
X167335200Y-107950000D01*
X167335200Y-107950000D02*
X171240000Y-107950000D01*
%TD*%
%TA.AperFunction,Conductor*%
%TO.N,+5V*%
G36*
X172354931Y-99588002D02*
G01*
X172375905Y-99604905D01*
X172556095Y-99785095D01*
X172590121Y-99847407D01*
X172593000Y-99874190D01*
X172593000Y-101237074D01*
X172572998Y-101305195D01*
X172519342Y-101351688D01*
X172449068Y-101361792D01*
X172418783Y-101353483D01*
X172307691Y-101307468D01*
X172165000Y-101288683D01*
X172005863Y-101309634D01*
X172005688Y-101308310D01*
X171954800Y-101313781D01*
X171891314Y-101282000D01*
X171888079Y-101278878D01*
X171870201Y-101261000D01*
X171208700Y-101261000D01*
X171208700Y-101784999D01*
X171411040Y-101784999D01*
X171417764Y-101784638D01*
X171481433Y-101777795D01*
X171551302Y-101790402D01*
X171603262Y-101838782D01*
X171619821Y-101886626D01*
X171632468Y-101982691D01*
X171675273Y-102086033D01*
X171682862Y-102156623D01*
X171651082Y-102220110D01*
X171590023Y-102256336D01*
X171519072Y-102253802D01*
X171517249Y-102253180D01*
X171451500Y-102230173D01*
X171423789Y-102227575D01*
X171423782Y-102227574D01*
X171420853Y-102227300D01*
X171417899Y-102227300D01*
X170364483Y-102227300D01*
X170364461Y-102227300D01*
X170361548Y-102227301D01*
X170358644Y-102227573D01*
X170358627Y-102227574D01*
X170330897Y-102230174D01*
X170201804Y-102275345D01*
X170117752Y-102337379D01*
X170051065Y-102361737D01*
X170042931Y-102362000D01*
X169930204Y-102362000D01*
X169862083Y-102341998D01*
X169815590Y-102288342D01*
X169806747Y-102226843D01*
X169799490Y-102215000D01*
X168736000Y-102215000D01*
X168667879Y-102194998D01*
X168621386Y-102141342D01*
X168610000Y-102089000D01*
X168610000Y-101741000D01*
X168630002Y-101672879D01*
X168683658Y-101626386D01*
X168736000Y-101615000D01*
X169799490Y-101615000D01*
X169809222Y-101599119D01*
X169861869Y-101551487D01*
X169931911Y-101539880D01*
X169997108Y-101567983D01*
X170017523Y-101589444D01*
X170056152Y-101641046D01*
X170172173Y-101727898D01*
X170307967Y-101778546D01*
X170364641Y-101784639D01*
X170371357Y-101784999D01*
X170573700Y-101784999D01*
X170573700Y-100102000D01*
X171208700Y-100102000D01*
X171208700Y-100626000D01*
X171870199Y-100626000D01*
X171870199Y-100561160D01*
X171869838Y-100554433D01*
X171863747Y-100497764D01*
X171813100Y-100361976D01*
X171726247Y-100245952D01*
X171610226Y-100159101D01*
X171474432Y-100108453D01*
X171417759Y-100102360D01*
X171411042Y-100102000D01*
X171208700Y-100102000D01*
X170573700Y-100102000D01*
X170371359Y-100102000D01*
X170364633Y-100102361D01*
X170307964Y-100108452D01*
X170172176Y-100159099D01*
X170056151Y-100245953D01*
X170003034Y-100316911D01*
X169946199Y-100359458D01*
X169875383Y-100364523D01*
X169813071Y-100330498D01*
X169800853Y-100315000D01*
X168736000Y-100315000D01*
X168667879Y-100294998D01*
X168621386Y-100241342D01*
X168610000Y-100189000D01*
X168610000Y-99841000D01*
X168630002Y-99772879D01*
X168683658Y-99726386D01*
X168736000Y-99715000D01*
X169799490Y-99715000D01*
X169808405Y-99700451D01*
X169804833Y-99681428D01*
X169831532Y-99615643D01*
X169889559Y-99574736D01*
X169930204Y-99568000D01*
X172286810Y-99568000D01*
X172354931Y-99588002D01*
G37*
%TD.AperFunction*%
%TD*%
%TA.AperFunction,Conductor*%
%TO.N,GND*%
G36*
X180281621Y-89936502D02*
G01*
X180328114Y-89990158D01*
X180339500Y-90042500D01*
X180339500Y-97420809D01*
X180319498Y-97488930D01*
X180265842Y-97535423D01*
X180195568Y-97545527D01*
X180130988Y-97516033D01*
X180108734Y-97490810D01*
X180106359Y-97487256D01*
X180066860Y-97428140D01*
X179999480Y-97383119D01*
X179940064Y-97371300D01*
X178199936Y-97371300D01*
X178170228Y-97377209D01*
X178140519Y-97383119D01*
X178073140Y-97428140D01*
X178028119Y-97495519D01*
X178016300Y-97554937D01*
X178016300Y-97904800D01*
X177996298Y-97972921D01*
X177942642Y-98019414D01*
X177890300Y-98030800D01*
X174227696Y-98030800D01*
X174207250Y-98037442D01*
X174188038Y-98042055D01*
X174166799Y-98045420D01*
X174147640Y-98055181D01*
X174129384Y-98062743D01*
X174108937Y-98069387D01*
X174091544Y-98082023D01*
X174074696Y-98092347D01*
X174055539Y-98102108D01*
X173973814Y-98183831D01*
X173973797Y-98183851D01*
X172700974Y-99456674D01*
X172638662Y-99490700D01*
X172567847Y-99485635D01*
X172525188Y-99459016D01*
X172524686Y-99458540D01*
X172523478Y-99457332D01*
X172506863Y-99442407D01*
X172505556Y-99441354D01*
X172505547Y-99441346D01*
X172485892Y-99425506D01*
X172485890Y-99425505D01*
X172485889Y-99425504D01*
X172429209Y-99395854D01*
X172413725Y-99387754D01*
X172345605Y-99367753D01*
X172286813Y-99359300D01*
X172286810Y-99359300D01*
X169930204Y-99359300D01*
X169927642Y-99359510D01*
X169927637Y-99359511D01*
X169898637Y-99361897D01*
X169898619Y-99361899D01*
X169896082Y-99362108D01*
X169893555Y-99362526D01*
X169893553Y-99362527D01*
X169855437Y-99368844D01*
X169855226Y-99368879D01*
X169769309Y-99404161D01*
X169712868Y-99443950D01*
X169712854Y-99443960D01*
X169711283Y-99445068D01*
X169709788Y-99446264D01*
X169709775Y-99446275D01*
X169677213Y-99472352D01*
X169675375Y-99470058D01*
X169641918Y-99496854D01*
X169594051Y-99506300D01*
X168736000Y-99506300D01*
X168732653Y-99506659D01*
X168732649Y-99506660D01*
X168696206Y-99510578D01*
X168682738Y-99511300D01*
X168363934Y-99511300D01*
X168295181Y-99521317D01*
X168189128Y-99573162D01*
X168105660Y-99656630D01*
X168053817Y-99762677D01*
X168043800Y-99831433D01*
X168043800Y-100198565D01*
X168053817Y-100267318D01*
X168105662Y-100373371D01*
X168189130Y-100456839D01*
X168295177Y-100508682D01*
X168295179Y-100508682D01*
X168295181Y-100508683D01*
X168363931Y-100518700D01*
X168692210Y-100518699D01*
X168710144Y-100519981D01*
X168736000Y-100523700D01*
X169699261Y-100523700D01*
X169759645Y-100539111D01*
X169775364Y-100547695D01*
X169798477Y-100558536D01*
X169855702Y-100567360D01*
X169919979Y-100597510D01*
X169957752Y-100657624D01*
X169962500Y-100691888D01*
X169962500Y-101216426D01*
X169942498Y-101284547D01*
X169888842Y-101331040D01*
X169857101Y-101340730D01*
X169829659Y-101345277D01*
X169829606Y-101345287D01*
X169827750Y-101345595D01*
X169825912Y-101346016D01*
X169825869Y-101346025D01*
X169802867Y-101351301D01*
X169802865Y-101351301D01*
X169802865Y-101351302D01*
X169733484Y-101390203D01*
X169671865Y-101406300D01*
X168736000Y-101406300D01*
X168732653Y-101406659D01*
X168732649Y-101406660D01*
X168696206Y-101410578D01*
X168682738Y-101411300D01*
X168363934Y-101411300D01*
X168295181Y-101421317D01*
X168189128Y-101473162D01*
X168105660Y-101556630D01*
X168053817Y-101662677D01*
X168043800Y-101731433D01*
X168043800Y-102098565D01*
X168043801Y-102098569D01*
X168053817Y-102167319D01*
X168093402Y-102248293D01*
X168105662Y-102273371D01*
X168189130Y-102356839D01*
X168295177Y-102408682D01*
X168295179Y-102408682D01*
X168295181Y-102408683D01*
X168363931Y-102418700D01*
X168692210Y-102418699D01*
X168710144Y-102419981D01*
X168736000Y-102423700D01*
X169599186Y-102423700D01*
X169667307Y-102443702D01*
X169694409Y-102467186D01*
X169703091Y-102477205D01*
X169704358Y-102478667D01*
X169721896Y-102496567D01*
X169722225Y-102496903D01*
X169803288Y-102542245D01*
X169843092Y-102553932D01*
X169871407Y-102562246D01*
X169886106Y-102564359D01*
X169930201Y-102570700D01*
X169930204Y-102570700D01*
X170042931Y-102570700D01*
X170049917Y-102570588D01*
X170057788Y-102570331D01*
X170057802Y-102570328D01*
X170057809Y-102570328D01*
X170122668Y-102557770D01*
X170189355Y-102533412D01*
X170241683Y-102505298D01*
X170285144Y-102473221D01*
X170318345Y-102455672D01*
X170354363Y-102443069D01*
X170395975Y-102436000D01*
X171386434Y-102436000D01*
X171428038Y-102443066D01*
X171449856Y-102450699D01*
X171451679Y-102451321D01*
X171471660Y-102455003D01*
X171511621Y-102462369D01*
X171516937Y-102462558D01*
X171582574Y-102464903D01*
X171608090Y-102464253D01*
X171696512Y-102435824D01*
X171757571Y-102399598D01*
X171778691Y-102385251D01*
X171837706Y-102313529D01*
X171869486Y-102250042D01*
X171879496Y-102226557D01*
X171890366Y-102134315D01*
X171882777Y-102063725D01*
X171872587Y-102023798D01*
X171868088Y-102006168D01*
X171842144Y-101943536D01*
X171833630Y-101911760D01*
X171827154Y-101862561D01*
X171827153Y-101862560D01*
X171826736Y-101859386D01*
X171817043Y-101818367D01*
X171800484Y-101770523D01*
X171797667Y-101762873D01*
X171797667Y-101762872D01*
X171775052Y-101729580D01*
X171758695Y-101705498D01*
X171736965Y-101637910D01*
X171755225Y-101569302D01*
X171807679Y-101521458D01*
X171877670Y-101509567D01*
X171977106Y-101521285D01*
X171977107Y-101521284D01*
X171977109Y-101521285D01*
X172014113Y-101517305D01*
X172028066Y-101517212D01*
X172033102Y-101516548D01*
X172033104Y-101516549D01*
X172148557Y-101501349D01*
X172181446Y-101501349D01*
X172236769Y-101508632D01*
X172268529Y-101517142D01*
X172338918Y-101546297D01*
X172363565Y-101554746D01*
X172393850Y-101563055D01*
X172478769Y-101568368D01*
X172549043Y-101558264D01*
X172574042Y-101553092D01*
X172656011Y-101509413D01*
X172709667Y-101462920D01*
X172727903Y-101445053D01*
X172773244Y-101363992D01*
X172793246Y-101295871D01*
X172801700Y-101237074D01*
X172801700Y-100523104D01*
X172821702Y-100454983D01*
X172838605Y-100434009D01*
X174416510Y-98856105D01*
X174478822Y-98822079D01*
X174505605Y-98819200D01*
X177890300Y-98819200D01*
X177958421Y-98839202D01*
X178004914Y-98892858D01*
X178016300Y-98945199D01*
X178016300Y-99295064D01*
X178028119Y-99354480D01*
X178073140Y-99421860D01*
X178140520Y-99466881D01*
X178199936Y-99478700D01*
X178199937Y-99478700D01*
X179940063Y-99478700D01*
X179940064Y-99478700D01*
X179999480Y-99466881D01*
X180066860Y-99421860D01*
X180108735Y-99359187D01*
X180163211Y-99313661D01*
X180233654Y-99304812D01*
X180297698Y-99335453D01*
X180335010Y-99395854D01*
X180339500Y-99429190D01*
X180339500Y-100670675D01*
X180319498Y-100738796D01*
X180265842Y-100785289D01*
X180195568Y-100795393D01*
X180130988Y-100765899D01*
X180092925Y-100707251D01*
X180048202Y-100559816D01*
X179950358Y-100376763D01*
X179950356Y-100376760D01*
X179818683Y-100216316D01*
X179658239Y-100084643D01*
X179475186Y-99986799D01*
X179475185Y-99986798D01*
X179475184Y-99986798D01*
X179276561Y-99926547D01*
X179276558Y-99926546D01*
X179276556Y-99926546D01*
X179069999Y-99906201D01*
X178863443Y-99926546D01*
X178863440Y-99926546D01*
X178863439Y-99926547D01*
X178664816Y-99986798D01*
X178664813Y-99986799D01*
X178481760Y-100084643D01*
X178321316Y-100216316D01*
X178189643Y-100376760D01*
X178121527Y-100504196D01*
X178071775Y-100554844D01*
X178010405Y-100570800D01*
X177381964Y-100570800D01*
X177361518Y-100577442D01*
X177342306Y-100582055D01*
X177321067Y-100585420D01*
X177301908Y-100595181D01*
X177283652Y-100602743D01*
X177263205Y-100609387D01*
X177245812Y-100622023D01*
X177228965Y-100632347D01*
X177209808Y-100642109D01*
X177209807Y-100642109D01*
X177209807Y-100642110D01*
X177187597Y-100664320D01*
X175296852Y-102555065D01*
X173406422Y-104445495D01*
X173344110Y-104479521D01*
X173317327Y-104482400D01*
X163842273Y-104482400D01*
X163774152Y-104462398D01*
X163753178Y-104445495D01*
X163448305Y-104140622D01*
X163414279Y-104078310D01*
X163411400Y-104051527D01*
X163411400Y-103830329D01*
X163431402Y-103762208D01*
X163437438Y-103753624D01*
X163494655Y-103679059D01*
X163496500Y-103674606D01*
X163549731Y-103546091D01*
X163555141Y-103505000D01*
X163568517Y-103403400D01*
X163549731Y-103260709D01*
X163494655Y-103127742D01*
X163473224Y-103099813D01*
X163437437Y-103053173D01*
X163411837Y-102986953D01*
X163411400Y-102976470D01*
X163411400Y-102835373D01*
X163431402Y-102767252D01*
X163448305Y-102746277D01*
X163688579Y-102506004D01*
X163750891Y-102471979D01*
X163777674Y-102469100D01*
X164074373Y-102469100D01*
X164077014Y-102469100D01*
X164111981Y-102466150D01*
X164124980Y-102463940D01*
X164134312Y-102462711D01*
X164142454Y-102461948D01*
X164154198Y-102461400D01*
X165182194Y-102461400D01*
X165193953Y-102461950D01*
X165202082Y-102462712D01*
X165211431Y-102463943D01*
X165224425Y-102466151D01*
X165259385Y-102469100D01*
X165262026Y-102469100D01*
X165413930Y-102469100D01*
X165416411Y-102469027D01*
X165430310Y-102468456D01*
X165432763Y-102468287D01*
X165445988Y-102467233D01*
X165446043Y-102467217D01*
X165446048Y-102467217D01*
X165524415Y-102445114D01*
X165579812Y-102416888D01*
X165632639Y-102378508D01*
X165695123Y-102316022D01*
X165757435Y-102281998D01*
X165828251Y-102287062D01*
X165873314Y-102316023D01*
X165914130Y-102356839D01*
X166020177Y-102408682D01*
X166020179Y-102408682D01*
X166020181Y-102408683D01*
X166088931Y-102418700D01*
X167181068Y-102418699D01*
X167249819Y-102408683D01*
X167355869Y-102356839D01*
X167439339Y-102273369D01*
X167462225Y-102226554D01*
X167491182Y-102167322D01*
X167491182Y-102167320D01*
X167491183Y-102167319D01*
X167501200Y-102098569D01*
X167501199Y-101731432D01*
X167491183Y-101662681D01*
X167439339Y-101556631D01*
X167439337Y-101556629D01*
X167439337Y-101556628D01*
X167355869Y-101473160D01*
X167249822Y-101421317D01*
X167215444Y-101416308D01*
X167181069Y-101411300D01*
X167181066Y-101411300D01*
X166088932Y-101411300D01*
X166062464Y-101415157D01*
X165992172Y-101405184D01*
X165938429Y-101358791D01*
X165918300Y-101290708D01*
X165918300Y-100872785D01*
X165938302Y-100804664D01*
X165991958Y-100758171D01*
X166046123Y-100746798D01*
X167163109Y-100762986D01*
X167180238Y-100762531D01*
X167196713Y-100761415D01*
X167276005Y-100739827D01*
X167331606Y-100712003D01*
X167384709Y-100674007D01*
X167578718Y-100482790D01*
X167590429Y-100470257D01*
X167601198Y-100457739D01*
X167641472Y-100386125D01*
X167660685Y-100326994D01*
X167670900Y-100262502D01*
X167670900Y-99863669D01*
X167670827Y-99861188D01*
X167670256Y-99847289D01*
X167670087Y-99844836D01*
X167669033Y-99831610D01*
X167669017Y-99831554D01*
X167669017Y-99831551D01*
X167646914Y-99753184D01*
X167618689Y-99697789D01*
X167580309Y-99644963D01*
X167385238Y-99449892D01*
X167385184Y-99449842D01*
X167383433Y-99448191D01*
X167373202Y-99438766D01*
X167371320Y-99437125D01*
X167361253Y-99428544D01*
X167315369Y-99402849D01*
X167290153Y-99388728D01*
X167250236Y-99375758D01*
X167231023Y-99369515D01*
X167214898Y-99366961D01*
X167166530Y-99359300D01*
X163668470Y-99359300D01*
X163665989Y-99359373D01*
X163652089Y-99359944D01*
X163649634Y-99360113D01*
X163636409Y-99361166D01*
X163557987Y-99383284D01*
X163502589Y-99411510D01*
X163467334Y-99437125D01*
X163452104Y-99448191D01*
X163449761Y-99449893D01*
X163254692Y-99644962D01*
X163252991Y-99646767D01*
X163243566Y-99656998D01*
X163241925Y-99658880D01*
X163233344Y-99668946D01*
X163217192Y-99697790D01*
X163193528Y-99740047D01*
X163186801Y-99760750D01*
X163174315Y-99799176D01*
X163174315Y-99799178D01*
X163164101Y-99863669D01*
X163164100Y-99863673D01*
X163164100Y-100527732D01*
X163144098Y-100595853D01*
X163095310Y-100639995D01*
X163083508Y-100646008D01*
X163024470Y-100705041D01*
X163024391Y-100705125D01*
X158617007Y-105112510D01*
X158609989Y-105119528D01*
X158547674Y-105153548D01*
X158476859Y-105148479D01*
X158420026Y-105105928D01*
X158395220Y-105039406D01*
X158394900Y-105030426D01*
X158394900Y-99314849D01*
X158414902Y-99246728D01*
X158431800Y-99225758D01*
X158600415Y-99057142D01*
X158662725Y-99023119D01*
X158705950Y-99021317D01*
X158750000Y-99027117D01*
X158892691Y-99008331D01*
X159025659Y-98953255D01*
X159139840Y-98865640D01*
X159227455Y-98751459D01*
X159282531Y-98618491D01*
X159301317Y-98475800D01*
X159282531Y-98333109D01*
X159227455Y-98200142D01*
X159227454Y-98200141D01*
X159227454Y-98200140D01*
X159139841Y-98085961D01*
X159139838Y-98085959D01*
X159087008Y-98045420D01*
X159025657Y-97998343D01*
X158892691Y-97943268D01*
X158766599Y-97926668D01*
X158750000Y-97924483D01*
X158749999Y-97924483D01*
X158607310Y-97943268D01*
X158474340Y-97998345D01*
X158360159Y-98085959D01*
X158265262Y-98209633D01*
X158207924Y-98251500D01*
X158137053Y-98255722D01*
X158075151Y-98220958D01*
X158041869Y-98158245D01*
X158039300Y-98132929D01*
X158039300Y-97042563D01*
X162616300Y-97042563D01*
X162616758Y-97046338D01*
X162616759Y-97046348D01*
X162631729Y-97169640D01*
X162692329Y-97329427D01*
X162782038Y-97459394D01*
X162789405Y-97470066D01*
X162917317Y-97583387D01*
X163068632Y-97662803D01*
X163234555Y-97703700D01*
X163234557Y-97703700D01*
X163405443Y-97703700D01*
X163405445Y-97703700D01*
X163571368Y-97662803D01*
X163722683Y-97583387D01*
X163850595Y-97470066D01*
X163947671Y-97329427D01*
X164008270Y-97169643D01*
X164023700Y-97042563D01*
X171256300Y-97042563D01*
X171256758Y-97046338D01*
X171256759Y-97046348D01*
X171271729Y-97169640D01*
X171332329Y-97329427D01*
X171422038Y-97459394D01*
X171429405Y-97470066D01*
X171557317Y-97583387D01*
X171708632Y-97662803D01*
X171874555Y-97703700D01*
X171874557Y-97703700D01*
X172045443Y-97703700D01*
X172045445Y-97703700D01*
X172211368Y-97662803D01*
X172362683Y-97583387D01*
X172490595Y-97470066D01*
X172587671Y-97329427D01*
X172648270Y-97169643D01*
X172663700Y-97042563D01*
X172663700Y-95857437D01*
X172648270Y-95730357D01*
X172587671Y-95570573D01*
X172490595Y-95429934D01*
X172362683Y-95316613D01*
X172211368Y-95237197D01*
X172045445Y-95196300D01*
X171874555Y-95196300D01*
X171765861Y-95223091D01*
X171708631Y-95237197D01*
X171557316Y-95316613D01*
X171429404Y-95429934D01*
X171332329Y-95570572D01*
X171271729Y-95730359D01*
X171256759Y-95853651D01*
X171256758Y-95853662D01*
X171256300Y-95857437D01*
X171256300Y-97042563D01*
X164023700Y-97042563D01*
X164023700Y-95915802D01*
X164293668Y-95915802D01*
X164303861Y-96051828D01*
X164353696Y-96178805D01*
X164438742Y-96285451D01*
X164438745Y-96285453D01*
X164551450Y-96362293D01*
X164681797Y-96402500D01*
X164783908Y-96402500D01*
X164783910Y-96402500D01*
X164884883Y-96387281D01*
X165007781Y-96328096D01*
X165107775Y-96235316D01*
X165175978Y-96117184D01*
X165206331Y-95984197D01*
X165201206Y-95915802D01*
X170073668Y-95915802D01*
X170083861Y-96051828D01*
X170133696Y-96178805D01*
X170218742Y-96285451D01*
X170218745Y-96285453D01*
X170331450Y-96362293D01*
X170461797Y-96402500D01*
X170563908Y-96402500D01*
X170563910Y-96402500D01*
X170664883Y-96387281D01*
X170787781Y-96328096D01*
X170887775Y-96235316D01*
X170955978Y-96117184D01*
X170986331Y-95984197D01*
X170976138Y-95848172D01*
X170972123Y-95837940D01*
X170926303Y-95721194D01*
X170841257Y-95614548D01*
X170757055Y-95557141D01*
X170728550Y-95537707D01*
X170728549Y-95537706D01*
X170728548Y-95537706D01*
X170598203Y-95497500D01*
X170496090Y-95497500D01*
X170428774Y-95507646D01*
X170395116Y-95512719D01*
X170272220Y-95571903D01*
X170272218Y-95571904D01*
X170272219Y-95571904D01*
X170172225Y-95664684D01*
X170172223Y-95664686D01*
X170172224Y-95664686D01*
X170104022Y-95782815D01*
X170073668Y-95915802D01*
X165201206Y-95915802D01*
X165196138Y-95848172D01*
X165192123Y-95837940D01*
X165146303Y-95721194D01*
X165061257Y-95614548D01*
X164977055Y-95557141D01*
X164948550Y-95537707D01*
X164948549Y-95537706D01*
X164948548Y-95537706D01*
X164818203Y-95497500D01*
X164716090Y-95497500D01*
X164648774Y-95507646D01*
X164615116Y-95512719D01*
X164492220Y-95571903D01*
X164492218Y-95571904D01*
X164492219Y-95571904D01*
X164392225Y-95664684D01*
X164392223Y-95664686D01*
X164392224Y-95664686D01*
X164324022Y-95782815D01*
X164293668Y-95915802D01*
X164023700Y-95915802D01*
X164023700Y-95857437D01*
X164008270Y-95730357D01*
X163947671Y-95570573D01*
X163850595Y-95429934D01*
X163722683Y-95316613D01*
X163571368Y-95237197D01*
X163405445Y-95196300D01*
X163234555Y-95196300D01*
X163125861Y-95223091D01*
X163068631Y-95237197D01*
X162917316Y-95316613D01*
X162789404Y-95429934D01*
X162692329Y-95570572D01*
X162631729Y-95730359D01*
X162616759Y-95853651D01*
X162616758Y-95853662D01*
X162616300Y-95857437D01*
X162616300Y-97042563D01*
X158039300Y-97042563D01*
X158039300Y-95657249D01*
X158059302Y-95589128D01*
X158076205Y-95568153D01*
X158788755Y-94855604D01*
X158851067Y-94821579D01*
X158877850Y-94818700D01*
X173328751Y-94818700D01*
X173396872Y-94838702D01*
X173417846Y-94855605D01*
X174526254Y-95964013D01*
X174560280Y-96026325D01*
X174562081Y-96069552D01*
X174556282Y-96113598D01*
X174575068Y-96256291D01*
X174630143Y-96389257D01*
X174630145Y-96389259D01*
X174717760Y-96503440D01*
X174810390Y-96574518D01*
X174831942Y-96591056D01*
X174964908Y-96646131D01*
X174983693Y-96648604D01*
X175107600Y-96664917D01*
X175250291Y-96646131D01*
X175383259Y-96591055D01*
X175497440Y-96503440D01*
X175585055Y-96389259D01*
X175596225Y-96362293D01*
X175640131Y-96256291D01*
X175650332Y-96178805D01*
X175658917Y-96113600D01*
X175640131Y-95970909D01*
X175585055Y-95837942D01*
X175585054Y-95837941D01*
X175585054Y-95837940D01*
X175497441Y-95723761D01*
X175383257Y-95636143D01*
X175250291Y-95581068D01*
X175107598Y-95562282D01*
X175063552Y-95568081D01*
X174993404Y-95557141D01*
X174958013Y-95532254D01*
X173773030Y-94347271D01*
X173762913Y-94333210D01*
X173720429Y-94294481D01*
X173716239Y-94290480D01*
X173703276Y-94277517D01*
X173703272Y-94277514D01*
X173702578Y-94276820D01*
X173690961Y-94267617D01*
X173670903Y-94249332D01*
X173664343Y-94246791D01*
X173638655Y-94233250D01*
X173632852Y-94229275D01*
X173606434Y-94223061D01*
X173589770Y-94217901D01*
X173564470Y-94208100D01*
X173557438Y-94208100D01*
X173528590Y-94204753D01*
X173521744Y-94203143D01*
X173494868Y-94206892D01*
X173477462Y-94208100D01*
X158769555Y-94208100D01*
X158752462Y-94205311D01*
X158695048Y-94207966D01*
X158689230Y-94208100D01*
X158669929Y-94208100D01*
X158655201Y-94209807D01*
X158628091Y-94211061D01*
X158621650Y-94213905D01*
X158593922Y-94222490D01*
X158587004Y-94223783D01*
X158563927Y-94238072D01*
X158548495Y-94246206D01*
X158523674Y-94257165D01*
X158518696Y-94262144D01*
X158495940Y-94280168D01*
X158489958Y-94283872D01*
X158473600Y-94305532D01*
X158462148Y-94318691D01*
X157567865Y-95212974D01*
X157553806Y-95223091D01*
X157515078Y-95265572D01*
X157511065Y-95269775D01*
X157497419Y-95283421D01*
X157488224Y-95295029D01*
X157469932Y-95315095D01*
X157467390Y-95321658D01*
X157453854Y-95347338D01*
X157449876Y-95353145D01*
X157443663Y-95379560D01*
X157438503Y-95396224D01*
X157428700Y-95421530D01*
X157428700Y-95428562D01*
X157425353Y-95457410D01*
X157423743Y-95464255D01*
X157427492Y-95491130D01*
X157428700Y-95508538D01*
X157428700Y-97344780D01*
X157408698Y-97412901D01*
X157355042Y-97459394D01*
X157284768Y-97469498D01*
X157220188Y-97440004D01*
X157213829Y-97432796D01*
X157139480Y-97383119D01*
X157139479Y-97383119D01*
X157080064Y-97371300D01*
X155339936Y-97371300D01*
X155310228Y-97377209D01*
X155280519Y-97383119D01*
X155213140Y-97428140D01*
X155171266Y-97490810D01*
X155116789Y-97536338D01*
X155046346Y-97545187D01*
X154982301Y-97514546D01*
X154944990Y-97454144D01*
X154940500Y-97420809D01*
X154940500Y-92712563D01*
X162616300Y-92712563D01*
X162616758Y-92716338D01*
X162616759Y-92716348D01*
X162631729Y-92839640D01*
X162631729Y-92839642D01*
X162631730Y-92839643D01*
X162692329Y-92999427D01*
X162789405Y-93140066D01*
X162917317Y-93253387D01*
X163068632Y-93332803D01*
X163234555Y-93373700D01*
X163234557Y-93373700D01*
X163405443Y-93373700D01*
X163405445Y-93373700D01*
X163571368Y-93332803D01*
X163722683Y-93253387D01*
X163850595Y-93140066D01*
X163947671Y-92999427D01*
X164008270Y-92839643D01*
X164023700Y-92712563D01*
X171256300Y-92712563D01*
X171256758Y-92716338D01*
X171256759Y-92716348D01*
X171271729Y-92839640D01*
X171271729Y-92839642D01*
X171271730Y-92839643D01*
X171332329Y-92999427D01*
X171429405Y-93140066D01*
X171557317Y-93253387D01*
X171708632Y-93332803D01*
X171874555Y-93373700D01*
X171874557Y-93373700D01*
X172045443Y-93373700D01*
X172045445Y-93373700D01*
X172211368Y-93332803D01*
X172362683Y-93253387D01*
X172490595Y-93140066D01*
X172587671Y-92999427D01*
X172648270Y-92839643D01*
X172663700Y-92712563D01*
X172663700Y-91827437D01*
X172648270Y-91700357D01*
X172587671Y-91540573D01*
X172490595Y-91399934D01*
X172362683Y-91286613D01*
X172211368Y-91207197D01*
X172045445Y-91166300D01*
X171874555Y-91166300D01*
X171763939Y-91193564D01*
X171708631Y-91207197D01*
X171557316Y-91286613D01*
X171429404Y-91399934D01*
X171332329Y-91540572D01*
X171271729Y-91700359D01*
X171256759Y-91823651D01*
X171256758Y-91823662D01*
X171256300Y-91827437D01*
X171256300Y-92712563D01*
X164023700Y-92712563D01*
X164023700Y-91827437D01*
X164008270Y-91700357D01*
X163947671Y-91540573D01*
X163850595Y-91399934D01*
X163722683Y-91286613D01*
X163571368Y-91207197D01*
X163405445Y-91166300D01*
X163234555Y-91166300D01*
X163123939Y-91193564D01*
X163068631Y-91207197D01*
X162917316Y-91286613D01*
X162789404Y-91399934D01*
X162692329Y-91540572D01*
X162631729Y-91700359D01*
X162616759Y-91823651D01*
X162616758Y-91823662D01*
X162616300Y-91827437D01*
X162616300Y-92712563D01*
X154940500Y-92712563D01*
X154940500Y-90042500D01*
X154960502Y-89974379D01*
X155014158Y-89927886D01*
X155066500Y-89916500D01*
X180213500Y-89916500D01*
X180281621Y-89936502D01*
G37*
%TD.AperFunction*%
%TA.AperFunction,Conductor*%
G36*
X180266863Y-101145182D02*
G01*
X180320102Y-101192152D01*
X180339500Y-101259324D01*
X180339500Y-105750675D01*
X180319498Y-105818796D01*
X180265842Y-105865289D01*
X180195568Y-105875393D01*
X180130988Y-105845899D01*
X180092925Y-105787251D01*
X180081830Y-105750675D01*
X180048202Y-105639816D01*
X179950358Y-105456763D01*
X179941763Y-105446290D01*
X179818683Y-105296316D01*
X179658239Y-105164643D01*
X179475186Y-105066799D01*
X179475185Y-105066798D01*
X179475184Y-105066798D01*
X179276561Y-105006547D01*
X179276558Y-105006546D01*
X179276556Y-105006546D01*
X179070000Y-104986201D01*
X178863443Y-105006546D01*
X178863440Y-105006546D01*
X178863439Y-105006547D01*
X178746041Y-105042159D01*
X178664813Y-105066799D01*
X178481760Y-105164643D01*
X178321316Y-105296316D01*
X178189643Y-105456760D01*
X178091799Y-105639813D01*
X178091798Y-105639815D01*
X178091798Y-105639816D01*
X178037794Y-105817847D01*
X178031546Y-105838443D01*
X178011201Y-106045000D01*
X178031546Y-106251556D01*
X178031546Y-106251558D01*
X178031547Y-106251561D01*
X178089882Y-106443867D01*
X178091799Y-106450186D01*
X178189643Y-106633239D01*
X178321316Y-106793683D01*
X178481760Y-106925356D01*
X178481761Y-106925356D01*
X178481763Y-106925358D01*
X178664816Y-107023202D01*
X178863439Y-107083453D01*
X179070000Y-107103798D01*
X179276561Y-107083453D01*
X179475184Y-107023202D01*
X179658237Y-106925358D01*
X179818683Y-106793683D01*
X179950358Y-106633237D01*
X180048202Y-106450184D01*
X180092926Y-106302745D01*
X180131840Y-106243367D01*
X180196682Y-106214451D01*
X180266863Y-106225182D01*
X180320102Y-106272152D01*
X180339500Y-106339324D01*
X180339500Y-108290675D01*
X180319498Y-108358796D01*
X180265842Y-108405289D01*
X180195568Y-108415393D01*
X180130988Y-108385899D01*
X180092925Y-108327251D01*
X180048202Y-108179816D01*
X179950358Y-107996763D01*
X179925571Y-107966560D01*
X179818683Y-107836316D01*
X179658239Y-107704643D01*
X179475186Y-107606799D01*
X179475185Y-107606798D01*
X179475184Y-107606798D01*
X179276561Y-107546547D01*
X179276558Y-107546546D01*
X179276556Y-107546546D01*
X179070000Y-107526201D01*
X178863443Y-107546546D01*
X178863440Y-107546546D01*
X178863439Y-107546547D01*
X178696279Y-107597254D01*
X178664813Y-107606799D01*
X178481760Y-107704643D01*
X178321316Y-107836316D01*
X178189643Y-107996760D01*
X178091799Y-108179813D01*
X178091798Y-108179815D01*
X178091798Y-108179816D01*
X178037794Y-108357847D01*
X178031546Y-108378443D01*
X178011201Y-108584999D01*
X178031546Y-108791556D01*
X178031546Y-108791558D01*
X178031547Y-108791561D01*
X178089882Y-108983867D01*
X178091799Y-108990186D01*
X178189643Y-109173239D01*
X178321316Y-109333683D01*
X178481760Y-109465356D01*
X178481761Y-109465356D01*
X178481763Y-109465358D01*
X178664816Y-109563202D01*
X178863439Y-109623453D01*
X179028687Y-109639728D01*
X179069999Y-109643798D01*
X179069999Y-109643797D01*
X179070000Y-109643798D01*
X179276561Y-109623453D01*
X179475184Y-109563202D01*
X179658237Y-109465358D01*
X179818683Y-109333683D01*
X179950358Y-109173237D01*
X180048202Y-108990184D01*
X180092926Y-108842745D01*
X180131840Y-108783367D01*
X180196682Y-108754451D01*
X180266863Y-108765182D01*
X180320102Y-108812152D01*
X180339500Y-108879324D01*
X180339500Y-110830675D01*
X180319498Y-110898796D01*
X180265842Y-110945289D01*
X180195568Y-110955393D01*
X180130988Y-110925899D01*
X180092925Y-110867251D01*
X180048202Y-110719816D01*
X179950358Y-110536763D01*
X179950356Y-110536760D01*
X179818683Y-110376316D01*
X179658239Y-110244643D01*
X179475186Y-110146799D01*
X179475185Y-110146798D01*
X179475184Y-110146798D01*
X179276561Y-110086547D01*
X179276558Y-110086546D01*
X179276556Y-110086546D01*
X179069999Y-110066201D01*
X178863443Y-110086546D01*
X178863440Y-110086546D01*
X178863439Y-110086547D01*
X178664816Y-110146798D01*
X178664813Y-110146799D01*
X178481760Y-110244643D01*
X178321316Y-110376316D01*
X178189643Y-110536760D01*
X178091799Y-110719813D01*
X178091798Y-110719815D01*
X178091798Y-110719816D01*
X178031695Y-110917953D01*
X178031546Y-110918443D01*
X178011201Y-111124999D01*
X178031546Y-111331556D01*
X178031546Y-111331558D01*
X178031547Y-111331561D01*
X178091423Y-111528947D01*
X178091799Y-111530186D01*
X178189643Y-111713239D01*
X178321316Y-111873683D01*
X178481760Y-112005356D01*
X178481761Y-112005356D01*
X178481763Y-112005358D01*
X178664816Y-112103202D01*
X178863439Y-112163453D01*
X179070000Y-112183798D01*
X179276561Y-112163453D01*
X179475184Y-112103202D01*
X179658237Y-112005358D01*
X179818683Y-111873683D01*
X179950358Y-111713237D01*
X180048202Y-111530184D01*
X180092926Y-111382745D01*
X180131840Y-111323367D01*
X180196682Y-111294451D01*
X180266863Y-111305182D01*
X180320102Y-111352152D01*
X180339500Y-111419324D01*
X180339500Y-113370675D01*
X180319498Y-113438796D01*
X180265842Y-113485289D01*
X180195568Y-113495393D01*
X180130988Y-113465899D01*
X180092925Y-113407251D01*
X180048202Y-113259816D01*
X179950358Y-113076763D01*
X179944644Y-113069800D01*
X179818683Y-112916316D01*
X179658239Y-112784643D01*
X179475186Y-112686799D01*
X179475185Y-112686798D01*
X179475184Y-112686798D01*
X179276561Y-112626547D01*
X179276558Y-112626546D01*
X179276556Y-112626546D01*
X179069999Y-112606201D01*
X178863443Y-112626546D01*
X178863440Y-112626546D01*
X178863439Y-112626547D01*
X178664816Y-112686798D01*
X178664813Y-112686799D01*
X178481760Y-112784643D01*
X178321316Y-112916316D01*
X178189643Y-113076760D01*
X178091799Y-113259813D01*
X178091798Y-113259815D01*
X178091798Y-113259816D01*
X178037794Y-113437847D01*
X178031546Y-113458443D01*
X178011201Y-113664999D01*
X178031546Y-113871556D01*
X178031546Y-113871558D01*
X178031547Y-113871561D01*
X178089882Y-114063867D01*
X178091799Y-114070186D01*
X178189643Y-114253239D01*
X178321316Y-114413683D01*
X178481760Y-114545356D01*
X178481761Y-114545356D01*
X178481763Y-114545358D01*
X178664816Y-114643202D01*
X178863439Y-114703453D01*
X179070000Y-114723798D01*
X179276561Y-114703453D01*
X179475184Y-114643202D01*
X179658237Y-114545358D01*
X179818683Y-114413683D01*
X179950358Y-114253237D01*
X180048202Y-114070184D01*
X180092926Y-113922745D01*
X180131840Y-113863367D01*
X180196682Y-113834451D01*
X180266863Y-113845182D01*
X180320102Y-113892152D01*
X180339500Y-113959324D01*
X180339500Y-115910675D01*
X180319498Y-115978796D01*
X180265842Y-116025289D01*
X180195568Y-116035393D01*
X180130988Y-116005899D01*
X180092925Y-115947251D01*
X180081830Y-115910675D01*
X180048202Y-115799816D01*
X179950358Y-115616763D01*
X179950356Y-115616760D01*
X179818683Y-115456316D01*
X179658239Y-115324643D01*
X179475186Y-115226799D01*
X179475185Y-115226798D01*
X179475184Y-115226798D01*
X179276561Y-115166547D01*
X179276558Y-115166546D01*
X179276556Y-115166546D01*
X179070000Y-115146201D01*
X178863443Y-115166546D01*
X178863440Y-115166546D01*
X178863439Y-115166547D01*
X178700835Y-115215872D01*
X178664813Y-115226799D01*
X178481760Y-115324643D01*
X178321316Y-115456316D01*
X178189643Y-115616760D01*
X178091799Y-115799813D01*
X178091798Y-115799815D01*
X178091798Y-115799816D01*
X178037794Y-115977847D01*
X178031546Y-115998443D01*
X178011201Y-116205000D01*
X178031546Y-116411556D01*
X178031546Y-116411558D01*
X178031547Y-116411561D01*
X178088513Y-116599354D01*
X178091799Y-116610186D01*
X178189643Y-116793239D01*
X178321316Y-116953683D01*
X178481760Y-117085356D01*
X178481761Y-117085356D01*
X178481763Y-117085358D01*
X178664816Y-117183202D01*
X178863439Y-117243453D01*
X179070000Y-117263798D01*
X179276561Y-117243453D01*
X179475184Y-117183202D01*
X179658237Y-117085358D01*
X179818683Y-116953683D01*
X179950358Y-116793237D01*
X180048202Y-116610184D01*
X180092926Y-116462745D01*
X180131840Y-116403367D01*
X180196682Y-116374451D01*
X180266863Y-116385182D01*
X180320102Y-116432152D01*
X180339500Y-116499324D01*
X180339500Y-118450675D01*
X180319498Y-118518796D01*
X180265842Y-118565289D01*
X180195568Y-118575393D01*
X180130988Y-118545899D01*
X180092925Y-118487251D01*
X180048202Y-118339816D01*
X179950358Y-118156763D01*
X179950356Y-118156760D01*
X179818683Y-117996316D01*
X179658239Y-117864643D01*
X179475186Y-117766799D01*
X179475185Y-117766798D01*
X179475184Y-117766798D01*
X179276561Y-117706547D01*
X179276558Y-117706546D01*
X179276556Y-117706546D01*
X179070000Y-117686201D01*
X178863443Y-117706546D01*
X178863440Y-117706546D01*
X178863439Y-117706547D01*
X178664816Y-117766798D01*
X178664813Y-117766799D01*
X178481760Y-117864643D01*
X178321316Y-117996316D01*
X178189643Y-118156760D01*
X178091799Y-118339813D01*
X178091798Y-118339815D01*
X178091798Y-118339816D01*
X178037794Y-118517847D01*
X178031546Y-118538443D01*
X178011201Y-118745000D01*
X178031546Y-118951556D01*
X178031546Y-118951558D01*
X178031547Y-118951561D01*
X178089882Y-119143867D01*
X178091799Y-119150186D01*
X178189643Y-119333239D01*
X178321316Y-119493683D01*
X178481760Y-119625356D01*
X178481761Y-119625356D01*
X178481763Y-119625358D01*
X178664816Y-119723202D01*
X178863439Y-119783453D01*
X179009550Y-119797844D01*
X179069999Y-119803798D01*
X179069999Y-119803797D01*
X179070000Y-119803798D01*
X179276561Y-119783453D01*
X179475184Y-119723202D01*
X179658237Y-119625358D01*
X179818683Y-119493683D01*
X179950358Y-119333237D01*
X180048202Y-119150184D01*
X180092926Y-119002745D01*
X180131840Y-118943367D01*
X180196682Y-118914451D01*
X180266863Y-118925182D01*
X180320102Y-118972152D01*
X180339500Y-119039324D01*
X180339500Y-120990675D01*
X180319498Y-121058796D01*
X180265842Y-121105289D01*
X180195568Y-121115393D01*
X180130988Y-121085899D01*
X180092925Y-121027251D01*
X180081830Y-120990675D01*
X180048202Y-120879816D01*
X179950358Y-120696763D01*
X179950356Y-120696760D01*
X179818683Y-120536316D01*
X179658239Y-120404643D01*
X179475186Y-120306799D01*
X179475185Y-120306798D01*
X179475184Y-120306798D01*
X179276561Y-120246547D01*
X179276558Y-120246546D01*
X179276556Y-120246546D01*
X179070000Y-120226201D01*
X178863443Y-120246546D01*
X178863440Y-120246546D01*
X178863439Y-120246547D01*
X178664816Y-120306798D01*
X178664813Y-120306799D01*
X178481760Y-120404643D01*
X178321316Y-120536316D01*
X178189643Y-120696760D01*
X178091799Y-120879813D01*
X178091798Y-120879815D01*
X178091798Y-120879816D01*
X178037794Y-121057847D01*
X178031546Y-121078443D01*
X178011201Y-121285000D01*
X178031546Y-121491556D01*
X178031546Y-121491558D01*
X178031547Y-121491561D01*
X178089348Y-121682106D01*
X178091799Y-121690186D01*
X178189643Y-121873239D01*
X178321316Y-122033683D01*
X178481760Y-122165356D01*
X178481761Y-122165356D01*
X178481763Y-122165358D01*
X178664816Y-122263202D01*
X178863439Y-122323453D01*
X179028687Y-122339728D01*
X179069999Y-122343798D01*
X179069999Y-122343797D01*
X179070000Y-122343798D01*
X179276561Y-122323453D01*
X179475184Y-122263202D01*
X179658237Y-122165358D01*
X179818683Y-122033683D01*
X179950358Y-121873237D01*
X180048202Y-121690184D01*
X180092926Y-121542745D01*
X180131840Y-121483367D01*
X180196682Y-121454451D01*
X180266863Y-121465182D01*
X180320102Y-121512152D01*
X180339500Y-121579324D01*
X180339500Y-123530675D01*
X180319498Y-123598796D01*
X180265842Y-123645289D01*
X180195568Y-123655393D01*
X180130988Y-123625899D01*
X180092925Y-123567251D01*
X180089598Y-123556282D01*
X180048202Y-123419816D01*
X179950358Y-123236763D01*
X179950356Y-123236760D01*
X179818683Y-123076316D01*
X179658239Y-122944643D01*
X179475186Y-122846799D01*
X179475185Y-122846798D01*
X179475184Y-122846798D01*
X179276561Y-122786547D01*
X179276558Y-122786546D01*
X179276556Y-122786546D01*
X179069999Y-122766201D01*
X178863443Y-122786546D01*
X178863440Y-122786546D01*
X178863439Y-122786547D01*
X178664816Y-122846798D01*
X178664813Y-122846799D01*
X178481760Y-122944643D01*
X178321316Y-123076316D01*
X178189643Y-123236760D01*
X178091799Y-123419813D01*
X178091798Y-123419815D01*
X178091798Y-123419816D01*
X178037794Y-123597847D01*
X178031546Y-123618443D01*
X178011201Y-123824999D01*
X178031546Y-124031556D01*
X178031546Y-124031558D01*
X178031547Y-124031561D01*
X178089882Y-124223867D01*
X178091799Y-124230186D01*
X178189643Y-124413239D01*
X178321316Y-124573683D01*
X178481760Y-124705356D01*
X178481761Y-124705356D01*
X178481763Y-124705358D01*
X178664816Y-124803202D01*
X178863439Y-124863453D01*
X179070000Y-124883798D01*
X179276561Y-124863453D01*
X179475184Y-124803202D01*
X179658237Y-124705358D01*
X179818683Y-124573683D01*
X179950358Y-124413237D01*
X180048202Y-124230184D01*
X180092926Y-124082745D01*
X180131840Y-124023367D01*
X180196682Y-123994451D01*
X180266863Y-124005182D01*
X180320102Y-124052152D01*
X180339500Y-124119324D01*
X180339500Y-126070675D01*
X180319498Y-126138796D01*
X180265842Y-126185289D01*
X180195568Y-126195393D01*
X180130988Y-126165899D01*
X180092925Y-126107251D01*
X180091381Y-126102160D01*
X180048202Y-125959816D01*
X179950358Y-125776763D01*
X179950356Y-125776760D01*
X179818683Y-125616316D01*
X179658239Y-125484643D01*
X179475186Y-125386799D01*
X179475185Y-125386798D01*
X179475184Y-125386798D01*
X179276561Y-125326547D01*
X179276558Y-125326546D01*
X179276556Y-125326546D01*
X179070000Y-125306201D01*
X178863443Y-125326546D01*
X178863440Y-125326546D01*
X178863439Y-125326547D01*
X178853398Y-125329593D01*
X178664813Y-125386799D01*
X178481760Y-125484643D01*
X178321316Y-125616316D01*
X178189643Y-125776760D01*
X178091799Y-125959813D01*
X178091798Y-125959815D01*
X178091798Y-125959816D01*
X178037794Y-126137847D01*
X178031546Y-126158443D01*
X178011201Y-126365000D01*
X178031546Y-126571556D01*
X178031546Y-126571558D01*
X178031547Y-126571561D01*
X178091798Y-126770184D01*
X178091799Y-126770186D01*
X178189643Y-126953239D01*
X178321316Y-127113683D01*
X178481760Y-127245356D01*
X178481761Y-127245356D01*
X178481763Y-127245358D01*
X178664816Y-127343202D01*
X178863439Y-127403453D01*
X179070000Y-127423798D01*
X179276561Y-127403453D01*
X179475184Y-127343202D01*
X179658237Y-127245358D01*
X179818683Y-127113683D01*
X179950358Y-126953237D01*
X180048202Y-126770184D01*
X180092926Y-126622745D01*
X180131840Y-126563367D01*
X180196682Y-126534451D01*
X180266863Y-126545182D01*
X180320102Y-126592152D01*
X180339500Y-126659324D01*
X180339500Y-128610675D01*
X180319498Y-128678796D01*
X180265842Y-128725289D01*
X180195568Y-128735393D01*
X180130988Y-128705899D01*
X180092925Y-128647251D01*
X180089351Y-128635469D01*
X180048202Y-128499816D01*
X179950358Y-128316763D01*
X179940386Y-128304612D01*
X179818683Y-128156316D01*
X179658239Y-128024643D01*
X179475186Y-127926799D01*
X179475185Y-127926798D01*
X179475184Y-127926798D01*
X179276561Y-127866547D01*
X179276558Y-127866546D01*
X179276556Y-127866546D01*
X179070000Y-127846201D01*
X178863443Y-127866546D01*
X178863440Y-127866546D01*
X178863439Y-127866547D01*
X178704039Y-127914900D01*
X178664813Y-127926799D01*
X178481760Y-128024643D01*
X178321316Y-128156316D01*
X178189643Y-128316760D01*
X178091799Y-128499813D01*
X178091798Y-128499815D01*
X178091798Y-128499816D01*
X178032798Y-128694317D01*
X178031546Y-128698443D01*
X178011201Y-128905000D01*
X178031546Y-129111556D01*
X178031546Y-129111558D01*
X178031547Y-129111561D01*
X178091798Y-129310184D01*
X178091799Y-129310186D01*
X178189643Y-129493239D01*
X178321316Y-129653683D01*
X178481760Y-129785356D01*
X178481761Y-129785356D01*
X178481763Y-129785358D01*
X178664816Y-129883202D01*
X178863439Y-129943453D01*
X179070000Y-129963798D01*
X179276561Y-129943453D01*
X179475184Y-129883202D01*
X179658237Y-129785358D01*
X179818683Y-129653683D01*
X179950358Y-129493237D01*
X180048202Y-129310184D01*
X180092926Y-129162745D01*
X180131840Y-129103367D01*
X180196682Y-129074451D01*
X180266863Y-129085182D01*
X180320102Y-129132152D01*
X180339500Y-129199324D01*
X180339500Y-131150675D01*
X180319498Y-131218796D01*
X180265842Y-131265289D01*
X180195568Y-131275393D01*
X180130988Y-131245899D01*
X180092925Y-131187251D01*
X180048202Y-131039816D01*
X179950358Y-130856763D01*
X179950356Y-130856760D01*
X179818683Y-130696316D01*
X179658239Y-130564643D01*
X179475186Y-130466799D01*
X179475185Y-130466798D01*
X179475184Y-130466798D01*
X179276561Y-130406547D01*
X179276558Y-130406546D01*
X179276556Y-130406546D01*
X179070000Y-130386201D01*
X178863443Y-130406546D01*
X178863440Y-130406546D01*
X178863439Y-130406547D01*
X178664816Y-130466798D01*
X178664813Y-130466799D01*
X178481760Y-130564643D01*
X178321316Y-130696316D01*
X178189643Y-130856760D01*
X178091799Y-131039813D01*
X178091798Y-131039815D01*
X178091798Y-131039816D01*
X178037794Y-131217847D01*
X178031546Y-131238443D01*
X178011201Y-131444999D01*
X178031546Y-131651556D01*
X178031546Y-131651558D01*
X178031547Y-131651561D01*
X178091798Y-131850184D01*
X178091799Y-131850186D01*
X178189643Y-132033239D01*
X178321316Y-132193683D01*
X178481760Y-132325356D01*
X178481761Y-132325356D01*
X178481763Y-132325358D01*
X178664816Y-132423202D01*
X178863439Y-132483453D01*
X179028687Y-132499728D01*
X179069999Y-132503798D01*
X179069999Y-132503797D01*
X179070000Y-132503798D01*
X179276561Y-132483453D01*
X179475184Y-132423202D01*
X179658237Y-132325358D01*
X179818683Y-132193683D01*
X179950358Y-132033237D01*
X180048202Y-131850184D01*
X180092926Y-131702745D01*
X180131840Y-131643367D01*
X180196682Y-131614451D01*
X180266863Y-131625182D01*
X180320102Y-131672152D01*
X180339500Y-131739324D01*
X180339500Y-133690675D01*
X180319498Y-133758796D01*
X180265842Y-133805289D01*
X180195568Y-133815393D01*
X180130988Y-133785899D01*
X180092925Y-133727251D01*
X180081830Y-133690675D01*
X180048202Y-133579816D01*
X179950358Y-133396763D01*
X179950356Y-133396760D01*
X179818683Y-133236316D01*
X179658239Y-133104643D01*
X179475186Y-133006799D01*
X179475185Y-133006798D01*
X179475184Y-133006798D01*
X179276561Y-132946547D01*
X179276558Y-132946546D01*
X179276556Y-132946546D01*
X179069999Y-132926201D01*
X178863443Y-132946546D01*
X178863440Y-132946546D01*
X178863439Y-132946547D01*
X178664816Y-133006798D01*
X178664813Y-133006799D01*
X178481760Y-133104643D01*
X178321316Y-133236316D01*
X178189643Y-133396760D01*
X178091799Y-133579813D01*
X178091798Y-133579815D01*
X178091798Y-133579816D01*
X178037794Y-133757847D01*
X178031546Y-133778443D01*
X178011201Y-133984999D01*
X178031546Y-134191556D01*
X178031546Y-134191558D01*
X178031547Y-134191561D01*
X178091798Y-134390184D01*
X178091799Y-134390186D01*
X178189643Y-134573239D01*
X178321316Y-134733683D01*
X178481760Y-134865356D01*
X178481761Y-134865356D01*
X178481763Y-134865358D01*
X178664816Y-134963202D01*
X178863439Y-135023453D01*
X179070000Y-135043798D01*
X179276561Y-135023453D01*
X179475184Y-134963202D01*
X179658237Y-134865358D01*
X179818683Y-134733683D01*
X179950358Y-134573237D01*
X180048202Y-134390184D01*
X180092926Y-134242745D01*
X180131840Y-134183367D01*
X180196682Y-134154451D01*
X180266863Y-134165182D01*
X180320102Y-134212152D01*
X180339500Y-134279324D01*
X180339500Y-136230675D01*
X180319498Y-136298796D01*
X180265842Y-136345289D01*
X180195568Y-136355393D01*
X180130988Y-136325899D01*
X180092925Y-136267251D01*
X180081830Y-136230675D01*
X180048202Y-136119816D01*
X179950358Y-135936763D01*
X179950356Y-135936760D01*
X179818683Y-135776316D01*
X179658239Y-135644643D01*
X179475186Y-135546799D01*
X179475185Y-135546798D01*
X179475184Y-135546798D01*
X179276561Y-135486547D01*
X179276558Y-135486546D01*
X179276556Y-135486546D01*
X179069999Y-135466201D01*
X178863443Y-135486546D01*
X178863440Y-135486546D01*
X178863439Y-135486547D01*
X178664816Y-135546798D01*
X178664813Y-135546799D01*
X178481760Y-135644643D01*
X178321316Y-135776316D01*
X178189643Y-135936760D01*
X178091799Y-136119813D01*
X178091798Y-136119815D01*
X178091798Y-136119816D01*
X178037794Y-136297847D01*
X178031546Y-136318443D01*
X178011201Y-136524999D01*
X178031546Y-136731556D01*
X178031546Y-136731558D01*
X178031547Y-136731561D01*
X178091798Y-136930184D01*
X178091799Y-136930186D01*
X178189643Y-137113239D01*
X178321316Y-137273683D01*
X178481760Y-137405356D01*
X178481761Y-137405356D01*
X178481763Y-137405358D01*
X178664816Y-137503202D01*
X178863439Y-137563453D01*
X179070000Y-137583798D01*
X179276561Y-137563453D01*
X179475184Y-137503202D01*
X179658237Y-137405358D01*
X179818683Y-137273683D01*
X179950358Y-137113237D01*
X180048202Y-136930184D01*
X180092926Y-136782745D01*
X180131840Y-136723367D01*
X180196682Y-136694451D01*
X180266863Y-136705182D01*
X180320102Y-136752152D01*
X180339500Y-136819324D01*
X180339500Y-138557500D01*
X180319498Y-138625621D01*
X180265842Y-138672114D01*
X180213500Y-138683500D01*
X155066500Y-138683500D01*
X154998379Y-138663498D01*
X154951886Y-138609842D01*
X154940500Y-138557500D01*
X154940500Y-136819324D01*
X154960502Y-136751203D01*
X155014158Y-136704710D01*
X155084432Y-136694606D01*
X155149012Y-136724100D01*
X155187073Y-136782745D01*
X155231798Y-136930184D01*
X155231799Y-136930186D01*
X155329643Y-137113239D01*
X155461316Y-137273683D01*
X155621760Y-137405356D01*
X155621761Y-137405356D01*
X155621763Y-137405358D01*
X155804816Y-137503202D01*
X156003439Y-137563453D01*
X156210000Y-137583798D01*
X156416561Y-137563453D01*
X156615184Y-137503202D01*
X156798237Y-137405358D01*
X156958683Y-137273683D01*
X157090358Y-137113237D01*
X157188202Y-136930184D01*
X157248453Y-136731561D01*
X157268798Y-136525000D01*
X157248453Y-136318439D01*
X157188202Y-136119816D01*
X157090358Y-135936763D01*
X157090356Y-135936760D01*
X156958683Y-135776316D01*
X156798239Y-135644643D01*
X156615186Y-135546799D01*
X156615185Y-135546798D01*
X156615184Y-135546798D01*
X156416561Y-135486547D01*
X156416558Y-135486546D01*
X156416556Y-135486546D01*
X156209999Y-135466201D01*
X156003443Y-135486546D01*
X156003440Y-135486546D01*
X156003439Y-135486547D01*
X155804816Y-135546798D01*
X155804813Y-135546799D01*
X155621760Y-135644643D01*
X155461316Y-135776316D01*
X155329643Y-135936760D01*
X155231799Y-136119813D01*
X155187075Y-136267251D01*
X155148159Y-136326632D01*
X155083318Y-136355548D01*
X155013137Y-136344817D01*
X154959898Y-136297847D01*
X154940500Y-136230675D01*
X154940500Y-134279324D01*
X154960502Y-134211203D01*
X155014158Y-134164710D01*
X155084432Y-134154606D01*
X155149012Y-134184100D01*
X155187073Y-134242745D01*
X155231798Y-134390184D01*
X155231799Y-134390186D01*
X155329643Y-134573239D01*
X155461316Y-134733683D01*
X155621760Y-134865356D01*
X155621761Y-134865356D01*
X155621763Y-134865358D01*
X155804816Y-134963202D01*
X156003439Y-135023453D01*
X156210000Y-135043798D01*
X156416561Y-135023453D01*
X156615184Y-134963202D01*
X156798237Y-134865358D01*
X156958683Y-134733683D01*
X157090358Y-134573237D01*
X157188202Y-134390184D01*
X157248453Y-134191561D01*
X157268798Y-133985000D01*
X157248453Y-133778439D01*
X157188202Y-133579816D01*
X157090358Y-133396763D01*
X157090356Y-133396760D01*
X156958683Y-133236316D01*
X156798239Y-133104643D01*
X156615186Y-133006799D01*
X156615185Y-133006798D01*
X156615184Y-133006798D01*
X156416561Y-132946547D01*
X156416558Y-132946546D01*
X156416556Y-132946546D01*
X156210000Y-132926201D01*
X156003443Y-132946546D01*
X156003440Y-132946546D01*
X156003439Y-132946547D01*
X155804816Y-133006798D01*
X155804813Y-133006799D01*
X155621760Y-133104643D01*
X155461316Y-133236316D01*
X155329643Y-133396760D01*
X155231799Y-133579813D01*
X155187075Y-133727251D01*
X155148159Y-133786632D01*
X155083318Y-133815548D01*
X155013137Y-133804817D01*
X154959898Y-133757847D01*
X154940500Y-133690675D01*
X154940500Y-131739324D01*
X154960502Y-131671203D01*
X155014158Y-131624710D01*
X155084432Y-131614606D01*
X155149012Y-131644100D01*
X155187073Y-131702745D01*
X155231798Y-131850184D01*
X155231799Y-131850186D01*
X155329643Y-132033239D01*
X155461316Y-132193683D01*
X155621760Y-132325356D01*
X155621761Y-132325356D01*
X155621763Y-132325358D01*
X155804816Y-132423202D01*
X156003439Y-132483453D01*
X156168687Y-132499729D01*
X156209999Y-132503798D01*
X156209999Y-132503797D01*
X156210000Y-132503798D01*
X156416561Y-132483453D01*
X156615184Y-132423202D01*
X156798237Y-132325358D01*
X156958683Y-132193683D01*
X157090358Y-132033237D01*
X157188202Y-131850184D01*
X157248453Y-131651561D01*
X157268798Y-131445000D01*
X157248453Y-131238439D01*
X157188202Y-131039816D01*
X157090358Y-130856763D01*
X157090356Y-130856760D01*
X156958683Y-130696316D01*
X156798239Y-130564643D01*
X156615186Y-130466799D01*
X156615185Y-130466798D01*
X156615184Y-130466798D01*
X156416561Y-130406547D01*
X156416558Y-130406546D01*
X156416556Y-130406546D01*
X156210000Y-130386201D01*
X156003443Y-130406546D01*
X156003440Y-130406546D01*
X156003439Y-130406547D01*
X155804816Y-130466798D01*
X155804813Y-130466799D01*
X155621760Y-130564643D01*
X155461316Y-130696316D01*
X155329643Y-130856760D01*
X155231799Y-131039813D01*
X155231798Y-131039815D01*
X155231798Y-131039816D01*
X155192508Y-131169342D01*
X155187075Y-131187251D01*
X155148159Y-131246632D01*
X155083318Y-131275548D01*
X155013137Y-131264817D01*
X154959898Y-131217847D01*
X154940500Y-131150675D01*
X154940500Y-129199324D01*
X154960502Y-129131203D01*
X155014158Y-129084710D01*
X155084432Y-129074606D01*
X155149012Y-129104100D01*
X155187073Y-129162745D01*
X155231798Y-129310184D01*
X155231799Y-129310186D01*
X155329643Y-129493239D01*
X155461316Y-129653683D01*
X155621760Y-129785356D01*
X155621761Y-129785356D01*
X155621763Y-129785358D01*
X155804816Y-129883202D01*
X156003439Y-129943453D01*
X156210000Y-129963798D01*
X156416561Y-129943453D01*
X156615184Y-129883202D01*
X156798237Y-129785358D01*
X156958683Y-129653683D01*
X157077596Y-129508788D01*
X157090356Y-129493240D01*
X157090358Y-129493237D01*
X157188202Y-129310184D01*
X157188202Y-129310181D01*
X157191578Y-129303867D01*
X157241330Y-129253219D01*
X157310566Y-129237509D01*
X157377306Y-129261725D01*
X157420358Y-129318178D01*
X157428700Y-129363263D01*
X157428700Y-129723646D01*
X157425912Y-129740740D01*
X157426390Y-129751088D01*
X157426390Y-129751090D01*
X157428354Y-129793571D01*
X157428566Y-129798152D01*
X157428700Y-129803970D01*
X157428700Y-129823276D01*
X157430407Y-129837997D01*
X157431661Y-129865107D01*
X157434503Y-129871543D01*
X157443092Y-129899281D01*
X157444384Y-129906196D01*
X157458672Y-129929271D01*
X157466810Y-129944711D01*
X157477766Y-129969526D01*
X157482737Y-129974497D01*
X157500767Y-129997258D01*
X157504471Y-130003240D01*
X157504472Y-130003241D01*
X157504473Y-130003242D01*
X157526127Y-130019594D01*
X157539291Y-130031050D01*
X158803654Y-131295413D01*
X158837680Y-131357725D01*
X158839481Y-131400952D01*
X158833682Y-131444998D01*
X158852468Y-131587691D01*
X158907543Y-131720657D01*
X158907545Y-131720659D01*
X158995160Y-131834840D01*
X159087790Y-131905918D01*
X159109342Y-131922456D01*
X159242308Y-131977531D01*
X159258908Y-131979716D01*
X159385000Y-131996317D01*
X159527691Y-131977531D01*
X159660659Y-131922455D01*
X159774840Y-131834840D01*
X159862455Y-131720659D01*
X159917531Y-131587691D01*
X159936317Y-131445000D01*
X159917531Y-131302309D01*
X159862455Y-131169342D01*
X159862454Y-131169341D01*
X159862454Y-131169340D01*
X159774841Y-131055161D01*
X159754843Y-131039816D01*
X159736779Y-131025954D01*
X159660657Y-130967543D01*
X159527691Y-130912468D01*
X159384998Y-130893682D01*
X159340952Y-130899481D01*
X159270804Y-130888541D01*
X159235413Y-130863654D01*
X158076205Y-129704445D01*
X158042179Y-129642133D01*
X158039300Y-129615350D01*
X158039300Y-126898248D01*
X158059302Y-126830127D01*
X158112958Y-126783634D01*
X158183232Y-126773530D01*
X158247812Y-126803024D01*
X158254394Y-126809152D01*
X160122984Y-128677743D01*
X161989571Y-130544330D01*
X161999690Y-130558392D01*
X162007344Y-130565370D01*
X162007345Y-130565371D01*
X162022400Y-130579095D01*
X162042171Y-130597119D01*
X162046359Y-130601118D01*
X162056665Y-130611424D01*
X162060027Y-130614786D01*
X162071639Y-130623984D01*
X162091695Y-130642267D01*
X162098252Y-130644807D01*
X162123945Y-130658349D01*
X162129747Y-130662324D01*
X162135644Y-130663711D01*
X162156157Y-130668536D01*
X162172827Y-130673698D01*
X162198128Y-130683500D01*
X162198130Y-130683500D01*
X162205162Y-130683500D01*
X162234010Y-130686847D01*
X162235162Y-130687117D01*
X162240856Y-130688457D01*
X162267731Y-130684707D01*
X162285138Y-130683500D01*
X175590939Y-130683500D01*
X175608031Y-130686288D01*
X175618382Y-130685809D01*
X175618384Y-130685810D01*
X175661712Y-130683806D01*
X175665446Y-130683634D01*
X175671264Y-130683500D01*
X175690571Y-130683500D01*
X175705295Y-130681791D01*
X175732403Y-130680538D01*
X175738835Y-130677697D01*
X175766573Y-130669107D01*
X175773491Y-130667815D01*
X175796569Y-130653524D01*
X175811986Y-130645397D01*
X175836819Y-130634434D01*
X175841791Y-130629461D01*
X175864556Y-130611428D01*
X175870536Y-130607727D01*
X175886896Y-130586060D01*
X175898339Y-130572912D01*
X177458127Y-129013124D01*
X177472189Y-129003008D01*
X177479171Y-128995349D01*
X177510934Y-128960505D01*
X177514890Y-128956361D01*
X177527883Y-128943370D01*
X177527887Y-128943363D01*
X177528586Y-128942665D01*
X177537790Y-128931046D01*
X177556067Y-128910998D01*
X177558608Y-128904438D01*
X177572151Y-128878745D01*
X177576124Y-128872947D01*
X177582335Y-128846534D01*
X177587499Y-128829863D01*
X177597299Y-128804567D01*
X177597299Y-128804566D01*
X177597300Y-128804564D01*
X177597300Y-128797526D01*
X177600646Y-128768685D01*
X177602257Y-128761837D01*
X177598508Y-128734960D01*
X177597300Y-128717553D01*
X177597300Y-119550984D01*
X177600088Y-119533892D01*
X177597434Y-119476467D01*
X177597300Y-119470650D01*
X177597300Y-119451348D01*
X177595592Y-119436629D01*
X177595327Y-119430902D01*
X177594339Y-119409520D01*
X177591496Y-119403081D01*
X177582905Y-119375339D01*
X177581615Y-119368432D01*
X177567327Y-119345357D01*
X177559202Y-119329944D01*
X177548235Y-119305104D01*
X177543257Y-119300126D01*
X177525225Y-119277360D01*
X177521526Y-119271386D01*
X177499875Y-119255036D01*
X177486712Y-119243581D01*
X177080405Y-118837274D01*
X177046379Y-118774962D01*
X177043500Y-118748179D01*
X177043500Y-118634270D01*
X177043427Y-118631789D01*
X177042856Y-118617889D01*
X177042687Y-118615434D01*
X177041633Y-118602209D01*
X177019515Y-118523787D01*
X176991289Y-118468389D01*
X176978419Y-118450675D01*
X176952908Y-118415562D01*
X176757838Y-118220492D01*
X176756033Y-118218791D01*
X176745802Y-118209366D01*
X176743920Y-118207725D01*
X176733853Y-118199144D01*
X176681165Y-118169639D01*
X176662753Y-118159328D01*
X176622836Y-118146358D01*
X176603623Y-118140115D01*
X176587498Y-118137561D01*
X176539130Y-118129900D01*
X176539127Y-118129900D01*
X176462185Y-118129900D01*
X176445739Y-118128822D01*
X176379360Y-118120083D01*
X176312981Y-118128822D01*
X176296535Y-118129900D01*
X175035900Y-118129900D01*
X174967779Y-118109898D01*
X174921286Y-118056242D01*
X174909900Y-118003900D01*
X174909900Y-108931469D01*
X174909827Y-108928989D01*
X174909256Y-108915087D01*
X174909086Y-108912630D01*
X174908032Y-108899407D01*
X174908017Y-108899354D01*
X174908017Y-108899351D01*
X174892053Y-108842748D01*
X174885916Y-108820988D01*
X174857688Y-108765587D01*
X174829156Y-108726317D01*
X174819308Y-108712762D01*
X174624238Y-108517692D01*
X174622433Y-108515991D01*
X174612202Y-108506566D01*
X174610320Y-108504925D01*
X174600253Y-108496344D01*
X174554369Y-108470649D01*
X174529153Y-108456528D01*
X174470022Y-108437315D01*
X174470020Y-108437314D01*
X174470018Y-108437314D01*
X174414287Y-108428486D01*
X174350134Y-108398073D01*
X174312609Y-108337804D01*
X174308000Y-108304038D01*
X174308000Y-105195164D01*
X174301356Y-105174719D01*
X174296741Y-105155492D01*
X174295630Y-105148479D01*
X174293380Y-105134267D01*
X174283619Y-105115111D01*
X174276056Y-105096850D01*
X174269414Y-105076408D01*
X174262433Y-105066799D01*
X174256773Y-105059008D01*
X174246452Y-105042165D01*
X174236690Y-105023007D01*
X174236688Y-105023005D01*
X174236687Y-105023003D01*
X174179378Y-104965694D01*
X174145352Y-104903382D01*
X174150417Y-104832567D01*
X174179376Y-104787506D01*
X177570777Y-101396105D01*
X177633090Y-101362079D01*
X177659873Y-101359200D01*
X178010405Y-101359200D01*
X178078526Y-101379202D01*
X178121527Y-101425804D01*
X178189643Y-101553239D01*
X178321316Y-101713683D01*
X178481760Y-101845356D01*
X178481761Y-101845356D01*
X178481763Y-101845358D01*
X178664816Y-101943202D01*
X178863439Y-102003453D01*
X179070000Y-102023798D01*
X179276561Y-102003453D01*
X179475184Y-101943202D01*
X179658237Y-101845358D01*
X179818683Y-101713683D01*
X179950358Y-101553237D01*
X180048202Y-101370184D01*
X180092926Y-101222745D01*
X180131840Y-101163367D01*
X180196682Y-101134451D01*
X180266863Y-101145182D01*
G37*
%TD.AperFunction*%
%TA.AperFunction,Conductor*%
G36*
X158247812Y-112934624D02*
G01*
X158254380Y-112940739D01*
X160086630Y-114772989D01*
X161912995Y-116599354D01*
X161947021Y-116661666D01*
X161949900Y-116688449D01*
X161949900Y-128529846D01*
X161947112Y-128546940D01*
X161947590Y-128557288D01*
X161947590Y-128557290D01*
X161948160Y-128569617D01*
X161949766Y-128604352D01*
X161949900Y-128610170D01*
X161949900Y-128629476D01*
X161951607Y-128644197D01*
X161952861Y-128671307D01*
X161955703Y-128677743D01*
X161964292Y-128705481D01*
X161965584Y-128712396D01*
X161979872Y-128735471D01*
X161988010Y-128750911D01*
X161998966Y-128775726D01*
X162003937Y-128780697D01*
X162021967Y-128803458D01*
X162025671Y-128809440D01*
X162025672Y-128809441D01*
X162025673Y-128809442D01*
X162047327Y-128825794D01*
X162060491Y-128837250D01*
X163081045Y-129857805D01*
X163115071Y-129920117D01*
X163110006Y-129990933D01*
X163067459Y-130047768D01*
X163000939Y-130072579D01*
X162991950Y-130072900D01*
X162433849Y-130072900D01*
X162365728Y-130052898D01*
X162344754Y-130035995D01*
X158431805Y-126123045D01*
X158397779Y-126060733D01*
X158394900Y-126033950D01*
X158394900Y-118618849D01*
X158414902Y-118550728D01*
X158431800Y-118529758D01*
X158600415Y-118361142D01*
X158662725Y-118327119D01*
X158705950Y-118325317D01*
X158750000Y-118331117D01*
X158892691Y-118312331D01*
X159025659Y-118257255D01*
X159139840Y-118169640D01*
X159227455Y-118055459D01*
X159282531Y-117922491D01*
X159301317Y-117779800D01*
X159282531Y-117637109D01*
X159227455Y-117504142D01*
X159139840Y-117389960D01*
X159139838Y-117389959D01*
X159139838Y-117389958D01*
X159104594Y-117362913D01*
X159062728Y-117305574D01*
X159055300Y-117262952D01*
X159055300Y-117188308D01*
X159075302Y-117120187D01*
X159128958Y-117073694D01*
X159139670Y-117069384D01*
X159195988Y-117049678D01*
X159259879Y-117002525D01*
X159303000Y-116970700D01*
X159381978Y-116863688D01*
X159425904Y-116738154D01*
X159425904Y-116738153D01*
X159425905Y-116738151D01*
X159428700Y-116708347D01*
X159428699Y-116002054D01*
X159425905Y-115972249D01*
X159405259Y-115913246D01*
X159381978Y-115846710D01*
X159303000Y-115739699D01*
X159195988Y-115660721D01*
X159070454Y-115616795D01*
X159043582Y-115614275D01*
X159043576Y-115614274D01*
X159040647Y-115614000D01*
X159037693Y-115614000D01*
X158462289Y-115614000D01*
X158462267Y-115614000D01*
X158459354Y-115614001D01*
X158456450Y-115614273D01*
X158456433Y-115614274D01*
X158429547Y-115616795D01*
X158304013Y-115660721D01*
X158240121Y-115707875D01*
X158173433Y-115732232D01*
X158104163Y-115716669D01*
X158054304Y-115666126D01*
X158039300Y-115606495D01*
X158039300Y-113029848D01*
X158059302Y-112961727D01*
X158112958Y-112915234D01*
X158183232Y-112905130D01*
X158247812Y-112934624D01*
G37*
%TD.AperFunction*%
%TA.AperFunction,Conductor*%
G36*
X162546729Y-102401918D02*
G01*
X162603565Y-102444465D01*
X162628376Y-102510985D01*
X162623000Y-102555065D01*
X162623000Y-102976470D01*
X162602998Y-103044591D01*
X162596963Y-103053173D01*
X162539745Y-103127741D01*
X162484668Y-103260710D01*
X162465883Y-103403399D01*
X162484668Y-103546091D01*
X162539743Y-103679057D01*
X162596962Y-103753624D01*
X162622563Y-103819844D01*
X162623000Y-103830329D01*
X162623000Y-104329435D01*
X162629642Y-104349880D01*
X162634256Y-104369098D01*
X162637620Y-104390333D01*
X162647380Y-104409490D01*
X162654944Y-104427751D01*
X162661586Y-104448193D01*
X162674224Y-104465589D01*
X162684550Y-104482440D01*
X162694308Y-104501591D01*
X162694309Y-104501592D01*
X162694310Y-104501593D01*
X162716520Y-104523803D01*
X163025284Y-104832567D01*
X163303910Y-105111193D01*
X163392207Y-105199490D01*
X163411359Y-105209249D01*
X163428215Y-105219578D01*
X163445607Y-105232214D01*
X163466046Y-105238855D01*
X163484313Y-105246421D01*
X163499593Y-105254206D01*
X163503467Y-105256180D01*
X163524702Y-105259543D01*
X163543926Y-105264159D01*
X163564365Y-105270800D01*
X163595774Y-105270800D01*
X173317327Y-105270800D01*
X173385448Y-105290802D01*
X173406422Y-105307705D01*
X173482695Y-105383978D01*
X173516721Y-105446290D01*
X173519600Y-105473073D01*
X173519600Y-108301100D01*
X173499598Y-108369221D01*
X173445942Y-108415714D01*
X173393600Y-108427100D01*
X172837870Y-108427100D01*
X172835389Y-108427173D01*
X172821489Y-108427744D01*
X172819034Y-108427913D01*
X172805809Y-108428966D01*
X172727387Y-108451084D01*
X172671989Y-108479310D01*
X172619159Y-108517694D01*
X172424092Y-108712762D01*
X172422391Y-108714567D01*
X172412966Y-108724798D01*
X172411325Y-108726680D01*
X172402744Y-108736747D01*
X172359944Y-108813175D01*
X172309208Y-108862837D01*
X172239676Y-108877186D01*
X172173425Y-108851665D01*
X172160914Y-108840705D01*
X172098369Y-108778160D01*
X171992322Y-108726317D01*
X171957943Y-108721308D01*
X171923569Y-108716300D01*
X171923566Y-108716300D01*
X170556433Y-108716300D01*
X170487681Y-108726317D01*
X170381628Y-108778162D01*
X170283293Y-108876498D01*
X170280059Y-108873264D01*
X170258878Y-108896450D01*
X170193564Y-108914700D01*
X167430955Y-108914700D01*
X167413862Y-108911911D01*
X167356448Y-108914566D01*
X167350630Y-108914700D01*
X167331329Y-108914700D01*
X167316601Y-108916407D01*
X167289491Y-108917661D01*
X167283050Y-108920505D01*
X167255322Y-108929090D01*
X167248404Y-108930383D01*
X167225327Y-108944672D01*
X167209895Y-108952806D01*
X167185074Y-108963765D01*
X167180096Y-108968744D01*
X167157340Y-108986768D01*
X167151358Y-108990472D01*
X167135000Y-109012132D01*
X167123548Y-109025291D01*
X166958630Y-109190209D01*
X166896318Y-109224235D01*
X166825503Y-109219170D01*
X166768667Y-109176623D01*
X166743856Y-109110103D01*
X166744208Y-109098260D01*
X166743516Y-109093005D01*
X166743517Y-109093000D01*
X166737717Y-109048953D01*
X166748655Y-108978809D01*
X166773541Y-108943416D01*
X167424754Y-108292204D01*
X167487067Y-108258179D01*
X167513850Y-108255300D01*
X170193564Y-108255300D01*
X170261685Y-108275302D01*
X170280427Y-108296367D01*
X170283293Y-108293502D01*
X170381630Y-108391839D01*
X170487677Y-108443682D01*
X170487679Y-108443682D01*
X170487681Y-108443683D01*
X170556431Y-108453700D01*
X171923568Y-108453699D01*
X171992319Y-108443683D01*
X172098369Y-108391839D01*
X172181839Y-108308369D01*
X172185393Y-108301100D01*
X172233682Y-108202322D01*
X172233682Y-108202320D01*
X172233683Y-108202319D01*
X172243700Y-108133569D01*
X172243699Y-107766432D01*
X172233683Y-107697681D01*
X172181839Y-107591631D01*
X172181837Y-107591629D01*
X172181837Y-107591628D01*
X172098369Y-107508160D01*
X171992322Y-107456317D01*
X171957943Y-107451308D01*
X171923569Y-107446300D01*
X171923566Y-107446300D01*
X170556433Y-107446300D01*
X170487681Y-107456317D01*
X170381628Y-107508162D01*
X170283293Y-107606498D01*
X170280059Y-107603264D01*
X170258878Y-107626450D01*
X170193564Y-107644700D01*
X167405555Y-107644700D01*
X167388462Y-107641911D01*
X167331048Y-107644566D01*
X167325230Y-107644700D01*
X167305929Y-107644700D01*
X167291201Y-107646407D01*
X167264091Y-107647661D01*
X167257650Y-107650505D01*
X167229922Y-107659090D01*
X167223004Y-107660383D01*
X167200471Y-107674335D01*
X167132023Y-107693188D01*
X167064249Y-107672043D01*
X167018665Y-107617613D01*
X167009745Y-107547179D01*
X167040320Y-107483103D01*
X167045028Y-107478130D01*
X167500955Y-107022204D01*
X167563268Y-106988179D01*
X167590051Y-106985300D01*
X170193564Y-106985300D01*
X170261685Y-107005302D01*
X170280427Y-107026367D01*
X170283293Y-107023502D01*
X170381630Y-107121839D01*
X170487677Y-107173682D01*
X170487679Y-107173682D01*
X170487681Y-107173683D01*
X170556431Y-107183700D01*
X171923568Y-107183699D01*
X171992319Y-107173683D01*
X172098369Y-107121839D01*
X172181839Y-107038369D01*
X172189255Y-107023200D01*
X172233682Y-106932322D01*
X172233682Y-106932320D01*
X172233683Y-106932319D01*
X172243700Y-106863569D01*
X172243699Y-106496432D01*
X172233683Y-106427681D01*
X172181839Y-106321631D01*
X172181837Y-106321629D01*
X172181837Y-106321628D01*
X172098369Y-106238160D01*
X171992322Y-106186317D01*
X171957943Y-106181308D01*
X171923569Y-106176300D01*
X171923566Y-106176300D01*
X170556433Y-106176300D01*
X170487681Y-106186317D01*
X170381628Y-106238162D01*
X170283293Y-106336498D01*
X170280059Y-106333264D01*
X170258878Y-106356450D01*
X170193564Y-106374700D01*
X167481755Y-106374700D01*
X167464662Y-106371911D01*
X167407248Y-106374566D01*
X167401430Y-106374700D01*
X167382129Y-106374700D01*
X167367401Y-106376407D01*
X167340291Y-106377661D01*
X167333850Y-106380505D01*
X167306122Y-106389090D01*
X167299204Y-106390383D01*
X167276127Y-106404672D01*
X167260695Y-106412806D01*
X167235874Y-106423765D01*
X167230896Y-106428744D01*
X167208140Y-106446768D01*
X167202158Y-106450472D01*
X167185800Y-106472132D01*
X167174348Y-106485291D01*
X166062385Y-107597254D01*
X166000073Y-107631280D01*
X165956845Y-107633081D01*
X165912801Y-107627283D01*
X165912800Y-107627283D01*
X165894015Y-107629756D01*
X165770110Y-107646068D01*
X165637140Y-107701145D01*
X165522959Y-107788759D01*
X165435345Y-107902940D01*
X165380268Y-108035910D01*
X165361483Y-108178599D01*
X165380268Y-108321291D01*
X165435343Y-108454257D01*
X165454567Y-108479310D01*
X165522960Y-108568440D01*
X165605869Y-108632059D01*
X165637141Y-108656055D01*
X165643990Y-108658892D01*
X165699273Y-108703438D01*
X165721696Y-108770801D01*
X165712185Y-108823519D01*
X165659668Y-108950308D01*
X165640883Y-109092999D01*
X165659668Y-109235691D01*
X165714743Y-109368657D01*
X165714745Y-109368659D01*
X165802360Y-109482840D01*
X165916541Y-109570455D01*
X165976791Y-109595411D01*
X166032071Y-109639956D01*
X166054493Y-109707319D01*
X166036936Y-109776111D01*
X166028536Y-109788522D01*
X165994145Y-109833340D01*
X165939068Y-109966310D01*
X165920283Y-110109000D01*
X165939068Y-110251691D01*
X165994143Y-110384657D01*
X165994145Y-110384659D01*
X166081760Y-110498840D01*
X166195941Y-110586455D01*
X166306551Y-110632270D01*
X166315348Y-110635914D01*
X166370629Y-110680461D01*
X166393051Y-110747824D01*
X166375493Y-110816616D01*
X166367094Y-110829026D01*
X166334117Y-110872003D01*
X166276779Y-110913871D01*
X166234154Y-110921300D01*
X165475155Y-110921300D01*
X165458062Y-110918511D01*
X165400648Y-110921166D01*
X165394830Y-110921300D01*
X165375529Y-110921300D01*
X165360801Y-110923007D01*
X165333691Y-110924261D01*
X165327250Y-110927105D01*
X165299522Y-110935690D01*
X165292604Y-110936983D01*
X165269527Y-110951272D01*
X165254095Y-110959406D01*
X165229274Y-110970365D01*
X165224296Y-110975344D01*
X165201540Y-110993368D01*
X165195558Y-110997072D01*
X165179200Y-111018732D01*
X165167748Y-111031891D01*
X164729565Y-111470074D01*
X164715506Y-111480191D01*
X164676778Y-111522672D01*
X164672765Y-111526875D01*
X164659119Y-111540521D01*
X164649924Y-111552129D01*
X164631632Y-111572195D01*
X164629090Y-111578758D01*
X164615554Y-111604438D01*
X164611576Y-111610245D01*
X164605363Y-111636660D01*
X164600202Y-111653325D01*
X164582678Y-111698561D01*
X164539419Y-111754857D01*
X164506801Y-111771975D01*
X164387211Y-111813821D01*
X164280199Y-111892799D01*
X164201221Y-111999811D01*
X164157295Y-112125345D01*
X164157295Y-112125349D01*
X164154500Y-112155153D01*
X164154500Y-112158105D01*
X164154500Y-112158106D01*
X164154500Y-112733510D01*
X164154500Y-112733531D01*
X164154501Y-112736446D01*
X164154773Y-112739350D01*
X164154774Y-112739366D01*
X164157295Y-112766252D01*
X164201221Y-112891789D01*
X164280199Y-112998800D01*
X164388995Y-113079095D01*
X164431927Y-113135640D01*
X164437474Y-113206419D01*
X164403873Y-113268961D01*
X164403269Y-113269569D01*
X162444665Y-115228174D01*
X162430606Y-115238291D01*
X162391878Y-115280772D01*
X162387865Y-115284975D01*
X162374219Y-115298621D01*
X162365024Y-115310229D01*
X162346732Y-115330295D01*
X162344190Y-115336858D01*
X162330654Y-115362538D01*
X162326676Y-115368345D01*
X162320463Y-115394760D01*
X162315303Y-115411424D01*
X162305500Y-115436730D01*
X162305500Y-115443762D01*
X162302153Y-115472610D01*
X162300543Y-115479455D01*
X162304292Y-115506330D01*
X162305500Y-115523738D01*
X162305500Y-115824151D01*
X162285498Y-115892272D01*
X162231842Y-115938765D01*
X162161568Y-115948869D01*
X162096988Y-115919375D01*
X162090405Y-115913246D01*
X158431805Y-112254646D01*
X158397779Y-112192334D01*
X158394900Y-112165551D01*
X158394900Y-111377573D01*
X158414902Y-111309452D01*
X158468558Y-111262959D01*
X158538832Y-111252855D01*
X158603412Y-111282349D01*
X158609994Y-111288477D01*
X158731909Y-111410392D01*
X158731910Y-111410393D01*
X158820207Y-111498690D01*
X158839365Y-111508452D01*
X158856208Y-111518773D01*
X158873606Y-111531413D01*
X158873607Y-111531413D01*
X158873608Y-111531414D01*
X158894050Y-111538056D01*
X158912311Y-111545619D01*
X158931467Y-111555380D01*
X158952694Y-111558741D01*
X158971919Y-111563356D01*
X158992364Y-111570000D01*
X159023774Y-111570000D01*
X159411029Y-111570000D01*
X159479150Y-111590002D01*
X159525643Y-111643658D01*
X159529958Y-111654385D01*
X159540421Y-111684288D01*
X159619397Y-111791298D01*
X159619400Y-111791300D01*
X159726412Y-111870278D01*
X159726413Y-111870278D01*
X159727020Y-111870726D01*
X159769952Y-111927271D01*
X159778199Y-111972106D01*
X159778199Y-112069671D01*
X159758197Y-112137792D01*
X159752162Y-112146374D01*
X159694945Y-112220940D01*
X159639868Y-112353910D01*
X159621083Y-112496599D01*
X159639868Y-112639291D01*
X159694943Y-112772257D01*
X159728018Y-112815360D01*
X159782560Y-112886440D01*
X159875190Y-112957518D01*
X159896742Y-112974056D01*
X160029708Y-113029131D01*
X160048494Y-113031604D01*
X160172400Y-113047917D01*
X160315091Y-113029131D01*
X160315091Y-113029130D01*
X160448057Y-112974056D01*
X160448057Y-112974055D01*
X160448059Y-112974055D01*
X160562240Y-112886440D01*
X160649855Y-112772259D01*
X160663480Y-112739366D01*
X160704931Y-112639291D01*
X160709287Y-112606201D01*
X160723717Y-112496600D01*
X160704931Y-112353909D01*
X160649855Y-112220942D01*
X160627903Y-112192334D01*
X160592637Y-112146373D01*
X160567037Y-112080153D01*
X160566600Y-112069671D01*
X160566600Y-112069670D01*
X160566600Y-111972103D01*
X160586600Y-111903986D01*
X160617779Y-111870726D01*
X160618384Y-111870279D01*
X160618388Y-111870278D01*
X160725400Y-111791300D01*
X160725402Y-111791298D01*
X160804378Y-111684288D01*
X160804549Y-111683800D01*
X161221283Y-111683800D01*
X161240068Y-111826491D01*
X161295143Y-111959457D01*
X161295145Y-111959459D01*
X161382760Y-112073640D01*
X161450148Y-112125349D01*
X161496942Y-112161256D01*
X161629908Y-112216331D01*
X161648694Y-112218804D01*
X161772600Y-112235117D01*
X161915291Y-112216331D01*
X161993834Y-112183798D01*
X162048257Y-112161256D01*
X162048257Y-112161255D01*
X162048259Y-112161255D01*
X162162440Y-112073640D01*
X162250055Y-111959459D01*
X162263388Y-111927271D01*
X162305131Y-111826491D01*
X162311526Y-111777916D01*
X162323917Y-111683800D01*
X162318117Y-111639752D01*
X162329055Y-111569608D01*
X162353941Y-111534216D01*
X162979881Y-110908276D01*
X163042191Y-110874252D01*
X163113006Y-110879317D01*
X163158069Y-110908278D01*
X163181630Y-110931839D01*
X163287677Y-110983682D01*
X163287679Y-110983682D01*
X163287681Y-110983683D01*
X163356431Y-110993700D01*
X164723568Y-110993699D01*
X164792319Y-110983683D01*
X164898369Y-110931839D01*
X164981839Y-110848369D01*
X164997362Y-110816616D01*
X165033682Y-110742322D01*
X165033682Y-110742320D01*
X165033683Y-110742319D01*
X165043700Y-110673569D01*
X165043699Y-110306432D01*
X165033683Y-110237681D01*
X164981839Y-110131631D01*
X164981837Y-110131629D01*
X164981837Y-110131628D01*
X164898369Y-110048160D01*
X164792322Y-109996317D01*
X164757943Y-109991308D01*
X164723569Y-109986300D01*
X164723566Y-109986300D01*
X163356433Y-109986300D01*
X163287681Y-109996317D01*
X163181629Y-110048161D01*
X163083763Y-110146028D01*
X163021451Y-110180053D01*
X163000489Y-110182797D01*
X162962248Y-110184566D01*
X162956430Y-110184700D01*
X162937129Y-110184700D01*
X162922401Y-110186407D01*
X162895291Y-110187661D01*
X162888850Y-110190505D01*
X162861122Y-110199090D01*
X162854204Y-110200383D01*
X162831127Y-110214672D01*
X162815695Y-110222806D01*
X162790874Y-110233765D01*
X162785896Y-110238744D01*
X162763140Y-110256768D01*
X162757158Y-110260472D01*
X162740800Y-110282132D01*
X162729348Y-110295291D01*
X161922185Y-111102454D01*
X161859873Y-111136480D01*
X161816645Y-111138281D01*
X161772601Y-111132483D01*
X161772600Y-111132483D01*
X161753814Y-111134956D01*
X161629910Y-111151268D01*
X161496940Y-111206345D01*
X161382759Y-111293959D01*
X161295145Y-111408140D01*
X161240068Y-111541110D01*
X161221283Y-111683800D01*
X160804549Y-111683800D01*
X160848304Y-111558754D01*
X160848304Y-111558753D01*
X160848305Y-111558751D01*
X160851100Y-111528947D01*
X160851099Y-110822654D01*
X160848305Y-110792849D01*
X160815706Y-110699685D01*
X160804378Y-110667310D01*
X160725400Y-110560299D01*
X160618388Y-110481321D01*
X160492854Y-110437395D01*
X160465982Y-110434875D01*
X160465976Y-110434874D01*
X160463047Y-110434600D01*
X160460093Y-110434600D01*
X159884689Y-110434600D01*
X159884667Y-110434600D01*
X159881754Y-110434601D01*
X159878850Y-110434873D01*
X159878833Y-110434874D01*
X159851947Y-110437395D01*
X159726410Y-110481321D01*
X159619399Y-110560299D01*
X159540421Y-110667311D01*
X159529958Y-110697215D01*
X159488580Y-110754907D01*
X159422580Y-110781069D01*
X159411029Y-110781600D01*
X159371800Y-110781600D01*
X159303679Y-110761598D01*
X159257186Y-110707942D01*
X159245800Y-110655600D01*
X159245800Y-109737280D01*
X160981802Y-109737280D01*
X161000587Y-109879972D01*
X161055662Y-110012938D01*
X161082690Y-110048161D01*
X161143279Y-110127121D01*
X161215838Y-110182798D01*
X161257461Y-110214737D01*
X161390427Y-110269812D01*
X161407027Y-110271997D01*
X161533119Y-110288598D01*
X161675810Y-110269812D01*
X161736577Y-110244642D01*
X161808776Y-110214737D01*
X161808776Y-110214736D01*
X161808778Y-110214736D01*
X161922959Y-110127121D01*
X162010574Y-110012940D01*
X162021609Y-109986300D01*
X162065650Y-109879972D01*
X162075340Y-109806371D01*
X162084436Y-109737281D01*
X162078636Y-109693234D01*
X162089574Y-109623090D01*
X162114462Y-109587695D01*
X162139957Y-109562201D01*
X162202272Y-109528178D01*
X162229050Y-109525300D01*
X162993564Y-109525300D01*
X163061685Y-109545302D01*
X163080427Y-109566367D01*
X163083293Y-109563502D01*
X163181630Y-109661839D01*
X163287677Y-109713682D01*
X163287679Y-109713682D01*
X163287681Y-109713683D01*
X163356431Y-109723700D01*
X164723568Y-109723699D01*
X164792319Y-109713683D01*
X164898369Y-109661839D01*
X164981839Y-109578369D01*
X164989255Y-109563200D01*
X165033682Y-109472322D01*
X165033682Y-109472320D01*
X165033683Y-109472319D01*
X165043700Y-109403569D01*
X165043699Y-109036432D01*
X165033683Y-108967681D01*
X164981839Y-108861631D01*
X164981837Y-108861629D01*
X164981837Y-108861628D01*
X164898369Y-108778160D01*
X164792322Y-108726317D01*
X164757943Y-108721308D01*
X164723569Y-108716300D01*
X164723566Y-108716300D01*
X163356433Y-108716300D01*
X163287681Y-108726317D01*
X163181628Y-108778162D01*
X163083293Y-108876498D01*
X163080059Y-108873264D01*
X163058878Y-108896450D01*
X162993564Y-108914700D01*
X162669679Y-108914700D01*
X162601558Y-108894698D01*
X162555065Y-108841042D01*
X162544961Y-108770768D01*
X162569717Y-108711995D01*
X162612642Y-108656055D01*
X162631055Y-108632059D01*
X162650548Y-108584999D01*
X162686131Y-108499091D01*
X162703804Y-108364854D01*
X162732527Y-108299926D01*
X162791792Y-108260835D01*
X162828726Y-108255300D01*
X162993564Y-108255300D01*
X163061685Y-108275302D01*
X163080427Y-108296367D01*
X163083293Y-108293502D01*
X163181630Y-108391839D01*
X163287677Y-108443682D01*
X163287679Y-108443682D01*
X163287681Y-108443683D01*
X163356431Y-108453700D01*
X164723568Y-108453699D01*
X164792319Y-108443683D01*
X164898369Y-108391839D01*
X164981839Y-108308369D01*
X164985393Y-108301100D01*
X165033682Y-108202322D01*
X165033682Y-108202320D01*
X165033683Y-108202319D01*
X165043700Y-108133569D01*
X165043699Y-107766432D01*
X165033683Y-107697681D01*
X164981839Y-107591631D01*
X164981837Y-107591629D01*
X164981837Y-107591628D01*
X164898369Y-107508160D01*
X164792322Y-107456317D01*
X164757943Y-107451308D01*
X164723569Y-107446300D01*
X164723566Y-107446300D01*
X163356433Y-107446300D01*
X163287681Y-107456317D01*
X163181628Y-107508162D01*
X163083293Y-107606498D01*
X163080059Y-107603264D01*
X163058878Y-107626450D01*
X162993564Y-107644700D01*
X162630355Y-107644700D01*
X162613262Y-107641911D01*
X162555848Y-107644566D01*
X162550030Y-107644700D01*
X162530729Y-107644700D01*
X162516001Y-107646407D01*
X162488891Y-107647661D01*
X162482450Y-107650505D01*
X162454722Y-107659090D01*
X162447804Y-107660383D01*
X162424727Y-107674672D01*
X162409295Y-107682806D01*
X162384474Y-107693765D01*
X162379496Y-107698744D01*
X162356740Y-107716768D01*
X162350758Y-107720472D01*
X162334400Y-107742132D01*
X162322948Y-107755291D01*
X162303185Y-107775054D01*
X162240873Y-107809080D01*
X162197645Y-107810881D01*
X162153601Y-107805083D01*
X162153600Y-107805083D01*
X162134815Y-107807556D01*
X162010910Y-107823868D01*
X161877940Y-107878945D01*
X161763759Y-107966559D01*
X161676145Y-108080740D01*
X161621068Y-108213710D01*
X161602283Y-108356400D01*
X161621068Y-108499091D01*
X161676143Y-108632057D01*
X161676145Y-108632059D01*
X161763760Y-108746240D01*
X161822823Y-108791561D01*
X161830340Y-108797329D01*
X161872207Y-108854667D01*
X161876428Y-108925539D01*
X161854182Y-108973227D01*
X161824800Y-109012132D01*
X161813348Y-109025291D01*
X161682704Y-109155935D01*
X161620392Y-109189961D01*
X161577164Y-109191762D01*
X161533120Y-109185964D01*
X161533119Y-109185964D01*
X161514334Y-109188437D01*
X161390429Y-109204749D01*
X161257459Y-109259826D01*
X161143278Y-109347440D01*
X161055664Y-109461621D01*
X161000587Y-109594591D01*
X160981802Y-109737280D01*
X159245800Y-109737280D01*
X159245800Y-105650871D01*
X159265802Y-105582750D01*
X159282700Y-105561781D01*
X162413604Y-102430877D01*
X162475914Y-102396853D01*
X162546729Y-102401918D01*
G37*
%TD.AperFunction*%
%TA.AperFunction,Conductor*%
G36*
X166302275Y-111551902D02*
G01*
X166334116Y-111581196D01*
X166351950Y-111604438D01*
X166361160Y-111616440D01*
X166416836Y-111659162D01*
X166475342Y-111704056D01*
X166608308Y-111759131D01*
X166624908Y-111761316D01*
X166751000Y-111777917D01*
X166893691Y-111759131D01*
X166955110Y-111733690D01*
X167025699Y-111726102D01*
X167089186Y-111757882D01*
X167125413Y-111818940D01*
X167127776Y-111869806D01*
X167126500Y-111877864D01*
X167126500Y-112943800D01*
X167106498Y-113011921D01*
X167052842Y-113058414D01*
X167000500Y-113069800D01*
X166559364Y-113069800D01*
X166538918Y-113076442D01*
X166519706Y-113081055D01*
X166498467Y-113084420D01*
X166479308Y-113094181D01*
X166461052Y-113101743D01*
X166440605Y-113108387D01*
X166423212Y-113121023D01*
X166406364Y-113131347D01*
X166387207Y-113141108D01*
X166305482Y-113222831D01*
X166305465Y-113222851D01*
X164339684Y-115188631D01*
X164339682Y-115188634D01*
X164269110Y-115259205D01*
X164259347Y-115278365D01*
X164249023Y-115295212D01*
X164236387Y-115312605D01*
X164229743Y-115333052D01*
X164222181Y-115351308D01*
X164212420Y-115370467D01*
X164209055Y-115391706D01*
X164204442Y-115410918D01*
X164197800Y-115431363D01*
X164197800Y-121652235D01*
X164204442Y-121672680D01*
X164209056Y-121691898D01*
X164212420Y-121713133D01*
X164222180Y-121732290D01*
X164229744Y-121750551D01*
X164236386Y-121770993D01*
X164249024Y-121788389D01*
X164259350Y-121805240D01*
X164269108Y-121824391D01*
X164269109Y-121824392D01*
X164269110Y-121824393D01*
X164291320Y-121846603D01*
X165116820Y-122672103D01*
X166042564Y-123597847D01*
X167774310Y-125329593D01*
X167862607Y-125417890D01*
X167881759Y-125427649D01*
X167898615Y-125437978D01*
X167916007Y-125450614D01*
X167936446Y-125457255D01*
X167954713Y-125464821D01*
X167973865Y-125474579D01*
X167973867Y-125474580D01*
X167995102Y-125477943D01*
X168014326Y-125482559D01*
X168034765Y-125489200D01*
X168066174Y-125489200D01*
X168351829Y-125489200D01*
X168419950Y-125509202D01*
X168466443Y-125562858D01*
X168470758Y-125573585D01*
X168481221Y-125603486D01*
X168481222Y-125603488D01*
X168523217Y-125660389D01*
X168547575Y-125727077D01*
X168532013Y-125796347D01*
X168510933Y-125824306D01*
X168424585Y-125910654D01*
X168362273Y-125944680D01*
X168319045Y-125946481D01*
X168275001Y-125940683D01*
X168275000Y-125940683D01*
X168256214Y-125943156D01*
X168132310Y-125959468D01*
X167999340Y-126014545D01*
X167885159Y-126102159D01*
X167797545Y-126216340D01*
X167742468Y-126349310D01*
X167723683Y-126491999D01*
X167742468Y-126634691D01*
X167797543Y-126767657D01*
X167821989Y-126799515D01*
X167885160Y-126881840D01*
X167977790Y-126952918D01*
X167999342Y-126969456D01*
X168132308Y-127024531D01*
X168151093Y-127027004D01*
X168275000Y-127043317D01*
X168417691Y-127024531D01*
X168537057Y-126975089D01*
X168550657Y-126969456D01*
X168550657Y-126969455D01*
X168550659Y-126969455D01*
X168655496Y-126889009D01*
X168721715Y-126863409D01*
X168791264Y-126877673D01*
X168808899Y-126889006D01*
X168888644Y-126950197D01*
X168913742Y-126969456D01*
X168927670Y-126975225D01*
X168982952Y-127019773D01*
X169005373Y-127087136D01*
X168987815Y-127155927D01*
X168935854Y-127204306D01*
X168927672Y-127208042D01*
X168926945Y-127208342D01*
X168896652Y-127231587D01*
X168835822Y-127278263D01*
X168769604Y-127303863D01*
X168759120Y-127304300D01*
X166759846Y-127304300D01*
X166691725Y-127284298D01*
X166659884Y-127255004D01*
X166632841Y-127219761D01*
X166632838Y-127219759D01*
X166556365Y-127161078D01*
X166518657Y-127132143D01*
X166385691Y-127077068D01*
X166259599Y-127060468D01*
X166243000Y-127058283D01*
X166242999Y-127058283D01*
X166100310Y-127077068D01*
X165967340Y-127132145D01*
X165853159Y-127219759D01*
X165765545Y-127333940D01*
X165710468Y-127466910D01*
X165691683Y-127609600D01*
X165710468Y-127752291D01*
X165765543Y-127885257D01*
X165816563Y-127951746D01*
X165842164Y-128017966D01*
X165827900Y-128087515D01*
X165816564Y-128105154D01*
X165765545Y-128171643D01*
X165710468Y-128304613D01*
X165691683Y-128447303D01*
X165710468Y-128589993D01*
X165710712Y-128590581D01*
X165711451Y-128597455D01*
X165712634Y-128606440D01*
X165712420Y-128606468D01*
X165718302Y-128661170D01*
X165686524Y-128724658D01*
X165625466Y-128760886D01*
X165594304Y-128764800D01*
X165113549Y-128764800D01*
X165045428Y-128744798D01*
X165024454Y-128727895D01*
X164589144Y-128292585D01*
X164555118Y-128230273D01*
X164553317Y-128187049D01*
X164559117Y-128143000D01*
X164540331Y-128000309D01*
X164485255Y-127867342D01*
X164485254Y-127867341D01*
X164485254Y-127867340D01*
X164397641Y-127753161D01*
X164397638Y-127753159D01*
X164309856Y-127685800D01*
X164283457Y-127665543D01*
X164150491Y-127610468D01*
X164007800Y-127591683D01*
X163865110Y-127610468D01*
X163732140Y-127665545D01*
X163617959Y-127753159D01*
X163530345Y-127867340D01*
X163475268Y-128000310D01*
X163456483Y-128143000D01*
X163475268Y-128285691D01*
X163530343Y-128418657D01*
X163558159Y-128454907D01*
X163617960Y-128532840D01*
X163692443Y-128589993D01*
X163732142Y-128620456D01*
X163865108Y-128675531D01*
X163881910Y-128677743D01*
X164007800Y-128694317D01*
X164051842Y-128688518D01*
X164121990Y-128699457D01*
X164157384Y-128724345D01*
X164579644Y-129146605D01*
X164613670Y-129208917D01*
X164608605Y-129279732D01*
X164566058Y-129336568D01*
X164499538Y-129361379D01*
X164490549Y-129361700D01*
X164003543Y-129361700D01*
X163935422Y-129341698D01*
X163914448Y-129324795D01*
X162953005Y-128363352D01*
X162918979Y-128301040D01*
X162916100Y-128274257D01*
X162916100Y-115672447D01*
X162936102Y-115604326D01*
X162953000Y-115583357D01*
X165061827Y-113474530D01*
X165075889Y-113464414D01*
X165082871Y-113456755D01*
X165114634Y-113421911D01*
X165118590Y-113417767D01*
X165131583Y-113404776D01*
X165131587Y-113404769D01*
X165132286Y-113404071D01*
X165141490Y-113392452D01*
X165159767Y-113372404D01*
X165162308Y-113365844D01*
X165175851Y-113340151D01*
X165179824Y-113334353D01*
X165186035Y-113307940D01*
X165191199Y-113291269D01*
X165201000Y-113265971D01*
X165201000Y-113258937D01*
X165204347Y-113230088D01*
X165209642Y-113207576D01*
X165244710Y-113145845D01*
X165290676Y-113117497D01*
X165404188Y-113077778D01*
X165405564Y-113076763D01*
X165511200Y-112998800D01*
X165590178Y-112891788D01*
X165634104Y-112766254D01*
X165634104Y-112766253D01*
X165634105Y-112766251D01*
X165636900Y-112736447D01*
X165636899Y-112155154D01*
X165634105Y-112125349D01*
X165592119Y-112005358D01*
X165590178Y-111999810D01*
X165511200Y-111892799D01*
X165432897Y-111835009D01*
X165389965Y-111778464D01*
X165384418Y-111707685D01*
X165418019Y-111645143D01*
X165418438Y-111644720D01*
X165494355Y-111568803D01*
X165556668Y-111534779D01*
X165583450Y-111531900D01*
X166234154Y-111531900D01*
X166302275Y-111551902D01*
G37*
%TD.AperFunction*%
%TA.AperFunction,Conductor*%
G36*
X167101236Y-113878202D02*
G01*
X167145382Y-113926998D01*
X167178709Y-113992407D01*
X167217091Y-114045237D01*
X167412161Y-114240308D01*
X167413959Y-114242003D01*
X167424198Y-114251434D01*
X167426074Y-114253069D01*
X167436148Y-114261656D01*
X167436202Y-114261686D01*
X167507247Y-114301472D01*
X167566378Y-114320685D01*
X167630870Y-114330900D01*
X171572500Y-114330900D01*
X171640621Y-114350902D01*
X171687114Y-114404558D01*
X171698500Y-114456900D01*
X171698500Y-114740941D01*
X171698573Y-114743422D01*
X171699144Y-114757321D01*
X171699313Y-114759774D01*
X171700365Y-114772989D01*
X171722483Y-114851410D01*
X171722484Y-114851412D01*
X171750710Y-114906810D01*
X171789091Y-114959637D01*
X171789093Y-114959638D01*
X171789093Y-114959639D01*
X171984162Y-115154708D01*
X171985967Y-115156409D01*
X171996198Y-115165834D01*
X171998080Y-115167475D01*
X172008146Y-115176055D01*
X172028813Y-115187628D01*
X172079247Y-115215872D01*
X172138378Y-115235085D01*
X172202870Y-115245300D01*
X172791700Y-115245300D01*
X172859821Y-115265302D01*
X172906314Y-115318958D01*
X172917700Y-115371300D01*
X172917700Y-118906541D01*
X172917773Y-118909022D01*
X172918344Y-118922921D01*
X172918513Y-118925374D01*
X172919565Y-118938589D01*
X172941683Y-119017010D01*
X172969909Y-119072409D01*
X172982703Y-119090019D01*
X173008291Y-119125237D01*
X173008293Y-119125239D01*
X173203362Y-119320308D01*
X173205167Y-119322009D01*
X173215398Y-119331434D01*
X173217280Y-119333075D01*
X173227346Y-119341655D01*
X173233982Y-119345371D01*
X173298447Y-119381472D01*
X173357578Y-119400685D01*
X173422070Y-119410900D01*
X175812946Y-119410900D01*
X175881067Y-119430902D01*
X175927560Y-119484558D01*
X175937868Y-119520454D01*
X175956881Y-119664878D01*
X176011956Y-119797844D01*
X176011958Y-119797846D01*
X176099573Y-119912027D01*
X176192203Y-119983105D01*
X176213755Y-119999643D01*
X176346721Y-120054718D01*
X176383758Y-120059594D01*
X176489413Y-120073504D01*
X176489414Y-120073503D01*
X176505860Y-120075669D01*
X176505780Y-120076274D01*
X176558796Y-120084539D01*
X176611897Y-120131664D01*
X176631100Y-120198525D01*
X176631100Y-128421551D01*
X176611098Y-128489672D01*
X176594195Y-128510646D01*
X175424446Y-129680395D01*
X175362134Y-129714421D01*
X175335351Y-129717300D01*
X171754650Y-129717300D01*
X171686529Y-129697298D01*
X171640036Y-129643642D01*
X171629932Y-129573368D01*
X171659426Y-129508788D01*
X171665554Y-129502205D01*
X171833592Y-129334167D01*
X172362011Y-128805746D01*
X172424322Y-128771723D01*
X172495137Y-128776787D01*
X172527809Y-128794881D01*
X172568720Y-128826274D01*
X172701689Y-128881350D01*
X172718289Y-128883535D01*
X172844381Y-128900136D01*
X172987072Y-128881350D01*
X173108478Y-128831063D01*
X173120038Y-128826275D01*
X173120038Y-128826274D01*
X173120040Y-128826274D01*
X173234221Y-128738659D01*
X173321836Y-128624478D01*
X173323503Y-128620455D01*
X173376912Y-128491510D01*
X173382732Y-128447303D01*
X173395698Y-128348819D01*
X173389898Y-128304771D01*
X173400836Y-128234627D01*
X173425722Y-128199235D01*
X174181527Y-127443430D01*
X174195589Y-127433314D01*
X174202571Y-127425655D01*
X174234334Y-127390811D01*
X174238290Y-127386667D01*
X174251283Y-127373676D01*
X174251287Y-127373669D01*
X174251986Y-127372971D01*
X174261190Y-127361352D01*
X174279467Y-127341304D01*
X174282008Y-127334744D01*
X174295551Y-127309051D01*
X174299524Y-127303253D01*
X174305735Y-127276838D01*
X174310892Y-127260183D01*
X174320700Y-127234870D01*
X174320700Y-127227837D01*
X174324047Y-127198987D01*
X174325657Y-127192144D01*
X174321908Y-127165269D01*
X174320700Y-127147861D01*
X174320700Y-123717555D01*
X174323488Y-123700463D01*
X174320834Y-123643038D01*
X174320700Y-123637221D01*
X174320700Y-123617919D01*
X174318992Y-123603200D01*
X174317739Y-123576091D01*
X174314896Y-123569652D01*
X174306305Y-123541910D01*
X174305015Y-123535003D01*
X174290727Y-123511928D01*
X174282602Y-123496515D01*
X174271635Y-123471675D01*
X174266657Y-123466697D01*
X174248625Y-123443931D01*
X174244926Y-123437957D01*
X174223275Y-123421607D01*
X174210112Y-123410152D01*
X173049130Y-122249170D01*
X173039014Y-122235112D01*
X173031355Y-122228130D01*
X173031355Y-122228129D01*
X172996527Y-122196379D01*
X172992339Y-122192380D01*
X172979376Y-122179417D01*
X172979372Y-122179414D01*
X172978678Y-122178720D01*
X172967061Y-122169517D01*
X172947003Y-122151232D01*
X172940443Y-122148691D01*
X172914755Y-122135150D01*
X172908952Y-122131175D01*
X172882534Y-122124961D01*
X172865870Y-122119801D01*
X172840570Y-122110000D01*
X172833538Y-122110000D01*
X172804690Y-122106653D01*
X172797844Y-122105043D01*
X172770968Y-122108792D01*
X172753562Y-122110000D01*
X165721873Y-122110000D01*
X165653752Y-122089998D01*
X165632778Y-122073095D01*
X165023105Y-121463422D01*
X164989079Y-121401110D01*
X164986200Y-121374327D01*
X164986200Y-115709272D01*
X165006202Y-115641151D01*
X165023105Y-115620177D01*
X166748178Y-113895105D01*
X166810490Y-113861079D01*
X166837273Y-113858200D01*
X167033115Y-113858200D01*
X167101236Y-113878202D01*
G37*
%TD.AperFunction*%
%TA.AperFunction,Conductor*%
G36*
X172672972Y-122740602D02*
G01*
X172693946Y-122757505D01*
X173673195Y-123736753D01*
X173707220Y-123799065D01*
X173710100Y-123825848D01*
X173710100Y-126999149D01*
X173690098Y-127067270D01*
X173673195Y-127088245D01*
X172993965Y-127767474D01*
X172931653Y-127801499D01*
X172888425Y-127803300D01*
X172844382Y-127797502D01*
X172844381Y-127797502D01*
X172827781Y-127799687D01*
X172701690Y-127816287D01*
X172691516Y-127820502D01*
X172620926Y-127828090D01*
X172557439Y-127796309D01*
X172521213Y-127735250D01*
X172517300Y-127704092D01*
X172517300Y-127299708D01*
X172537302Y-127231587D01*
X172590958Y-127185094D01*
X172601670Y-127180784D01*
X172657988Y-127161078D01*
X172664968Y-127155927D01*
X172765000Y-127082100D01*
X172843978Y-126975088D01*
X172887904Y-126849554D01*
X172887904Y-126849553D01*
X172887905Y-126849551D01*
X172890700Y-126819747D01*
X172890699Y-126113454D01*
X172887905Y-126083649D01*
X172859321Y-126001960D01*
X172843978Y-125958110D01*
X172765000Y-125851099D01*
X172657988Y-125772121D01*
X172532454Y-125728195D01*
X172505582Y-125725675D01*
X172505576Y-125725674D01*
X172502647Y-125725400D01*
X172499693Y-125725400D01*
X171924289Y-125725400D01*
X171924267Y-125725400D01*
X171921354Y-125725401D01*
X171918450Y-125725673D01*
X171918433Y-125725674D01*
X171891547Y-125728195D01*
X171766010Y-125772121D01*
X171658999Y-125851099D01*
X171580022Y-125958110D01*
X171543913Y-126061303D01*
X171502534Y-126118994D01*
X171436534Y-126145157D01*
X171366866Y-126131483D01*
X171315651Y-126082315D01*
X171306058Y-126061309D01*
X171269178Y-125955912D01*
X171262218Y-125946481D01*
X171190200Y-125848899D01*
X171083188Y-125769921D01*
X170957654Y-125725995D01*
X170930782Y-125723475D01*
X170930776Y-125723474D01*
X170927847Y-125723200D01*
X170924893Y-125723200D01*
X170349489Y-125723200D01*
X170349467Y-125723200D01*
X170346554Y-125723201D01*
X170343650Y-125723473D01*
X170343633Y-125723474D01*
X170316747Y-125725995D01*
X170191210Y-125769921D01*
X170084199Y-125848899D01*
X170005221Y-125955911D01*
X169956211Y-126095976D01*
X169953190Y-126094919D01*
X169935868Y-126138413D01*
X169878109Y-126179697D01*
X169836688Y-126186700D01*
X169706246Y-126186700D01*
X169638125Y-126166698D01*
X169606284Y-126137404D01*
X169579241Y-126102161D01*
X169579238Y-126102159D01*
X169478021Y-126024491D01*
X169436154Y-125967152D01*
X169431933Y-125896281D01*
X169466698Y-125834379D01*
X169513110Y-125805601D01*
X169559188Y-125789478D01*
X169666200Y-125710500D01*
X169745178Y-125603488D01*
X169789105Y-125477951D01*
X169791900Y-125448147D01*
X169791899Y-124741854D01*
X169789105Y-124712049D01*
X169772255Y-124663895D01*
X169745178Y-124586510D01*
X169666200Y-124479499D01*
X169559188Y-124400521D01*
X169433654Y-124356595D01*
X169406782Y-124354075D01*
X169406776Y-124354074D01*
X169403847Y-124353800D01*
X169400893Y-124353800D01*
X168825489Y-124353800D01*
X168825467Y-124353800D01*
X168822554Y-124353801D01*
X168819650Y-124354073D01*
X168819633Y-124354074D01*
X168792747Y-124356595D01*
X168667210Y-124400521D01*
X168560199Y-124479499D01*
X168481221Y-124586511D01*
X168470758Y-124616415D01*
X168429380Y-124674107D01*
X168363380Y-124700269D01*
X168351829Y-124700800D01*
X168312673Y-124700800D01*
X168244552Y-124680798D01*
X168223578Y-124663895D01*
X166495378Y-122935695D01*
X166461352Y-122873383D01*
X166466417Y-122802568D01*
X166508964Y-122745732D01*
X166575484Y-122720921D01*
X166584473Y-122720600D01*
X172604851Y-122720600D01*
X172672972Y-122740602D01*
G37*
%TD.AperFunction*%
%TD*%
%TA.AperFunction,Conductor*%
%TO.N,+3.3V*%
G36*
X174464661Y-108655013D02*
G01*
X174476665Y-108665265D01*
X174671735Y-108860335D01*
X174699961Y-108915733D01*
X174701200Y-108931469D01*
X174701200Y-118338600D01*
X176539130Y-118338600D01*
X176598261Y-118357813D01*
X176610265Y-118368065D01*
X176805335Y-118563135D01*
X176833561Y-118618533D01*
X176834800Y-118634270D01*
X176834800Y-118906529D01*
X176815587Y-118965660D01*
X176805335Y-118977664D01*
X176793649Y-118989350D01*
X176738251Y-119017576D01*
X176684017Y-119011158D01*
X176632102Y-118989655D01*
X176489413Y-118970869D01*
X176346722Y-118989655D01*
X176213753Y-119044732D01*
X176099573Y-119132345D01*
X176076175Y-119162840D01*
X176024936Y-119198057D01*
X175996363Y-119202200D01*
X173422070Y-119202200D01*
X173362939Y-119182987D01*
X173350935Y-119172735D01*
X173155864Y-118977664D01*
X173127638Y-118922266D01*
X173126400Y-118906541D01*
X173126400Y-115290600D01*
X173126400Y-115036600D01*
X172872400Y-115036600D01*
X172202870Y-115036600D01*
X172143739Y-115017387D01*
X172131735Y-115007135D01*
X171936664Y-114812064D01*
X171908438Y-114756666D01*
X171907200Y-114740941D01*
X171907200Y-114376200D01*
X171907200Y-114122200D01*
X171653200Y-114122200D01*
X167630870Y-114122200D01*
X167571739Y-114102987D01*
X167559735Y-114092735D01*
X167364665Y-113897664D01*
X167336439Y-113842266D01*
X167335200Y-113826529D01*
X167335200Y-111877870D01*
X167354413Y-111818739D01*
X167364665Y-111806735D01*
X167559735Y-111611665D01*
X167615133Y-111583439D01*
X167630870Y-111582200D01*
X168588971Y-111582200D01*
X168648102Y-111601413D01*
X168660106Y-111611665D01*
X169023312Y-111974871D01*
X169051538Y-112030269D01*
X169051916Y-112059137D01*
X169044482Y-112115599D01*
X169063268Y-112258291D01*
X169118344Y-112391257D01*
X169118345Y-112391259D01*
X169129819Y-112406212D01*
X169205959Y-112505440D01*
X169240246Y-112531749D01*
X169320141Y-112593055D01*
X169386624Y-112620592D01*
X169453108Y-112648131D01*
X169595800Y-112666917D01*
X169738491Y-112648131D01*
X169871459Y-112593055D01*
X169985640Y-112505440D01*
X170073255Y-112391259D01*
X170128331Y-112258291D01*
X170147117Y-112115600D01*
X170128331Y-111972909D01*
X170073255Y-111839942D01*
X170022800Y-111774188D01*
X169999668Y-111744041D01*
X169978914Y-111685433D01*
X169996573Y-111625819D01*
X170045899Y-111587970D01*
X170077636Y-111582516D01*
X170078399Y-111582200D01*
X170078400Y-111582200D01*
X170332400Y-111582200D01*
X170332400Y-110353869D01*
X170351613Y-110294739D01*
X170361865Y-110282735D01*
X170556935Y-110087665D01*
X170612333Y-110059439D01*
X170628070Y-110058200D01*
X172288200Y-110058200D01*
X172542200Y-110058200D01*
X172542200Y-108931470D01*
X172561413Y-108872339D01*
X172571665Y-108860335D01*
X172766735Y-108665265D01*
X172822133Y-108637039D01*
X172837870Y-108635800D01*
X174405530Y-108635800D01*
X174464661Y-108655013D01*
G37*
%TD.AperFunction*%
%TD*%
%TA.AperFunction,Conductor*%
%TO.N,+3.3V*%
G36*
X167225661Y-99587213D02*
G01*
X167237665Y-99597465D01*
X167432736Y-99792536D01*
X167460961Y-99847931D01*
X167462200Y-99863669D01*
X167462200Y-100262502D01*
X167442987Y-100321633D01*
X167432218Y-100334151D01*
X167238209Y-100525368D01*
X167182608Y-100553192D01*
X167166133Y-100554308D01*
X165963574Y-100536880D01*
X165963572Y-100536880D01*
X165709600Y-100533200D01*
X165709600Y-100787199D01*
X165709600Y-101964729D01*
X165690387Y-102023860D01*
X165680135Y-102035864D01*
X165485065Y-102230935D01*
X165429668Y-102259161D01*
X165413930Y-102260400D01*
X165259385Y-102260400D01*
X165234031Y-102256092D01*
X165200199Y-102252919D01*
X165200177Y-102252918D01*
X165197853Y-102252700D01*
X165195509Y-102252700D01*
X164140894Y-102252700D01*
X164140872Y-102252700D01*
X164138548Y-102252701D01*
X164136232Y-102252918D01*
X164136212Y-102252919D01*
X164102363Y-102256092D01*
X164077014Y-102260400D01*
X163668470Y-102260400D01*
X163609339Y-102241187D01*
X163597335Y-102230935D01*
X163402265Y-102035864D01*
X163374039Y-101980466D01*
X163372800Y-101964729D01*
X163372800Y-99863670D01*
X163392013Y-99804539D01*
X163402265Y-99792535D01*
X163597335Y-99597465D01*
X163652733Y-99569239D01*
X163668470Y-99568000D01*
X167166530Y-99568000D01*
X167225661Y-99587213D01*
G37*
%TD.AperFunction*%
%TD*%
M02*
