%TF.GenerationSoftware,KiCad,Pcbnew,7.0.2-6a45011f42~172~ubuntu22.04.1*%
%TF.CreationDate,2023-05-03T21:07:20-04:00*%
%TF.ProjectId,RP2040_DevBoard_v2,52503230-3430-45f4-9465-76426f617264,-*%
%TF.SameCoordinates,Original*%
%TF.FileFunction,Legend,Top*%
%TF.FilePolarity,Positive*%
%FSLAX46Y46*%
G04 Gerber Fmt 4.6, Leading zero omitted, Abs format (unit mm)*
G04 Created by KiCad (PCBNEW 7.0.2-6a45011f42~172~ubuntu22.04.1) date 2023-05-03 21:07:20*
%MOMM*%
%LPD*%
G01*
G04 APERTURE LIST*
%ADD10C,0.150000*%
%ADD11C,0.127000*%
%ADD12C,0.190500*%
%ADD13C,0.120000*%
%ADD14C,0.010000*%
G04 APERTURE END LIST*
D10*
X163554722Y-113360200D02*
G75*
G03*
X163554722Y-113360200I-80322J0D01*
G01*
D11*
X157842857Y-111539745D02*
X157588857Y-111176888D01*
X157407428Y-111539745D02*
X157407428Y-110777745D01*
X157407428Y-110777745D02*
X157697714Y-110777745D01*
X157697714Y-110777745D02*
X157770285Y-110814031D01*
X157770285Y-110814031D02*
X157806571Y-110850317D01*
X157806571Y-110850317D02*
X157842857Y-110922888D01*
X157842857Y-110922888D02*
X157842857Y-111031745D01*
X157842857Y-111031745D02*
X157806571Y-111104317D01*
X157806571Y-111104317D02*
X157770285Y-111140602D01*
X157770285Y-111140602D02*
X157697714Y-111176888D01*
X157697714Y-111176888D02*
X157407428Y-111176888D01*
X158096857Y-110777745D02*
X158604857Y-111539745D01*
X158604857Y-110777745D02*
X158096857Y-111539745D01*
X177110571Y-134399745D02*
X176675142Y-134399745D01*
X176892857Y-134399745D02*
X176892857Y-133637745D01*
X176892857Y-133637745D02*
X176820285Y-133746602D01*
X176820285Y-133746602D02*
X176747714Y-133819174D01*
X176747714Y-133819174D02*
X176675142Y-133855460D01*
X177364571Y-133637745D02*
X177872571Y-133637745D01*
X177872571Y-133637745D02*
X177545999Y-134399745D01*
X176675142Y-106242031D02*
X177038000Y-106242031D01*
X176602571Y-106459745D02*
X176856571Y-105697745D01*
X176856571Y-105697745D02*
X177110571Y-106459745D01*
X177292000Y-105697745D02*
X177763714Y-105697745D01*
X177763714Y-105697745D02*
X177509714Y-105988031D01*
X177509714Y-105988031D02*
X177618571Y-105988031D01*
X177618571Y-105988031D02*
X177691143Y-106024317D01*
X177691143Y-106024317D02*
X177727428Y-106060602D01*
X177727428Y-106060602D02*
X177763714Y-106133174D01*
X177763714Y-106133174D02*
X177763714Y-106314602D01*
X177763714Y-106314602D02*
X177727428Y-106387174D01*
X177727428Y-106387174D02*
X177691143Y-106423460D01*
X177691143Y-106423460D02*
X177618571Y-106459745D01*
X177618571Y-106459745D02*
X177400857Y-106459745D01*
X177400857Y-106459745D02*
X177328285Y-106423460D01*
X177328285Y-106423460D02*
X177292000Y-106387174D01*
X157371142Y-114043460D02*
X157480000Y-114079745D01*
X157480000Y-114079745D02*
X157661428Y-114079745D01*
X157661428Y-114079745D02*
X157734000Y-114043460D01*
X157734000Y-114043460D02*
X157770285Y-114007174D01*
X157770285Y-114007174D02*
X157806571Y-113934602D01*
X157806571Y-113934602D02*
X157806571Y-113862031D01*
X157806571Y-113862031D02*
X157770285Y-113789460D01*
X157770285Y-113789460D02*
X157734000Y-113753174D01*
X157734000Y-113753174D02*
X157661428Y-113716888D01*
X157661428Y-113716888D02*
X157516285Y-113680602D01*
X157516285Y-113680602D02*
X157443714Y-113644317D01*
X157443714Y-113644317D02*
X157407428Y-113608031D01*
X157407428Y-113608031D02*
X157371142Y-113535460D01*
X157371142Y-113535460D02*
X157371142Y-113462888D01*
X157371142Y-113462888D02*
X157407428Y-113390317D01*
X157407428Y-113390317D02*
X157443714Y-113354031D01*
X157443714Y-113354031D02*
X157516285Y-113317745D01*
X157516285Y-113317745D02*
X157697714Y-113317745D01*
X157697714Y-113317745D02*
X157806571Y-113354031D01*
X158568571Y-114007174D02*
X158532285Y-114043460D01*
X158532285Y-114043460D02*
X158423428Y-114079745D01*
X158423428Y-114079745D02*
X158350856Y-114079745D01*
X158350856Y-114079745D02*
X158241999Y-114043460D01*
X158241999Y-114043460D02*
X158169428Y-113970888D01*
X158169428Y-113970888D02*
X158133142Y-113898317D01*
X158133142Y-113898317D02*
X158096856Y-113753174D01*
X158096856Y-113753174D02*
X158096856Y-113644317D01*
X158096856Y-113644317D02*
X158133142Y-113499174D01*
X158133142Y-113499174D02*
X158169428Y-113426602D01*
X158169428Y-113426602D02*
X158241999Y-113354031D01*
X158241999Y-113354031D02*
X158350856Y-113317745D01*
X158350856Y-113317745D02*
X158423428Y-113317745D01*
X158423428Y-113317745D02*
X158532285Y-113354031D01*
X158532285Y-113354031D02*
X158568571Y-113390317D01*
X158895142Y-114079745D02*
X158895142Y-113317745D01*
X159330571Y-114079745D02*
X159003999Y-113644317D01*
X159330571Y-113317745D02*
X158895142Y-113753174D01*
X157407428Y-106459745D02*
X157407428Y-105697745D01*
X157407428Y-105697745D02*
X157661428Y-106242031D01*
X157661428Y-106242031D02*
X157915428Y-105697745D01*
X157915428Y-105697745D02*
X157915428Y-106459745D01*
X158423428Y-105697745D02*
X158568571Y-105697745D01*
X158568571Y-105697745D02*
X158641142Y-105734031D01*
X158641142Y-105734031D02*
X158713714Y-105806602D01*
X158713714Y-105806602D02*
X158749999Y-105951745D01*
X158749999Y-105951745D02*
X158749999Y-106205745D01*
X158749999Y-106205745D02*
X158713714Y-106350888D01*
X158713714Y-106350888D02*
X158641142Y-106423460D01*
X158641142Y-106423460D02*
X158568571Y-106459745D01*
X158568571Y-106459745D02*
X158423428Y-106459745D01*
X158423428Y-106459745D02*
X158350857Y-106423460D01*
X158350857Y-106423460D02*
X158278285Y-106350888D01*
X158278285Y-106350888D02*
X158241999Y-106205745D01*
X158241999Y-106205745D02*
X158241999Y-105951745D01*
X158241999Y-105951745D02*
X158278285Y-105806602D01*
X158278285Y-105806602D02*
X158350857Y-105734031D01*
X158350857Y-105734031D02*
X158423428Y-105697745D01*
X159040285Y-106423460D02*
X159149143Y-106459745D01*
X159149143Y-106459745D02*
X159330571Y-106459745D01*
X159330571Y-106459745D02*
X159403143Y-106423460D01*
X159403143Y-106423460D02*
X159439428Y-106387174D01*
X159439428Y-106387174D02*
X159475714Y-106314602D01*
X159475714Y-106314602D02*
X159475714Y-106242031D01*
X159475714Y-106242031D02*
X159439428Y-106169460D01*
X159439428Y-106169460D02*
X159403143Y-106133174D01*
X159403143Y-106133174D02*
X159330571Y-106096888D01*
X159330571Y-106096888D02*
X159185428Y-106060602D01*
X159185428Y-106060602D02*
X159112857Y-106024317D01*
X159112857Y-106024317D02*
X159076571Y-105988031D01*
X159076571Y-105988031D02*
X159040285Y-105915460D01*
X159040285Y-105915460D02*
X159040285Y-105842888D01*
X159040285Y-105842888D02*
X159076571Y-105770317D01*
X159076571Y-105770317D02*
X159112857Y-105734031D01*
X159112857Y-105734031D02*
X159185428Y-105697745D01*
X159185428Y-105697745D02*
X159366857Y-105697745D01*
X159366857Y-105697745D02*
X159475714Y-105734031D01*
X159802285Y-106459745D02*
X159802285Y-105697745D01*
X175659142Y-119123460D02*
X175768000Y-119159745D01*
X175768000Y-119159745D02*
X175949428Y-119159745D01*
X175949428Y-119159745D02*
X176022000Y-119123460D01*
X176022000Y-119123460D02*
X176058285Y-119087174D01*
X176058285Y-119087174D02*
X176094571Y-119014602D01*
X176094571Y-119014602D02*
X176094571Y-118942031D01*
X176094571Y-118942031D02*
X176058285Y-118869460D01*
X176058285Y-118869460D02*
X176022000Y-118833174D01*
X176022000Y-118833174D02*
X175949428Y-118796888D01*
X175949428Y-118796888D02*
X175804285Y-118760602D01*
X175804285Y-118760602D02*
X175731714Y-118724317D01*
X175731714Y-118724317D02*
X175695428Y-118688031D01*
X175695428Y-118688031D02*
X175659142Y-118615460D01*
X175659142Y-118615460D02*
X175659142Y-118542888D01*
X175659142Y-118542888D02*
X175695428Y-118470317D01*
X175695428Y-118470317D02*
X175731714Y-118434031D01*
X175731714Y-118434031D02*
X175804285Y-118397745D01*
X175804285Y-118397745D02*
X175985714Y-118397745D01*
X175985714Y-118397745D02*
X176094571Y-118434031D01*
X176421142Y-119159745D02*
X176421142Y-118397745D01*
X176421142Y-118397745D02*
X176602571Y-118397745D01*
X176602571Y-118397745D02*
X176711428Y-118434031D01*
X176711428Y-118434031D02*
X176783999Y-118506602D01*
X176783999Y-118506602D02*
X176820285Y-118579174D01*
X176820285Y-118579174D02*
X176856571Y-118724317D01*
X176856571Y-118724317D02*
X176856571Y-118833174D01*
X176856571Y-118833174D02*
X176820285Y-118978317D01*
X176820285Y-118978317D02*
X176783999Y-119050888D01*
X176783999Y-119050888D02*
X176711428Y-119123460D01*
X176711428Y-119123460D02*
X176602571Y-119159745D01*
X176602571Y-119159745D02*
X176421142Y-119159745D01*
X177146856Y-118942031D02*
X177509714Y-118942031D01*
X177074285Y-119159745D02*
X177328285Y-118397745D01*
X177328285Y-118397745D02*
X177582285Y-119159745D01*
X175151142Y-124203460D02*
X175260000Y-124239745D01*
X175260000Y-124239745D02*
X175441428Y-124239745D01*
X175441428Y-124239745D02*
X175514000Y-124203460D01*
X175514000Y-124203460D02*
X175550285Y-124167174D01*
X175550285Y-124167174D02*
X175586571Y-124094602D01*
X175586571Y-124094602D02*
X175586571Y-124022031D01*
X175586571Y-124022031D02*
X175550285Y-123949460D01*
X175550285Y-123949460D02*
X175514000Y-123913174D01*
X175514000Y-123913174D02*
X175441428Y-123876888D01*
X175441428Y-123876888D02*
X175296285Y-123840602D01*
X175296285Y-123840602D02*
X175223714Y-123804317D01*
X175223714Y-123804317D02*
X175187428Y-123768031D01*
X175187428Y-123768031D02*
X175151142Y-123695460D01*
X175151142Y-123695460D02*
X175151142Y-123622888D01*
X175151142Y-123622888D02*
X175187428Y-123550317D01*
X175187428Y-123550317D02*
X175223714Y-123514031D01*
X175223714Y-123514031D02*
X175296285Y-123477745D01*
X175296285Y-123477745D02*
X175477714Y-123477745D01*
X175477714Y-123477745D02*
X175586571Y-123514031D01*
X175913142Y-124239745D02*
X175913142Y-123477745D01*
X175913142Y-123477745D02*
X176094571Y-123477745D01*
X176094571Y-123477745D02*
X176203428Y-123514031D01*
X176203428Y-123514031D02*
X176275999Y-123586602D01*
X176275999Y-123586602D02*
X176312285Y-123659174D01*
X176312285Y-123659174D02*
X176348571Y-123804317D01*
X176348571Y-123804317D02*
X176348571Y-123913174D01*
X176348571Y-123913174D02*
X176312285Y-124058317D01*
X176312285Y-124058317D02*
X176275999Y-124130888D01*
X176275999Y-124130888D02*
X176203428Y-124203460D01*
X176203428Y-124203460D02*
X176094571Y-124239745D01*
X176094571Y-124239745D02*
X175913142Y-124239745D01*
X176638856Y-124022031D02*
X177001714Y-124022031D01*
X176566285Y-124239745D02*
X176820285Y-123477745D01*
X176820285Y-123477745D02*
X177074285Y-124239745D01*
X177727428Y-124239745D02*
X177291999Y-124239745D01*
X177509714Y-124239745D02*
X177509714Y-123477745D01*
X177509714Y-123477745D02*
X177437142Y-123586602D01*
X177437142Y-123586602D02*
X177364571Y-123659174D01*
X177364571Y-123659174D02*
X177291999Y-123695460D01*
X175659142Y-116583460D02*
X175768000Y-116619745D01*
X175768000Y-116619745D02*
X175949428Y-116619745D01*
X175949428Y-116619745D02*
X176022000Y-116583460D01*
X176022000Y-116583460D02*
X176058285Y-116547174D01*
X176058285Y-116547174D02*
X176094571Y-116474602D01*
X176094571Y-116474602D02*
X176094571Y-116402031D01*
X176094571Y-116402031D02*
X176058285Y-116329460D01*
X176058285Y-116329460D02*
X176022000Y-116293174D01*
X176022000Y-116293174D02*
X175949428Y-116256888D01*
X175949428Y-116256888D02*
X175804285Y-116220602D01*
X175804285Y-116220602D02*
X175731714Y-116184317D01*
X175731714Y-116184317D02*
X175695428Y-116148031D01*
X175695428Y-116148031D02*
X175659142Y-116075460D01*
X175659142Y-116075460D02*
X175659142Y-116002888D01*
X175659142Y-116002888D02*
X175695428Y-115930317D01*
X175695428Y-115930317D02*
X175731714Y-115894031D01*
X175731714Y-115894031D02*
X175804285Y-115857745D01*
X175804285Y-115857745D02*
X175985714Y-115857745D01*
X175985714Y-115857745D02*
X176094571Y-115894031D01*
X176856571Y-116547174D02*
X176820285Y-116583460D01*
X176820285Y-116583460D02*
X176711428Y-116619745D01*
X176711428Y-116619745D02*
X176638856Y-116619745D01*
X176638856Y-116619745D02*
X176529999Y-116583460D01*
X176529999Y-116583460D02*
X176457428Y-116510888D01*
X176457428Y-116510888D02*
X176421142Y-116438317D01*
X176421142Y-116438317D02*
X176384856Y-116293174D01*
X176384856Y-116293174D02*
X176384856Y-116184317D01*
X176384856Y-116184317D02*
X176421142Y-116039174D01*
X176421142Y-116039174D02*
X176457428Y-115966602D01*
X176457428Y-115966602D02*
X176529999Y-115894031D01*
X176529999Y-115894031D02*
X176638856Y-115857745D01*
X176638856Y-115857745D02*
X176711428Y-115857745D01*
X176711428Y-115857745D02*
X176820285Y-115894031D01*
X176820285Y-115894031D02*
X176856571Y-115930317D01*
X177545999Y-116619745D02*
X177183142Y-116619745D01*
X177183142Y-116619745D02*
X177183142Y-115857745D01*
X157806571Y-101379745D02*
X157371142Y-101379745D01*
X157588857Y-101379745D02*
X157588857Y-100617745D01*
X157588857Y-100617745D02*
X157516285Y-100726602D01*
X157516285Y-100726602D02*
X157443714Y-100799174D01*
X157443714Y-100799174D02*
X157371142Y-100835460D01*
D12*
G36*
X172834664Y-123631136D02*
G01*
X172849089Y-123645562D01*
X172868408Y-123684198D01*
X172868408Y-123765645D01*
X172866032Y-123788568D01*
X172868408Y-123793269D01*
X172868408Y-123856748D01*
X172659765Y-123856748D01*
X172659765Y-123684197D01*
X172679081Y-123645564D01*
X172693509Y-123631136D01*
X172732144Y-123611819D01*
X172796029Y-123611819D01*
X172834664Y-123631136D01*
G37*
G36*
X172834664Y-122869136D02*
G01*
X172849089Y-122883562D01*
X172868408Y-122922198D01*
X172868408Y-123094748D01*
X172659765Y-123094748D01*
X172659765Y-122922197D01*
X172679081Y-122883564D01*
X172693509Y-122869136D01*
X172732144Y-122849819D01*
X172796029Y-122849819D01*
X172834664Y-122869136D01*
G37*
G36*
X173148125Y-121429296D02*
G01*
X173197521Y-121453994D01*
X173211948Y-121468421D01*
X173231265Y-121507054D01*
X173231265Y-121534655D01*
X173211947Y-121573290D01*
X173197522Y-121587716D01*
X173148126Y-121612414D01*
X173024503Y-121643320D01*
X172866528Y-121643320D01*
X172742903Y-121612414D01*
X172693509Y-121587716D01*
X172679082Y-121573290D01*
X172659765Y-121534655D01*
X172659765Y-121507055D01*
X172679082Y-121468420D01*
X172693508Y-121453995D01*
X172742905Y-121429296D01*
X172866528Y-121398391D01*
X173024503Y-121398391D01*
X173148125Y-121429296D01*
G37*
G36*
X173148125Y-119977868D02*
G01*
X173197521Y-120002566D01*
X173211948Y-120016993D01*
X173231265Y-120055626D01*
X173231265Y-120083227D01*
X173211947Y-120121862D01*
X173197522Y-120136288D01*
X173148126Y-120160986D01*
X173024503Y-120191892D01*
X172866528Y-120191892D01*
X172742903Y-120160986D01*
X172693509Y-120136288D01*
X172679082Y-120121862D01*
X172659765Y-120083227D01*
X172659765Y-120055627D01*
X172679082Y-120016992D01*
X172693508Y-120002567D01*
X172742905Y-119977868D01*
X172866528Y-119946963D01*
X173024503Y-119946963D01*
X173148125Y-119977868D01*
G37*
G36*
X173111841Y-118635297D02*
G01*
X173161235Y-118659995D01*
X173206978Y-118705738D01*
X173231265Y-118778598D01*
X173231265Y-118849321D01*
X172659765Y-118849321D01*
X172659765Y-118778599D01*
X172684052Y-118705737D01*
X172729794Y-118659995D01*
X172779189Y-118635298D01*
X172902814Y-118604392D01*
X172988217Y-118604392D01*
X173111841Y-118635297D01*
G37*
G36*
X172798377Y-115974851D02*
G01*
X172812805Y-115989279D01*
X172831306Y-116026281D01*
X172831174Y-116029935D01*
X172832122Y-116031534D01*
X172832122Y-116164178D01*
X172659765Y-116164178D01*
X172659765Y-116027913D01*
X172679081Y-115989280D01*
X172693509Y-115974852D01*
X172732144Y-115955535D01*
X172759745Y-115955535D01*
X172798377Y-115974851D01*
G37*
G36*
X173197521Y-115938566D02*
G01*
X173211948Y-115952993D01*
X173231265Y-115991626D01*
X173231265Y-116164178D01*
X173022622Y-116164178D01*
X173022622Y-116020885D01*
X173046909Y-115948023D01*
X173056366Y-115938566D01*
X173095001Y-115919249D01*
X173158886Y-115919249D01*
X173197521Y-115938566D01*
G37*
G36*
X173168961Y-115148006D02*
G01*
X173211948Y-115190993D01*
X173231265Y-115229626D01*
X173231265Y-115329799D01*
X173211947Y-115368434D01*
X173168961Y-115411420D01*
X173060788Y-115438464D01*
X172830242Y-115438464D01*
X172722068Y-115411420D01*
X172679082Y-115368435D01*
X172659765Y-115329799D01*
X172659765Y-115229627D01*
X172679082Y-115190993D01*
X172722069Y-115148006D01*
X172830240Y-115120964D01*
X173060790Y-115120964D01*
X173168961Y-115148006D01*
G37*
G36*
X173013551Y-114603275D02*
G01*
X172865722Y-114553998D01*
X173013551Y-114504722D01*
X173013551Y-114603275D01*
G37*
G36*
X172834664Y-113725137D02*
G01*
X172849089Y-113739563D01*
X172868408Y-113778199D01*
X172868408Y-113859646D01*
X172866032Y-113882569D01*
X172868408Y-113887270D01*
X172868408Y-113950749D01*
X172659765Y-113950749D01*
X172659765Y-113778198D01*
X172679081Y-113739565D01*
X172693509Y-113725137D01*
X172732144Y-113705820D01*
X172796029Y-113705820D01*
X172834664Y-113725137D01*
G37*
G36*
X173111841Y-112974725D02*
G01*
X173161235Y-112999423D01*
X173206978Y-113045166D01*
X173231265Y-113118026D01*
X173231265Y-113188749D01*
X172659765Y-113188749D01*
X172659765Y-113118027D01*
X172684052Y-113045165D01*
X172729794Y-112999423D01*
X172779189Y-112974726D01*
X172902814Y-112943820D01*
X172988217Y-112943820D01*
X173111841Y-112974725D01*
G37*
G36*
X173987732Y-124689959D02*
G01*
X171960268Y-124689959D01*
X171960268Y-123672368D01*
X172465818Y-123672368D01*
X172469265Y-123680679D01*
X172469265Y-123945185D01*
X172466254Y-123966126D01*
X172475043Y-123985372D01*
X172481003Y-124005668D01*
X172486479Y-124010413D01*
X172489491Y-124017007D01*
X172507288Y-124028444D01*
X172523276Y-124042298D01*
X172530449Y-124043329D01*
X172536547Y-124047248D01*
X172557702Y-124047248D01*
X172578643Y-124050259D01*
X172585236Y-124047248D01*
X172956845Y-124047248D01*
X172977786Y-124050259D01*
X172984379Y-124047248D01*
X173340209Y-124047248D01*
X173380185Y-124035510D01*
X173416815Y-123993237D01*
X173424776Y-123937870D01*
X173401539Y-123886989D01*
X173354483Y-123856748D01*
X173058908Y-123856748D01*
X173058908Y-123820160D01*
X173392355Y-123586748D01*
X173418374Y-123554207D01*
X173424140Y-123498570D01*
X173398911Y-123448646D01*
X173350696Y-123420288D01*
X173294805Y-123422499D01*
X173039796Y-123601004D01*
X173017907Y-123557224D01*
X173014501Y-123541566D01*
X172995935Y-123522999D01*
X172978065Y-123503789D01*
X172976264Y-123503328D01*
X172966882Y-123493947D01*
X172958699Y-123480168D01*
X172935213Y-123468425D01*
X172912190Y-123455853D01*
X172910333Y-123455985D01*
X172865699Y-123433668D01*
X172846483Y-123421319D01*
X172827014Y-123421319D01*
X172807859Y-123417872D01*
X172799547Y-123421319D01*
X172714788Y-123421319D01*
X172692076Y-123418867D01*
X172674663Y-123427573D01*
X172655988Y-123433057D01*
X172650095Y-123439857D01*
X172605169Y-123462320D01*
X172589511Y-123465727D01*
X172570949Y-123484288D01*
X172551735Y-123502162D01*
X172551274Y-123503963D01*
X172541893Y-123513344D01*
X172528115Y-123521528D01*
X172516373Y-123545010D01*
X172503799Y-123568040D01*
X172503931Y-123569894D01*
X172481615Y-123614526D01*
X172469265Y-123633744D01*
X172469265Y-123653213D01*
X172465818Y-123672368D01*
X171960268Y-123672368D01*
X171960268Y-122910368D01*
X172465818Y-122910368D01*
X172469265Y-122918679D01*
X172469265Y-123183185D01*
X172466254Y-123204126D01*
X172475043Y-123223372D01*
X172481003Y-123243668D01*
X172486479Y-123248413D01*
X172489491Y-123255007D01*
X172507288Y-123266444D01*
X172523276Y-123280298D01*
X172530449Y-123281329D01*
X172536547Y-123285248D01*
X172557702Y-123285248D01*
X172578643Y-123288259D01*
X172585236Y-123285248D01*
X172956845Y-123285248D01*
X172977786Y-123288259D01*
X172984379Y-123285248D01*
X173340209Y-123285248D01*
X173380185Y-123273510D01*
X173416815Y-123231237D01*
X173424776Y-123175870D01*
X173401539Y-123124989D01*
X173354483Y-123094748D01*
X173058908Y-123094748D01*
X173058908Y-122904841D01*
X173061360Y-122882130D01*
X173052653Y-122864717D01*
X173047170Y-122846042D01*
X173040369Y-122840149D01*
X173017907Y-122795224D01*
X173014501Y-122779566D01*
X172995935Y-122760999D01*
X172978065Y-122741789D01*
X172976264Y-122741328D01*
X172966882Y-122731947D01*
X172958699Y-122718168D01*
X172935213Y-122706425D01*
X172912190Y-122693853D01*
X172910333Y-122693985D01*
X172865699Y-122671668D01*
X172846483Y-122659319D01*
X172827014Y-122659319D01*
X172807859Y-122655872D01*
X172799547Y-122659319D01*
X172714788Y-122659319D01*
X172692076Y-122656867D01*
X172674663Y-122665573D01*
X172655988Y-122671057D01*
X172650095Y-122677857D01*
X172605169Y-122700320D01*
X172589511Y-122703727D01*
X172570949Y-122722288D01*
X172551735Y-122740162D01*
X172551274Y-122741963D01*
X172541893Y-122751344D01*
X172528115Y-122759528D01*
X172516373Y-122783010D01*
X172503799Y-122806040D01*
X172503931Y-122807894D01*
X172481615Y-122852526D01*
X172469265Y-122871744D01*
X172469265Y-122891213D01*
X172465818Y-122910368D01*
X171960268Y-122910368D01*
X171960268Y-122184654D01*
X172465818Y-122184654D01*
X172469265Y-122192965D01*
X172469265Y-122350297D01*
X172466813Y-122373009D01*
X172475519Y-122390421D01*
X172481003Y-122409097D01*
X172487803Y-122414989D01*
X172510266Y-122459915D01*
X172513673Y-122475574D01*
X172532234Y-122494135D01*
X172550108Y-122513350D01*
X172551909Y-122513810D01*
X172579418Y-122541319D01*
X172615985Y-122561286D01*
X172671778Y-122557296D01*
X172716558Y-122523775D01*
X172736105Y-122471366D01*
X172724215Y-122416708D01*
X172679082Y-122371575D01*
X172659765Y-122332940D01*
X172659765Y-122196483D01*
X172679081Y-122157850D01*
X172693509Y-122143422D01*
X172732144Y-122124105D01*
X172766772Y-122124105D01*
X172839634Y-122148392D01*
X173241972Y-122550730D01*
X173243003Y-122554239D01*
X173261566Y-122570324D01*
X173268846Y-122577604D01*
X173271878Y-122579259D01*
X173285276Y-122590869D01*
X173295949Y-122592403D01*
X173305413Y-122597571D01*
X173323093Y-122596306D01*
X173340643Y-122598830D01*
X173350452Y-122594350D01*
X173361206Y-122593581D01*
X173375396Y-122582958D01*
X173391524Y-122575593D01*
X173397353Y-122566521D01*
X173405986Y-122560060D01*
X173412181Y-122543449D01*
X173421765Y-122528537D01*
X173421765Y-122517753D01*
X173425533Y-122507651D01*
X173421765Y-122490329D01*
X173421765Y-122015161D01*
X173410027Y-121975185D01*
X173367754Y-121938555D01*
X173312387Y-121930594D01*
X173261506Y-121953831D01*
X173231265Y-122000887D01*
X173231265Y-122270614D01*
X172962061Y-122001411D01*
X172947740Y-121983623D01*
X172929270Y-121977466D01*
X172912188Y-121968139D01*
X172903213Y-121968780D01*
X172823681Y-121942270D01*
X172810198Y-121933605D01*
X172783933Y-121933605D01*
X172757723Y-121932657D01*
X172756124Y-121933605D01*
X172714788Y-121933605D01*
X172692076Y-121931153D01*
X172674663Y-121939859D01*
X172655988Y-121945343D01*
X172650095Y-121952143D01*
X172605169Y-121974606D01*
X172589511Y-121978013D01*
X172570949Y-121996574D01*
X172551735Y-122014448D01*
X172551274Y-122016249D01*
X172541893Y-122025630D01*
X172528115Y-122033814D01*
X172516373Y-122057296D01*
X172503799Y-122080326D01*
X172503931Y-122082180D01*
X172481615Y-122126812D01*
X172469265Y-122146030D01*
X172469265Y-122165499D01*
X172465818Y-122184654D01*
X171960268Y-122184654D01*
X171960268Y-121495226D01*
X172465818Y-121495226D01*
X172469265Y-121503537D01*
X172469265Y-121552010D01*
X172466813Y-121574723D01*
X172475519Y-121592135D01*
X172481003Y-121610811D01*
X172487803Y-121616703D01*
X172510265Y-121661628D01*
X172513673Y-121677290D01*
X172532248Y-121695864D01*
X172550108Y-121715065D01*
X172551909Y-121715525D01*
X172561290Y-121724906D01*
X172569474Y-121738684D01*
X172592954Y-121750424D01*
X172615987Y-121763000D01*
X172617840Y-121762867D01*
X172651884Y-121779889D01*
X172659423Y-121787907D01*
X172676414Y-121792154D01*
X172679309Y-121793602D01*
X172689638Y-121795460D01*
X172816491Y-121827173D01*
X172826833Y-121833820D01*
X172843076Y-121833820D01*
X172844984Y-121834297D01*
X172856720Y-121833820D01*
X173020555Y-121833820D01*
X173032199Y-121837759D01*
X173047955Y-121833820D01*
X173049924Y-121833820D01*
X173061207Y-121830506D01*
X173188014Y-121798805D01*
X173198954Y-121799986D01*
X173214616Y-121792154D01*
X173217759Y-121791369D01*
X173226817Y-121786054D01*
X173285858Y-121756533D01*
X173301518Y-121753127D01*
X173320083Y-121734562D01*
X173339296Y-121716691D01*
X173339756Y-121714889D01*
X173349136Y-121705509D01*
X173362917Y-121697325D01*
X173374657Y-121673844D01*
X173387232Y-121650816D01*
X173387099Y-121648959D01*
X173409416Y-121604324D01*
X173421765Y-121585109D01*
X173421765Y-121565640D01*
X173425212Y-121546483D01*
X173421765Y-121538172D01*
X173421765Y-121489697D01*
X173424217Y-121466990D01*
X173415511Y-121449577D01*
X173410027Y-121430900D01*
X173403226Y-121425007D01*
X173380763Y-121380079D01*
X173377357Y-121364421D01*
X173358801Y-121345865D01*
X173340924Y-121326647D01*
X173339121Y-121326186D01*
X173329739Y-121316803D01*
X173321556Y-121303026D01*
X173298077Y-121291287D01*
X173275044Y-121278710D01*
X173273188Y-121278842D01*
X173239144Y-121261820D01*
X173231607Y-121253804D01*
X173214615Y-121249556D01*
X173211721Y-121248109D01*
X173201392Y-121246250D01*
X173074539Y-121214537D01*
X173064198Y-121207891D01*
X173047955Y-121207891D01*
X173046047Y-121207414D01*
X173034304Y-121207891D01*
X172870476Y-121207891D01*
X172858832Y-121203952D01*
X172843076Y-121207891D01*
X172841107Y-121207891D01*
X172829824Y-121211203D01*
X172703015Y-121242906D01*
X172692076Y-121241725D01*
X172676413Y-121249556D01*
X172673271Y-121250342D01*
X172664209Y-121255658D01*
X172605170Y-121285177D01*
X172589512Y-121288584D01*
X172570945Y-121307149D01*
X172551735Y-121325020D01*
X172551274Y-121326820D01*
X172541893Y-121336202D01*
X172528114Y-121344386D01*
X172516371Y-121367871D01*
X172503799Y-121390895D01*
X172503931Y-121392751D01*
X172481614Y-121437385D01*
X172469265Y-121456602D01*
X172469265Y-121476071D01*
X172465818Y-121495226D01*
X171960268Y-121495226D01*
X171960268Y-120813757D01*
X172430544Y-120813757D01*
X172436498Y-120869375D01*
X172471576Y-120912945D01*
X173024440Y-121097233D01*
X173031276Y-121103156D01*
X173050502Y-121105920D01*
X173055385Y-121107548D01*
X173063984Y-121107859D01*
X173086643Y-121111117D01*
X173091590Y-121108857D01*
X173097022Y-121109054D01*
X173116703Y-121097388D01*
X173137524Y-121087880D01*
X173140463Y-121083305D01*
X173145140Y-121080534D01*
X173155391Y-121060077D01*
X173167765Y-121040824D01*
X173167765Y-121035386D01*
X173170201Y-121030526D01*
X173167765Y-121007770D01*
X173167765Y-120745249D01*
X173340209Y-120745249D01*
X173380185Y-120733511D01*
X173416815Y-120691238D01*
X173424776Y-120635871D01*
X173401539Y-120584990D01*
X173354483Y-120554749D01*
X173167765Y-120554749D01*
X173167765Y-120527447D01*
X173156027Y-120487471D01*
X173113754Y-120450841D01*
X173058387Y-120442880D01*
X173007506Y-120466117D01*
X172977265Y-120513173D01*
X172977265Y-120554749D01*
X172804821Y-120554749D01*
X172764845Y-120566487D01*
X172728215Y-120608760D01*
X172720254Y-120664127D01*
X172743491Y-120715008D01*
X172790547Y-120745249D01*
X172977265Y-120745249D01*
X172977265Y-120880703D01*
X172545360Y-120736735D01*
X172503723Y-120735229D01*
X172455605Y-120763749D01*
X172430544Y-120813757D01*
X171960268Y-120813757D01*
X171960268Y-120043798D01*
X172465818Y-120043798D01*
X172469265Y-120052109D01*
X172469265Y-120100582D01*
X172466813Y-120123295D01*
X172475519Y-120140707D01*
X172481003Y-120159383D01*
X172487803Y-120165275D01*
X172510265Y-120210200D01*
X172513673Y-120225862D01*
X172532248Y-120244436D01*
X172550108Y-120263637D01*
X172551909Y-120264097D01*
X172561290Y-120273478D01*
X172569474Y-120287256D01*
X172592954Y-120298996D01*
X172615987Y-120311572D01*
X172617840Y-120311439D01*
X172651884Y-120328461D01*
X172659423Y-120336479D01*
X172676414Y-120340726D01*
X172679309Y-120342174D01*
X172689638Y-120344032D01*
X172816491Y-120375745D01*
X172826833Y-120382392D01*
X172843076Y-120382392D01*
X172844984Y-120382869D01*
X172856720Y-120382392D01*
X173020555Y-120382392D01*
X173032199Y-120386331D01*
X173047955Y-120382392D01*
X173049924Y-120382392D01*
X173061207Y-120379078D01*
X173188014Y-120347377D01*
X173198954Y-120348558D01*
X173214616Y-120340726D01*
X173217759Y-120339941D01*
X173226817Y-120334626D01*
X173285858Y-120305105D01*
X173301518Y-120301699D01*
X173320083Y-120283134D01*
X173339296Y-120265263D01*
X173339756Y-120263461D01*
X173349136Y-120254081D01*
X173362917Y-120245897D01*
X173374657Y-120222416D01*
X173387232Y-120199388D01*
X173387099Y-120197531D01*
X173409416Y-120152896D01*
X173421765Y-120133681D01*
X173421765Y-120114212D01*
X173425212Y-120095055D01*
X173421765Y-120086744D01*
X173421765Y-120038269D01*
X173424217Y-120015562D01*
X173415511Y-119998149D01*
X173410027Y-119979472D01*
X173403226Y-119973579D01*
X173380763Y-119928651D01*
X173377357Y-119912993D01*
X173358801Y-119894437D01*
X173340924Y-119875219D01*
X173339121Y-119874758D01*
X173329739Y-119865375D01*
X173321556Y-119851598D01*
X173298077Y-119839859D01*
X173275044Y-119827282D01*
X173273188Y-119827414D01*
X173239144Y-119810392D01*
X173231607Y-119802376D01*
X173214615Y-119798128D01*
X173211721Y-119796681D01*
X173201392Y-119794822D01*
X173074539Y-119763109D01*
X173064198Y-119756463D01*
X173047955Y-119756463D01*
X173046047Y-119755986D01*
X173034304Y-119756463D01*
X172870476Y-119756463D01*
X172858832Y-119752524D01*
X172843076Y-119756463D01*
X172841107Y-119756463D01*
X172829824Y-119759775D01*
X172703015Y-119791478D01*
X172692076Y-119790297D01*
X172676413Y-119798128D01*
X172673271Y-119798914D01*
X172664209Y-119804230D01*
X172605170Y-119833749D01*
X172589512Y-119837156D01*
X172570945Y-119855721D01*
X172551735Y-119873592D01*
X172551274Y-119875392D01*
X172541893Y-119884774D01*
X172528114Y-119892958D01*
X172516371Y-119916443D01*
X172503799Y-119939467D01*
X172503931Y-119941323D01*
X172481614Y-119985957D01*
X172469265Y-120005174D01*
X172469265Y-120024643D01*
X172465818Y-120043798D01*
X171960268Y-120043798D01*
X171960268Y-118958699D01*
X172466254Y-118958699D01*
X172475043Y-118977945D01*
X172481003Y-118998241D01*
X172486479Y-119002986D01*
X172489491Y-119009580D01*
X172507288Y-119021017D01*
X172523276Y-119034871D01*
X172530449Y-119035902D01*
X172536547Y-119039821D01*
X172557702Y-119039821D01*
X172578643Y-119042832D01*
X172585236Y-119039821D01*
X173319702Y-119039821D01*
X173340643Y-119042832D01*
X173359889Y-119034042D01*
X173380185Y-119028083D01*
X173384930Y-119022606D01*
X173391524Y-119019595D01*
X173402961Y-119001797D01*
X173416815Y-118985810D01*
X173417846Y-118978636D01*
X173421765Y-118972539D01*
X173421765Y-118951383D01*
X173424776Y-118930443D01*
X173421765Y-118923849D01*
X173421765Y-118775082D01*
X173425721Y-118759554D01*
X173417420Y-118734652D01*
X173410027Y-118709472D01*
X173408621Y-118708253D01*
X173382214Y-118629031D01*
X173377358Y-118606709D01*
X173363592Y-118592943D01*
X173352485Y-118576961D01*
X173344169Y-118573520D01*
X173293455Y-118522807D01*
X173285271Y-118509028D01*
X173261780Y-118497282D01*
X173238759Y-118484712D01*
X173236904Y-118484844D01*
X173202860Y-118467822D01*
X173195322Y-118459805D01*
X173178330Y-118455557D01*
X173175436Y-118454110D01*
X173165106Y-118452251D01*
X173038253Y-118420538D01*
X173027912Y-118413892D01*
X173011669Y-118413892D01*
X173009761Y-118413415D01*
X172998025Y-118413892D01*
X172906762Y-118413892D01*
X172895118Y-118409953D01*
X172879362Y-118413892D01*
X172877393Y-118413892D01*
X172866110Y-118417204D01*
X172739301Y-118448906D01*
X172728362Y-118447726D01*
X172712699Y-118455557D01*
X172709557Y-118456343D01*
X172700495Y-118461659D01*
X172641455Y-118491179D01*
X172625797Y-118494586D01*
X172607238Y-118513144D01*
X172588020Y-118531021D01*
X172587559Y-118532823D01*
X172537071Y-118583310D01*
X172519283Y-118597632D01*
X172513126Y-118616101D01*
X172503799Y-118633184D01*
X172504440Y-118642158D01*
X172477930Y-118721690D01*
X172469265Y-118735174D01*
X172469265Y-118761439D01*
X172468317Y-118787649D01*
X172469265Y-118789248D01*
X172469265Y-118937758D01*
X172466254Y-118958699D01*
X171960268Y-118958699D01*
X171960268Y-118196699D01*
X172466254Y-118196699D01*
X172475043Y-118215945D01*
X172481003Y-118236241D01*
X172486479Y-118240986D01*
X172489491Y-118247580D01*
X172507288Y-118259017D01*
X172523276Y-118272871D01*
X172530449Y-118273902D01*
X172536547Y-118277821D01*
X172557702Y-118277821D01*
X172578643Y-118280832D01*
X172585236Y-118277821D01*
X172920559Y-118277821D01*
X172941500Y-118280832D01*
X172948093Y-118277821D01*
X173319702Y-118277821D01*
X173340643Y-118280832D01*
X173359889Y-118272042D01*
X173380185Y-118266083D01*
X173384930Y-118260606D01*
X173391524Y-118257595D01*
X173402961Y-118239797D01*
X173416815Y-118223810D01*
X173417846Y-118216636D01*
X173421765Y-118210539D01*
X173421765Y-118189383D01*
X173424776Y-118168443D01*
X173421765Y-118161849D01*
X173421765Y-117806020D01*
X173410027Y-117766044D01*
X173367754Y-117729414D01*
X173312387Y-117721453D01*
X173261506Y-117744690D01*
X173231265Y-117791746D01*
X173231265Y-118087321D01*
X173022622Y-118087321D01*
X173022622Y-117914877D01*
X173010884Y-117874901D01*
X172968611Y-117838271D01*
X172913244Y-117830310D01*
X172862363Y-117853547D01*
X172832122Y-117900603D01*
X172832122Y-118087321D01*
X172659765Y-118087321D01*
X172659765Y-117806020D01*
X172648027Y-117766044D01*
X172605754Y-117729414D01*
X172550387Y-117721453D01*
X172499506Y-117744690D01*
X172469265Y-117791746D01*
X172469265Y-118175758D01*
X172466254Y-118196699D01*
X171960268Y-118196699D01*
X171960268Y-117591432D01*
X172465808Y-117591432D01*
X172475764Y-117646475D01*
X172513899Y-117687397D01*
X172568103Y-117701205D01*
X173340290Y-117443809D01*
X173351022Y-117444198D01*
X173366309Y-117435136D01*
X173369627Y-117434031D01*
X173378040Y-117428183D01*
X173399141Y-117415677D01*
X173400800Y-117412365D01*
X173403840Y-117410253D01*
X173413209Y-117387604D01*
X173424202Y-117365669D01*
X173423807Y-117361985D01*
X173425222Y-117358566D01*
X173420858Y-117334442D01*
X173418247Y-117310051D01*
X173415925Y-117307167D01*
X173415266Y-117303523D01*
X173398545Y-117285580D01*
X173383169Y-117266481D01*
X173379656Y-117265310D01*
X173377132Y-117262601D01*
X173353367Y-117256547D01*
X172581644Y-116999306D01*
X172540008Y-116997801D01*
X172491890Y-117026321D01*
X172466829Y-117076329D01*
X172472783Y-117131947D01*
X172507862Y-117175517D01*
X173025308Y-117347999D01*
X172521403Y-117515967D01*
X172487190Y-117539745D01*
X172465808Y-117591432D01*
X171960268Y-117591432D01*
X171960268Y-116016084D01*
X172465818Y-116016084D01*
X172469265Y-116024395D01*
X172469265Y-116252615D01*
X172466254Y-116273556D01*
X172475043Y-116292802D01*
X172481003Y-116313098D01*
X172486479Y-116317843D01*
X172489491Y-116324437D01*
X172507288Y-116335874D01*
X172523276Y-116349728D01*
X172530449Y-116350759D01*
X172536547Y-116354678D01*
X172557702Y-116354678D01*
X172578643Y-116357689D01*
X172585236Y-116354678D01*
X172920559Y-116354678D01*
X172941500Y-116357689D01*
X172948093Y-116354678D01*
X173319702Y-116354678D01*
X173340643Y-116357689D01*
X173359889Y-116348899D01*
X173380185Y-116342940D01*
X173384930Y-116337463D01*
X173391524Y-116334452D01*
X173402961Y-116316654D01*
X173416815Y-116300667D01*
X173417846Y-116293493D01*
X173421765Y-116287396D01*
X173421765Y-116266240D01*
X173424776Y-116245300D01*
X173421765Y-116238706D01*
X173421765Y-115974272D01*
X173424217Y-115951561D01*
X173415511Y-115934148D01*
X173410027Y-115915472D01*
X173403226Y-115909579D01*
X173380764Y-115864655D01*
X173377358Y-115848995D01*
X173358788Y-115830425D01*
X173340924Y-115811220D01*
X173339122Y-115810759D01*
X173329739Y-115801376D01*
X173321556Y-115787598D01*
X173298067Y-115775854D01*
X173275045Y-115763283D01*
X173273190Y-115763415D01*
X173228556Y-115741098D01*
X173209340Y-115728749D01*
X173189871Y-115728749D01*
X173170716Y-115725302D01*
X173162404Y-115728749D01*
X173077645Y-115728749D01*
X173054933Y-115726297D01*
X173037520Y-115735003D01*
X173018845Y-115740487D01*
X173012952Y-115747287D01*
X172968026Y-115769750D01*
X172952368Y-115773157D01*
X172933806Y-115791718D01*
X172914592Y-115809592D01*
X172914131Y-115811393D01*
X172908564Y-115816960D01*
X172898931Y-115812143D01*
X172875902Y-115799569D01*
X172874047Y-115799701D01*
X172829415Y-115777385D01*
X172810198Y-115765035D01*
X172790729Y-115765035D01*
X172771574Y-115761588D01*
X172763262Y-115765035D01*
X172714788Y-115765035D01*
X172692076Y-115762583D01*
X172674663Y-115771289D01*
X172655988Y-115776773D01*
X172650095Y-115783573D01*
X172605169Y-115806036D01*
X172589511Y-115809443D01*
X172570949Y-115828004D01*
X172551735Y-115845878D01*
X172551274Y-115847679D01*
X172541893Y-115857060D01*
X172528115Y-115865244D01*
X172516373Y-115888726D01*
X172503799Y-115911756D01*
X172503931Y-115913610D01*
X172481615Y-115958242D01*
X172469265Y-115977460D01*
X172469265Y-115996929D01*
X172465818Y-116016084D01*
X171960268Y-116016084D01*
X171960268Y-115217798D01*
X172465818Y-115217798D01*
X172469265Y-115226109D01*
X172469265Y-115347154D01*
X172466813Y-115369867D01*
X172475519Y-115387279D01*
X172481003Y-115405955D01*
X172487803Y-115411847D01*
X172510266Y-115456773D01*
X172513673Y-115472433D01*
X172532242Y-115491002D01*
X172550108Y-115510209D01*
X172551909Y-115510669D01*
X172604978Y-115563738D01*
X172623137Y-115583051D01*
X172638435Y-115586875D01*
X172652271Y-115594430D01*
X172665009Y-115593519D01*
X172780205Y-115622317D01*
X172790547Y-115628964D01*
X172806790Y-115628964D01*
X172808698Y-115629441D01*
X172820434Y-115628964D01*
X173056840Y-115628964D01*
X173068484Y-115632903D01*
X173084240Y-115628964D01*
X173086209Y-115628964D01*
X173097491Y-115625651D01*
X173239339Y-115590189D01*
X173265233Y-115584557D01*
X173276382Y-115573407D01*
X173289980Y-115565430D01*
X173295753Y-115554036D01*
X173349137Y-115500653D01*
X173362917Y-115492469D01*
X173374656Y-115468990D01*
X173387232Y-115445959D01*
X173387099Y-115444103D01*
X173409416Y-115399468D01*
X173421765Y-115380253D01*
X173421765Y-115360784D01*
X173425212Y-115341627D01*
X173421765Y-115333316D01*
X173421765Y-115212272D01*
X173424217Y-115189561D01*
X173415511Y-115172148D01*
X173410027Y-115153472D01*
X173403226Y-115147579D01*
X173380764Y-115102655D01*
X173377358Y-115086995D01*
X173358788Y-115068425D01*
X173340924Y-115049220D01*
X173339122Y-115048759D01*
X173286042Y-114995679D01*
X173267892Y-114976376D01*
X173252595Y-114972551D01*
X173238759Y-114964997D01*
X173226019Y-114965908D01*
X173110824Y-114937110D01*
X173100483Y-114930464D01*
X173084239Y-114930464D01*
X173082331Y-114929987D01*
X173070595Y-114930464D01*
X172834191Y-114930464D01*
X172822547Y-114926525D01*
X172806791Y-114930464D01*
X172804821Y-114930464D01*
X172793536Y-114933777D01*
X172651705Y-114969234D01*
X172625796Y-114974871D01*
X172614647Y-114986019D01*
X172601050Y-114993997D01*
X172595275Y-115005391D01*
X172541894Y-115058773D01*
X172528115Y-115066958D01*
X172516369Y-115090448D01*
X172503799Y-115113470D01*
X172503931Y-115115324D01*
X172481615Y-115159956D01*
X172469265Y-115179174D01*
X172469265Y-115198643D01*
X172465818Y-115217798D01*
X171960268Y-115217798D01*
X171960268Y-114543432D01*
X172465808Y-114543432D01*
X172470172Y-114567561D01*
X172472783Y-114591947D01*
X172475104Y-114594830D01*
X172475764Y-114598475D01*
X172492485Y-114616418D01*
X172507862Y-114635517D01*
X172511374Y-114636687D01*
X172513899Y-114639397D01*
X172537662Y-114645450D01*
X173060727Y-114819805D01*
X173067562Y-114825728D01*
X173086787Y-114828492D01*
X173309386Y-114902692D01*
X173351022Y-114904198D01*
X173399141Y-114875677D01*
X173424202Y-114825669D01*
X173418247Y-114770051D01*
X173383169Y-114726481D01*
X173204051Y-114666775D01*
X173204051Y-114441222D01*
X173369627Y-114386031D01*
X173403840Y-114362253D01*
X173425222Y-114310566D01*
X173415266Y-114255523D01*
X173377132Y-114214601D01*
X173322928Y-114200793D01*
X173100054Y-114275083D01*
X173094673Y-114274310D01*
X173073858Y-114283815D01*
X172550737Y-114458188D01*
X172540008Y-114457801D01*
X172524723Y-114466860D01*
X172521403Y-114467967D01*
X172512982Y-114473819D01*
X172491890Y-114486321D01*
X172490230Y-114489631D01*
X172487190Y-114491745D01*
X172477815Y-114514405D01*
X172466829Y-114536329D01*
X172467223Y-114540011D01*
X172465808Y-114543432D01*
X171960268Y-114543432D01*
X171960268Y-113766369D01*
X172465818Y-113766369D01*
X172469265Y-113774680D01*
X172469265Y-114039186D01*
X172466254Y-114060127D01*
X172475043Y-114079373D01*
X172481003Y-114099669D01*
X172486479Y-114104414D01*
X172489491Y-114111008D01*
X172507288Y-114122445D01*
X172523276Y-114136299D01*
X172530449Y-114137330D01*
X172536547Y-114141249D01*
X172557702Y-114141249D01*
X172578643Y-114144260D01*
X172585236Y-114141249D01*
X172956845Y-114141249D01*
X172977786Y-114144260D01*
X172984379Y-114141249D01*
X173340209Y-114141249D01*
X173380185Y-114129511D01*
X173416815Y-114087238D01*
X173424776Y-114031871D01*
X173401539Y-113980990D01*
X173354483Y-113950749D01*
X173058908Y-113950749D01*
X173058908Y-113914161D01*
X173392355Y-113680749D01*
X173418374Y-113648208D01*
X173424140Y-113592571D01*
X173398911Y-113542647D01*
X173350696Y-113514289D01*
X173294805Y-113516500D01*
X173039796Y-113695005D01*
X173017907Y-113651225D01*
X173014501Y-113635567D01*
X172995935Y-113617000D01*
X172978065Y-113597790D01*
X172976264Y-113597329D01*
X172966882Y-113587948D01*
X172958699Y-113574169D01*
X172935213Y-113562426D01*
X172912190Y-113549854D01*
X172910333Y-113549986D01*
X172865699Y-113527669D01*
X172846483Y-113515320D01*
X172827014Y-113515320D01*
X172807859Y-113511873D01*
X172799547Y-113515320D01*
X172714788Y-113515320D01*
X172692076Y-113512868D01*
X172674663Y-113521574D01*
X172655988Y-113527058D01*
X172650095Y-113533858D01*
X172605169Y-113556321D01*
X172589511Y-113559728D01*
X172570949Y-113578289D01*
X172551735Y-113596163D01*
X172551274Y-113597964D01*
X172541893Y-113607345D01*
X172528115Y-113615529D01*
X172516373Y-113639011D01*
X172503799Y-113662041D01*
X172503931Y-113663895D01*
X172481615Y-113708527D01*
X172469265Y-113727745D01*
X172469265Y-113747214D01*
X172465818Y-113766369D01*
X171960268Y-113766369D01*
X171960268Y-113298127D01*
X172466254Y-113298127D01*
X172475043Y-113317373D01*
X172481003Y-113337669D01*
X172486479Y-113342414D01*
X172489491Y-113349008D01*
X172507288Y-113360445D01*
X172523276Y-113374299D01*
X172530449Y-113375330D01*
X172536547Y-113379249D01*
X172557702Y-113379249D01*
X172578643Y-113382260D01*
X172585236Y-113379249D01*
X173319702Y-113379249D01*
X173340643Y-113382260D01*
X173359889Y-113373470D01*
X173380185Y-113367511D01*
X173384930Y-113362034D01*
X173391524Y-113359023D01*
X173402961Y-113341225D01*
X173416815Y-113325238D01*
X173417846Y-113318064D01*
X173421765Y-113311967D01*
X173421765Y-113290811D01*
X173424776Y-113269871D01*
X173421765Y-113263277D01*
X173421765Y-113114510D01*
X173425721Y-113098982D01*
X173417420Y-113074080D01*
X173410027Y-113048900D01*
X173408621Y-113047681D01*
X173382214Y-112968459D01*
X173377358Y-112946137D01*
X173363592Y-112932371D01*
X173352485Y-112916389D01*
X173344169Y-112912948D01*
X173293455Y-112862235D01*
X173285271Y-112848456D01*
X173261780Y-112836710D01*
X173238759Y-112824140D01*
X173236904Y-112824272D01*
X173202860Y-112807250D01*
X173195322Y-112799233D01*
X173178330Y-112794985D01*
X173175436Y-112793538D01*
X173165106Y-112791679D01*
X173038253Y-112759966D01*
X173027912Y-112753320D01*
X173011669Y-112753320D01*
X173009761Y-112752843D01*
X172998025Y-112753320D01*
X172906762Y-112753320D01*
X172895118Y-112749381D01*
X172879362Y-112753320D01*
X172877393Y-112753320D01*
X172866110Y-112756632D01*
X172739301Y-112788334D01*
X172728362Y-112787154D01*
X172712699Y-112794985D01*
X172709557Y-112795771D01*
X172700495Y-112801087D01*
X172641455Y-112830607D01*
X172625797Y-112834014D01*
X172607238Y-112852572D01*
X172588020Y-112870449D01*
X172587559Y-112872251D01*
X172537071Y-112922738D01*
X172519283Y-112937060D01*
X172513126Y-112955529D01*
X172503799Y-112972612D01*
X172504440Y-112981586D01*
X172477930Y-113061118D01*
X172469265Y-113074602D01*
X172469265Y-113100867D01*
X172468317Y-113127077D01*
X172469265Y-113128676D01*
X172469265Y-113277186D01*
X172466254Y-113298127D01*
X171960268Y-113298127D01*
X171960268Y-112005534D01*
X172719606Y-112005534D01*
X172730730Y-112060353D01*
X172769727Y-112100454D01*
X172824212Y-112113107D01*
X173340346Y-111928773D01*
X173348970Y-111929269D01*
X173366228Y-111919529D01*
X173371447Y-111917666D01*
X173378093Y-111912834D01*
X173397684Y-111901779D01*
X173400415Y-111896607D01*
X173405147Y-111893167D01*
X173413302Y-111872200D01*
X173423803Y-111852315D01*
X173423304Y-111846487D01*
X173425425Y-111841036D01*
X173420950Y-111818988D01*
X173419033Y-111796583D01*
X173415463Y-111791951D01*
X173414300Y-111786217D01*
X173398615Y-111770088D01*
X173384890Y-111752277D01*
X173379382Y-111750310D01*
X173375304Y-111746116D01*
X173353390Y-111741027D01*
X172837655Y-111556835D01*
X172796060Y-111554444D01*
X172747346Y-111581934D01*
X172721227Y-111631398D01*
X172725997Y-111687130D01*
X172760140Y-111731436D01*
X173043316Y-111832570D01*
X172773583Y-111928904D01*
X172739884Y-111953403D01*
X172719606Y-112005534D01*
X171960268Y-112005534D01*
X171960268Y-111117513D01*
X172465818Y-111117513D01*
X172469265Y-111125824D01*
X172469265Y-111283156D01*
X172466813Y-111305868D01*
X172475519Y-111323280D01*
X172481003Y-111341956D01*
X172487803Y-111347848D01*
X172510266Y-111392774D01*
X172513673Y-111408433D01*
X172532234Y-111426994D01*
X172550108Y-111446209D01*
X172551909Y-111446669D01*
X172579418Y-111474178D01*
X172615985Y-111494145D01*
X172671778Y-111490155D01*
X172716558Y-111456634D01*
X172736105Y-111404225D01*
X172724215Y-111349567D01*
X172679082Y-111304434D01*
X172659765Y-111265799D01*
X172659765Y-111129342D01*
X172679081Y-111090709D01*
X172693509Y-111076281D01*
X172732144Y-111056964D01*
X172766772Y-111056964D01*
X172839634Y-111081251D01*
X173241972Y-111483589D01*
X173243003Y-111487098D01*
X173261566Y-111503183D01*
X173268846Y-111510463D01*
X173271878Y-111512118D01*
X173285276Y-111523728D01*
X173295949Y-111525262D01*
X173305413Y-111530430D01*
X173323093Y-111529165D01*
X173340643Y-111531689D01*
X173350452Y-111527209D01*
X173361206Y-111526440D01*
X173375396Y-111515817D01*
X173391524Y-111508452D01*
X173397353Y-111499380D01*
X173405986Y-111492919D01*
X173412181Y-111476308D01*
X173421765Y-111461396D01*
X173421765Y-111450612D01*
X173425533Y-111440510D01*
X173421765Y-111423188D01*
X173421765Y-110948020D01*
X173410027Y-110908044D01*
X173367754Y-110871414D01*
X173312387Y-110863453D01*
X173261506Y-110886690D01*
X173231265Y-110933746D01*
X173231265Y-111203473D01*
X172962061Y-110934270D01*
X172947740Y-110916482D01*
X172929270Y-110910325D01*
X172912188Y-110900998D01*
X172903213Y-110901639D01*
X172823681Y-110875129D01*
X172810198Y-110866464D01*
X172783933Y-110866464D01*
X172757723Y-110865516D01*
X172756124Y-110866464D01*
X172714788Y-110866464D01*
X172692076Y-110864012D01*
X172674663Y-110872718D01*
X172655988Y-110878202D01*
X172650095Y-110885002D01*
X172605169Y-110907465D01*
X172589511Y-110910872D01*
X172570949Y-110929433D01*
X172551735Y-110947307D01*
X172551274Y-110949108D01*
X172541893Y-110958489D01*
X172528115Y-110966673D01*
X172516373Y-110990155D01*
X172503799Y-111013185D01*
X172503931Y-111015039D01*
X172481615Y-111059671D01*
X172469265Y-111078889D01*
X172469265Y-111098358D01*
X172465818Y-111117513D01*
X171960268Y-111117513D01*
X171960268Y-110260040D01*
X173987732Y-110260040D01*
X173987732Y-124689959D01*
G37*
D11*
X176675142Y-113862031D02*
X177038000Y-113862031D01*
X176602571Y-114079745D02*
X176856571Y-113317745D01*
X176856571Y-113317745D02*
X177110571Y-114079745D01*
X177509714Y-113317745D02*
X177582285Y-113317745D01*
X177582285Y-113317745D02*
X177654857Y-113354031D01*
X177654857Y-113354031D02*
X177691143Y-113390317D01*
X177691143Y-113390317D02*
X177727428Y-113462888D01*
X177727428Y-113462888D02*
X177763714Y-113608031D01*
X177763714Y-113608031D02*
X177763714Y-113789460D01*
X177763714Y-113789460D02*
X177727428Y-113934602D01*
X177727428Y-113934602D02*
X177691143Y-114007174D01*
X177691143Y-114007174D02*
X177654857Y-114043460D01*
X177654857Y-114043460D02*
X177582285Y-114079745D01*
X177582285Y-114079745D02*
X177509714Y-114079745D01*
X177509714Y-114079745D02*
X177437143Y-114043460D01*
X177437143Y-114043460D02*
X177400857Y-114007174D01*
X177400857Y-114007174D02*
X177364571Y-113934602D01*
X177364571Y-113934602D02*
X177328285Y-113789460D01*
X177328285Y-113789460D02*
X177328285Y-113608031D01*
X177328285Y-113608031D02*
X177364571Y-113462888D01*
X177364571Y-113462888D02*
X177400857Y-113390317D01*
X177400857Y-113390317D02*
X177437143Y-113354031D01*
X177437143Y-113354031D02*
X177509714Y-113317745D01*
X176094571Y-103194031D02*
X176022000Y-103157745D01*
X176022000Y-103157745D02*
X175913142Y-103157745D01*
X175913142Y-103157745D02*
X175804285Y-103194031D01*
X175804285Y-103194031D02*
X175731714Y-103266602D01*
X175731714Y-103266602D02*
X175695428Y-103339174D01*
X175695428Y-103339174D02*
X175659142Y-103484317D01*
X175659142Y-103484317D02*
X175659142Y-103593174D01*
X175659142Y-103593174D02*
X175695428Y-103738317D01*
X175695428Y-103738317D02*
X175731714Y-103810888D01*
X175731714Y-103810888D02*
X175804285Y-103883460D01*
X175804285Y-103883460D02*
X175913142Y-103919745D01*
X175913142Y-103919745D02*
X175985714Y-103919745D01*
X175985714Y-103919745D02*
X176094571Y-103883460D01*
X176094571Y-103883460D02*
X176130857Y-103847174D01*
X176130857Y-103847174D02*
X176130857Y-103593174D01*
X176130857Y-103593174D02*
X175985714Y-103593174D01*
X176457428Y-103919745D02*
X176457428Y-103157745D01*
X176457428Y-103157745D02*
X176892857Y-103919745D01*
X176892857Y-103919745D02*
X176892857Y-103157745D01*
X177255714Y-103919745D02*
X177255714Y-103157745D01*
X177255714Y-103157745D02*
X177437143Y-103157745D01*
X177437143Y-103157745D02*
X177546000Y-103194031D01*
X177546000Y-103194031D02*
X177618571Y-103266602D01*
X177618571Y-103266602D02*
X177654857Y-103339174D01*
X177654857Y-103339174D02*
X177691143Y-103484317D01*
X177691143Y-103484317D02*
X177691143Y-103593174D01*
X177691143Y-103593174D02*
X177654857Y-103738317D01*
X177654857Y-103738317D02*
X177618571Y-103810888D01*
X177618571Y-103810888D02*
X177546000Y-103883460D01*
X177546000Y-103883460D02*
X177437143Y-103919745D01*
X177437143Y-103919745D02*
X177255714Y-103919745D01*
X177110571Y-131859745D02*
X176675142Y-131859745D01*
X176892857Y-131859745D02*
X176892857Y-131097745D01*
X176892857Y-131097745D02*
X176820285Y-131206602D01*
X176820285Y-131206602D02*
X176747714Y-131279174D01*
X176747714Y-131279174D02*
X176675142Y-131315460D01*
X177545999Y-131424317D02*
X177473428Y-131388031D01*
X177473428Y-131388031D02*
X177437142Y-131351745D01*
X177437142Y-131351745D02*
X177400856Y-131279174D01*
X177400856Y-131279174D02*
X177400856Y-131242888D01*
X177400856Y-131242888D02*
X177437142Y-131170317D01*
X177437142Y-131170317D02*
X177473428Y-131134031D01*
X177473428Y-131134031D02*
X177545999Y-131097745D01*
X177545999Y-131097745D02*
X177691142Y-131097745D01*
X177691142Y-131097745D02*
X177763714Y-131134031D01*
X177763714Y-131134031D02*
X177799999Y-131170317D01*
X177799999Y-131170317D02*
X177836285Y-131242888D01*
X177836285Y-131242888D02*
X177836285Y-131279174D01*
X177836285Y-131279174D02*
X177799999Y-131351745D01*
X177799999Y-131351745D02*
X177763714Y-131388031D01*
X177763714Y-131388031D02*
X177691142Y-131424317D01*
X177691142Y-131424317D02*
X177545999Y-131424317D01*
X177545999Y-131424317D02*
X177473428Y-131460602D01*
X177473428Y-131460602D02*
X177437142Y-131496888D01*
X177437142Y-131496888D02*
X177400856Y-131569460D01*
X177400856Y-131569460D02*
X177400856Y-131714602D01*
X177400856Y-131714602D02*
X177437142Y-131787174D01*
X177437142Y-131787174D02*
X177473428Y-131823460D01*
X177473428Y-131823460D02*
X177545999Y-131859745D01*
X177545999Y-131859745D02*
X177691142Y-131859745D01*
X177691142Y-131859745D02*
X177763714Y-131823460D01*
X177763714Y-131823460D02*
X177799999Y-131787174D01*
X177799999Y-131787174D02*
X177836285Y-131714602D01*
X177836285Y-131714602D02*
X177836285Y-131569460D01*
X177836285Y-131569460D02*
X177799999Y-131496888D01*
X177799999Y-131496888D02*
X177763714Y-131460602D01*
X177763714Y-131460602D02*
X177691142Y-131424317D01*
X157516285Y-118724317D02*
X157443714Y-118688031D01*
X157443714Y-118688031D02*
X157407428Y-118651745D01*
X157407428Y-118651745D02*
X157371142Y-118579174D01*
X157371142Y-118579174D02*
X157371142Y-118542888D01*
X157371142Y-118542888D02*
X157407428Y-118470317D01*
X157407428Y-118470317D02*
X157443714Y-118434031D01*
X157443714Y-118434031D02*
X157516285Y-118397745D01*
X157516285Y-118397745D02*
X157661428Y-118397745D01*
X157661428Y-118397745D02*
X157734000Y-118434031D01*
X157734000Y-118434031D02*
X157770285Y-118470317D01*
X157770285Y-118470317D02*
X157806571Y-118542888D01*
X157806571Y-118542888D02*
X157806571Y-118579174D01*
X157806571Y-118579174D02*
X157770285Y-118651745D01*
X157770285Y-118651745D02*
X157734000Y-118688031D01*
X157734000Y-118688031D02*
X157661428Y-118724317D01*
X157661428Y-118724317D02*
X157516285Y-118724317D01*
X157516285Y-118724317D02*
X157443714Y-118760602D01*
X157443714Y-118760602D02*
X157407428Y-118796888D01*
X157407428Y-118796888D02*
X157371142Y-118869460D01*
X157371142Y-118869460D02*
X157371142Y-119014602D01*
X157371142Y-119014602D02*
X157407428Y-119087174D01*
X157407428Y-119087174D02*
X157443714Y-119123460D01*
X157443714Y-119123460D02*
X157516285Y-119159745D01*
X157516285Y-119159745D02*
X157661428Y-119159745D01*
X157661428Y-119159745D02*
X157734000Y-119123460D01*
X157734000Y-119123460D02*
X157770285Y-119087174D01*
X157770285Y-119087174D02*
X157806571Y-119014602D01*
X157806571Y-119014602D02*
X157806571Y-118869460D01*
X157806571Y-118869460D02*
X157770285Y-118796888D01*
X157770285Y-118796888D02*
X157734000Y-118760602D01*
X157734000Y-118760602D02*
X157661428Y-118724317D01*
X157371142Y-103230317D02*
X157407428Y-103194031D01*
X157407428Y-103194031D02*
X157480000Y-103157745D01*
X157480000Y-103157745D02*
X157661428Y-103157745D01*
X157661428Y-103157745D02*
X157734000Y-103194031D01*
X157734000Y-103194031D02*
X157770285Y-103230317D01*
X157770285Y-103230317D02*
X157806571Y-103302888D01*
X157806571Y-103302888D02*
X157806571Y-103375460D01*
X157806571Y-103375460D02*
X157770285Y-103484317D01*
X157770285Y-103484317D02*
X157334857Y-103919745D01*
X157334857Y-103919745D02*
X157806571Y-103919745D01*
X175151142Y-121663460D02*
X175260000Y-121699745D01*
X175260000Y-121699745D02*
X175441428Y-121699745D01*
X175441428Y-121699745D02*
X175514000Y-121663460D01*
X175514000Y-121663460D02*
X175550285Y-121627174D01*
X175550285Y-121627174D02*
X175586571Y-121554602D01*
X175586571Y-121554602D02*
X175586571Y-121482031D01*
X175586571Y-121482031D02*
X175550285Y-121409460D01*
X175550285Y-121409460D02*
X175514000Y-121373174D01*
X175514000Y-121373174D02*
X175441428Y-121336888D01*
X175441428Y-121336888D02*
X175296285Y-121300602D01*
X175296285Y-121300602D02*
X175223714Y-121264317D01*
X175223714Y-121264317D02*
X175187428Y-121228031D01*
X175187428Y-121228031D02*
X175151142Y-121155460D01*
X175151142Y-121155460D02*
X175151142Y-121082888D01*
X175151142Y-121082888D02*
X175187428Y-121010317D01*
X175187428Y-121010317D02*
X175223714Y-120974031D01*
X175223714Y-120974031D02*
X175296285Y-120937745D01*
X175296285Y-120937745D02*
X175477714Y-120937745D01*
X175477714Y-120937745D02*
X175586571Y-120974031D01*
X176348571Y-121627174D02*
X176312285Y-121663460D01*
X176312285Y-121663460D02*
X176203428Y-121699745D01*
X176203428Y-121699745D02*
X176130856Y-121699745D01*
X176130856Y-121699745D02*
X176021999Y-121663460D01*
X176021999Y-121663460D02*
X175949428Y-121590888D01*
X175949428Y-121590888D02*
X175913142Y-121518317D01*
X175913142Y-121518317D02*
X175876856Y-121373174D01*
X175876856Y-121373174D02*
X175876856Y-121264317D01*
X175876856Y-121264317D02*
X175913142Y-121119174D01*
X175913142Y-121119174D02*
X175949428Y-121046602D01*
X175949428Y-121046602D02*
X176021999Y-120974031D01*
X176021999Y-120974031D02*
X176130856Y-120937745D01*
X176130856Y-120937745D02*
X176203428Y-120937745D01*
X176203428Y-120937745D02*
X176312285Y-120974031D01*
X176312285Y-120974031D02*
X176348571Y-121010317D01*
X177037999Y-121699745D02*
X176675142Y-121699745D01*
X176675142Y-121699745D02*
X176675142Y-120937745D01*
X177691142Y-121699745D02*
X177255713Y-121699745D01*
X177473428Y-121699745D02*
X177473428Y-120937745D01*
X177473428Y-120937745D02*
X177400856Y-121046602D01*
X177400856Y-121046602D02*
X177328285Y-121119174D01*
X177328285Y-121119174D02*
X177255713Y-121155460D01*
X176602571Y-126017745D02*
X177038000Y-126017745D01*
X176820285Y-126779745D02*
X176820285Y-126017745D01*
X177219428Y-126017745D02*
X177727428Y-126779745D01*
X177727428Y-126017745D02*
X177219428Y-126779745D01*
X157371142Y-134363460D02*
X157480000Y-134399745D01*
X157480000Y-134399745D02*
X157661428Y-134399745D01*
X157661428Y-134399745D02*
X157734000Y-134363460D01*
X157734000Y-134363460D02*
X157770285Y-134327174D01*
X157770285Y-134327174D02*
X157806571Y-134254602D01*
X157806571Y-134254602D02*
X157806571Y-134182031D01*
X157806571Y-134182031D02*
X157770285Y-134109460D01*
X157770285Y-134109460D02*
X157734000Y-134073174D01*
X157734000Y-134073174D02*
X157661428Y-134036888D01*
X157661428Y-134036888D02*
X157516285Y-134000602D01*
X157516285Y-134000602D02*
X157443714Y-133964317D01*
X157443714Y-133964317D02*
X157407428Y-133928031D01*
X157407428Y-133928031D02*
X157371142Y-133855460D01*
X157371142Y-133855460D02*
X157371142Y-133782888D01*
X157371142Y-133782888D02*
X157407428Y-133710317D01*
X157407428Y-133710317D02*
X157443714Y-133674031D01*
X157443714Y-133674031D02*
X157516285Y-133637745D01*
X157516285Y-133637745D02*
X157697714Y-133637745D01*
X157697714Y-133637745D02*
X157806571Y-133674031D01*
X158060571Y-133637745D02*
X158241999Y-134399745D01*
X158241999Y-134399745D02*
X158387142Y-133855460D01*
X158387142Y-133855460D02*
X158532285Y-134399745D01*
X158532285Y-134399745D02*
X158713714Y-133637745D01*
X159439428Y-134327174D02*
X159403142Y-134363460D01*
X159403142Y-134363460D02*
X159294285Y-134399745D01*
X159294285Y-134399745D02*
X159221713Y-134399745D01*
X159221713Y-134399745D02*
X159112856Y-134363460D01*
X159112856Y-134363460D02*
X159040285Y-134290888D01*
X159040285Y-134290888D02*
X159003999Y-134218317D01*
X159003999Y-134218317D02*
X158967713Y-134073174D01*
X158967713Y-134073174D02*
X158967713Y-133964317D01*
X158967713Y-133964317D02*
X159003999Y-133819174D01*
X159003999Y-133819174D02*
X159040285Y-133746602D01*
X159040285Y-133746602D02*
X159112856Y-133674031D01*
X159112856Y-133674031D02*
X159221713Y-133637745D01*
X159221713Y-133637745D02*
X159294285Y-133637745D01*
X159294285Y-133637745D02*
X159403142Y-133674031D01*
X159403142Y-133674031D02*
X159439428Y-133710317D01*
X160128856Y-134399745D02*
X159765999Y-134399745D01*
X159765999Y-134399745D02*
X159765999Y-133637745D01*
X160382856Y-134399745D02*
X160382856Y-133637745D01*
X160818285Y-134399745D02*
X160491713Y-133964317D01*
X160818285Y-133637745D02*
X160382856Y-134073174D01*
X177074285Y-98331745D02*
X176711428Y-98331745D01*
X176711428Y-98331745D02*
X176675142Y-98694602D01*
X176675142Y-98694602D02*
X176711428Y-98658317D01*
X176711428Y-98658317D02*
X176784000Y-98622031D01*
X176784000Y-98622031D02*
X176965428Y-98622031D01*
X176965428Y-98622031D02*
X177038000Y-98658317D01*
X177038000Y-98658317D02*
X177074285Y-98694602D01*
X177074285Y-98694602D02*
X177110571Y-98767174D01*
X177110571Y-98767174D02*
X177110571Y-98948602D01*
X177110571Y-98948602D02*
X177074285Y-99021174D01*
X177074285Y-99021174D02*
X177038000Y-99057460D01*
X177038000Y-99057460D02*
X176965428Y-99093745D01*
X176965428Y-99093745D02*
X176784000Y-99093745D01*
X176784000Y-99093745D02*
X176711428Y-99057460D01*
X176711428Y-99057460D02*
X176675142Y-99021174D01*
X177328285Y-98331745D02*
X177582285Y-99093745D01*
X177582285Y-99093745D02*
X177836285Y-98331745D01*
X175876857Y-100617745D02*
X176348571Y-100617745D01*
X176348571Y-100617745D02*
X176094571Y-100908031D01*
X176094571Y-100908031D02*
X176203428Y-100908031D01*
X176203428Y-100908031D02*
X176276000Y-100944317D01*
X176276000Y-100944317D02*
X176312285Y-100980602D01*
X176312285Y-100980602D02*
X176348571Y-101053174D01*
X176348571Y-101053174D02*
X176348571Y-101234602D01*
X176348571Y-101234602D02*
X176312285Y-101307174D01*
X176312285Y-101307174D02*
X176276000Y-101343460D01*
X176276000Y-101343460D02*
X176203428Y-101379745D01*
X176203428Y-101379745D02*
X175985714Y-101379745D01*
X175985714Y-101379745D02*
X175913142Y-101343460D01*
X175913142Y-101343460D02*
X175876857Y-101307174D01*
X176566285Y-100617745D02*
X176820285Y-101379745D01*
X176820285Y-101379745D02*
X177074285Y-100617745D01*
X177255714Y-100617745D02*
X177727428Y-100617745D01*
X177727428Y-100617745D02*
X177473428Y-100908031D01*
X177473428Y-100908031D02*
X177582285Y-100908031D01*
X177582285Y-100908031D02*
X177654857Y-100944317D01*
X177654857Y-100944317D02*
X177691142Y-100980602D01*
X177691142Y-100980602D02*
X177727428Y-101053174D01*
X177727428Y-101053174D02*
X177727428Y-101234602D01*
X177727428Y-101234602D02*
X177691142Y-101307174D01*
X177691142Y-101307174D02*
X177654857Y-101343460D01*
X177654857Y-101343460D02*
X177582285Y-101379745D01*
X177582285Y-101379745D02*
X177364571Y-101379745D01*
X177364571Y-101379745D02*
X177291999Y-101343460D01*
X177291999Y-101343460D02*
X177255714Y-101307174D01*
X177110571Y-136939745D02*
X176675142Y-136939745D01*
X176892857Y-136939745D02*
X176892857Y-136177745D01*
X176892857Y-136177745D02*
X176820285Y-136286602D01*
X176820285Y-136286602D02*
X176747714Y-136359174D01*
X176747714Y-136359174D02*
X176675142Y-136395460D01*
X177763714Y-136177745D02*
X177618571Y-136177745D01*
X177618571Y-136177745D02*
X177545999Y-136214031D01*
X177545999Y-136214031D02*
X177509714Y-136250317D01*
X177509714Y-136250317D02*
X177437142Y-136359174D01*
X177437142Y-136359174D02*
X177400856Y-136504317D01*
X177400856Y-136504317D02*
X177400856Y-136794602D01*
X177400856Y-136794602D02*
X177437142Y-136867174D01*
X177437142Y-136867174D02*
X177473428Y-136903460D01*
X177473428Y-136903460D02*
X177545999Y-136939745D01*
X177545999Y-136939745D02*
X177691142Y-136939745D01*
X177691142Y-136939745D02*
X177763714Y-136903460D01*
X177763714Y-136903460D02*
X177799999Y-136867174D01*
X177799999Y-136867174D02*
X177836285Y-136794602D01*
X177836285Y-136794602D02*
X177836285Y-136613174D01*
X177836285Y-136613174D02*
X177799999Y-136540602D01*
X177799999Y-136540602D02*
X177763714Y-136504317D01*
X177763714Y-136504317D02*
X177691142Y-136468031D01*
X177691142Y-136468031D02*
X177545999Y-136468031D01*
X177545999Y-136468031D02*
X177473428Y-136504317D01*
X177473428Y-136504317D02*
X177437142Y-136540602D01*
X177437142Y-136540602D02*
X177400856Y-136613174D01*
X176675142Y-108782031D02*
X177038000Y-108782031D01*
X176602571Y-108999745D02*
X176856571Y-108237745D01*
X176856571Y-108237745D02*
X177110571Y-108999745D01*
X177328285Y-108310317D02*
X177364571Y-108274031D01*
X177364571Y-108274031D02*
X177437143Y-108237745D01*
X177437143Y-108237745D02*
X177618571Y-108237745D01*
X177618571Y-108237745D02*
X177691143Y-108274031D01*
X177691143Y-108274031D02*
X177727428Y-108310317D01*
X177727428Y-108310317D02*
X177763714Y-108382888D01*
X177763714Y-108382888D02*
X177763714Y-108455460D01*
X177763714Y-108455460D02*
X177727428Y-108564317D01*
X177727428Y-108564317D02*
X177292000Y-108999745D01*
X177292000Y-108999745D02*
X177763714Y-108999745D01*
X157407428Y-108999745D02*
X157407428Y-108237745D01*
X157407428Y-108237745D02*
X157661428Y-108782031D01*
X157661428Y-108782031D02*
X157915428Y-108237745D01*
X157915428Y-108237745D02*
X157915428Y-108999745D01*
X158278285Y-108999745D02*
X158278285Y-108237745D01*
X158604856Y-108963460D02*
X158713714Y-108999745D01*
X158713714Y-108999745D02*
X158895142Y-108999745D01*
X158895142Y-108999745D02*
X158967714Y-108963460D01*
X158967714Y-108963460D02*
X159003999Y-108927174D01*
X159003999Y-108927174D02*
X159040285Y-108854602D01*
X159040285Y-108854602D02*
X159040285Y-108782031D01*
X159040285Y-108782031D02*
X159003999Y-108709460D01*
X159003999Y-108709460D02*
X158967714Y-108673174D01*
X158967714Y-108673174D02*
X158895142Y-108636888D01*
X158895142Y-108636888D02*
X158749999Y-108600602D01*
X158749999Y-108600602D02*
X158677428Y-108564317D01*
X158677428Y-108564317D02*
X158641142Y-108528031D01*
X158641142Y-108528031D02*
X158604856Y-108455460D01*
X158604856Y-108455460D02*
X158604856Y-108382888D01*
X158604856Y-108382888D02*
X158641142Y-108310317D01*
X158641142Y-108310317D02*
X158677428Y-108274031D01*
X158677428Y-108274031D02*
X158749999Y-108237745D01*
X158749999Y-108237745D02*
X158931428Y-108237745D01*
X158931428Y-108237745D02*
X159040285Y-108274031D01*
X159511999Y-108237745D02*
X159657142Y-108237745D01*
X159657142Y-108237745D02*
X159729713Y-108274031D01*
X159729713Y-108274031D02*
X159802285Y-108346602D01*
X159802285Y-108346602D02*
X159838570Y-108491745D01*
X159838570Y-108491745D02*
X159838570Y-108745745D01*
X159838570Y-108745745D02*
X159802285Y-108890888D01*
X159802285Y-108890888D02*
X159729713Y-108963460D01*
X159729713Y-108963460D02*
X159657142Y-108999745D01*
X159657142Y-108999745D02*
X159511999Y-108999745D01*
X159511999Y-108999745D02*
X159439428Y-108963460D01*
X159439428Y-108963460D02*
X159366856Y-108890888D01*
X159366856Y-108890888D02*
X159330570Y-108745745D01*
X159330570Y-108745745D02*
X159330570Y-108491745D01*
X159330570Y-108491745D02*
X159366856Y-108346602D01*
X159366856Y-108346602D02*
X159439428Y-108274031D01*
X159439428Y-108274031D02*
X159511999Y-108237745D01*
X157806571Y-129319745D02*
X157371142Y-129319745D01*
X157588857Y-129319745D02*
X157588857Y-128557745D01*
X157588857Y-128557745D02*
X157516285Y-128666602D01*
X157516285Y-128666602D02*
X157443714Y-128739174D01*
X157443714Y-128739174D02*
X157371142Y-128775460D01*
X158459714Y-128811745D02*
X158459714Y-129319745D01*
X158278285Y-128521460D02*
X158096856Y-129065745D01*
X158096856Y-129065745D02*
X158568571Y-129065745D01*
X177110571Y-129319745D02*
X176675142Y-129319745D01*
X176892857Y-129319745D02*
X176892857Y-128557745D01*
X176892857Y-128557745D02*
X176820285Y-128666602D01*
X176820285Y-128666602D02*
X176747714Y-128739174D01*
X176747714Y-128739174D02*
X176675142Y-128775460D01*
X177473428Y-129319745D02*
X177618571Y-129319745D01*
X177618571Y-129319745D02*
X177691142Y-129283460D01*
X177691142Y-129283460D02*
X177727428Y-129247174D01*
X177727428Y-129247174D02*
X177799999Y-129138317D01*
X177799999Y-129138317D02*
X177836285Y-128993174D01*
X177836285Y-128993174D02*
X177836285Y-128702888D01*
X177836285Y-128702888D02*
X177799999Y-128630317D01*
X177799999Y-128630317D02*
X177763714Y-128594031D01*
X177763714Y-128594031D02*
X177691142Y-128557745D01*
X177691142Y-128557745D02*
X177545999Y-128557745D01*
X177545999Y-128557745D02*
X177473428Y-128594031D01*
X177473428Y-128594031D02*
X177437142Y-128630317D01*
X177437142Y-128630317D02*
X177400856Y-128702888D01*
X177400856Y-128702888D02*
X177400856Y-128884317D01*
X177400856Y-128884317D02*
X177437142Y-128956888D01*
X177437142Y-128956888D02*
X177473428Y-128993174D01*
X177473428Y-128993174D02*
X177545999Y-129029460D01*
X177545999Y-129029460D02*
X177691142Y-129029460D01*
X177691142Y-129029460D02*
X177763714Y-128993174D01*
X177763714Y-128993174D02*
X177799999Y-128956888D01*
X177799999Y-128956888D02*
X177836285Y-128884317D01*
X157371142Y-136903460D02*
X157480000Y-136939745D01*
X157480000Y-136939745D02*
X157661428Y-136939745D01*
X157661428Y-136939745D02*
X157734000Y-136903460D01*
X157734000Y-136903460D02*
X157770285Y-136867174D01*
X157770285Y-136867174D02*
X157806571Y-136794602D01*
X157806571Y-136794602D02*
X157806571Y-136722031D01*
X157806571Y-136722031D02*
X157770285Y-136649460D01*
X157770285Y-136649460D02*
X157734000Y-136613174D01*
X157734000Y-136613174D02*
X157661428Y-136576888D01*
X157661428Y-136576888D02*
X157516285Y-136540602D01*
X157516285Y-136540602D02*
X157443714Y-136504317D01*
X157443714Y-136504317D02*
X157407428Y-136468031D01*
X157407428Y-136468031D02*
X157371142Y-136395460D01*
X157371142Y-136395460D02*
X157371142Y-136322888D01*
X157371142Y-136322888D02*
X157407428Y-136250317D01*
X157407428Y-136250317D02*
X157443714Y-136214031D01*
X157443714Y-136214031D02*
X157516285Y-136177745D01*
X157516285Y-136177745D02*
X157697714Y-136177745D01*
X157697714Y-136177745D02*
X157806571Y-136214031D01*
X158060571Y-136177745D02*
X158241999Y-136939745D01*
X158241999Y-136939745D02*
X158387142Y-136395460D01*
X158387142Y-136395460D02*
X158532285Y-136939745D01*
X158532285Y-136939745D02*
X158713714Y-136177745D01*
X159003999Y-136939745D02*
X159003999Y-136177745D01*
X159003999Y-136177745D02*
X159185428Y-136177745D01*
X159185428Y-136177745D02*
X159294285Y-136214031D01*
X159294285Y-136214031D02*
X159366856Y-136286602D01*
X159366856Y-136286602D02*
X159403142Y-136359174D01*
X159403142Y-136359174D02*
X159439428Y-136504317D01*
X159439428Y-136504317D02*
X159439428Y-136613174D01*
X159439428Y-136613174D02*
X159403142Y-136758317D01*
X159403142Y-136758317D02*
X159366856Y-136830888D01*
X159366856Y-136830888D02*
X159294285Y-136903460D01*
X159294285Y-136903460D02*
X159185428Y-136939745D01*
X159185428Y-136939745D02*
X159003999Y-136939745D01*
X159765999Y-136939745D02*
X159765999Y-136177745D01*
X160273999Y-136177745D02*
X160419142Y-136177745D01*
X160419142Y-136177745D02*
X160491713Y-136214031D01*
X160491713Y-136214031D02*
X160564285Y-136286602D01*
X160564285Y-136286602D02*
X160600570Y-136431745D01*
X160600570Y-136431745D02*
X160600570Y-136685745D01*
X160600570Y-136685745D02*
X160564285Y-136830888D01*
X160564285Y-136830888D02*
X160491713Y-136903460D01*
X160491713Y-136903460D02*
X160419142Y-136939745D01*
X160419142Y-136939745D02*
X160273999Y-136939745D01*
X160273999Y-136939745D02*
X160201428Y-136903460D01*
X160201428Y-136903460D02*
X160128856Y-136830888D01*
X160128856Y-136830888D02*
X160092570Y-136685745D01*
X160092570Y-136685745D02*
X160092570Y-136431745D01*
X160092570Y-136431745D02*
X160128856Y-136286602D01*
X160128856Y-136286602D02*
X160201428Y-136214031D01*
X160201428Y-136214031D02*
X160273999Y-136177745D01*
X157806571Y-124239745D02*
X157371142Y-124239745D01*
X157588857Y-124239745D02*
X157588857Y-123477745D01*
X157588857Y-123477745D02*
X157516285Y-123586602D01*
X157516285Y-123586602D02*
X157443714Y-123659174D01*
X157443714Y-123659174D02*
X157371142Y-123695460D01*
X158278285Y-123477745D02*
X158350856Y-123477745D01*
X158350856Y-123477745D02*
X158423428Y-123514031D01*
X158423428Y-123514031D02*
X158459714Y-123550317D01*
X158459714Y-123550317D02*
X158495999Y-123622888D01*
X158495999Y-123622888D02*
X158532285Y-123768031D01*
X158532285Y-123768031D02*
X158532285Y-123949460D01*
X158532285Y-123949460D02*
X158495999Y-124094602D01*
X158495999Y-124094602D02*
X158459714Y-124167174D01*
X158459714Y-124167174D02*
X158423428Y-124203460D01*
X158423428Y-124203460D02*
X158350856Y-124239745D01*
X158350856Y-124239745D02*
X158278285Y-124239745D01*
X158278285Y-124239745D02*
X158205714Y-124203460D01*
X158205714Y-124203460D02*
X158169428Y-124167174D01*
X158169428Y-124167174D02*
X158133142Y-124094602D01*
X158133142Y-124094602D02*
X158096856Y-123949460D01*
X158096856Y-123949460D02*
X158096856Y-123768031D01*
X158096856Y-123768031D02*
X158133142Y-123622888D01*
X158133142Y-123622888D02*
X158169428Y-123550317D01*
X158169428Y-123550317D02*
X158205714Y-123514031D01*
X158205714Y-123514031D02*
X158278285Y-123477745D01*
X157443714Y-121699745D02*
X157588857Y-121699745D01*
X157588857Y-121699745D02*
X157661428Y-121663460D01*
X157661428Y-121663460D02*
X157697714Y-121627174D01*
X157697714Y-121627174D02*
X157770285Y-121518317D01*
X157770285Y-121518317D02*
X157806571Y-121373174D01*
X157806571Y-121373174D02*
X157806571Y-121082888D01*
X157806571Y-121082888D02*
X157770285Y-121010317D01*
X157770285Y-121010317D02*
X157734000Y-120974031D01*
X157734000Y-120974031D02*
X157661428Y-120937745D01*
X157661428Y-120937745D02*
X157516285Y-120937745D01*
X157516285Y-120937745D02*
X157443714Y-120974031D01*
X157443714Y-120974031D02*
X157407428Y-121010317D01*
X157407428Y-121010317D02*
X157371142Y-121082888D01*
X157371142Y-121082888D02*
X157371142Y-121264317D01*
X157371142Y-121264317D02*
X157407428Y-121336888D01*
X157407428Y-121336888D02*
X157443714Y-121373174D01*
X157443714Y-121373174D02*
X157516285Y-121409460D01*
X157516285Y-121409460D02*
X157661428Y-121409460D01*
X157661428Y-121409460D02*
X157734000Y-121373174D01*
X157734000Y-121373174D02*
X157770285Y-121336888D01*
X157770285Y-121336888D02*
X157806571Y-121264317D01*
X157806571Y-131859745D02*
X157371142Y-131859745D01*
X157588857Y-131859745D02*
X157588857Y-131097745D01*
X157588857Y-131097745D02*
X157516285Y-131206602D01*
X157516285Y-131206602D02*
X157443714Y-131279174D01*
X157443714Y-131279174D02*
X157371142Y-131315460D01*
X158495999Y-131097745D02*
X158133142Y-131097745D01*
X158133142Y-131097745D02*
X158096856Y-131460602D01*
X158096856Y-131460602D02*
X158133142Y-131424317D01*
X158133142Y-131424317D02*
X158205714Y-131388031D01*
X158205714Y-131388031D02*
X158387142Y-131388031D01*
X158387142Y-131388031D02*
X158459714Y-131424317D01*
X158459714Y-131424317D02*
X158495999Y-131460602D01*
X158495999Y-131460602D02*
X158532285Y-131533174D01*
X158532285Y-131533174D02*
X158532285Y-131714602D01*
X158532285Y-131714602D02*
X158495999Y-131787174D01*
X158495999Y-131787174D02*
X158459714Y-131823460D01*
X158459714Y-131823460D02*
X158387142Y-131859745D01*
X158387142Y-131859745D02*
X158205714Y-131859745D01*
X158205714Y-131859745D02*
X158133142Y-131823460D01*
X158133142Y-131823460D02*
X158096856Y-131787174D01*
X176675142Y-111322031D02*
X177038000Y-111322031D01*
X176602571Y-111539745D02*
X176856571Y-110777745D01*
X176856571Y-110777745D02*
X177110571Y-111539745D01*
X177763714Y-111539745D02*
X177328285Y-111539745D01*
X177546000Y-111539745D02*
X177546000Y-110777745D01*
X177546000Y-110777745D02*
X177473428Y-110886602D01*
X177473428Y-110886602D02*
X177400857Y-110959174D01*
X177400857Y-110959174D02*
X177328285Y-110995460D01*
X157334857Y-115857745D02*
X157842857Y-115857745D01*
X157842857Y-115857745D02*
X157516285Y-116619745D01*
X157552571Y-98077745D02*
X157625142Y-98077745D01*
X157625142Y-98077745D02*
X157697714Y-98114031D01*
X157697714Y-98114031D02*
X157734000Y-98150317D01*
X157734000Y-98150317D02*
X157770285Y-98222888D01*
X157770285Y-98222888D02*
X157806571Y-98368031D01*
X157806571Y-98368031D02*
X157806571Y-98549460D01*
X157806571Y-98549460D02*
X157770285Y-98694602D01*
X157770285Y-98694602D02*
X157734000Y-98767174D01*
X157734000Y-98767174D02*
X157697714Y-98803460D01*
X157697714Y-98803460D02*
X157625142Y-98839745D01*
X157625142Y-98839745D02*
X157552571Y-98839745D01*
X157552571Y-98839745D02*
X157480000Y-98803460D01*
X157480000Y-98803460D02*
X157443714Y-98767174D01*
X157443714Y-98767174D02*
X157407428Y-98694602D01*
X157407428Y-98694602D02*
X157371142Y-98549460D01*
X157371142Y-98549460D02*
X157371142Y-98368031D01*
X157371142Y-98368031D02*
X157407428Y-98222888D01*
X157407428Y-98222888D02*
X157443714Y-98150317D01*
X157443714Y-98150317D02*
X157480000Y-98114031D01*
X157480000Y-98114031D02*
X157552571Y-98077745D01*
X157806571Y-126779745D02*
X157371142Y-126779745D01*
X157588857Y-126779745D02*
X157588857Y-126017745D01*
X157588857Y-126017745D02*
X157516285Y-126126602D01*
X157516285Y-126126602D02*
X157443714Y-126199174D01*
X157443714Y-126199174D02*
X157371142Y-126235460D01*
X158060571Y-126017745D02*
X158532285Y-126017745D01*
X158532285Y-126017745D02*
X158278285Y-126308031D01*
X158278285Y-126308031D02*
X158387142Y-126308031D01*
X158387142Y-126308031D02*
X158459714Y-126344317D01*
X158459714Y-126344317D02*
X158495999Y-126380602D01*
X158495999Y-126380602D02*
X158532285Y-126453174D01*
X158532285Y-126453174D02*
X158532285Y-126634602D01*
X158532285Y-126634602D02*
X158495999Y-126707174D01*
X158495999Y-126707174D02*
X158459714Y-126743460D01*
X158459714Y-126743460D02*
X158387142Y-126779745D01*
X158387142Y-126779745D02*
X158169428Y-126779745D01*
X158169428Y-126779745D02*
X158096856Y-126743460D01*
X158096856Y-126743460D02*
X158060571Y-126707174D01*
D10*
%TO.C,R4*%
X164478019Y-105779866D02*
X164001828Y-106113199D01*
X164478019Y-106351294D02*
X163478019Y-106351294D01*
X163478019Y-106351294D02*
X163478019Y-105970342D01*
X163478019Y-105970342D02*
X163525638Y-105875104D01*
X163525638Y-105875104D02*
X163573257Y-105827485D01*
X163573257Y-105827485D02*
X163668495Y-105779866D01*
X163668495Y-105779866D02*
X163811352Y-105779866D01*
X163811352Y-105779866D02*
X163906590Y-105827485D01*
X163906590Y-105827485D02*
X163954209Y-105875104D01*
X163954209Y-105875104D02*
X164001828Y-105970342D01*
X164001828Y-105970342D02*
X164001828Y-106351294D01*
X163811352Y-104922723D02*
X164478019Y-104922723D01*
X163430400Y-105160818D02*
X164144685Y-105398913D01*
X164144685Y-105398913D02*
X164144685Y-104779866D01*
%TO.C,SW1*%
X160587400Y-96102932D02*
X160635019Y-95960075D01*
X160635019Y-95960075D02*
X160635019Y-95721980D01*
X160635019Y-95721980D02*
X160587400Y-95626742D01*
X160587400Y-95626742D02*
X160539780Y-95579123D01*
X160539780Y-95579123D02*
X160444542Y-95531504D01*
X160444542Y-95531504D02*
X160349304Y-95531504D01*
X160349304Y-95531504D02*
X160254066Y-95579123D01*
X160254066Y-95579123D02*
X160206447Y-95626742D01*
X160206447Y-95626742D02*
X160158828Y-95721980D01*
X160158828Y-95721980D02*
X160111209Y-95912456D01*
X160111209Y-95912456D02*
X160063590Y-96007694D01*
X160063590Y-96007694D02*
X160015971Y-96055313D01*
X160015971Y-96055313D02*
X159920733Y-96102932D01*
X159920733Y-96102932D02*
X159825495Y-96102932D01*
X159825495Y-96102932D02*
X159730257Y-96055313D01*
X159730257Y-96055313D02*
X159682638Y-96007694D01*
X159682638Y-96007694D02*
X159635019Y-95912456D01*
X159635019Y-95912456D02*
X159635019Y-95674361D01*
X159635019Y-95674361D02*
X159682638Y-95531504D01*
X159635019Y-95198170D02*
X160635019Y-94960075D01*
X160635019Y-94960075D02*
X159920733Y-94769599D01*
X159920733Y-94769599D02*
X160635019Y-94579123D01*
X160635019Y-94579123D02*
X159635019Y-94341028D01*
X160635019Y-93436266D02*
X160635019Y-94007694D01*
X160635019Y-93721980D02*
X159635019Y-93721980D01*
X159635019Y-93721980D02*
X159777876Y-93817218D01*
X159777876Y-93817218D02*
X159873114Y-93912456D01*
X159873114Y-93912456D02*
X159920733Y-94007694D01*
%TO.C,D2*%
X161186905Y-124984219D02*
X161186905Y-123984219D01*
X161186905Y-123984219D02*
X161425000Y-123984219D01*
X161425000Y-123984219D02*
X161567857Y-124031838D01*
X161567857Y-124031838D02*
X161663095Y-124127076D01*
X161663095Y-124127076D02*
X161710714Y-124222314D01*
X161710714Y-124222314D02*
X161758333Y-124412790D01*
X161758333Y-124412790D02*
X161758333Y-124555647D01*
X161758333Y-124555647D02*
X161710714Y-124746123D01*
X161710714Y-124746123D02*
X161663095Y-124841361D01*
X161663095Y-124841361D02*
X161567857Y-124936600D01*
X161567857Y-124936600D02*
X161425000Y-124984219D01*
X161425000Y-124984219D02*
X161186905Y-124984219D01*
X162139286Y-124079457D02*
X162186905Y-124031838D01*
X162186905Y-124031838D02*
X162282143Y-123984219D01*
X162282143Y-123984219D02*
X162520238Y-123984219D01*
X162520238Y-123984219D02*
X162615476Y-124031838D01*
X162615476Y-124031838D02*
X162663095Y-124079457D01*
X162663095Y-124079457D02*
X162710714Y-124174695D01*
X162710714Y-124174695D02*
X162710714Y-124269933D01*
X162710714Y-124269933D02*
X162663095Y-124412790D01*
X162663095Y-124412790D02*
X162091667Y-124984219D01*
X162091667Y-124984219D02*
X162710714Y-124984219D01*
%TO.C,R1*%
X161498619Y-108243666D02*
X161022428Y-108576999D01*
X161498619Y-108815094D02*
X160498619Y-108815094D01*
X160498619Y-108815094D02*
X160498619Y-108434142D01*
X160498619Y-108434142D02*
X160546238Y-108338904D01*
X160546238Y-108338904D02*
X160593857Y-108291285D01*
X160593857Y-108291285D02*
X160689095Y-108243666D01*
X160689095Y-108243666D02*
X160831952Y-108243666D01*
X160831952Y-108243666D02*
X160927190Y-108291285D01*
X160927190Y-108291285D02*
X160974809Y-108338904D01*
X160974809Y-108338904D02*
X161022428Y-108434142D01*
X161022428Y-108434142D02*
X161022428Y-108815094D01*
X161498619Y-107291285D02*
X161498619Y-107862713D01*
X161498619Y-107576999D02*
X160498619Y-107576999D01*
X160498619Y-107576999D02*
X160641476Y-107672237D01*
X160641476Y-107672237D02*
X160736714Y-107767475D01*
X160736714Y-107767475D02*
X160784333Y-107862713D01*
%TO.C,R7*%
X170007619Y-107862666D02*
X169531428Y-108195999D01*
X170007619Y-108434094D02*
X169007619Y-108434094D01*
X169007619Y-108434094D02*
X169007619Y-108053142D01*
X169007619Y-108053142D02*
X169055238Y-107957904D01*
X169055238Y-107957904D02*
X169102857Y-107910285D01*
X169102857Y-107910285D02*
X169198095Y-107862666D01*
X169198095Y-107862666D02*
X169340952Y-107862666D01*
X169340952Y-107862666D02*
X169436190Y-107910285D01*
X169436190Y-107910285D02*
X169483809Y-107957904D01*
X169483809Y-107957904D02*
X169531428Y-108053142D01*
X169531428Y-108053142D02*
X169531428Y-108434094D01*
X169007619Y-107529332D02*
X169007619Y-106862666D01*
X169007619Y-106862666D02*
X170007619Y-107291237D01*
%TO.C,R8*%
X168513619Y-107862666D02*
X168037428Y-108195999D01*
X168513619Y-108434094D02*
X167513619Y-108434094D01*
X167513619Y-108434094D02*
X167513619Y-108053142D01*
X167513619Y-108053142D02*
X167561238Y-107957904D01*
X167561238Y-107957904D02*
X167608857Y-107910285D01*
X167608857Y-107910285D02*
X167704095Y-107862666D01*
X167704095Y-107862666D02*
X167846952Y-107862666D01*
X167846952Y-107862666D02*
X167942190Y-107910285D01*
X167942190Y-107910285D02*
X167989809Y-107957904D01*
X167989809Y-107957904D02*
X168037428Y-108053142D01*
X168037428Y-108053142D02*
X168037428Y-108434094D01*
X167942190Y-107291237D02*
X167894571Y-107386475D01*
X167894571Y-107386475D02*
X167846952Y-107434094D01*
X167846952Y-107434094D02*
X167751714Y-107481713D01*
X167751714Y-107481713D02*
X167704095Y-107481713D01*
X167704095Y-107481713D02*
X167608857Y-107434094D01*
X167608857Y-107434094D02*
X167561238Y-107386475D01*
X167561238Y-107386475D02*
X167513619Y-107291237D01*
X167513619Y-107291237D02*
X167513619Y-107100761D01*
X167513619Y-107100761D02*
X167561238Y-107005523D01*
X167561238Y-107005523D02*
X167608857Y-106957904D01*
X167608857Y-106957904D02*
X167704095Y-106910285D01*
X167704095Y-106910285D02*
X167751714Y-106910285D01*
X167751714Y-106910285D02*
X167846952Y-106957904D01*
X167846952Y-106957904D02*
X167894571Y-107005523D01*
X167894571Y-107005523D02*
X167942190Y-107100761D01*
X167942190Y-107100761D02*
X167942190Y-107291237D01*
X167942190Y-107291237D02*
X167989809Y-107386475D01*
X167989809Y-107386475D02*
X168037428Y-107434094D01*
X168037428Y-107434094D02*
X168132666Y-107481713D01*
X168132666Y-107481713D02*
X168323142Y-107481713D01*
X168323142Y-107481713D02*
X168418380Y-107434094D01*
X168418380Y-107434094D02*
X168466000Y-107386475D01*
X168466000Y-107386475D02*
X168513619Y-107291237D01*
X168513619Y-107291237D02*
X168513619Y-107100761D01*
X168513619Y-107100761D02*
X168466000Y-107005523D01*
X168466000Y-107005523D02*
X168418380Y-106957904D01*
X168418380Y-106957904D02*
X168323142Y-106910285D01*
X168323142Y-106910285D02*
X168132666Y-106910285D01*
X168132666Y-106910285D02*
X168037428Y-106957904D01*
X168037428Y-106957904D02*
X167989809Y-107005523D01*
X167989809Y-107005523D02*
X167942190Y-107100761D01*
%TO.C,J3*%
X167306666Y-91537619D02*
X167306666Y-92251904D01*
X167306666Y-92251904D02*
X167259047Y-92394761D01*
X167259047Y-92394761D02*
X167163809Y-92490000D01*
X167163809Y-92490000D02*
X167020952Y-92537619D01*
X167020952Y-92537619D02*
X166925714Y-92537619D01*
X167687619Y-91537619D02*
X168306666Y-91537619D01*
X168306666Y-91537619D02*
X167973333Y-91918571D01*
X167973333Y-91918571D02*
X168116190Y-91918571D01*
X168116190Y-91918571D02*
X168211428Y-91966190D01*
X168211428Y-91966190D02*
X168259047Y-92013809D01*
X168259047Y-92013809D02*
X168306666Y-92109047D01*
X168306666Y-92109047D02*
X168306666Y-92347142D01*
X168306666Y-92347142D02*
X168259047Y-92442380D01*
X168259047Y-92442380D02*
X168211428Y-92490000D01*
X168211428Y-92490000D02*
X168116190Y-92537619D01*
X168116190Y-92537619D02*
X167830476Y-92537619D01*
X167830476Y-92537619D02*
X167735238Y-92490000D01*
X167735238Y-92490000D02*
X167687619Y-92442380D01*
%TO.C,SW2*%
X175522600Y-96089132D02*
X175570219Y-95946275D01*
X175570219Y-95946275D02*
X175570219Y-95708180D01*
X175570219Y-95708180D02*
X175522600Y-95612942D01*
X175522600Y-95612942D02*
X175474980Y-95565323D01*
X175474980Y-95565323D02*
X175379742Y-95517704D01*
X175379742Y-95517704D02*
X175284504Y-95517704D01*
X175284504Y-95517704D02*
X175189266Y-95565323D01*
X175189266Y-95565323D02*
X175141647Y-95612942D01*
X175141647Y-95612942D02*
X175094028Y-95708180D01*
X175094028Y-95708180D02*
X175046409Y-95898656D01*
X175046409Y-95898656D02*
X174998790Y-95993894D01*
X174998790Y-95993894D02*
X174951171Y-96041513D01*
X174951171Y-96041513D02*
X174855933Y-96089132D01*
X174855933Y-96089132D02*
X174760695Y-96089132D01*
X174760695Y-96089132D02*
X174665457Y-96041513D01*
X174665457Y-96041513D02*
X174617838Y-95993894D01*
X174617838Y-95993894D02*
X174570219Y-95898656D01*
X174570219Y-95898656D02*
X174570219Y-95660561D01*
X174570219Y-95660561D02*
X174617838Y-95517704D01*
X174570219Y-95184370D02*
X175570219Y-94946275D01*
X175570219Y-94946275D02*
X174855933Y-94755799D01*
X174855933Y-94755799D02*
X175570219Y-94565323D01*
X175570219Y-94565323D02*
X174570219Y-94327228D01*
X174665457Y-93993894D02*
X174617838Y-93946275D01*
X174617838Y-93946275D02*
X174570219Y-93851037D01*
X174570219Y-93851037D02*
X174570219Y-93612942D01*
X174570219Y-93612942D02*
X174617838Y-93517704D01*
X174617838Y-93517704D02*
X174665457Y-93470085D01*
X174665457Y-93470085D02*
X174760695Y-93422466D01*
X174760695Y-93422466D02*
X174855933Y-93422466D01*
X174855933Y-93422466D02*
X174998790Y-93470085D01*
X174998790Y-93470085D02*
X175570219Y-94041513D01*
X175570219Y-94041513D02*
X175570219Y-93422466D01*
%TO.C,R3*%
X176263619Y-131992666D02*
X175787428Y-132325999D01*
X176263619Y-132564094D02*
X175263619Y-132564094D01*
X175263619Y-132564094D02*
X175263619Y-132183142D01*
X175263619Y-132183142D02*
X175311238Y-132087904D01*
X175311238Y-132087904D02*
X175358857Y-132040285D01*
X175358857Y-132040285D02*
X175454095Y-131992666D01*
X175454095Y-131992666D02*
X175596952Y-131992666D01*
X175596952Y-131992666D02*
X175692190Y-132040285D01*
X175692190Y-132040285D02*
X175739809Y-132087904D01*
X175739809Y-132087904D02*
X175787428Y-132183142D01*
X175787428Y-132183142D02*
X175787428Y-132564094D01*
X175263619Y-131659332D02*
X175263619Y-131040285D01*
X175263619Y-131040285D02*
X175644571Y-131373618D01*
X175644571Y-131373618D02*
X175644571Y-131230761D01*
X175644571Y-131230761D02*
X175692190Y-131135523D01*
X175692190Y-131135523D02*
X175739809Y-131087904D01*
X175739809Y-131087904D02*
X175835047Y-131040285D01*
X175835047Y-131040285D02*
X176073142Y-131040285D01*
X176073142Y-131040285D02*
X176168380Y-131087904D01*
X176168380Y-131087904D02*
X176216000Y-131135523D01*
X176216000Y-131135523D02*
X176263619Y-131230761D01*
X176263619Y-131230761D02*
X176263619Y-131516475D01*
X176263619Y-131516475D02*
X176216000Y-131611713D01*
X176216000Y-131611713D02*
X176168380Y-131659332D01*
%TO.C,R5*%
X170925833Y-102189619D02*
X170592500Y-101713428D01*
X170354405Y-102189619D02*
X170354405Y-101189619D01*
X170354405Y-101189619D02*
X170735357Y-101189619D01*
X170735357Y-101189619D02*
X170830595Y-101237238D01*
X170830595Y-101237238D02*
X170878214Y-101284857D01*
X170878214Y-101284857D02*
X170925833Y-101380095D01*
X170925833Y-101380095D02*
X170925833Y-101522952D01*
X170925833Y-101522952D02*
X170878214Y-101618190D01*
X170878214Y-101618190D02*
X170830595Y-101665809D01*
X170830595Y-101665809D02*
X170735357Y-101713428D01*
X170735357Y-101713428D02*
X170354405Y-101713428D01*
X171830595Y-101189619D02*
X171354405Y-101189619D01*
X171354405Y-101189619D02*
X171306786Y-101665809D01*
X171306786Y-101665809D02*
X171354405Y-101618190D01*
X171354405Y-101618190D02*
X171449643Y-101570571D01*
X171449643Y-101570571D02*
X171687738Y-101570571D01*
X171687738Y-101570571D02*
X171782976Y-101618190D01*
X171782976Y-101618190D02*
X171830595Y-101665809D01*
X171830595Y-101665809D02*
X171878214Y-101761047D01*
X171878214Y-101761047D02*
X171878214Y-101999142D01*
X171878214Y-101999142D02*
X171830595Y-102094380D01*
X171830595Y-102094380D02*
X171782976Y-102142000D01*
X171782976Y-102142000D02*
X171687738Y-102189619D01*
X171687738Y-102189619D02*
X171449643Y-102189619D01*
X171449643Y-102189619D02*
X171354405Y-102142000D01*
X171354405Y-102142000D02*
X171306786Y-102094380D01*
%TO.C,Y1*%
X171075409Y-132396628D02*
X171075409Y-132872819D01*
X170742076Y-131872819D02*
X171075409Y-132396628D01*
X171075409Y-132396628D02*
X171408742Y-131872819D01*
X172265885Y-132872819D02*
X171694457Y-132872819D01*
X171980171Y-132872819D02*
X171980171Y-131872819D01*
X171980171Y-131872819D02*
X171884933Y-132015676D01*
X171884933Y-132015676D02*
X171789695Y-132110914D01*
X171789695Y-132110914D02*
X171694457Y-132158533D01*
%TO.C,D3*%
X178331905Y-91775619D02*
X178331905Y-90775619D01*
X178331905Y-90775619D02*
X178570000Y-90775619D01*
X178570000Y-90775619D02*
X178712857Y-90823238D01*
X178712857Y-90823238D02*
X178808095Y-90918476D01*
X178808095Y-90918476D02*
X178855714Y-91013714D01*
X178855714Y-91013714D02*
X178903333Y-91204190D01*
X178903333Y-91204190D02*
X178903333Y-91347047D01*
X178903333Y-91347047D02*
X178855714Y-91537523D01*
X178855714Y-91537523D02*
X178808095Y-91632761D01*
X178808095Y-91632761D02*
X178712857Y-91728000D01*
X178712857Y-91728000D02*
X178570000Y-91775619D01*
X178570000Y-91775619D02*
X178331905Y-91775619D01*
X179236667Y-90775619D02*
X179855714Y-90775619D01*
X179855714Y-90775619D02*
X179522381Y-91156571D01*
X179522381Y-91156571D02*
X179665238Y-91156571D01*
X179665238Y-91156571D02*
X179760476Y-91204190D01*
X179760476Y-91204190D02*
X179808095Y-91251809D01*
X179808095Y-91251809D02*
X179855714Y-91347047D01*
X179855714Y-91347047D02*
X179855714Y-91585142D01*
X179855714Y-91585142D02*
X179808095Y-91680380D01*
X179808095Y-91680380D02*
X179760476Y-91728000D01*
X179760476Y-91728000D02*
X179665238Y-91775619D01*
X179665238Y-91775619D02*
X179379524Y-91775619D01*
X179379524Y-91775619D02*
X179284286Y-91728000D01*
X179284286Y-91728000D02*
X179236667Y-91680380D01*
%TO.C,U2*%
X163550695Y-112111619D02*
X163550695Y-112921142D01*
X163550695Y-112921142D02*
X163598314Y-113016380D01*
X163598314Y-113016380D02*
X163645933Y-113064000D01*
X163645933Y-113064000D02*
X163741171Y-113111619D01*
X163741171Y-113111619D02*
X163931647Y-113111619D01*
X163931647Y-113111619D02*
X164026885Y-113064000D01*
X164026885Y-113064000D02*
X164074504Y-113016380D01*
X164074504Y-113016380D02*
X164122123Y-112921142D01*
X164122123Y-112921142D02*
X164122123Y-112111619D01*
X164550695Y-112206857D02*
X164598314Y-112159238D01*
X164598314Y-112159238D02*
X164693552Y-112111619D01*
X164693552Y-112111619D02*
X164931647Y-112111619D01*
X164931647Y-112111619D02*
X165026885Y-112159238D01*
X165026885Y-112159238D02*
X165074504Y-112206857D01*
X165074504Y-112206857D02*
X165122123Y-112302095D01*
X165122123Y-112302095D02*
X165122123Y-112397333D01*
X165122123Y-112397333D02*
X165074504Y-112540190D01*
X165074504Y-112540190D02*
X164503076Y-113111619D01*
X164503076Y-113111619D02*
X165122123Y-113111619D01*
%TO.C,R2*%
X171791333Y-131272619D02*
X171458000Y-130796428D01*
X171219905Y-131272619D02*
X171219905Y-130272619D01*
X171219905Y-130272619D02*
X171600857Y-130272619D01*
X171600857Y-130272619D02*
X171696095Y-130320238D01*
X171696095Y-130320238D02*
X171743714Y-130367857D01*
X171743714Y-130367857D02*
X171791333Y-130463095D01*
X171791333Y-130463095D02*
X171791333Y-130605952D01*
X171791333Y-130605952D02*
X171743714Y-130701190D01*
X171743714Y-130701190D02*
X171696095Y-130748809D01*
X171696095Y-130748809D02*
X171600857Y-130796428D01*
X171600857Y-130796428D02*
X171219905Y-130796428D01*
X172172286Y-130367857D02*
X172219905Y-130320238D01*
X172219905Y-130320238D02*
X172315143Y-130272619D01*
X172315143Y-130272619D02*
X172553238Y-130272619D01*
X172553238Y-130272619D02*
X172648476Y-130320238D01*
X172648476Y-130320238D02*
X172696095Y-130367857D01*
X172696095Y-130367857D02*
X172743714Y-130463095D01*
X172743714Y-130463095D02*
X172743714Y-130558333D01*
X172743714Y-130558333D02*
X172696095Y-130701190D01*
X172696095Y-130701190D02*
X172124667Y-131272619D01*
X172124667Y-131272619D02*
X172743714Y-131272619D01*
%TO.C,R6*%
X164782833Y-102222619D02*
X164449500Y-101746428D01*
X164211405Y-102222619D02*
X164211405Y-101222619D01*
X164211405Y-101222619D02*
X164592357Y-101222619D01*
X164592357Y-101222619D02*
X164687595Y-101270238D01*
X164687595Y-101270238D02*
X164735214Y-101317857D01*
X164735214Y-101317857D02*
X164782833Y-101413095D01*
X164782833Y-101413095D02*
X164782833Y-101555952D01*
X164782833Y-101555952D02*
X164735214Y-101651190D01*
X164735214Y-101651190D02*
X164687595Y-101698809D01*
X164687595Y-101698809D02*
X164592357Y-101746428D01*
X164592357Y-101746428D02*
X164211405Y-101746428D01*
X165639976Y-101222619D02*
X165449500Y-101222619D01*
X165449500Y-101222619D02*
X165354262Y-101270238D01*
X165354262Y-101270238D02*
X165306643Y-101317857D01*
X165306643Y-101317857D02*
X165211405Y-101460714D01*
X165211405Y-101460714D02*
X165163786Y-101651190D01*
X165163786Y-101651190D02*
X165163786Y-102032142D01*
X165163786Y-102032142D02*
X165211405Y-102127380D01*
X165211405Y-102127380D02*
X165259024Y-102175000D01*
X165259024Y-102175000D02*
X165354262Y-102222619D01*
X165354262Y-102222619D02*
X165544738Y-102222619D01*
X165544738Y-102222619D02*
X165639976Y-102175000D01*
X165639976Y-102175000D02*
X165687595Y-102127380D01*
X165687595Y-102127380D02*
X165735214Y-102032142D01*
X165735214Y-102032142D02*
X165735214Y-101794047D01*
X165735214Y-101794047D02*
X165687595Y-101698809D01*
X165687595Y-101698809D02*
X165639976Y-101651190D01*
X165639976Y-101651190D02*
X165544738Y-101603571D01*
X165544738Y-101603571D02*
X165354262Y-101603571D01*
X165354262Y-101603571D02*
X165259024Y-101651190D01*
X165259024Y-101651190D02*
X165211405Y-101698809D01*
X165211405Y-101698809D02*
X165163786Y-101794047D01*
%TO.C,C16*%
X165942380Y-135897857D02*
X165990000Y-135945476D01*
X165990000Y-135945476D02*
X166037619Y-136088333D01*
X166037619Y-136088333D02*
X166037619Y-136183571D01*
X166037619Y-136183571D02*
X165990000Y-136326428D01*
X165990000Y-136326428D02*
X165894761Y-136421666D01*
X165894761Y-136421666D02*
X165799523Y-136469285D01*
X165799523Y-136469285D02*
X165609047Y-136516904D01*
X165609047Y-136516904D02*
X165466190Y-136516904D01*
X165466190Y-136516904D02*
X165275714Y-136469285D01*
X165275714Y-136469285D02*
X165180476Y-136421666D01*
X165180476Y-136421666D02*
X165085238Y-136326428D01*
X165085238Y-136326428D02*
X165037619Y-136183571D01*
X165037619Y-136183571D02*
X165037619Y-136088333D01*
X165037619Y-136088333D02*
X165085238Y-135945476D01*
X165085238Y-135945476D02*
X165132857Y-135897857D01*
X166037619Y-134945476D02*
X166037619Y-135516904D01*
X166037619Y-135231190D02*
X165037619Y-135231190D01*
X165037619Y-135231190D02*
X165180476Y-135326428D01*
X165180476Y-135326428D02*
X165275714Y-135421666D01*
X165275714Y-135421666D02*
X165323333Y-135516904D01*
X165037619Y-134088333D02*
X165037619Y-134278809D01*
X165037619Y-134278809D02*
X165085238Y-134374047D01*
X165085238Y-134374047D02*
X165132857Y-134421666D01*
X165132857Y-134421666D02*
X165275714Y-134516904D01*
X165275714Y-134516904D02*
X165466190Y-134564523D01*
X165466190Y-134564523D02*
X165847142Y-134564523D01*
X165847142Y-134564523D02*
X165942380Y-134516904D01*
X165942380Y-134516904D02*
X165990000Y-134469285D01*
X165990000Y-134469285D02*
X166037619Y-134374047D01*
X166037619Y-134374047D02*
X166037619Y-134183571D01*
X166037619Y-134183571D02*
X165990000Y-134088333D01*
X165990000Y-134088333D02*
X165942380Y-134040714D01*
X165942380Y-134040714D02*
X165847142Y-133993095D01*
X165847142Y-133993095D02*
X165609047Y-133993095D01*
X165609047Y-133993095D02*
X165513809Y-134040714D01*
X165513809Y-134040714D02*
X165466190Y-134088333D01*
X165466190Y-134088333D02*
X165418571Y-134183571D01*
X165418571Y-134183571D02*
X165418571Y-134374047D01*
X165418571Y-134374047D02*
X165466190Y-134469285D01*
X165466190Y-134469285D02*
X165513809Y-134516904D01*
X165513809Y-134516904D02*
X165609047Y-134564523D01*
%TO.C,D1*%
X163297819Y-102515894D02*
X162297819Y-102515894D01*
X162297819Y-102515894D02*
X162297819Y-102277799D01*
X162297819Y-102277799D02*
X162345438Y-102134942D01*
X162345438Y-102134942D02*
X162440676Y-102039704D01*
X162440676Y-102039704D02*
X162535914Y-101992085D01*
X162535914Y-101992085D02*
X162726390Y-101944466D01*
X162726390Y-101944466D02*
X162869247Y-101944466D01*
X162869247Y-101944466D02*
X163059723Y-101992085D01*
X163059723Y-101992085D02*
X163154961Y-102039704D01*
X163154961Y-102039704D02*
X163250200Y-102134942D01*
X163250200Y-102134942D02*
X163297819Y-102277799D01*
X163297819Y-102277799D02*
X163297819Y-102515894D01*
X163297819Y-100992085D02*
X163297819Y-101563513D01*
X163297819Y-101277799D02*
X162297819Y-101277799D01*
X162297819Y-101277799D02*
X162440676Y-101373037D01*
X162440676Y-101373037D02*
X162535914Y-101468275D01*
X162535914Y-101468275D02*
X162583533Y-101563513D01*
%TO.C,C17*%
X176168380Y-135897857D02*
X176216000Y-135945476D01*
X176216000Y-135945476D02*
X176263619Y-136088333D01*
X176263619Y-136088333D02*
X176263619Y-136183571D01*
X176263619Y-136183571D02*
X176216000Y-136326428D01*
X176216000Y-136326428D02*
X176120761Y-136421666D01*
X176120761Y-136421666D02*
X176025523Y-136469285D01*
X176025523Y-136469285D02*
X175835047Y-136516904D01*
X175835047Y-136516904D02*
X175692190Y-136516904D01*
X175692190Y-136516904D02*
X175501714Y-136469285D01*
X175501714Y-136469285D02*
X175406476Y-136421666D01*
X175406476Y-136421666D02*
X175311238Y-136326428D01*
X175311238Y-136326428D02*
X175263619Y-136183571D01*
X175263619Y-136183571D02*
X175263619Y-136088333D01*
X175263619Y-136088333D02*
X175311238Y-135945476D01*
X175311238Y-135945476D02*
X175358857Y-135897857D01*
X176263619Y-134945476D02*
X176263619Y-135516904D01*
X176263619Y-135231190D02*
X175263619Y-135231190D01*
X175263619Y-135231190D02*
X175406476Y-135326428D01*
X175406476Y-135326428D02*
X175501714Y-135421666D01*
X175501714Y-135421666D02*
X175549333Y-135516904D01*
X175263619Y-134612142D02*
X175263619Y-133945476D01*
X175263619Y-133945476D02*
X176263619Y-134374047D01*
D13*
%TO.C,R4*%
X163107900Y-105358476D02*
X163107900Y-105867924D01*
X162062900Y-105358476D02*
X162062900Y-105867924D01*
%TO.C,SW1*%
X158322400Y-97829600D02*
X158322400Y-91709600D01*
X162022400Y-97829600D02*
X158322400Y-97829600D01*
X158322400Y-91709600D02*
X162022400Y-91709600D01*
X162022400Y-91709600D02*
X162022400Y-97829600D01*
%TO.C,D2*%
X158425000Y-121961600D02*
X165425000Y-121961600D01*
X158425000Y-122961600D02*
X158425000Y-121961600D01*
X158425000Y-127161600D02*
X165425000Y-127161600D01*
%TO.C,R1*%
X160488100Y-105867924D02*
X160488100Y-105358476D01*
X161533100Y-105867924D02*
X161533100Y-105358476D01*
%TO.C,R7*%
X169022500Y-110467224D02*
X169022500Y-109957776D01*
X170067500Y-110467224D02*
X170067500Y-109957776D01*
%TO.C,R8*%
X167528500Y-110467224D02*
X167528500Y-109957776D01*
X168573500Y-110467224D02*
X168573500Y-109957776D01*
%TO.C,J3*%
X172310000Y-93345000D02*
X172310000Y-95145000D01*
X172310000Y-91245000D02*
X172310000Y-90095000D01*
X162970000Y-93345000D02*
X162970000Y-95145000D01*
X162970000Y-91245000D02*
X162970000Y-90095000D01*
%TO.C,SW2*%
X173257600Y-97815800D02*
X173257600Y-91695800D01*
X176957600Y-97815800D02*
X173257600Y-97815800D01*
X173257600Y-91695800D02*
X176957600Y-91695800D01*
X176957600Y-91695800D02*
X176957600Y-97815800D01*
%TO.C,R3*%
X174893500Y-131571276D02*
X174893500Y-132080724D01*
X173848500Y-131571276D02*
X173848500Y-132080724D01*
%TO.C,R5*%
X170837776Y-99807500D02*
X171347224Y-99807500D01*
X170837776Y-100852500D02*
X171347224Y-100852500D01*
%TO.C,Y1*%
X167988000Y-133005000D02*
X167988000Y-137505000D01*
X167988000Y-137505000D02*
X173388000Y-137505000D01*
%TO.C,D3*%
X178220000Y-96117000D02*
X179920000Y-96117000D01*
X178220000Y-96117000D02*
X178220000Y-92857000D01*
X179920000Y-96117000D02*
X179920000Y-92857000D01*
%TO.C,REF\u002A\u002A*%
D14*
X174876927Y-103284721D02*
X174895357Y-103310933D01*
X174906516Y-103339036D01*
X174908572Y-103351905D01*
X174893649Y-103358171D01*
X174861175Y-103370544D01*
X174846502Y-103375972D01*
X174795744Y-103406410D01*
X174770427Y-103450480D01*
X174771206Y-103506990D01*
X174772203Y-103511175D01*
X174786507Y-103541345D01*
X174814393Y-103563524D01*
X174859287Y-103578673D01*
X174924615Y-103587750D01*
X175013804Y-103591714D01*
X175061261Y-103592086D01*
X175136071Y-103592270D01*
X175187069Y-103593478D01*
X175219471Y-103596691D01*
X175238495Y-103602891D01*
X175249356Y-103613060D01*
X175257272Y-103628181D01*
X175257670Y-103629054D01*
X175269981Y-103658172D01*
X175274514Y-103672597D01*
X175260809Y-103674814D01*
X175222925Y-103676711D01*
X175165715Y-103678153D01*
X175094027Y-103679002D01*
X175041565Y-103679171D01*
X174940047Y-103678308D01*
X174863032Y-103674930D01*
X174806023Y-103667858D01*
X174764526Y-103655912D01*
X174734043Y-103637910D01*
X174710080Y-103612673D01*
X174693355Y-103587753D01*
X174671097Y-103527829D01*
X174666076Y-103458089D01*
X174678752Y-103392400D01*
X174686334Y-103375052D01*
X174719128Y-103333644D01*
X174766547Y-103298235D01*
X174817151Y-103276336D01*
X174842098Y-103272771D01*
X174876927Y-103284721D01*
G36*
X174876927Y-103284721D02*
G01*
X174895357Y-103310933D01*
X174906516Y-103339036D01*
X174908572Y-103351905D01*
X174893649Y-103358171D01*
X174861175Y-103370544D01*
X174846502Y-103375972D01*
X174795744Y-103406410D01*
X174770427Y-103450480D01*
X174771206Y-103506990D01*
X174772203Y-103511175D01*
X174786507Y-103541345D01*
X174814393Y-103563524D01*
X174859287Y-103578673D01*
X174924615Y-103587750D01*
X175013804Y-103591714D01*
X175061261Y-103592086D01*
X175136071Y-103592270D01*
X175187069Y-103593478D01*
X175219471Y-103596691D01*
X175238495Y-103602891D01*
X175249356Y-103613060D01*
X175257272Y-103628181D01*
X175257670Y-103629054D01*
X175269981Y-103658172D01*
X175274514Y-103672597D01*
X175260809Y-103674814D01*
X175222925Y-103676711D01*
X175165715Y-103678153D01*
X175094027Y-103679002D01*
X175041565Y-103679171D01*
X174940047Y-103678308D01*
X174863032Y-103674930D01*
X174806023Y-103667858D01*
X174764526Y-103655912D01*
X174734043Y-103637910D01*
X174710080Y-103612673D01*
X174693355Y-103587753D01*
X174671097Y-103527829D01*
X174666076Y-103458089D01*
X174678752Y-103392400D01*
X174686334Y-103375052D01*
X174719128Y-103333644D01*
X174766547Y-103298235D01*
X174817151Y-103276336D01*
X174842098Y-103272771D01*
X174876927Y-103284721D01*
G37*
X175260044Y-107253314D02*
X175287697Y-107315000D01*
X175047670Y-107322257D01*
X174958028Y-107325256D01*
X174892962Y-107328402D01*
X174848026Y-107332299D01*
X174818770Y-107337553D01*
X174800748Y-107344769D01*
X174789511Y-107354550D01*
X174787079Y-107357688D01*
X174768083Y-107405239D01*
X174775600Y-107453303D01*
X174795543Y-107481914D01*
X174809675Y-107493553D01*
X174828220Y-107501609D01*
X174856334Y-107506729D01*
X174899173Y-107509559D01*
X174961895Y-107510744D01*
X175027261Y-107510943D01*
X175109268Y-107510982D01*
X175167316Y-107512386D01*
X175206465Y-107517086D01*
X175231780Y-107527013D01*
X175248323Y-107544097D01*
X175261156Y-107570268D01*
X175274491Y-107605225D01*
X175289007Y-107643404D01*
X175031389Y-107638859D01*
X174938519Y-107637029D01*
X174869889Y-107634888D01*
X174820711Y-107631819D01*
X174786198Y-107627206D01*
X174761562Y-107620432D01*
X174742016Y-107610881D01*
X174724770Y-107599366D01*
X174669680Y-107543810D01*
X174637822Y-107476020D01*
X174630191Y-107402287D01*
X174647780Y-107328907D01*
X174674723Y-107282328D01*
X174701466Y-107249943D01*
X174729484Y-107226258D01*
X174763748Y-107209941D01*
X174809227Y-107199661D01*
X174870892Y-107194086D01*
X174953711Y-107191884D01*
X175013246Y-107191629D01*
X175232391Y-107191629D01*
X175260044Y-107253314D01*
G36*
X175260044Y-107253314D02*
G01*
X175287697Y-107315000D01*
X175047670Y-107322257D01*
X174958028Y-107325256D01*
X174892962Y-107328402D01*
X174848026Y-107332299D01*
X174818770Y-107337553D01*
X174800748Y-107344769D01*
X174789511Y-107354550D01*
X174787079Y-107357688D01*
X174768083Y-107405239D01*
X174775600Y-107453303D01*
X174795543Y-107481914D01*
X174809675Y-107493553D01*
X174828220Y-107501609D01*
X174856334Y-107506729D01*
X174899173Y-107509559D01*
X174961895Y-107510744D01*
X175027261Y-107510943D01*
X175109268Y-107510982D01*
X175167316Y-107512386D01*
X175206465Y-107517086D01*
X175231780Y-107527013D01*
X175248323Y-107544097D01*
X175261156Y-107570268D01*
X175274491Y-107605225D01*
X175289007Y-107643404D01*
X175031389Y-107638859D01*
X174938519Y-107637029D01*
X174869889Y-107634888D01*
X174820711Y-107631819D01*
X174786198Y-107627206D01*
X174761562Y-107620432D01*
X174742016Y-107610881D01*
X174724770Y-107599366D01*
X174669680Y-107543810D01*
X174637822Y-107476020D01*
X174630191Y-107402287D01*
X174647780Y-107328907D01*
X174674723Y-107282328D01*
X174701466Y-107249943D01*
X174729484Y-107226258D01*
X174763748Y-107209941D01*
X174809227Y-107199661D01*
X174870892Y-107194086D01*
X174953711Y-107191884D01*
X175013246Y-107191629D01*
X175232391Y-107191629D01*
X175260044Y-107253314D01*
G37*
X174863186Y-105352534D02*
X174890217Y-105376438D01*
X174894813Y-105385283D01*
X174909144Y-105423470D01*
X174905472Y-105442972D01*
X174881407Y-105449578D01*
X174868114Y-105449914D01*
X174819210Y-105462008D01*
X174784999Y-105493529D01*
X174768476Y-105537341D01*
X174772634Y-105586305D01*
X174794227Y-105626106D01*
X174806544Y-105639550D01*
X174821487Y-105649079D01*
X174844075Y-105655515D01*
X174879328Y-105659683D01*
X174932266Y-105662403D01*
X175007907Y-105664498D01*
X175031857Y-105665040D01*
X175113790Y-105667019D01*
X175171455Y-105669269D01*
X175209608Y-105672643D01*
X175233004Y-105677994D01*
X175246398Y-105686176D01*
X175254545Y-105698041D01*
X175258144Y-105705638D01*
X175270452Y-105737898D01*
X175274514Y-105756889D01*
X175260948Y-105763164D01*
X175219934Y-105766994D01*
X175150999Y-105768400D01*
X175053669Y-105767402D01*
X175038657Y-105767092D01*
X174949859Y-105764899D01*
X174885019Y-105762307D01*
X174839067Y-105758618D01*
X174806935Y-105753136D01*
X174783553Y-105745165D01*
X174763852Y-105734007D01*
X174755410Y-105728170D01*
X174718057Y-105694704D01*
X174689003Y-105657273D01*
X174686467Y-105652691D01*
X174666443Y-105585574D01*
X174669755Y-105515074D01*
X174694084Y-105449142D01*
X174737117Y-105395727D01*
X174767409Y-105374836D01*
X174822994Y-105352061D01*
X174863186Y-105352534D01*
G36*
X174863186Y-105352534D02*
G01*
X174890217Y-105376438D01*
X174894813Y-105385283D01*
X174909144Y-105423470D01*
X174905472Y-105442972D01*
X174881407Y-105449578D01*
X174868114Y-105449914D01*
X174819210Y-105462008D01*
X174784999Y-105493529D01*
X174768476Y-105537341D01*
X174772634Y-105586305D01*
X174794227Y-105626106D01*
X174806544Y-105639550D01*
X174821487Y-105649079D01*
X174844075Y-105655515D01*
X174879328Y-105659683D01*
X174932266Y-105662403D01*
X175007907Y-105664498D01*
X175031857Y-105665040D01*
X175113790Y-105667019D01*
X175171455Y-105669269D01*
X175209608Y-105672643D01*
X175233004Y-105677994D01*
X175246398Y-105686176D01*
X175254545Y-105698041D01*
X175258144Y-105705638D01*
X175270452Y-105737898D01*
X175274514Y-105756889D01*
X175260948Y-105763164D01*
X175219934Y-105766994D01*
X175150999Y-105768400D01*
X175053669Y-105767402D01*
X175038657Y-105767092D01*
X174949859Y-105764899D01*
X174885019Y-105762307D01*
X174839067Y-105758618D01*
X174806935Y-105753136D01*
X174783553Y-105745165D01*
X174763852Y-105734007D01*
X174755410Y-105728170D01*
X174718057Y-105694704D01*
X174689003Y-105657273D01*
X174686467Y-105652691D01*
X174666443Y-105585574D01*
X174669755Y-105515074D01*
X174694084Y-105449142D01*
X174737117Y-105395727D01*
X174767409Y-105374836D01*
X174822994Y-105352061D01*
X174863186Y-105352534D01*
G37*
X175258580Y-106395509D02*
X175269420Y-106427973D01*
X175274468Y-106445785D01*
X175274514Y-106446309D01*
X175260828Y-106448063D01*
X175223076Y-106449556D01*
X175166224Y-106450674D01*
X175095234Y-106451303D01*
X175052073Y-106451400D01*
X174966973Y-106451602D01*
X174905981Y-106452642D01*
X174864177Y-106455169D01*
X174836642Y-106459836D01*
X174818456Y-106467293D01*
X174804698Y-106478189D01*
X174798073Y-106484993D01*
X174771375Y-106531728D01*
X174769375Y-106582728D01*
X174791955Y-106628999D01*
X174800107Y-106637556D01*
X174815436Y-106650107D01*
X174833618Y-106658812D01*
X174859909Y-106664369D01*
X174899562Y-106667474D01*
X174957832Y-106668824D01*
X175038173Y-106669114D01*
X175242646Y-106669114D01*
X175258580Y-106714823D01*
X175269420Y-106747287D01*
X175274468Y-106765099D01*
X175274514Y-106765623D01*
X175260623Y-106766963D01*
X175221439Y-106768172D01*
X175160700Y-106769199D01*
X175082141Y-106769998D01*
X174989498Y-106770519D01*
X174886509Y-106770714D01*
X174489342Y-106770714D01*
X174469444Y-106723543D01*
X174449547Y-106676371D01*
X174571289Y-106669114D01*
X174630613Y-106664861D01*
X174665572Y-106659975D01*
X174680820Y-106653205D01*
X174681015Y-106643298D01*
X174679195Y-106640086D01*
X174666015Y-106597356D01*
X174666785Y-106541773D01*
X174680333Y-106485263D01*
X174697861Y-106449918D01*
X174725861Y-106413679D01*
X174757549Y-106387187D01*
X174797813Y-106369001D01*
X174851543Y-106357678D01*
X174923626Y-106351778D01*
X175018951Y-106349857D01*
X175037237Y-106349823D01*
X175242646Y-106349800D01*
X175258580Y-106395509D01*
G36*
X175258580Y-106395509D02*
G01*
X175269420Y-106427973D01*
X175274468Y-106445785D01*
X175274514Y-106446309D01*
X175260828Y-106448063D01*
X175223076Y-106449556D01*
X175166224Y-106450674D01*
X175095234Y-106451303D01*
X175052073Y-106451400D01*
X174966973Y-106451602D01*
X174905981Y-106452642D01*
X174864177Y-106455169D01*
X174836642Y-106459836D01*
X174818456Y-106467293D01*
X174804698Y-106478189D01*
X174798073Y-106484993D01*
X174771375Y-106531728D01*
X174769375Y-106582728D01*
X174791955Y-106628999D01*
X174800107Y-106637556D01*
X174815436Y-106650107D01*
X174833618Y-106658812D01*
X174859909Y-106664369D01*
X174899562Y-106667474D01*
X174957832Y-106668824D01*
X175038173Y-106669114D01*
X175242646Y-106669114D01*
X175258580Y-106714823D01*
X175269420Y-106747287D01*
X175274468Y-106765099D01*
X175274514Y-106765623D01*
X175260623Y-106766963D01*
X175221439Y-106768172D01*
X175160700Y-106769199D01*
X175082141Y-106769998D01*
X174989498Y-106770519D01*
X174886509Y-106770714D01*
X174489342Y-106770714D01*
X174469444Y-106723543D01*
X174449547Y-106676371D01*
X174571289Y-106669114D01*
X174630613Y-106664861D01*
X174665572Y-106659975D01*
X174680820Y-106653205D01*
X174681015Y-106643298D01*
X174679195Y-106640086D01*
X174666015Y-106597356D01*
X174666785Y-106541773D01*
X174680333Y-106485263D01*
X174697861Y-106449918D01*
X174725861Y-106413679D01*
X174757549Y-106387187D01*
X174797813Y-106369001D01*
X174851543Y-106357678D01*
X174923626Y-106351778D01*
X175018951Y-106349857D01*
X175037237Y-106349823D01*
X175242646Y-106349800D01*
X175258580Y-106395509D01*
G37*
X175231127Y-104305674D02*
X175259429Y-104337325D01*
X175270893Y-104365110D01*
X175270168Y-104403085D01*
X175268321Y-104418160D01*
X175262948Y-104465274D01*
X175259869Y-104504244D01*
X175259585Y-104513743D01*
X175261445Y-104545767D01*
X175266114Y-104591568D01*
X175268321Y-104609326D01*
X175271735Y-104652943D01*
X175264320Y-104682255D01*
X175241427Y-104711320D01*
X175231127Y-104721812D01*
X175185196Y-104767743D01*
X174698602Y-104767743D01*
X174681758Y-104730774D01*
X174669282Y-104698941D01*
X174664914Y-104680317D01*
X174678718Y-104675542D01*
X174717286Y-104671079D01*
X174776356Y-104667225D01*
X174851663Y-104664278D01*
X174915286Y-104662857D01*
X175165657Y-104658886D01*
X175170556Y-104624241D01*
X175167131Y-104592732D01*
X175156041Y-104577292D01*
X175135308Y-104572977D01*
X175091145Y-104569292D01*
X175029146Y-104566531D01*
X174954909Y-104564988D01*
X174916706Y-104564765D01*
X174696783Y-104564543D01*
X174680849Y-104518834D01*
X174670015Y-104486482D01*
X174664962Y-104468885D01*
X174664914Y-104468377D01*
X174678648Y-104466612D01*
X174716730Y-104464671D01*
X174774482Y-104462718D01*
X174847227Y-104460916D01*
X174915286Y-104459657D01*
X175165657Y-104455686D01*
X175165657Y-104368600D01*
X174937240Y-104364604D01*
X174708822Y-104360608D01*
X174686868Y-104318153D01*
X174671793Y-104286808D01*
X174664951Y-104268256D01*
X174664914Y-104267721D01*
X174678663Y-104265167D01*
X174716850Y-104262952D01*
X174774886Y-104261216D01*
X174848180Y-104260101D01*
X174925055Y-104259743D01*
X175185196Y-104259743D01*
X175231127Y-104305674D01*
G36*
X175231127Y-104305674D02*
G01*
X175259429Y-104337325D01*
X175270893Y-104365110D01*
X175270168Y-104403085D01*
X175268321Y-104418160D01*
X175262948Y-104465274D01*
X175259869Y-104504244D01*
X175259585Y-104513743D01*
X175261445Y-104545767D01*
X175266114Y-104591568D01*
X175268321Y-104609326D01*
X175271735Y-104652943D01*
X175264320Y-104682255D01*
X175241427Y-104711320D01*
X175231127Y-104721812D01*
X175185196Y-104767743D01*
X174698602Y-104767743D01*
X174681758Y-104730774D01*
X174669282Y-104698941D01*
X174664914Y-104680317D01*
X174678718Y-104675542D01*
X174717286Y-104671079D01*
X174776356Y-104667225D01*
X174851663Y-104664278D01*
X174915286Y-104662857D01*
X175165657Y-104658886D01*
X175170556Y-104624241D01*
X175167131Y-104592732D01*
X175156041Y-104577292D01*
X175135308Y-104572977D01*
X175091145Y-104569292D01*
X175029146Y-104566531D01*
X174954909Y-104564988D01*
X174916706Y-104564765D01*
X174696783Y-104564543D01*
X174680849Y-104518834D01*
X174670015Y-104486482D01*
X174664962Y-104468885D01*
X174664914Y-104468377D01*
X174678648Y-104466612D01*
X174716730Y-104464671D01*
X174774482Y-104462718D01*
X174847227Y-104460916D01*
X174915286Y-104459657D01*
X175165657Y-104455686D01*
X175165657Y-104368600D01*
X174937240Y-104364604D01*
X174708822Y-104360608D01*
X174686868Y-104318153D01*
X174671793Y-104286808D01*
X174664951Y-104268256D01*
X174664914Y-104267721D01*
X174678663Y-104265167D01*
X174716850Y-104262952D01*
X174774886Y-104261216D01*
X174848180Y-104260101D01*
X174925055Y-104259743D01*
X175185196Y-104259743D01*
X175231127Y-104305674D01*
G37*
X175049552Y-108851573D02*
X175114342Y-108862730D01*
X175160873Y-108879286D01*
X175168887Y-108884374D01*
X175228707Y-108944645D01*
X175264535Y-109016231D01*
X175275020Y-109093908D01*
X175258810Y-109172452D01*
X175249092Y-109194311D01*
X175219143Y-109236878D01*
X175179433Y-109274237D01*
X175174397Y-109277768D01*
X175150124Y-109292119D01*
X175124178Y-109301606D01*
X175090022Y-109307210D01*
X175041119Y-109309914D01*
X174970935Y-109310701D01*
X174955200Y-109310714D01*
X174950192Y-109310678D01*
X174880413Y-109310174D01*
X174828159Y-109307904D01*
X174791949Y-109302932D01*
X174765299Y-109294287D01*
X174741722Y-109280995D01*
X174737338Y-109278057D01*
X174678249Y-109228687D01*
X174643947Y-109174891D01*
X174630331Y-109109398D01*
X174629665Y-109087158D01*
X174630426Y-109082008D01*
X174766514Y-109082008D01*
X174772152Y-109117636D01*
X174791686Y-109142006D01*
X174829042Y-109156907D01*
X174888150Y-109164125D01*
X174950192Y-109165571D01*
X175016430Y-109164727D01*
X175060386Y-109161404D01*
X175088779Y-109154417D01*
X175108325Y-109142584D01*
X175114857Y-109136543D01*
X175139680Y-109101814D01*
X175138548Y-109068097D01*
X175117016Y-109034005D01*
X175094029Y-109013671D01*
X175060478Y-109001629D01*
X175007569Y-108994866D01*
X175001399Y-108994402D01*
X174905513Y-108993248D01*
X174834299Y-109005312D01*
X174788194Y-109030430D01*
X174767635Y-109068440D01*
X174766514Y-109082008D01*
X174630426Y-109082008D01*
X174641962Y-109003885D01*
X174677733Y-108935855D01*
X174735301Y-108885649D01*
X174772312Y-108867815D01*
X174827882Y-108853937D01*
X174898096Y-108846833D01*
X174974727Y-108846160D01*
X175049552Y-108851573D01*
G36*
X175049552Y-108851573D02*
G01*
X175114342Y-108862730D01*
X175160873Y-108879286D01*
X175168887Y-108884374D01*
X175228707Y-108944645D01*
X175264535Y-109016231D01*
X175275020Y-109093908D01*
X175258810Y-109172452D01*
X175249092Y-109194311D01*
X175219143Y-109236878D01*
X175179433Y-109274237D01*
X175174397Y-109277768D01*
X175150124Y-109292119D01*
X175124178Y-109301606D01*
X175090022Y-109307210D01*
X175041119Y-109309914D01*
X174970935Y-109310701D01*
X174955200Y-109310714D01*
X174950192Y-109310678D01*
X174880413Y-109310174D01*
X174828159Y-109307904D01*
X174791949Y-109302932D01*
X174765299Y-109294287D01*
X174741722Y-109280995D01*
X174737338Y-109278057D01*
X174678249Y-109228687D01*
X174643947Y-109174891D01*
X174630331Y-109109398D01*
X174629665Y-109087158D01*
X174630426Y-109082008D01*
X174766514Y-109082008D01*
X174772152Y-109117636D01*
X174791686Y-109142006D01*
X174829042Y-109156907D01*
X174888150Y-109164125D01*
X174950192Y-109165571D01*
X175016430Y-109164727D01*
X175060386Y-109161404D01*
X175088779Y-109154417D01*
X175108325Y-109142584D01*
X175114857Y-109136543D01*
X175139680Y-109101814D01*
X175138548Y-109068097D01*
X175117016Y-109034005D01*
X175094029Y-109013671D01*
X175060478Y-109001629D01*
X175007569Y-108994866D01*
X175001399Y-108994402D01*
X174905513Y-108993248D01*
X174834299Y-109005312D01*
X174788194Y-109030430D01*
X174767635Y-109068440D01*
X174766514Y-109082008D01*
X174630426Y-109082008D01*
X174641962Y-109003885D01*
X174677733Y-108935855D01*
X174735301Y-108885649D01*
X174772312Y-108867815D01*
X174827882Y-108853937D01*
X174898096Y-108846833D01*
X174974727Y-108846160D01*
X175049552Y-108851573D01*
G37*
X175120283Y-102783128D02*
X175155969Y-102798177D01*
X175196943Y-102829720D01*
X175202267Y-102834408D01*
X175238720Y-102869494D01*
X175258283Y-102899653D01*
X175267283Y-102937385D01*
X175270230Y-102968665D01*
X175270965Y-103024615D01*
X175261660Y-103064445D01*
X175247846Y-103089292D01*
X175217467Y-103128344D01*
X175184613Y-103155375D01*
X175143294Y-103172483D01*
X175087521Y-103181762D01*
X175011305Y-103185307D01*
X174972622Y-103185590D01*
X174926247Y-103184628D01*
X174882249Y-103183715D01*
X174815384Y-103176804D01*
X174766695Y-103163116D01*
X174730849Y-103140904D01*
X174702513Y-103108426D01*
X174693355Y-103094267D01*
X174669507Y-103029947D01*
X174668135Y-102965590D01*
X174766364Y-102965590D01*
X174770122Y-103014678D01*
X174797884Y-103055773D01*
X174847152Y-103084242D01*
X174886257Y-103093369D01*
X174926247Y-103096993D01*
X174951126Y-103095977D01*
X174955200Y-103093444D01*
X174949665Y-103076726D01*
X174935017Y-103040751D01*
X174914190Y-102992669D01*
X174909714Y-102982614D01*
X174878814Y-102921848D01*
X174851657Y-102888368D01*
X174826220Y-102881010D01*
X174800481Y-102898609D01*
X174789109Y-102913144D01*
X174766364Y-102965590D01*
X174668135Y-102965590D01*
X174668006Y-102959527D01*
X174686966Y-102891405D01*
X174724497Y-102833979D01*
X174758096Y-102806281D01*
X174819064Y-102784338D01*
X174867308Y-102782595D01*
X174931816Y-102786543D01*
X174996934Y-102935314D01*
X175030202Y-103007651D01*
X175056964Y-103054916D01*
X175080144Y-103079493D01*
X175102667Y-103083763D01*
X175127455Y-103070111D01*
X175143886Y-103055057D01*
X175170235Y-103011254D01*
X175172081Y-102963611D01*
X175151546Y-102919855D01*
X175110752Y-102887711D01*
X175096347Y-102881962D01*
X175051356Y-102854424D01*
X175032182Y-102822742D01*
X175015779Y-102779286D01*
X175077966Y-102779286D01*
X175120283Y-102783128D01*
G36*
X175120283Y-102783128D02*
G01*
X175155969Y-102798177D01*
X175196943Y-102829720D01*
X175202267Y-102834408D01*
X175238720Y-102869494D01*
X175258283Y-102899653D01*
X175267283Y-102937385D01*
X175270230Y-102968665D01*
X175270965Y-103024615D01*
X175261660Y-103064445D01*
X175247846Y-103089292D01*
X175217467Y-103128344D01*
X175184613Y-103155375D01*
X175143294Y-103172483D01*
X175087521Y-103181762D01*
X175011305Y-103185307D01*
X174972622Y-103185590D01*
X174926247Y-103184628D01*
X174882249Y-103183715D01*
X174815384Y-103176804D01*
X174766695Y-103163116D01*
X174730849Y-103140904D01*
X174702513Y-103108426D01*
X174693355Y-103094267D01*
X174669507Y-103029947D01*
X174668135Y-102965590D01*
X174766364Y-102965590D01*
X174770122Y-103014678D01*
X174797884Y-103055773D01*
X174847152Y-103084242D01*
X174886257Y-103093369D01*
X174926247Y-103096993D01*
X174951126Y-103095977D01*
X174955200Y-103093444D01*
X174949665Y-103076726D01*
X174935017Y-103040751D01*
X174914190Y-102992669D01*
X174909714Y-102982614D01*
X174878814Y-102921848D01*
X174851657Y-102888368D01*
X174826220Y-102881010D01*
X174800481Y-102898609D01*
X174789109Y-102913144D01*
X174766364Y-102965590D01*
X174668135Y-102965590D01*
X174668006Y-102959527D01*
X174686966Y-102891405D01*
X174724497Y-102833979D01*
X174758096Y-102806281D01*
X174819064Y-102784338D01*
X174867308Y-102782595D01*
X174931816Y-102786543D01*
X174996934Y-102935314D01*
X175030202Y-103007651D01*
X175056964Y-103054916D01*
X175080144Y-103079493D01*
X175102667Y-103083763D01*
X175127455Y-103070111D01*
X175143886Y-103055057D01*
X175170235Y-103011254D01*
X175172081Y-102963611D01*
X175151546Y-102919855D01*
X175110752Y-102887711D01*
X175096347Y-102881962D01*
X175051356Y-102854424D01*
X175032182Y-102822742D01*
X175015779Y-102779286D01*
X175077966Y-102779286D01*
X175120283Y-102783128D01*
G37*
X174785358Y-104854883D02*
X174893837Y-104855067D01*
X174977287Y-104855781D01*
X175039704Y-104857325D01*
X175085085Y-104859999D01*
X175117429Y-104864106D01*
X175140733Y-104869945D01*
X175158995Y-104877818D01*
X175169418Y-104883779D01*
X175225945Y-104933145D01*
X175261377Y-104995736D01*
X175274090Y-105064987D01*
X175262463Y-105134332D01*
X175241568Y-105175625D01*
X175205422Y-105218975D01*
X175161276Y-105248519D01*
X175103462Y-105266345D01*
X175026313Y-105274537D01*
X174969714Y-105275698D01*
X174965647Y-105275542D01*
X174878568Y-105272190D01*
X174810086Y-105260274D01*
X174758600Y-105237865D01*
X174718443Y-105202876D01*
X174697861Y-105175625D01*
X174675625Y-105126093D01*
X174667837Y-105082776D01*
X174768843Y-105082776D01*
X174790159Y-105131204D01*
X174798073Y-105140550D01*
X174815647Y-105156460D01*
X174836587Y-105166390D01*
X174867782Y-105171722D01*
X174916122Y-105173837D01*
X174965647Y-105174143D01*
X175030550Y-105173524D01*
X175073514Y-105170686D01*
X175101622Y-105164160D01*
X175121953Y-105152477D01*
X175137288Y-105138517D01*
X175166890Y-105091635D01*
X175169419Y-105041299D01*
X175144705Y-104993724D01*
X175141356Y-104990021D01*
X175123935Y-104974217D01*
X175103209Y-104964307D01*
X175072362Y-104958942D01*
X175024577Y-104956772D01*
X174971748Y-104956429D01*
X174905381Y-104957173D01*
X174861106Y-104960252D01*
X174832009Y-104966939D01*
X174811173Y-104978504D01*
X174800107Y-104987987D01*
X174772198Y-105032040D01*
X174768843Y-105082776D01*
X174667837Y-105082776D01*
X174665304Y-105068684D01*
X174668067Y-105015318D01*
X174679212Y-104985457D01*
X174682383Y-104973739D01*
X174670557Y-104965963D01*
X174638866Y-104960535D01*
X174590593Y-104956429D01*
X174536829Y-104951933D01*
X174504482Y-104945687D01*
X174485985Y-104934324D01*
X174473770Y-104914472D01*
X174468362Y-104902000D01*
X174448601Y-104854829D01*
X174785358Y-104854883D01*
G36*
X174785358Y-104854883D02*
G01*
X174893837Y-104855067D01*
X174977287Y-104855781D01*
X175039704Y-104857325D01*
X175085085Y-104859999D01*
X175117429Y-104864106D01*
X175140733Y-104869945D01*
X175158995Y-104877818D01*
X175169418Y-104883779D01*
X175225945Y-104933145D01*
X175261377Y-104995736D01*
X175274090Y-105064987D01*
X175262463Y-105134332D01*
X175241568Y-105175625D01*
X175205422Y-105218975D01*
X175161276Y-105248519D01*
X175103462Y-105266345D01*
X175026313Y-105274537D01*
X174969714Y-105275698D01*
X174965647Y-105275542D01*
X174878568Y-105272190D01*
X174810086Y-105260274D01*
X174758600Y-105237865D01*
X174718443Y-105202876D01*
X174697861Y-105175625D01*
X174675625Y-105126093D01*
X174667837Y-105082776D01*
X174768843Y-105082776D01*
X174790159Y-105131204D01*
X174798073Y-105140550D01*
X174815647Y-105156460D01*
X174836587Y-105166390D01*
X174867782Y-105171722D01*
X174916122Y-105173837D01*
X174965647Y-105174143D01*
X175030550Y-105173524D01*
X175073514Y-105170686D01*
X175101622Y-105164160D01*
X175121953Y-105152477D01*
X175137288Y-105138517D01*
X175166890Y-105091635D01*
X175169419Y-105041299D01*
X175144705Y-104993724D01*
X175141356Y-104990021D01*
X175123935Y-104974217D01*
X175103209Y-104964307D01*
X175072362Y-104958942D01*
X175024577Y-104956772D01*
X174971748Y-104956429D01*
X174905381Y-104957173D01*
X174861106Y-104960252D01*
X174832009Y-104966939D01*
X174811173Y-104978504D01*
X174800107Y-104987987D01*
X174772198Y-105032040D01*
X174768843Y-105082776D01*
X174667837Y-105082776D01*
X174665304Y-105068684D01*
X174668067Y-105015318D01*
X174679212Y-104985457D01*
X174682383Y-104973739D01*
X174670557Y-104965963D01*
X174638866Y-104960535D01*
X174590593Y-104956429D01*
X174536829Y-104951933D01*
X174504482Y-104945687D01*
X174485985Y-104934324D01*
X174473770Y-104914472D01*
X174468362Y-104902000D01*
X174448601Y-104854829D01*
X174785358Y-104854883D01*
G37*
X175056866Y-107748357D02*
X175102558Y-107759643D01*
X175142761Y-107775050D01*
X175144322Y-107775829D01*
X175209062Y-107822196D01*
X175253097Y-107882289D01*
X175274711Y-107950535D01*
X175272185Y-108021362D01*
X175243804Y-108089196D01*
X175241808Y-108092212D01*
X175193448Y-108145573D01*
X175130352Y-108180660D01*
X175047387Y-108200078D01*
X175024078Y-108202684D01*
X174914055Y-108207299D01*
X174862748Y-108201767D01*
X174826027Y-108197806D01*
X174756212Y-108173450D01*
X174707302Y-108139544D01*
X174657878Y-108078347D01*
X174633359Y-108010937D01*
X174632910Y-107991154D01*
X174767950Y-107991154D01*
X174786717Y-108028897D01*
X174822915Y-108054966D01*
X174862748Y-108062486D01*
X174894753Y-108060676D01*
X174904093Y-108050778D01*
X174897105Y-108026102D01*
X174880587Y-107987205D01*
X174859881Y-107943725D01*
X174859333Y-107942644D01*
X174839949Y-107905791D01*
X174827013Y-107891000D01*
X174813451Y-107894647D01*
X174795632Y-107910005D01*
X174769845Y-107949077D01*
X174767950Y-107991154D01*
X174632910Y-107991154D01*
X174631797Y-107942120D01*
X174651239Y-107876697D01*
X174689735Y-107819473D01*
X174745335Y-107775251D01*
X174816086Y-107748833D01*
X174868162Y-107743490D01*
X174889893Y-107744097D01*
X174906531Y-107749178D01*
X174921437Y-107763145D01*
X174937973Y-107790411D01*
X174959498Y-107835388D01*
X174989374Y-107902489D01*
X174989524Y-107902829D01*
X175017813Y-107964593D01*
X175042933Y-108015241D01*
X175062179Y-108049596D01*
X175072848Y-108062482D01*
X175072934Y-108062486D01*
X175096166Y-108051128D01*
X175121774Y-108024569D01*
X175140221Y-107994077D01*
X175143886Y-107978630D01*
X175131212Y-107936485D01*
X175099471Y-107900192D01*
X175064572Y-107882483D01*
X175038845Y-107865448D01*
X175009546Y-107832078D01*
X174984235Y-107792851D01*
X174970471Y-107758244D01*
X174969714Y-107751007D01*
X174982160Y-107742861D01*
X175013972Y-107742370D01*
X175056866Y-107748357D01*
G36*
X175056866Y-107748357D02*
G01*
X175102558Y-107759643D01*
X175142761Y-107775050D01*
X175144322Y-107775829D01*
X175209062Y-107822196D01*
X175253097Y-107882289D01*
X175274711Y-107950535D01*
X175272185Y-108021362D01*
X175243804Y-108089196D01*
X175241808Y-108092212D01*
X175193448Y-108145573D01*
X175130352Y-108180660D01*
X175047387Y-108200078D01*
X175024078Y-108202684D01*
X174914055Y-108207299D01*
X174862748Y-108201767D01*
X174826027Y-108197806D01*
X174756212Y-108173450D01*
X174707302Y-108139544D01*
X174657878Y-108078347D01*
X174633359Y-108010937D01*
X174632910Y-107991154D01*
X174767950Y-107991154D01*
X174786717Y-108028897D01*
X174822915Y-108054966D01*
X174862748Y-108062486D01*
X174894753Y-108060676D01*
X174904093Y-108050778D01*
X174897105Y-108026102D01*
X174880587Y-107987205D01*
X174859881Y-107943725D01*
X174859333Y-107942644D01*
X174839949Y-107905791D01*
X174827013Y-107891000D01*
X174813451Y-107894647D01*
X174795632Y-107910005D01*
X174769845Y-107949077D01*
X174767950Y-107991154D01*
X174632910Y-107991154D01*
X174631797Y-107942120D01*
X174651239Y-107876697D01*
X174689735Y-107819473D01*
X174745335Y-107775251D01*
X174816086Y-107748833D01*
X174868162Y-107743490D01*
X174889893Y-107744097D01*
X174906531Y-107749178D01*
X174921437Y-107763145D01*
X174937973Y-107790411D01*
X174959498Y-107835388D01*
X174989374Y-107902489D01*
X174989524Y-107902829D01*
X175017813Y-107964593D01*
X175042933Y-108015241D01*
X175062179Y-108049596D01*
X175072848Y-108062482D01*
X175072934Y-108062486D01*
X175096166Y-108051128D01*
X175121774Y-108024569D01*
X175140221Y-107994077D01*
X175143886Y-107978630D01*
X175131212Y-107936485D01*
X175099471Y-107900192D01*
X175064572Y-107882483D01*
X175038845Y-107865448D01*
X175009546Y-107832078D01*
X174984235Y-107792851D01*
X174970471Y-107758244D01*
X174969714Y-107751007D01*
X174982160Y-107742861D01*
X175013972Y-107742370D01*
X175056866Y-107748357D01*
G37*
X175251678Y-105883284D02*
X175267110Y-105915237D01*
X175274423Y-105934530D01*
X175274514Y-105935422D01*
X175261022Y-105938761D01*
X175224626Y-105941413D01*
X175171452Y-105943044D01*
X175128393Y-105943400D01*
X175058641Y-105943408D01*
X175014837Y-105946597D01*
X174993944Y-105957712D01*
X174992925Y-105981499D01*
X175008741Y-106022704D01*
X175037815Y-106084914D01*
X175061963Y-106130659D01*
X175082913Y-106154187D01*
X175105747Y-106161104D01*
X175106877Y-106161114D01*
X175146212Y-106149701D01*
X175167462Y-106115908D01*
X175170539Y-106064191D01*
X175170006Y-106026939D01*
X175180735Y-106007297D01*
X175206505Y-105995048D01*
X175239337Y-105987998D01*
X175257966Y-105998158D01*
X175260632Y-106001983D01*
X175271340Y-106037999D01*
X175272856Y-106088434D01*
X175265759Y-106140374D01*
X175252788Y-106177178D01*
X175209585Y-106228062D01*
X175149446Y-106256986D01*
X175102462Y-106262714D01*
X175060082Y-106258343D01*
X175025488Y-106242525D01*
X174994763Y-106211203D01*
X174963990Y-106160322D01*
X174929252Y-106085824D01*
X174927288Y-106081286D01*
X174896287Y-106014179D01*
X174870862Y-105972768D01*
X174848014Y-105955019D01*
X174824745Y-105958893D01*
X174798056Y-105982357D01*
X174791914Y-105989373D01*
X174768100Y-106036370D01*
X174769103Y-106085067D01*
X174792451Y-106127478D01*
X174835675Y-106155616D01*
X174844160Y-106158231D01*
X174885308Y-106183692D01*
X174905128Y-106215999D01*
X174924770Y-106262714D01*
X174873950Y-106262714D01*
X174800082Y-106248504D01*
X174732327Y-106206325D01*
X174709661Y-106184376D01*
X174680569Y-106134483D01*
X174667400Y-106071033D01*
X174670968Y-106005256D01*
X174692087Y-105948384D01*
X174692493Y-105947733D01*
X174718380Y-105912560D01*
X174748633Y-105886593D01*
X174788058Y-105868330D01*
X174841462Y-105856268D01*
X174913651Y-105848904D01*
X175009432Y-105844736D01*
X175023078Y-105844371D01*
X175228842Y-105839124D01*
X175251678Y-105883284D01*
G36*
X175251678Y-105883284D02*
G01*
X175267110Y-105915237D01*
X175274423Y-105934530D01*
X175274514Y-105935422D01*
X175261022Y-105938761D01*
X175224626Y-105941413D01*
X175171452Y-105943044D01*
X175128393Y-105943400D01*
X175058641Y-105943408D01*
X175014837Y-105946597D01*
X174993944Y-105957712D01*
X174992925Y-105981499D01*
X175008741Y-106022704D01*
X175037815Y-106084914D01*
X175061963Y-106130659D01*
X175082913Y-106154187D01*
X175105747Y-106161104D01*
X175106877Y-106161114D01*
X175146212Y-106149701D01*
X175167462Y-106115908D01*
X175170539Y-106064191D01*
X175170006Y-106026939D01*
X175180735Y-106007297D01*
X175206505Y-105995048D01*
X175239337Y-105987998D01*
X175257966Y-105998158D01*
X175260632Y-106001983D01*
X175271340Y-106037999D01*
X175272856Y-106088434D01*
X175265759Y-106140374D01*
X175252788Y-106177178D01*
X175209585Y-106228062D01*
X175149446Y-106256986D01*
X175102462Y-106262714D01*
X175060082Y-106258343D01*
X175025488Y-106242525D01*
X174994763Y-106211203D01*
X174963990Y-106160322D01*
X174929252Y-106085824D01*
X174927288Y-106081286D01*
X174896287Y-106014179D01*
X174870862Y-105972768D01*
X174848014Y-105955019D01*
X174824745Y-105958893D01*
X174798056Y-105982357D01*
X174791914Y-105989373D01*
X174768100Y-106036370D01*
X174769103Y-106085067D01*
X174792451Y-106127478D01*
X174835675Y-106155616D01*
X174844160Y-106158231D01*
X174885308Y-106183692D01*
X174905128Y-106215999D01*
X174924770Y-106262714D01*
X174873950Y-106262714D01*
X174800082Y-106248504D01*
X174732327Y-106206325D01*
X174709661Y-106184376D01*
X174680569Y-106134483D01*
X174667400Y-106071033D01*
X174670968Y-106005256D01*
X174692087Y-105948384D01*
X174692493Y-105947733D01*
X174718380Y-105912560D01*
X174748633Y-105886593D01*
X174788058Y-105868330D01*
X174841462Y-105856268D01*
X174913651Y-105848904D01*
X175009432Y-105844736D01*
X175023078Y-105844371D01*
X175228842Y-105839124D01*
X175251678Y-105883284D01*
G37*
X175037588Y-108297148D02*
X175107657Y-108305606D01*
X175159931Y-108321826D01*
X175199869Y-108347546D01*
X175232929Y-108384503D01*
X175234886Y-108387218D01*
X175254908Y-108423640D01*
X175264815Y-108467498D01*
X175267257Y-108523276D01*
X175267257Y-108613952D01*
X175355283Y-108613990D01*
X175404308Y-108614834D01*
X175433065Y-108619976D01*
X175450311Y-108633413D01*
X175464808Y-108659142D01*
X175467769Y-108665321D01*
X175481648Y-108694236D01*
X175490414Y-108716624D01*
X175491171Y-108733271D01*
X175481023Y-108744964D01*
X175457073Y-108752490D01*
X175416426Y-108756634D01*
X175356186Y-108758185D01*
X175273455Y-108757929D01*
X175165339Y-108756651D01*
X175133000Y-108756252D01*
X175021524Y-108754815D01*
X174948603Y-108753528D01*
X174935245Y-108753292D01*
X174870333Y-108751323D01*
X174822958Y-108748550D01*
X174789290Y-108744612D01*
X174765498Y-108739151D01*
X174747753Y-108731808D01*
X174732224Y-108722223D01*
X174726381Y-108718113D01*
X174671185Y-108663595D01*
X174639890Y-108594664D01*
X174631776Y-108520509D01*
X174766514Y-108520509D01*
X174773926Y-108561234D01*
X174798330Y-108589168D01*
X174842980Y-108605983D01*
X174911130Y-108613350D01*
X174948603Y-108614029D01*
X175010499Y-108613245D01*
X175050997Y-108609760D01*
X175077708Y-108601876D01*
X175098244Y-108587895D01*
X175108260Y-108578403D01*
X175137567Y-108539596D01*
X175139952Y-108505237D01*
X175115750Y-108469784D01*
X175114857Y-108468886D01*
X175096153Y-108454461D01*
X175070732Y-108445687D01*
X175031584Y-108441261D01*
X174971697Y-108439882D01*
X174958430Y-108439857D01*
X174875901Y-108443188D01*
X174818691Y-108454031D01*
X174783766Y-108473660D01*
X174768094Y-108503350D01*
X174766514Y-108520509D01*
X174631776Y-108520509D01*
X174631165Y-108514928D01*
X174639918Y-108445256D01*
X174667568Y-108389799D01*
X174718480Y-108340852D01*
X174737338Y-108327371D01*
X174762015Y-108312686D01*
X174788816Y-108303158D01*
X174824587Y-108297707D01*
X174876169Y-108295253D01*
X174944267Y-108294714D01*
X175037588Y-108297148D01*
G36*
X175037588Y-108297148D02*
G01*
X175107657Y-108305606D01*
X175159931Y-108321826D01*
X175199869Y-108347546D01*
X175232929Y-108384503D01*
X175234886Y-108387218D01*
X175254908Y-108423640D01*
X175264815Y-108467498D01*
X175267257Y-108523276D01*
X175267257Y-108613952D01*
X175355283Y-108613990D01*
X175404308Y-108614834D01*
X175433065Y-108619976D01*
X175450311Y-108633413D01*
X175464808Y-108659142D01*
X175467769Y-108665321D01*
X175481648Y-108694236D01*
X175490414Y-108716624D01*
X175491171Y-108733271D01*
X175481023Y-108744964D01*
X175457073Y-108752490D01*
X175416426Y-108756634D01*
X175356186Y-108758185D01*
X175273455Y-108757929D01*
X175165339Y-108756651D01*
X175133000Y-108756252D01*
X175021524Y-108754815D01*
X174948603Y-108753528D01*
X174935245Y-108753292D01*
X174870333Y-108751323D01*
X174822958Y-108748550D01*
X174789290Y-108744612D01*
X174765498Y-108739151D01*
X174747753Y-108731808D01*
X174732224Y-108722223D01*
X174726381Y-108718113D01*
X174671185Y-108663595D01*
X174639890Y-108594664D01*
X174631776Y-108520509D01*
X174766514Y-108520509D01*
X174773926Y-108561234D01*
X174798330Y-108589168D01*
X174842980Y-108605983D01*
X174911130Y-108613350D01*
X174948603Y-108614029D01*
X175010499Y-108613245D01*
X175050997Y-108609760D01*
X175077708Y-108601876D01*
X175098244Y-108587895D01*
X175108260Y-108578403D01*
X175137567Y-108539596D01*
X175139952Y-108505237D01*
X175115750Y-108469784D01*
X175114857Y-108468886D01*
X175096153Y-108454461D01*
X175070732Y-108445687D01*
X175031584Y-108441261D01*
X174971697Y-108439882D01*
X174958430Y-108439857D01*
X174875901Y-108443188D01*
X174818691Y-108454031D01*
X174783766Y-108473660D01*
X174768094Y-108503350D01*
X174766514Y-108520509D01*
X174631776Y-108520509D01*
X174631165Y-108514928D01*
X174639918Y-108445256D01*
X174667568Y-108389799D01*
X174718480Y-108340852D01*
X174737338Y-108327371D01*
X174762015Y-108312686D01*
X174788816Y-108303158D01*
X174824587Y-108297707D01*
X174876169Y-108295253D01*
X174944267Y-108294714D01*
X175037588Y-108297148D01*
G37*
X175257670Y-103803226D02*
X175269981Y-103832344D01*
X175274514Y-103846769D01*
X175261025Y-103849528D01*
X175224653Y-103851718D01*
X175171542Y-103853058D01*
X175129372Y-103853343D01*
X175068447Y-103854566D01*
X175020115Y-103857864D01*
X174990518Y-103862679D01*
X174984229Y-103866504D01*
X174990652Y-103892217D01*
X175007125Y-103932582D01*
X175029458Y-103979321D01*
X175053457Y-104024155D01*
X175074930Y-104058807D01*
X175089685Y-104074998D01*
X175089845Y-104075062D01*
X175117152Y-104073670D01*
X175143219Y-104061182D01*
X175164392Y-104039257D01*
X175171474Y-104007257D01*
X175170649Y-103979908D01*
X175170042Y-103941174D01*
X175179116Y-103920842D01*
X175203092Y-103908631D01*
X175207613Y-103907091D01*
X175241806Y-103901797D01*
X175262568Y-103915953D01*
X175272462Y-103952852D01*
X175274292Y-103992711D01*
X175260727Y-104064438D01*
X175241355Y-104101568D01*
X175195845Y-104147424D01*
X175139983Y-104171744D01*
X175080957Y-104173927D01*
X175025953Y-104153371D01*
X174991486Y-104122451D01*
X174972189Y-104091580D01*
X174947759Y-104043058D01*
X174922985Y-103986515D01*
X174919199Y-103977090D01*
X174891791Y-103914981D01*
X174867634Y-103879178D01*
X174843619Y-103867663D01*
X174816635Y-103878420D01*
X174795543Y-103896886D01*
X174769572Y-103940531D01*
X174767624Y-103988554D01*
X174787637Y-104032594D01*
X174827551Y-104064291D01*
X174837848Y-104068451D01*
X174875724Y-104092673D01*
X174903842Y-104128035D01*
X174926917Y-104172657D01*
X174861485Y-104172657D01*
X174821506Y-104170031D01*
X174789997Y-104158770D01*
X174756378Y-104133801D01*
X174730484Y-104109831D01*
X174693817Y-104072559D01*
X174674121Y-104043599D01*
X174666220Y-104012495D01*
X174664914Y-103977287D01*
X174676335Y-103900124D01*
X174695344Y-103858333D01*
X174718378Y-103825531D01*
X174744133Y-103801497D01*
X174777358Y-103784903D01*
X174822800Y-103774423D01*
X174885207Y-103768729D01*
X174969327Y-103766493D01*
X175024721Y-103766257D01*
X175240826Y-103766257D01*
X175257670Y-103803226D01*
G36*
X175257670Y-103803226D02*
G01*
X175269981Y-103832344D01*
X175274514Y-103846769D01*
X175261025Y-103849528D01*
X175224653Y-103851718D01*
X175171542Y-103853058D01*
X175129372Y-103853343D01*
X175068447Y-103854566D01*
X175020115Y-103857864D01*
X174990518Y-103862679D01*
X174984229Y-103866504D01*
X174990652Y-103892217D01*
X175007125Y-103932582D01*
X175029458Y-103979321D01*
X175053457Y-104024155D01*
X175074930Y-104058807D01*
X175089685Y-104074998D01*
X175089845Y-104075062D01*
X175117152Y-104073670D01*
X175143219Y-104061182D01*
X175164392Y-104039257D01*
X175171474Y-104007257D01*
X175170649Y-103979908D01*
X175170042Y-103941174D01*
X175179116Y-103920842D01*
X175203092Y-103908631D01*
X175207613Y-103907091D01*
X175241806Y-103901797D01*
X175262568Y-103915953D01*
X175272462Y-103952852D01*
X175274292Y-103992711D01*
X175260727Y-104064438D01*
X175241355Y-104101568D01*
X175195845Y-104147424D01*
X175139983Y-104171744D01*
X175080957Y-104173927D01*
X175025953Y-104153371D01*
X174991486Y-104122451D01*
X174972189Y-104091580D01*
X174947759Y-104043058D01*
X174922985Y-103986515D01*
X174919199Y-103977090D01*
X174891791Y-103914981D01*
X174867634Y-103879178D01*
X174843619Y-103867663D01*
X174816635Y-103878420D01*
X174795543Y-103896886D01*
X174769572Y-103940531D01*
X174767624Y-103988554D01*
X174787637Y-104032594D01*
X174827551Y-104064291D01*
X174837848Y-104068451D01*
X174875724Y-104092673D01*
X174903842Y-104128035D01*
X174926917Y-104172657D01*
X174861485Y-104172657D01*
X174821506Y-104170031D01*
X174789997Y-104158770D01*
X174756378Y-104133801D01*
X174730484Y-104109831D01*
X174693817Y-104072559D01*
X174674121Y-104043599D01*
X174666220Y-104012495D01*
X174664914Y-103977287D01*
X174676335Y-103900124D01*
X174695344Y-103858333D01*
X174718378Y-103825531D01*
X174744133Y-103801497D01*
X174777358Y-103784903D01*
X174822800Y-103774423D01*
X174885207Y-103768729D01*
X174969327Y-103766493D01*
X175024721Y-103766257D01*
X175240826Y-103766257D01*
X175257670Y-103803226D01*
G37*
X172587839Y-103827943D02*
X172595995Y-103870337D01*
X172607899Y-103933600D01*
X172622116Y-104010038D01*
X172637210Y-104091957D01*
X172641355Y-104114600D01*
X172656053Y-104190194D01*
X172670505Y-104256047D01*
X172683375Y-104306634D01*
X172693322Y-104336426D01*
X172696287Y-104341388D01*
X172717283Y-104353574D01*
X172757967Y-104371047D01*
X172810322Y-104390423D01*
X172821600Y-104394266D01*
X172891523Y-104419661D01*
X172970418Y-104451183D01*
X173041266Y-104482031D01*
X173041595Y-104482183D01*
X173152733Y-104533553D01*
X173401253Y-104364601D01*
X173649772Y-104195648D01*
X173867058Y-104412571D01*
X173931726Y-104478181D01*
X173988733Y-104538021D01*
X174035033Y-104588733D01*
X174067584Y-104626954D01*
X174083343Y-104649325D01*
X174084343Y-104652534D01*
X174076469Y-104671374D01*
X174054578Y-104709820D01*
X174021267Y-104763670D01*
X173979131Y-104828724D01*
X173931943Y-104899060D01*
X173883810Y-104970445D01*
X173841928Y-105034092D01*
X173808871Y-105085959D01*
X173787218Y-105122005D01*
X173779543Y-105138133D01*
X173786037Y-105157811D01*
X173803150Y-105195125D01*
X173827326Y-105242379D01*
X173830013Y-105247388D01*
X173861927Y-105311023D01*
X173877579Y-105354659D01*
X173877745Y-105381798D01*
X173863204Y-105395943D01*
X173863000Y-105396025D01*
X173845779Y-105403095D01*
X173804899Y-105419958D01*
X173743525Y-105445305D01*
X173664819Y-105477829D01*
X173571947Y-105516222D01*
X173468072Y-105559178D01*
X173367502Y-105600778D01*
X173256516Y-105646496D01*
X173153703Y-105688474D01*
X173062215Y-105725452D01*
X172985201Y-105756173D01*
X172925815Y-105779378D01*
X172887209Y-105793810D01*
X172872800Y-105798257D01*
X172856272Y-105787104D01*
X172829930Y-105757931D01*
X172800887Y-105719029D01*
X172709039Y-105608243D01*
X172603759Y-105521649D01*
X172487266Y-105460284D01*
X172361776Y-105425185D01*
X172229507Y-105417392D01*
X172168457Y-105423057D01*
X172041795Y-105453922D01*
X171929941Y-105507080D01*
X171834001Y-105579233D01*
X171755076Y-105667083D01*
X171694270Y-105767335D01*
X171652687Y-105876690D01*
X171631428Y-105991853D01*
X171631599Y-106109525D01*
X171654301Y-106226410D01*
X171700638Y-106339211D01*
X171771713Y-106444631D01*
X171811911Y-106488632D01*
X171915129Y-106573021D01*
X172027925Y-106631778D01*
X172147010Y-106665296D01*
X172269095Y-106673965D01*
X172390893Y-106658177D01*
X172509116Y-106618322D01*
X172620475Y-106554793D01*
X172721684Y-106467979D01*
X172800887Y-106370971D01*
X172831162Y-106330563D01*
X172857219Y-106302018D01*
X172872825Y-106291743D01*
X172889843Y-106297123D01*
X172930500Y-106312425D01*
X172991642Y-106336388D01*
X173070119Y-106367756D01*
X173162780Y-106405268D01*
X173266472Y-106447667D01*
X173367526Y-106489337D01*
X173478607Y-106535310D01*
X173581541Y-106577893D01*
X173673165Y-106615779D01*
X173750316Y-106647660D01*
X173809831Y-106672229D01*
X173848544Y-106688180D01*
X173863000Y-106694090D01*
X173877685Y-106708052D01*
X173877642Y-106735060D01*
X173862099Y-106778587D01*
X173830284Y-106842110D01*
X173830013Y-106842612D01*
X173805323Y-106890440D01*
X173787338Y-106929103D01*
X173779614Y-106950905D01*
X173779543Y-106951867D01*
X173787378Y-106968279D01*
X173809165Y-107004513D01*
X173842328Y-107056526D01*
X173884291Y-107120275D01*
X173931943Y-107190940D01*
X173980191Y-107262884D01*
X174022151Y-107327726D01*
X174055227Y-107381265D01*
X174076821Y-107419303D01*
X174084343Y-107437467D01*
X174074457Y-107454192D01*
X174046826Y-107487820D01*
X174004495Y-107534990D01*
X173950505Y-107592342D01*
X173887899Y-107656516D01*
X173866983Y-107677503D01*
X173649623Y-107894501D01*
X173407220Y-107729332D01*
X173332781Y-107679136D01*
X173265972Y-107635081D01*
X173210665Y-107599638D01*
X173170729Y-107575281D01*
X173150036Y-107564478D01*
X173148563Y-107564162D01*
X173129058Y-107569857D01*
X173089822Y-107585174D01*
X173037430Y-107607463D01*
X173002355Y-107623107D01*
X172935201Y-107652359D01*
X172867358Y-107679906D01*
X172810034Y-107701263D01*
X172792572Y-107707065D01*
X172745938Y-107723548D01*
X172709905Y-107739660D01*
X172696287Y-107748510D01*
X172687952Y-107768040D01*
X172676137Y-107810666D01*
X172662181Y-107870855D01*
X172647422Y-107943078D01*
X172641355Y-107975400D01*
X172626273Y-108057478D01*
X172611669Y-108136205D01*
X172598980Y-108203891D01*
X172589642Y-108252840D01*
X172587839Y-108262057D01*
X172572799Y-108338257D01*
X172255492Y-108338257D01*
X172151154Y-108338086D01*
X172072213Y-108337384D01*
X172015038Y-108335866D01*
X171975999Y-108333251D01*
X171951465Y-108329254D01*
X171937805Y-108323591D01*
X171931389Y-108315980D01*
X171930199Y-108312857D01*
X171925980Y-108294022D01*
X171917562Y-108252412D01*
X171905961Y-108193370D01*
X171892195Y-108122243D01*
X171877280Y-108044375D01*
X171862232Y-107965113D01*
X171848069Y-107889802D01*
X171835806Y-107823787D01*
X171826461Y-107772413D01*
X171821050Y-107741025D01*
X171820114Y-107734041D01*
X171807596Y-107727715D01*
X171774246Y-107713710D01*
X171726377Y-107694645D01*
X171707629Y-107687366D01*
X171635195Y-107658004D01*
X171555170Y-107623429D01*
X171487728Y-107592463D01*
X171436159Y-107569677D01*
X171393785Y-107554518D01*
X171367834Y-107549458D01*
X171364356Y-107550264D01*
X171347936Y-107560959D01*
X171311417Y-107585380D01*
X171258687Y-107620905D01*
X171193635Y-107664913D01*
X171120151Y-107714783D01*
X171105645Y-107724644D01*
X171019704Y-107782508D01*
X170954261Y-107825044D01*
X170906304Y-107853946D01*
X170872820Y-107870910D01*
X170850795Y-107877633D01*
X170837217Y-107875810D01*
X170837131Y-107875764D01*
X170819297Y-107861414D01*
X170784817Y-107829677D01*
X170737268Y-107783990D01*
X170680222Y-107727796D01*
X170617255Y-107664532D01*
X170610227Y-107657398D01*
X170533020Y-107577670D01*
X170476330Y-107516143D01*
X170439110Y-107471579D01*
X170420315Y-107442743D01*
X170417889Y-107430042D01*
X170428471Y-107411506D01*
X170452916Y-107373039D01*
X170488612Y-107318614D01*
X170532947Y-107252202D01*
X170583311Y-107177775D01*
X170595160Y-107160399D01*
X170763626Y-106913703D01*
X170713062Y-106802294D01*
X170683595Y-106734543D01*
X170653959Y-106661817D01*
X170630330Y-106599297D01*
X170629358Y-106596543D01*
X170611457Y-106547640D01*
X170596320Y-106509943D01*
X170587210Y-106491575D01*
X170587184Y-106491544D01*
X170570717Y-106485715D01*
X170530219Y-106475808D01*
X170470242Y-106462805D01*
X170395340Y-106447691D01*
X170310064Y-106431448D01*
X170302875Y-106430119D01*
X170215014Y-106413825D01*
X170135260Y-106398867D01*
X170068681Y-106386209D01*
X170020347Y-106376814D01*
X169995325Y-106371646D01*
X169994943Y-106371556D01*
X169984299Y-106368411D01*
X169976262Y-106362296D01*
X169970467Y-106349547D01*
X169966547Y-106326500D01*
X169964135Y-106289491D01*
X169962865Y-106234856D01*
X169962371Y-106158933D01*
X169962286Y-106058056D01*
X169962286Y-106045000D01*
X169962348Y-105941090D01*
X169962778Y-105862546D01*
X169963942Y-105805702D01*
X169966207Y-105766895D01*
X169969940Y-105742462D01*
X169975506Y-105728738D01*
X169983273Y-105722060D01*
X169993605Y-105718764D01*
X169994943Y-105718444D01*
X170019079Y-105713438D01*
X170066701Y-105704171D01*
X170132741Y-105691608D01*
X170212128Y-105676713D01*
X170299796Y-105660449D01*
X170302875Y-105659881D01*
X170388789Y-105643590D01*
X170464696Y-105628348D01*
X170526045Y-105615139D01*
X170568282Y-105604946D01*
X170586855Y-105598752D01*
X170587184Y-105598457D01*
X170596253Y-105580212D01*
X170611367Y-105542595D01*
X170629262Y-105493729D01*
X170629358Y-105493457D01*
X170652493Y-105431907D01*
X170681965Y-105359343D01*
X170711597Y-105290943D01*
X170713062Y-105287706D01*
X170763626Y-105176298D01*
X170595160Y-104929601D01*
X170543803Y-104853923D01*
X170497889Y-104785369D01*
X170460030Y-104727912D01*
X170432837Y-104685524D01*
X170418921Y-104662175D01*
X170417889Y-104659958D01*
X170422484Y-104642990D01*
X170444655Y-104611299D01*
X170485447Y-104563648D01*
X170545905Y-104498802D01*
X170610227Y-104432603D01*
X170673612Y-104368786D01*
X170731451Y-104311671D01*
X170780175Y-104264695D01*
X170816210Y-104231297D01*
X170835984Y-104214915D01*
X170837002Y-104214306D01*
X170850572Y-104212495D01*
X170872733Y-104219317D01*
X170906478Y-104236460D01*
X170954800Y-104265607D01*
X171020692Y-104308445D01*
X171105517Y-104365552D01*
X171180177Y-104416234D01*
X171247140Y-104461539D01*
X171302516Y-104498850D01*
X171342420Y-104525548D01*
X171362962Y-104539015D01*
X171364356Y-104539863D01*
X171384038Y-104538219D01*
X171422293Y-104525755D01*
X171471889Y-104504952D01*
X171487728Y-104497538D01*
X171558290Y-104465186D01*
X171638353Y-104430672D01*
X171707629Y-104402635D01*
X171759045Y-104382432D01*
X171798119Y-104366385D01*
X171818541Y-104357112D01*
X171820114Y-104355959D01*
X171822721Y-104338904D01*
X171829863Y-104298702D01*
X171840523Y-104240698D01*
X171853685Y-104170237D01*
X171868333Y-104092665D01*
X171883449Y-104013328D01*
X171898018Y-103937569D01*
X171911022Y-103870736D01*
X171921445Y-103818172D01*
X171928270Y-103785224D01*
X171930199Y-103777143D01*
X171934962Y-103768795D01*
X171945718Y-103762494D01*
X171966098Y-103757955D01*
X171999734Y-103754896D01*
X172050255Y-103753033D01*
X172121292Y-103752082D01*
X172216476Y-103751760D01*
X172255492Y-103751743D01*
X172572799Y-103751743D01*
X172587839Y-103827943D01*
G36*
X172587839Y-103827943D02*
G01*
X172595995Y-103870337D01*
X172607899Y-103933600D01*
X172622116Y-104010038D01*
X172637210Y-104091957D01*
X172641355Y-104114600D01*
X172656053Y-104190194D01*
X172670505Y-104256047D01*
X172683375Y-104306634D01*
X172693322Y-104336426D01*
X172696287Y-104341388D01*
X172717283Y-104353574D01*
X172757967Y-104371047D01*
X172810322Y-104390423D01*
X172821600Y-104394266D01*
X172891523Y-104419661D01*
X172970418Y-104451183D01*
X173041266Y-104482031D01*
X173041595Y-104482183D01*
X173152733Y-104533553D01*
X173401253Y-104364601D01*
X173649772Y-104195648D01*
X173867058Y-104412571D01*
X173931726Y-104478181D01*
X173988733Y-104538021D01*
X174035033Y-104588733D01*
X174067584Y-104626954D01*
X174083343Y-104649325D01*
X174084343Y-104652534D01*
X174076469Y-104671374D01*
X174054578Y-104709820D01*
X174021267Y-104763670D01*
X173979131Y-104828724D01*
X173931943Y-104899060D01*
X173883810Y-104970445D01*
X173841928Y-105034092D01*
X173808871Y-105085959D01*
X173787218Y-105122005D01*
X173779543Y-105138133D01*
X173786037Y-105157811D01*
X173803150Y-105195125D01*
X173827326Y-105242379D01*
X173830013Y-105247388D01*
X173861927Y-105311023D01*
X173877579Y-105354659D01*
X173877745Y-105381798D01*
X173863204Y-105395943D01*
X173863000Y-105396025D01*
X173845779Y-105403095D01*
X173804899Y-105419958D01*
X173743525Y-105445305D01*
X173664819Y-105477829D01*
X173571947Y-105516222D01*
X173468072Y-105559178D01*
X173367502Y-105600778D01*
X173256516Y-105646496D01*
X173153703Y-105688474D01*
X173062215Y-105725452D01*
X172985201Y-105756173D01*
X172925815Y-105779378D01*
X172887209Y-105793810D01*
X172872800Y-105798257D01*
X172856272Y-105787104D01*
X172829930Y-105757931D01*
X172800887Y-105719029D01*
X172709039Y-105608243D01*
X172603759Y-105521649D01*
X172487266Y-105460284D01*
X172361776Y-105425185D01*
X172229507Y-105417392D01*
X172168457Y-105423057D01*
X172041795Y-105453922D01*
X171929941Y-105507080D01*
X171834001Y-105579233D01*
X171755076Y-105667083D01*
X171694270Y-105767335D01*
X171652687Y-105876690D01*
X171631428Y-105991853D01*
X171631599Y-106109525D01*
X171654301Y-106226410D01*
X171700638Y-106339211D01*
X171771713Y-106444631D01*
X171811911Y-106488632D01*
X171915129Y-106573021D01*
X172027925Y-106631778D01*
X172147010Y-106665296D01*
X172269095Y-106673965D01*
X172390893Y-106658177D01*
X172509116Y-106618322D01*
X172620475Y-106554793D01*
X172721684Y-106467979D01*
X172800887Y-106370971D01*
X172831162Y-106330563D01*
X172857219Y-106302018D01*
X172872825Y-106291743D01*
X172889843Y-106297123D01*
X172930500Y-106312425D01*
X172991642Y-106336388D01*
X173070119Y-106367756D01*
X173162780Y-106405268D01*
X173266472Y-106447667D01*
X173367526Y-106489337D01*
X173478607Y-106535310D01*
X173581541Y-106577893D01*
X173673165Y-106615779D01*
X173750316Y-106647660D01*
X173809831Y-106672229D01*
X173848544Y-106688180D01*
X173863000Y-106694090D01*
X173877685Y-106708052D01*
X173877642Y-106735060D01*
X173862099Y-106778587D01*
X173830284Y-106842110D01*
X173830013Y-106842612D01*
X173805323Y-106890440D01*
X173787338Y-106929103D01*
X173779614Y-106950905D01*
X173779543Y-106951867D01*
X173787378Y-106968279D01*
X173809165Y-107004513D01*
X173842328Y-107056526D01*
X173884291Y-107120275D01*
X173931943Y-107190940D01*
X173980191Y-107262884D01*
X174022151Y-107327726D01*
X174055227Y-107381265D01*
X174076821Y-107419303D01*
X174084343Y-107437467D01*
X174074457Y-107454192D01*
X174046826Y-107487820D01*
X174004495Y-107534990D01*
X173950505Y-107592342D01*
X173887899Y-107656516D01*
X173866983Y-107677503D01*
X173649623Y-107894501D01*
X173407220Y-107729332D01*
X173332781Y-107679136D01*
X173265972Y-107635081D01*
X173210665Y-107599638D01*
X173170729Y-107575281D01*
X173150036Y-107564478D01*
X173148563Y-107564162D01*
X173129058Y-107569857D01*
X173089822Y-107585174D01*
X173037430Y-107607463D01*
X173002355Y-107623107D01*
X172935201Y-107652359D01*
X172867358Y-107679906D01*
X172810034Y-107701263D01*
X172792572Y-107707065D01*
X172745938Y-107723548D01*
X172709905Y-107739660D01*
X172696287Y-107748510D01*
X172687952Y-107768040D01*
X172676137Y-107810666D01*
X172662181Y-107870855D01*
X172647422Y-107943078D01*
X172641355Y-107975400D01*
X172626273Y-108057478D01*
X172611669Y-108136205D01*
X172598980Y-108203891D01*
X172589642Y-108252840D01*
X172587839Y-108262057D01*
X172572799Y-108338257D01*
X172255492Y-108338257D01*
X172151154Y-108338086D01*
X172072213Y-108337384D01*
X172015038Y-108335866D01*
X171975999Y-108333251D01*
X171951465Y-108329254D01*
X171937805Y-108323591D01*
X171931389Y-108315980D01*
X171930199Y-108312857D01*
X171925980Y-108294022D01*
X171917562Y-108252412D01*
X171905961Y-108193370D01*
X171892195Y-108122243D01*
X171877280Y-108044375D01*
X171862232Y-107965113D01*
X171848069Y-107889802D01*
X171835806Y-107823787D01*
X171826461Y-107772413D01*
X171821050Y-107741025D01*
X171820114Y-107734041D01*
X171807596Y-107727715D01*
X171774246Y-107713710D01*
X171726377Y-107694645D01*
X171707629Y-107687366D01*
X171635195Y-107658004D01*
X171555170Y-107623429D01*
X171487728Y-107592463D01*
X171436159Y-107569677D01*
X171393785Y-107554518D01*
X171367834Y-107549458D01*
X171364356Y-107550264D01*
X171347936Y-107560959D01*
X171311417Y-107585380D01*
X171258687Y-107620905D01*
X171193635Y-107664913D01*
X171120151Y-107714783D01*
X171105645Y-107724644D01*
X171019704Y-107782508D01*
X170954261Y-107825044D01*
X170906304Y-107853946D01*
X170872820Y-107870910D01*
X170850795Y-107877633D01*
X170837217Y-107875810D01*
X170837131Y-107875764D01*
X170819297Y-107861414D01*
X170784817Y-107829677D01*
X170737268Y-107783990D01*
X170680222Y-107727796D01*
X170617255Y-107664532D01*
X170610227Y-107657398D01*
X170533020Y-107577670D01*
X170476330Y-107516143D01*
X170439110Y-107471579D01*
X170420315Y-107442743D01*
X170417889Y-107430042D01*
X170428471Y-107411506D01*
X170452916Y-107373039D01*
X170488612Y-107318614D01*
X170532947Y-107252202D01*
X170583311Y-107177775D01*
X170595160Y-107160399D01*
X170763626Y-106913703D01*
X170713062Y-106802294D01*
X170683595Y-106734543D01*
X170653959Y-106661817D01*
X170630330Y-106599297D01*
X170629358Y-106596543D01*
X170611457Y-106547640D01*
X170596320Y-106509943D01*
X170587210Y-106491575D01*
X170587184Y-106491544D01*
X170570717Y-106485715D01*
X170530219Y-106475808D01*
X170470242Y-106462805D01*
X170395340Y-106447691D01*
X170310064Y-106431448D01*
X170302875Y-106430119D01*
X170215014Y-106413825D01*
X170135260Y-106398867D01*
X170068681Y-106386209D01*
X170020347Y-106376814D01*
X169995325Y-106371646D01*
X169994943Y-106371556D01*
X169984299Y-106368411D01*
X169976262Y-106362296D01*
X169970467Y-106349547D01*
X169966547Y-106326500D01*
X169964135Y-106289491D01*
X169962865Y-106234856D01*
X169962371Y-106158933D01*
X169962286Y-106058056D01*
X169962286Y-106045000D01*
X169962348Y-105941090D01*
X169962778Y-105862546D01*
X169963942Y-105805702D01*
X169966207Y-105766895D01*
X169969940Y-105742462D01*
X169975506Y-105728738D01*
X169983273Y-105722060D01*
X169993605Y-105718764D01*
X169994943Y-105718444D01*
X170019079Y-105713438D01*
X170066701Y-105704171D01*
X170132741Y-105691608D01*
X170212128Y-105676713D01*
X170299796Y-105660449D01*
X170302875Y-105659881D01*
X170388789Y-105643590D01*
X170464696Y-105628348D01*
X170526045Y-105615139D01*
X170568282Y-105604946D01*
X170586855Y-105598752D01*
X170587184Y-105598457D01*
X170596253Y-105580212D01*
X170611367Y-105542595D01*
X170629262Y-105493729D01*
X170629358Y-105493457D01*
X170652493Y-105431907D01*
X170681965Y-105359343D01*
X170711597Y-105290943D01*
X170713062Y-105287706D01*
X170763626Y-105176298D01*
X170595160Y-104929601D01*
X170543803Y-104853923D01*
X170497889Y-104785369D01*
X170460030Y-104727912D01*
X170432837Y-104685524D01*
X170418921Y-104662175D01*
X170417889Y-104659958D01*
X170422484Y-104642990D01*
X170444655Y-104611299D01*
X170485447Y-104563648D01*
X170545905Y-104498802D01*
X170610227Y-104432603D01*
X170673612Y-104368786D01*
X170731451Y-104311671D01*
X170780175Y-104264695D01*
X170816210Y-104231297D01*
X170835984Y-104214915D01*
X170837002Y-104214306D01*
X170850572Y-104212495D01*
X170872733Y-104219317D01*
X170906478Y-104236460D01*
X170954800Y-104265607D01*
X171020692Y-104308445D01*
X171105517Y-104365552D01*
X171180177Y-104416234D01*
X171247140Y-104461539D01*
X171302516Y-104498850D01*
X171342420Y-104525548D01*
X171362962Y-104539015D01*
X171364356Y-104539863D01*
X171384038Y-104538219D01*
X171422293Y-104525755D01*
X171471889Y-104504952D01*
X171487728Y-104497538D01*
X171558290Y-104465186D01*
X171638353Y-104430672D01*
X171707629Y-104402635D01*
X171759045Y-104382432D01*
X171798119Y-104366385D01*
X171818541Y-104357112D01*
X171820114Y-104355959D01*
X171822721Y-104338904D01*
X171829863Y-104298702D01*
X171840523Y-104240698D01*
X171853685Y-104170237D01*
X171868333Y-104092665D01*
X171883449Y-104013328D01*
X171898018Y-103937569D01*
X171911022Y-103870736D01*
X171921445Y-103818172D01*
X171928270Y-103785224D01*
X171930199Y-103777143D01*
X171934962Y-103768795D01*
X171945718Y-103762494D01*
X171966098Y-103757955D01*
X171999734Y-103754896D01*
X172050255Y-103753033D01*
X172121292Y-103752082D01*
X172216476Y-103751760D01*
X172255492Y-103751743D01*
X172572799Y-103751743D01*
X172587839Y-103827943D01*
G37*
D13*
%TO.C,U2*%
X163970000Y-121085000D02*
X163970000Y-120435000D01*
X164620000Y-113865000D02*
X163970000Y-113865000D01*
X164620000Y-121085000D02*
X163970000Y-121085000D01*
X170540000Y-113865000D02*
X171190000Y-113865000D01*
X170540000Y-121085000D02*
X171190000Y-121085000D01*
X171190000Y-113865000D02*
X171190000Y-114515000D01*
X171190000Y-121085000D02*
X171190000Y-120435000D01*
%TO.C,R2*%
X172187324Y-129935500D02*
X171677876Y-129935500D01*
X172187324Y-128890500D02*
X171677876Y-128890500D01*
%TO.C,R6*%
X165204224Y-100852500D02*
X164694776Y-100852500D01*
X165204224Y-99807500D02*
X164694776Y-99807500D01*
%TO.C,C16*%
X166495000Y-135401267D02*
X166495000Y-135108733D01*
X167515000Y-135401267D02*
X167515000Y-135108733D01*
%TO.C,D1*%
X161835200Y-99767800D02*
X160135200Y-99767800D01*
X161835200Y-99767800D02*
X161835200Y-103027800D01*
X160135200Y-99767800D02*
X160135200Y-103027800D01*
%TO.C,C17*%
X174881000Y-135108733D02*
X174881000Y-135401267D01*
X173861000Y-135108733D02*
X173861000Y-135401267D01*
%TD*%
M02*
